<?xml version="1.0" encoding="utf-8"?>
<!-- Generator: Adobe Illustrator 24.1.3, SVG Export Plug-In . SVG Version: 6.00 Build 0)  -->
<svg version="1.1" id="Layer_1" xmlns="http://www.w3.org/2000/svg" xmlns:xlink="http://www.w3.org/1999/xlink" x="0px" y="0px"
	 viewBox="0 0 78.3 44.8" style="enable-background:new 0 0 78.3 44.8;" xml:space="preserve">
<style type="text/css">
	.st0{clip-path:url(#SVGID_2_);}
	.st1{fill:#FFFFFF;}
	.st2{fill:#F20000;}
	.st3{fill:#FFFDFF;}
	.st4{fill:#003289;}
	.st5{fill:none;stroke:#000000;stroke-width:1.5;stroke-miterlimit:10;}
	.st6{fill:none;stroke:#FFFFFF;stroke-width:1.5;stroke-miterlimit:10;}
</style>
<g>
	<g>
		<g>
			<g>
				<g>
					<g>
						<g>
							<g>
								<g>
									<g>
										<g>
											<g>
												<g>
													<g>
														<g>
															<defs>
																
																	<ellipse id="SVGID_1_" transform="matrix(0.9995 -3.144003e-02 3.144003e-02 0.9995 584.0903 -148.1324)" cx="-4418.4" cy="-18647.4" rx="150.7" ry="150.7"/>
															</defs>
															<clipPath id="SVGID_2_">
																<use xlink:href="#SVGID_1_"  style="overflow:visible;"/>
															</clipPath>
															<g class="st0">
																<g id="g1763">
																	<path id="path4640" class="st1" d="M-399.7-97.1h2.6l19.3-14.3v-1.8h-3.5L-400.7-99L-399.7-97.1z"/>
																	<path id="path6505" class="st1" d="M-378.7-97.1h-2.6l-19.3-14.3v-1.8h3.5l19.4,14.2L-378.7-97.1z"/>
																	<path id="path7127" class="st2" d="M-400.2-97.1h1.6l7-5h-1.6L-400.2-97.1z"/>
																	<path id="path8371" class="st2" d="M-386.9-108.2h1.6l7-5h-1.6L-386.9-108.2z"/>
																	<path id="path8994" class="st2" d="M-377.8-96.8v-1.1l-5.8-4.2h-1.8L-377.8-96.8z"/>
																	<path id="path9616" class="st2" d="M-400.6-113.5v1.1l5.8,4.2h1.8L-400.6-113.5z"/>
																	<rect id="rect1530" x="-391.7" y="-115.2" class="st1" width="5" height="19"/>
																	<rect id="rect2152" x="-402.7" y="-108.2" class="st1" width="25.9" height="5.8"/>
																	<rect id="rect3395" x="-402.7" y="-107.2" class="st2" width="25.9" height="3.8"/>
																	<rect id="rect4017" x="-390.7" y="-115.2" class="st2" width="3" height="19"/>
																</g>
															</g>
														</g>
													</g>
												</g>
											</g>
										</g>
									</g>
								</g>
							</g>
						</g>
					</g>
				</g>
			</g>
		</g>
	</g>
</g>
<g>
	<g>
		<path class="st3" d="M13.6,24.6c0.4,1.5,1.2,2.9,2.3,4c0.2,0.2,0.4,0.4,0.6,0.6v-4.6H13.6z"/>
		<path class="st3" d="M16.6,15.3c-0.2,0.2-0.4,0.4-0.6,0.6c-1.2,1.2-1.9,2.6-2.3,4h3v-4.7C16.7,15.3,16.6,15.3,16.6,15.3z"/>
		<path class="st4" d="M31.2,19.8h-9.8v-6.6c-1.7,0.2-3.4,0.9-4.8,2v4.6h-3c-0.4,1.6-0.4,3.2,0,4.8h3v4.6c1.4,1.2,3.1,1.8,4.8,2
			v-6.6h-4.8v-4.8h4.8v4.8h9.8C31.6,23.1,31.6,21.4,31.2,19.8z"/>
		<rect x="16.6" y="19.8" class="st4" width="4.8" height="4.8"/>
		<path class="st3" d="M31.2,19.8c-0.4-1.5-1.2-2.9-2.3-4c-1.8-1.8-4.1-2.7-6.4-2.7c-0.3,0-0.7,0-1,0.1v6.6H31.2L31.2,19.8z"/>
		<path class="st3" d="M21.4,31.3c2.6,0.3,5.4-0.6,7.4-2.6c1.2-1.2,1.9-2.6,2.3-4h-9.7L21.4,31.3L21.4,31.3z"/>
	</g>
	<circle class="st5" cx="22.4" cy="22.3" r="10.6"/>
</g>
<g>
	<g>
		<path class="st3" d="M46.5,24.6c0.4,1.5,1.2,2.9,2.3,4c0.2,0.2,0.4,0.4,0.6,0.6v-4.6H46.5z"/>
		<path class="st3" d="M49.5,15.3c-0.2,0.2-0.4,0.4-0.6,0.6c-1.2,1.2-1.9,2.6-2.3,4h3v-4.7C49.6,15.3,49.5,15.3,49.5,15.3z"/>
		<path class="st4" d="M64.1,19.8h-9.8v-6.6c-1.7,0.2-3.4,0.9-4.8,2v4.6h-3c-0.4,1.6-0.4,3.2,0,4.8h3v4.6c1.4,1.2,3.1,1.8,4.8,2
			v-6.6h-4.8v-4.8h4.8v4.8h9.8C64.5,23.1,64.5,21.4,64.1,19.8z"/>
		<rect x="49.5" y="19.8" class="st4" width="4.8" height="4.8"/>
		<path class="st3" d="M64.1,19.8c-0.4-1.5-1.2-2.9-2.3-4c-1.8-1.8-4.1-2.7-6.4-2.7c-0.3,0-0.7,0-1,0.1v6.6H64.1L64.1,19.8z"/>
		<path class="st3" d="M54.3,31.3c2.6,0.3,5.4-0.6,7.4-2.6c1.2-1.2,1.9-2.6,2.3-4h-9.7V31.3L54.3,31.3z"/>
	</g>
	<circle class="st6" cx="55.3" cy="22.3" r="10.6"/>
</g>
</svg>
