<?xml version="1.0" encoding="utf-8"?>
<!-- Generator: Adobe Illustrator 24.1.3, SVG Export Plug-In . SVG Version: 6.00 Build 0)  -->
<svg version="1.1" id="Layer_1" xmlns="http://www.w3.org/2000/svg" xmlns:xlink="http://www.w3.org/1999/xlink" x="0px" y="0px"
	 viewBox="0 0 78.3 44.8" style="enable-background:new 0 0 78.3 44.8;" xml:space="preserve">
<style type="text/css">
	.st0{clip-path:url(#SVGID_2_);}
	.st1{fill:#FFFFFF;}
	.st2{fill:#F20000;}
	.st3{fill:#FFFEEC;}
	.st4{fill:#00519C;}
	.st5{fill:#D70015;}
	.st6{fill:none;stroke:#000000;stroke-width:1.5;stroke-miterlimit:10;}
	.st7{fill:none;stroke:#FFFFFF;stroke-width:1.5;stroke-miterlimit:10;}
</style>
<g>
	<g>
		<g>
			<g>
				<g>
					<g>
						<g>
							<g>
								<g>
									<g>
										<g>
											<g>
												<g>
													<g>
														<defs>
															
																<ellipse id="SVGID_1_" transform="matrix(0.9995 -3.143985e-02 3.143985e-02 0.9995 584.0901 -148.1315)" cx="-4418.4" cy="-18647.5" rx="150.7" ry="150.7"/>
														</defs>
														<clipPath id="SVGID_2_">
															<use xlink:href="#SVGID_1_"  style="overflow:visible;"/>
														</clipPath>
														<g class="st0">
															<g id="g1763">
																<path id="path4640" class="st1" d="M-399.7-97.1h2.6l19.3-14.3v-1.8h-3.5L-400.7-99L-399.7-97.1z"/>
																<path id="path6505" class="st1" d="M-378.7-97.1h-2.6l-19.3-14.3v-1.8h3.5l19.4,14.2L-378.7-97.1z"/>
																<path id="path7127" class="st2" d="M-400.2-97.1h1.6l7-5h-1.6L-400.2-97.1z"/>
																<path id="path8371" class="st2" d="M-386.9-108.2h1.6l7-5h-1.6L-386.9-108.2z"/>
																<path id="path8994" class="st2" d="M-377.8-96.8v-1.1l-5.8-4.2h-1.8L-377.8-96.8z"/>
																<path id="path9616" class="st2" d="M-400.6-113.5v1.1l5.8,4.2h1.8L-400.6-113.5z"/>
																<rect id="rect1530" x="-391.7" y="-115.2" class="st1" width="5" height="19"/>
																<rect id="rect2152" x="-402.7" y="-108.2" class="st1" width="25.9" height="5.8"/>
																<rect id="rect3395" x="-402.7" y="-107.2" class="st2" width="25.9" height="3.8"/>
																<rect id="rect4017" x="-390.7" y="-115.2" class="st2" width="3" height="19"/>
															</g>
														</g>
													</g>
												</g>
											</g>
										</g>
									</g>
								</g>
							</g>
						</g>
					</g>
				</g>
			</g>
		</g>
	</g>
</g>
<g>
	<g>
		<g>
			<path class="st3" d="M17.8,14.4c-0.4,0.2-0.7,0.4-1.1,0.7v5.2h-3.3c-0.1,0.3-0.1,0.7-0.2,1h4.5L17.8,14.4L17.8,14.4z"/>
			<path class="st3" d="M19.7,31.1c0.3,0.1,0.7,0.2,1.1,0.2v-6.9h10.4c0.1-0.3,0.1-0.7,0.2-1H19.8L19.7,31.1L19.7,31.1z"/>
			<path class="st3" d="M13.3,23.4c0,0.3,0.1,0.7,0.2,1h3.3v5.2c0.3,0.3,0.7,0.5,1.1,0.7v-6.9H13.3L13.3,23.4z"/>
			<path class="st3" d="M20.8,13.4c-0.4,0.1-0.7,0.1-1.1,0.2v7.7h11.6c0-0.3-0.1-0.7-0.2-1H20.7L20.8,13.4L20.8,13.4z"/>
			<path class="st4" d="M16.7,15.2c-0.3,0.2-0.6,0.5-0.9,0.8c-1.3,1.3-2.1,2.8-2.4,4.4h3.3V15.2L16.7,15.2z"/>
			<path class="st4" d="M13.4,24.4c0.4,1.6,1.2,3.1,2.4,4.4c0.3,0.3,0.6,0.5,0.9,0.8v-5.2L13.4,24.4L13.4,24.4z"/>
			<path class="st4" d="M31.2,24.4H20.8v6.9c0.5,0.1,1,0.1,1.5,0.1c2.3,0,4.7-0.9,6.4-2.7C30,27.5,30.8,26,31.2,24.4z"/>
			<path class="st4" d="M20.8,20.3h10.4c-0.4-1.6-1.2-3.1-2.4-4.4c-1.8-1.8-4.1-2.7-6.4-2.7c-0.5,0-1,0-1.5,0.1L20.8,20.3L20.8,20.3
				z"/>
			<path class="st5" d="M19.7,13.6c-0.7,0.2-1.3,0.5-1.9,0.8v6.9h-4.5c-0.1,0.7-0.1,1.4,0,2.1h4.5v6.9c0.6,0.4,1.3,0.6,1.9,0.8v-7.7
				h11.6c0.1-0.7,0.1-1.4,0-2.1H19.7V13.6L19.7,13.6z"/>
		</g>
	</g>
	<circle class="st6" cx="22.3" cy="22.3" r="10.6"/>
</g>
<g>
	<g>
		<g>
			<path class="st3" d="M50.8,14.4c-0.4,0.2-0.7,0.4-1.1,0.7v5.2h-3.3c-0.1,0.3-0.1,0.7-0.2,1h4.5L50.8,14.4L50.8,14.4z"/>
			<path class="st3" d="M52.7,31.2c0.3,0.1,0.7,0.2,1.1,0.2v-6.9h10.4c0.1-0.3,0.1-0.7,0.2-1H52.8L52.7,31.2L52.7,31.2z"/>
			<path class="st3" d="M46.3,23.4c0,0.3,0.1,0.7,0.2,1h3.3v5.2c0.3,0.3,0.7,0.5,1.1,0.7v-6.9H46.3L46.3,23.4z"/>
			<path class="st3" d="M53.8,13.4c-0.4,0.1-0.7,0.1-1.1,0.2v7.7h11.6c0-0.3-0.1-0.7-0.2-1H53.7L53.8,13.4L53.8,13.4z"/>
			<path class="st4" d="M49.7,15.2c-0.3,0.2-0.6,0.5-0.9,0.8c-1.3,1.3-2.1,2.8-2.4,4.4h3.3L49.7,15.2L49.7,15.2z"/>
			<path class="st4" d="M46.4,24.4c0.4,1.6,1.2,3.1,2.4,4.4c0.3,0.3,0.6,0.5,0.9,0.8v-5.2L46.4,24.4L46.4,24.4z"/>
			<path class="st4" d="M64.2,24.4H53.8v6.9c0.5,0.1,1,0.1,1.5,0.1c2.3,0,4.7-0.9,6.4-2.7C63,27.5,63.8,26,64.2,24.4z"/>
			<path class="st4" d="M53.8,20.3h10.4c-0.4-1.6-1.2-3.1-2.4-4.4c-1.8-1.8-4.1-2.7-6.4-2.7c-0.5,0-1,0-1.5,0.1L53.8,20.3L53.8,20.3
				z"/>
			<path class="st5" d="M52.7,13.7c-0.7,0.2-1.3,0.5-1.9,0.8v6.9h-4.5c-0.1,0.7-0.1,1.4,0,2.1h4.5v6.9c0.6,0.4,1.3,0.6,1.9,0.8v-7.7
				h11.6c0.1-0.7,0.1-1.4,0-2.1H52.7V13.7L52.7,13.7z"/>
		</g>
	</g>
	<circle class="st7" cx="55.3" cy="22.3" r="10.6"/>
</g>
</svg>
