<?xml version="1.0" encoding="utf-8"?>
<!-- Generator: Adobe Illustrator 24.1.3, SVG Export Plug-In . SVG Version: 6.00 Build 0)  -->
<svg version="1.1" id="Layer_1" xmlns="http://www.w3.org/2000/svg" xmlns:xlink="http://www.w3.org/1999/xlink" x="0px" y="0px"
	 viewBox="0 0 78.3 44.8" style="enable-background:new 0 0 78.3 44.8;" xml:space="preserve">
<style type="text/css">
	.st0{opacity:0.75;fill:url(#SVGID_1_);enable-background:new    ;}
	.st1{fill:#F02D3C;}
	.st2{fill:#FADC46;}
	.st3{fill:none;stroke:#FFFFFF;stroke-width:1.5;stroke-miterlimit:9.9997;}
	.st4{opacity:0.75;fill:url(#SVGID_2_);enable-background:new    ;}
	.st5{fill:none;stroke:#000000;stroke-width:1.5;stroke-miterlimit:9.9997;}
	.st6{clip-path:url(#SVGID_4_);}
	.st7{fill:#FFFFFF;}
	.st8{fill:#F20000;}
</style>
<g>
	<g>
		<g>
			
				<radialGradient id="SVGID_1_" cx="-1035.489" cy="-1130.825" r="0" gradientTransform="matrix(0.7278 0 0 -0.7278 808.8901 -809.7144)" gradientUnits="userSpaceOnUse">
				<stop  offset="0" style="stop-color:#FFFFFF"/>
				<stop  offset="1" style="stop-color:#231F20"/>
			</radialGradient>
			<path class="st0" d="M55.3,13.3L55.3,13.3L55.3,13.3z"/>
			<path class="st1" d="M61.8,28.8c3.5-3.5,3.5-9.3,0-12.9c-1-1-2.1-1.7-3.3-2.1v17.1C59.6,30.5,60.8,29.8,61.8,28.8z"/>
			<path class="st2" d="M52.2,30.9c2,0.7,4.2,0.7,6.2,0V13.8c-1-0.4-2-0.5-3.1-0.5l0,0c-1,0-2.1,0.2-3.1,0.5L52.2,30.9L52.2,30.9z"
				/>
			<path d="M48.9,15.9c-3.5,3.5-3.5,9.3,0,12.9c1,1,2.1,1.7,3.3,2.1V13.8C51,14.2,49.9,14.9,48.9,15.9z"/>
		</g>
	</g>
	<ellipse class="st3" cx="55.3" cy="22.3" rx="10.6" ry="10.6"/>
</g>
<g>
	<g>
		<g>
			
				<radialGradient id="SVGID_2_" cx="-1080.7778" cy="-1130.825" r="0" gradientTransform="matrix(0.7278 0 0 -0.7278 808.8901 -809.7144)" gradientUnits="userSpaceOnUse">
				<stop  offset="0" style="stop-color:#FFFFFF"/>
				<stop  offset="1" style="stop-color:#231F20"/>
			</radialGradient>
			<path class="st4" d="M22.3,13.3L22.3,13.3L22.3,13.3z"/>
			<path class="st1" d="M28.8,28.8c3.5-3.5,3.5-9.3,0-12.9c-1-1-2.1-1.7-3.3-2.1v17.1C26.6,30.5,27.8,29.8,28.8,28.8z"/>
			<path class="st2" d="M19.2,30.9c2,0.7,4.2,0.7,6.2,0V13.8c-1-0.4-2-0.5-3.1-0.5l0,0c-1,0-2.1,0.2-3.1,0.5V30.9L19.2,30.9z"/>
			<path d="M15.9,15.9c-3.5,3.5-3.5,9.3,0,12.9c1,1,2.1,1.7,3.3,2.1V13.8C18,14.2,16.9,14.9,15.9,15.9z"/>
		</g>
	</g>
	<ellipse class="st5" cx="22.3" cy="22.3" rx="10.6" ry="10.6"/>
</g>
<g>
	<g>
		<g>
			<g>
				<g>
					<g>
						<g>
							<g>
								<g>
									<g>
										<g>
											<g>
												<g>
													<defs>
														
															<ellipse id="SVGID_3_" transform="matrix(0.9995 -3.143967e-02 3.143967e-02 0.9995 584.0899 -148.1307)" cx="-4418.4" cy="-18647.6" rx="150.7" ry="150.7"/>
													</defs>
													<clipPath id="SVGID_4_">
														<use xlink:href="#SVGID_3_"  style="overflow:visible;"/>
													</clipPath>
													<g class="st6">
														<g id="g1763">
															<path id="path4640" class="st7" d="M-399.7-97.1h2.6l19.3-14.3v-1.8h-3.5L-400.7-99L-399.7-97.1z"/>
															<path id="path6505" class="st7" d="M-378.7-97.1h-2.6l-19.3-14.3v-1.8h3.5l19.4,14.2L-378.7-97.1z"/>
															<path id="path7127" class="st8" d="M-400.2-97.1h1.6l7-5h-1.6L-400.2-97.1z"/>
															<path id="path8371" class="st8" d="M-386.9-108.2h1.6l7-5h-1.6L-386.9-108.2z"/>
															<path id="path8994" class="st8" d="M-377.8-96.8v-1.1l-5.8-4.2h-1.8L-377.8-96.8z"/>
															<path id="path9616" class="st8" d="M-400.6-113.5v1.1l5.8,4.2h1.8L-400.6-113.5z"/>
															<rect id="rect1530" x="-391.7" y="-115.2" class="st7" width="5" height="19"/>
															<rect id="rect2152" x="-402.7" y="-108.2" class="st7" width="25.9" height="5.8"/>
															<rect id="rect3395" x="-402.7" y="-107.2" class="st8" width="25.9" height="3.8"/>
															<rect id="rect4017" x="-390.7" y="-115.2" class="st8" width="3" height="19"/>
														</g>
													</g>
												</g>
											</g>
										</g>
									</g>
								</g>
							</g>
						</g>
					</g>
				</g>
			</g>
		</g>
	</g>
</g>
</svg>
