<?xml version="1.0" encoding="utf-8"?>
<!-- Generator: Adobe Illustrator 24.1.3, SVG Export Plug-In . SVG Version: 6.00 Build 0)  -->
<svg version="1.1" id="Layer_1" xmlns="http://www.w3.org/2000/svg" xmlns:xlink="http://www.w3.org/1999/xlink" x="0px" y="0px"
	 viewBox="0 0 78.3 44.8" style="enable-background:new 0 0 78.3 44.8;" xml:space="preserve">
<style type="text/css">
	.st0{clip-path:url(#SVGID_2_);}
	.st1{fill:#FFFFFF;}
	.st2{fill:#F20000;}
	.st3{fill:none;stroke:#FFFFFF;stroke-width:1.5;stroke-miterlimit:10;}
	.st4{fill:#CB2205;}
	.st5{fill:#FFFCEC;}
	.st6{fill:none;stroke:#000000;stroke-width:1.5;stroke-miterlimit:10;}
</style>
<g>
	<g>
		<g>
			<g>
				<g>
					<g>
						<g>
							<g>
								<g>
									<g>
										<g>
											<g>
												<g>
													<defs>
														
															<ellipse id="SVGID_1_" transform="matrix(0.9995 -3.143967e-02 3.143967e-02 0.9995 584.0899 -148.1307)" cx="-4418.4" cy="-18647.6" rx="150.7" ry="150.7"/>
													</defs>
													<clipPath id="SVGID_2_">
														<use xlink:href="#SVGID_1_"  style="overflow:visible;"/>
													</clipPath>
													<g class="st0">
														<g id="g1763">
															<path id="path4640" class="st1" d="M-399.7-97.1h2.6l19.3-14.3v-1.8h-3.5L-400.7-99L-399.7-97.1z"/>
															<path id="path6505" class="st1" d="M-378.7-97.1h-2.6l-19.3-14.3v-1.8h3.5l19.4,14.2L-378.7-97.1z"/>
															<path id="path7127" class="st2" d="M-400.2-97.1h1.6l7-5h-1.6L-400.2-97.1z"/>
															<path id="path8371" class="st2" d="M-386.9-108.2h1.6l7-5h-1.6L-386.9-108.2z"/>
															<path id="path8994" class="st2" d="M-377.8-96.8v-1.1l-5.8-4.2h-1.8L-377.8-96.8z"/>
															<path id="path9616" class="st2" d="M-400.6-113.5v1.1l5.8,4.2h1.8L-400.6-113.5z"/>
															<rect id="rect1530" x="-391.7" y="-115.2" class="st1" width="5" height="19"/>
															<rect id="rect2152" x="-402.7" y="-108.2" class="st1" width="25.9" height="5.8"/>
															<rect id="rect3395" x="-402.7" y="-107.2" class="st2" width="25.9" height="3.8"/>
															<rect id="rect4017" x="-390.7" y="-115.2" class="st2" width="3" height="19"/>
														</g>
													</g>
												</g>
											</g>
										</g>
									</g>
								</g>
							</g>
						</g>
					</g>
				</g>
			</g>
		</g>
	</g>
</g>
<g>
	<circle class="st3" cx="55.3" cy="22.3" r="10.6"/>
	<g>
		<g>
			<path class="st4" d="M61.7,15.9c-1.8-1.8-4.1-2.7-6.4-2.7s-4.7,0.9-6.4,2.7c-3.5,3.5-3.5,9.3,0,12.9c1.8,1.8,4.1,2.7,6.4,2.7
				s4.7-0.9,6.4-2.7C65.2,25.2,65.2,19.4,61.7,15.9z M60.8,24H57v3.8h-3.4V24h-3.8v-3.4h3.8v-3.8H57v3.8h3.8L60.8,24L60.8,24z"/>
			<polygon class="st5" points="56.9,16.8 53.6,16.8 53.6,20.6 49.7,20.6 49.7,24 53.6,24 53.6,27.8 56.9,27.8 56.9,24 60.8,24 
				60.8,20.6 56.9,20.6 			"/>
		</g>
	</g>
</g>
<g>
	<g>
		<g>
			<path class="st4" d="M28.7,15.9c-1.8-1.8-4.1-2.7-6.4-2.7s-4.7,0.9-6.4,2.7c-3.5,3.5-3.5,9.3,0,12.9c1.8,1.8,4.1,2.7,6.4,2.7
				s4.7-0.9,6.4-2.7C32.2,25.2,32.2,19.4,28.7,15.9z M27.8,24H24v3.8h-3.4V24h-3.8v-3.4h3.8v-3.8H24v3.8h3.8V24z"/>
			<polygon class="st5" points="23.9,16.8 20.6,16.8 20.6,20.6 16.7,20.6 16.7,24 20.6,24 20.6,27.8 23.9,27.8 23.9,24 27.8,24 
				27.8,20.6 23.9,20.6 			"/>
		</g>
	</g>
	<circle class="st6" cx="22.3" cy="22.3" r="10.6"/>
</g>
</svg>
