<?xml version="1.0" encoding="utf-8"?>
<!-- Generator: Adobe Illustrator 24.1.3, SVG Export Plug-In . SVG Version: 6.00 Build 0)  -->
<svg version="1.1" id="Layer_1" xmlns="http://www.w3.org/2000/svg" xmlns:xlink="http://www.w3.org/1999/xlink" x="0px" y="0px"
	 viewBox="0 0 78.3 44.8" style="enable-background:new 0 0 78.3 44.8;" xml:space="preserve">
<style type="text/css">
	.st0{clip-path:url(#SVGID_2_);}
	.st1{fill:#FFFFFF;}
	.st2{fill:#F20000;}
	.st3{fill:#FAFAFA;}
	.st4{fill:#0F55B4;}
	.st5{fill:none;stroke:#FFFFFF;stroke-width:1.5;stroke-miterlimit:10;}
	.st6{fill:none;stroke:#000000;stroke-width:1.5;stroke-miterlimit:10;}
</style>
<g>
	<g>
		<g>
			<g>
				<g>
					<g>
						<g>
							<g>
								<g>
									<g>
										<g>
											<g>
												<g>
													<g>
														<g>
															<defs>
																
																	<ellipse id="SVGID_1_" transform="matrix(0.9995 -3.144003e-02 3.144003e-02 0.9995 584.0903 -148.1324)" cx="-4418.4" cy="-18647.4" rx="150.7" ry="150.7"/>
															</defs>
															<clipPath id="SVGID_2_">
																<use xlink:href="#SVGID_1_"  style="overflow:visible;"/>
															</clipPath>
															<g class="st0">
																<g id="g1763">
																	<path id="path4640" class="st1" d="M-399.7-97.1h2.6l19.3-14.3v-1.8h-3.5L-400.7-99L-399.7-97.1z"/>
																	<path id="path6505" class="st1" d="M-378.7-97.1h-2.6l-19.3-14.3v-1.8h3.5l19.4,14.2L-378.7-97.1z"/>
																	<path id="path7127" class="st2" d="M-400.2-97.1h1.6l7-5h-1.6L-400.2-97.1z"/>
																	<path id="path8371" class="st2" d="M-386.9-108.2h1.6l7-5h-1.6L-386.9-108.2z"/>
																	<path id="path8994" class="st2" d="M-377.8-96.8v-1.1l-5.8-4.2h-1.8L-377.8-96.8z"/>
																	<path id="path9616" class="st2" d="M-400.6-113.5v1.1l5.8,4.2h1.8L-400.6-113.5z"/>
																	<rect id="rect1530" x="-391.7" y="-115.2" class="st1" width="5" height="19"/>
																	<rect id="rect2152" x="-402.7" y="-108.2" class="st1" width="25.9" height="5.8"/>
																	<rect id="rect3395" x="-402.7" y="-107.2" class="st2" width="25.9" height="3.8"/>
																	<rect id="rect4017" x="-390.7" y="-115.2" class="st2" width="3" height="19"/>
																</g>
															</g>
														</g>
													</g>
												</g>
											</g>
										</g>
									</g>
								</g>
							</g>
						</g>
					</g>
				</g>
			</g>
		</g>
	</g>
</g>
<g>
	<g>
		<g>
			<path class="st3" d="M48.9,28.8c0.2,0.2,0.5,0.4,0.7,0.6h11.5c0.2-0.2,0.5-0.4,0.7-0.6c0.4-0.4,0.8-0.9,1.1-1.4H47.8
				C48,27.8,48.4,28.3,48.9,28.8z"/>
			<path class="st4" d="M49.6,29.4c1.7,1.3,3.7,2,5.7,2s4.1-0.7,5.7-2H49.6z"/>
			<path class="st3" d="M51.4,23.3L51.4,23.3v-2v-2h4v-2h-4v-2v-1.2c-0.7,0.3-1.4,0.8-2,1.3v1.9h-1.7c-0.4,0.6-0.8,1.3-1,2h2.7v2v2
				l0,0h-3.1c0.1,0.7,0.2,1.4,0.5,2H64c0.2-0.7,0.4-1.3,0.5-2h-8.9H51.4L51.4,23.3z"/>
			<path class="st4" d="M47.7,27.4h15.1c0.4-0.6,0.8-1.3,1-2H46.6C47,26,47.3,26.8,47.7,27.4z"/>
			<path class="st3" d="M55.4,21.3h8.9c-0.1-0.7-0.2-1.4-0.5-2h-8.4C55.4,19.3,55.4,21.3,55.4,21.3z"/>
			<path class="st4" d="M55.4,19.3h8.4c-0.2-0.7-0.6-1.4-1-2h-7.4C55.4,17.3,55.4,19.3,55.4,19.3z"/>
			<path class="st3" d="M55.4,17.2h7.4c-0.3-0.5-0.7-1-1.1-1.4c-0.2-0.2-0.5-0.4-0.7-0.6h-5.6L55.4,17.2L55.4,17.2z"/>
			<path class="st4" d="M51.4,15.2v2h4v-2H61c-1.7-1.3-3.7-2-5.7-2c-1.3,0-2.7,0.3-3.9,0.9L51.4,15.2L51.4,15.2z"/>
			<path class="st4" d="M49.4,15.4c-0.2,0.2-0.4,0.3-0.5,0.5c-0.4,0.4-0.8,0.9-1.1,1.4h1.7L49.4,15.4L49.4,15.4z"/>
			<path class="st4" d="M55.4,19.3h-4v2v2l0,0h4h8.9c0.1-0.7,0.1-1.4,0-2h-8.9C55.4,21.3,55.4,19.3,55.4,19.3z"/>
			<path class="st4" d="M49.4,23.3v-2v-2h-2.7c-0.5,1.3-0.6,2.7-0.5,4H49.4L49.4,23.3z"/>
		</g>
	</g>
	<circle class="st5" cx="55.3" cy="22.3" r="10.6"/>
</g>
<g>
	<g>
		<g>
			<path class="st3" d="M16,28.7c0.2,0.2,0.5,0.4,0.7,0.6h11.5c0.2-0.2,0.5-0.4,0.7-0.6c0.4-0.4,0.8-0.9,1.1-1.4H14.9
				C15.2,27.8,15.5,28.3,16,28.7z"/>
			<path class="st4" d="M16.7,29.4c1.7,1.3,3.7,2,5.7,2s4.1-0.7,5.7-2H16.7z"/>
			<path class="st3" d="M18.5,23.3L18.5,23.3v-2v-2h4v-2h-4v-2v-1.2c-0.7,0.3-1.4,0.8-2,1.3v1.9h-1.7c-0.4,0.6-0.8,1.3-1,2h2.7v2v2
				l0,0h-3.1c0.1,0.7,0.2,1.4,0.5,2h17.2c0.2-0.7,0.4-1.3,0.5-2h-8.9H18.5L18.5,23.3z"/>
			<path class="st4" d="M14.8,27.4h15.1c0.4-0.6,0.8-1.3,1-2H13.7C14.1,26,14.4,26.7,14.8,27.4z"/>
			<path class="st3" d="M22.5,21.3h8.9c-0.1-0.7-0.2-1.4-0.5-2h-8.4V21.3z"/>
			<path class="st4" d="M22.5,19.3h8.4c-0.2-0.7-0.6-1.4-1-2h-7.4V19.3z"/>
			<path class="st3" d="M22.5,17.2h7.4c-0.3-0.5-0.7-1-1.1-1.4c-0.2-0.2-0.5-0.4-0.7-0.6h-5.6L22.5,17.2L22.5,17.2z"/>
			<path class="st4" d="M18.5,15.2v2h4v-2h5.6c-1.7-1.3-3.7-2-5.7-2c-1.3,0-2.7,0.3-3.9,0.9L18.5,15.2L18.5,15.2z"/>
			<path class="st4" d="M16.5,15.4c-0.2,0.2-0.4,0.3-0.5,0.5c-0.4,0.4-0.8,0.9-1.1,1.4h1.7v-1.9H16.5z"/>
			<path class="st4" d="M22.5,19.3h-4v2v2l0,0h4h8.9c0.1-0.7,0.1-1.4,0-2h-8.9V19.3z"/>
			<path class="st4" d="M16.5,23.3v-2v-2h-2.7c-0.5,1.3-0.6,2.7-0.5,4H16.5L16.5,23.3z"/>
		</g>
	</g>
	<circle class="st6" cx="22.4" cy="22.3" r="10.6"/>
</g>
</svg>
