<?xml version="1.0" encoding="utf-8"?>
<!-- Generator: Adobe Illustrator 24.1.3, SVG Export Plug-In . SVG Version: 6.00 Build 0)  -->
<svg version="1.1" id="Layer_1" xmlns="http://www.w3.org/2000/svg" xmlns:xlink="http://www.w3.org/1999/xlink" x="0px" y="0px"
	 viewBox="0 0 78.3 44.8" style="enable-background:new 0 0 78.3 44.8;" xml:space="preserve">
<style type="text/css">
	.st0{clip-path:url(#SVGID_2_);}
	.st1{fill:#FFFFFF;}
	.st2{fill:#F20000;}
	.st3{fill:#FA2B2D;}
	.st4{fill:#00148D;}
	.st5{fill:none;stroke:#FFFFFF;stroke-width:1.5;stroke-miterlimit:10;}
	.st6{fill:none;stroke:#000000;stroke-width:1.5;stroke-miterlimit:10;}
</style>
<g>
	<g>
		<g>
			<g>
				<g>
					<g>
						<g>
							<g>
								<g>
									<g>
										<g>
											<g>
												<g>
													<defs>
														
															<ellipse id="SVGID_1_" transform="matrix(0.9995 -3.143967e-02 3.143967e-02 0.9995 584.0899 -148.1307)" cx="-4418.4" cy="-18647.6" rx="150.7" ry="150.7"/>
													</defs>
													<clipPath id="SVGID_2_">
														<use xlink:href="#SVGID_1_"  style="overflow:visible;"/>
													</clipPath>
													<g class="st0">
														<g id="g1763">
															<path id="path4640" class="st1" d="M-399.7-97.1h2.6l19.3-14.3v-1.8h-3.5L-400.7-99L-399.7-97.1z"/>
															<path id="path6505" class="st1" d="M-378.7-97.1h-2.6l-19.3-14.3v-1.8h3.5l19.4,14.2L-378.7-97.1z"/>
															<path id="path7127" class="st2" d="M-400.2-97.1h1.6l7-5h-1.6L-400.2-97.1z"/>
															<path id="path8371" class="st2" d="M-386.9-108.2h1.6l7-5h-1.6L-386.9-108.2z"/>
															<path id="path8994" class="st2" d="M-377.8-96.8v-1.1l-5.8-4.2h-1.8L-377.8-96.8z"/>
															<path id="path9616" class="st2" d="M-400.6-113.5v1.1l5.8,4.2h1.8L-400.6-113.5z"/>
															<rect id="rect1530" x="-391.7" y="-115.2" class="st1" width="5" height="19"/>
															<rect id="rect2152" x="-402.7" y="-108.2" class="st1" width="25.9" height="5.8"/>
															<rect id="rect3395" x="-402.7" y="-107.2" class="st2" width="25.9" height="3.8"/>
															<rect id="rect4017" x="-390.7" y="-115.2" class="st2" width="3" height="19"/>
														</g>
													</g>
												</g>
											</g>
										</g>
									</g>
								</g>
							</g>
						</g>
					</g>
				</g>
			</g>
		</g>
	</g>
</g>
<g>
	<g>
		<g>
			<path class="st3" d="M49.8,15.1c-0.3,0.2-0.6,0.5-0.9,0.8c-1.2,1.2-2,2.7-2.4,4.3h3.3V15.1L49.8,15.1z"/>
			<path class="st3" d="M46.4,24.5c0.4,1.6,1.2,3.1,2.4,4.3c0.3,0.3,0.6,0.6,0.9,0.8v-5.1L46.4,24.5L46.4,24.5z"/>
			<path class="st3" d="M54.6,20.2h9.5c-0.4-1.6-1.2-3.1-2.4-4.3c-1.8-1.8-4.1-2.7-6.4-2.7c-0.2,0-0.5,0-0.7,0V20.2L54.6,20.2z"/>
			<path class="st3" d="M64.1,24.5h-9.5v6.9c0.2,0,0.5,0,0.7,0c2.3,0,4.7-0.9,6.4-2.7C62.9,27.5,63.7,26.1,64.1,24.5z"/>
			<path class="st1" d="M54.6,13.3c-0.4,0-0.9,0.1-1.3,0.2v7.8h11c0-0.4-0.1-0.7-0.2-1.1h-9.5V13.3z"/>
			<path class="st1" d="M53.3,31.2c0.4,0.1,0.9,0.2,1.3,0.2v-6.9h9.5c0.1-0.4,0.1-0.7,0.2-1.1h-11V31.2z"/>
			<path class="st1" d="M46.2,23.4c0,0.4,0.1,0.7,0.2,1.1h3.3v5.1c0.4,0.3,0.9,0.6,1.3,0.8v-7H46.2L46.2,23.4z"/>
			<path class="st1" d="M51.1,14.2c-0.5,0.2-0.9,0.5-1.3,0.8v5.1h-3.3c-0.1,0.4-0.1,0.7-0.2,1.1h4.8L51.1,14.2L51.1,14.2z"/>
			<path class="st4" d="M53.3,21.2v-7.8c-0.8,0.2-1.5,0.4-2.2,0.8v7v0.1h-4.9c-0.1,0.7-0.1,1.4,0,2.1h4.9v0.1v7
				c0.7,0.4,1.4,0.6,2.2,0.8v-7.9l0,0h11c0.1-0.7,0.1-1.4,0-2.1L53.3,21.2L53.3,21.2z"/>
			<path class="st4" d="M53.3,21.3h11c0,0,0,0,0-0.1L53.3,21.3L53.3,21.3z"/>
			<path class="st4" d="M53.3,23.4h11c0,0,0,0,0-0.1L53.3,23.4L53.3,23.4z"/>
			<path class="st4" d="M51.1,23.4h-4.9c0,0,0,0,0,0.1L51.1,23.4L51.1,23.4z"/>
			<path class="st4" d="M51.1,21.2h-4.8c0,0,0,0,0,0.1L51.1,21.2L51.1,21.2z"/>
		</g>
	</g>
	<circle class="st5" cx="55.3" cy="22.3" r="10.6"/>
</g>
<g>
	<g>
		<g>
			<path class="st3" d="M16.8,15.1c-0.3,0.2-0.6,0.5-0.9,0.8c-1.2,1.2-2,2.7-2.4,4.3h3.3V15.1L16.8,15.1z"/>
			<path class="st3" d="M13.4,24.5c0.4,1.6,1.2,3.1,2.4,4.3c0.3,0.3,0.6,0.6,0.9,0.8v-5.1L13.4,24.5L13.4,24.5z"/>
			<path class="st3" d="M21.6,20.2h9.5c-0.4-1.6-1.2-3.1-2.4-4.3c-1.8-1.8-4.1-2.7-6.4-2.7c-0.2,0-0.5,0-0.7,0V20.2L21.6,20.2z"/>
			<path class="st3" d="M31.1,24.5h-9.5v6.9c0.2,0,0.5,0,0.7,0c2.3,0,4.7-0.9,6.4-2.7C29.9,27.5,30.7,26.1,31.1,24.5z"/>
			<path class="st1" d="M21.6,13.3c-0.4,0-0.9,0.1-1.3,0.2v7.8h11c0-0.4-0.1-0.7-0.2-1.1h-9.5V13.3z"/>
			<path class="st1" d="M20.3,31.2c0.4,0.1,0.9,0.2,1.3,0.2v-6.9h9.5c0.1-0.4,0.1-0.7,0.2-1.1h-11V31.2z"/>
			<path class="st1" d="M13.2,23.4c0,0.4,0.1,0.7,0.2,1.1h3.3v5.1c0.4,0.3,0.9,0.6,1.3,0.8v-7H13.2L13.2,23.4z"/>
			<path class="st1" d="M18.1,14.2c-0.5,0.2-0.9,0.5-1.3,0.8v5.1h-3.3c-0.1,0.4-0.1,0.7-0.2,1.1h4.8V14.2z"/>
			<path class="st4" d="M20.3,21.2v-7.8c-0.8,0.2-1.5,0.4-2.2,0.8v7v0.1h-4.9c-0.1,0.7-0.1,1.4,0,2.1h4.9v0.1v7
				c0.7,0.4,1.4,0.6,2.2,0.8v-7.9l0,0h11c0.1-0.7,0.1-1.4,0-2.1L20.3,21.2L20.3,21.2z"/>
			<path class="st4" d="M20.3,21.3h11c0,0,0,0,0-0.1L20.3,21.3L20.3,21.3z"/>
			<path class="st4" d="M20.3,23.4h11c0,0,0,0,0-0.1L20.3,23.4L20.3,23.4z"/>
			<path class="st4" d="M18.1,23.4h-4.9c0,0,0,0,0,0.1L18.1,23.4L18.1,23.4z"/>
			<path class="st4" d="M18.1,21.2h-4.8c0,0,0,0,0,0.1L18.1,21.2L18.1,21.2z"/>
		</g>
	</g>
	<g>
		<g>
			<path class="st3" d="M16.8,15.1c-0.3,0.2-0.6,0.5-0.9,0.8c-1.2,1.2-2,2.7-2.4,4.3h3.3V15.1L16.8,15.1z"/>
			<path class="st3" d="M13.4,24.5c0.4,1.6,1.2,3.1,2.4,4.3c0.3,0.3,0.6,0.6,0.9,0.8v-5.1L13.4,24.5L13.4,24.5z"/>
			<path class="st3" d="M21.6,20.2h9.5c-0.4-1.6-1.2-3.1-2.4-4.3c-1.8-1.8-4.1-2.7-6.4-2.7c-0.2,0-0.5,0-0.7,0V20.2L21.6,20.2z"/>
			<path class="st3" d="M31.1,24.5h-9.5v6.9c0.2,0,0.5,0,0.7,0c2.3,0,4.7-0.9,6.4-2.7C29.9,27.5,30.7,26.1,31.1,24.5z"/>
			<path class="st1" d="M21.6,13.3c-0.4,0-0.9,0.1-1.3,0.2v7.8h11c0-0.4-0.1-0.7-0.2-1.1h-9.5V13.3z"/>
			<path class="st1" d="M20.3,31.2c0.4,0.1,0.9,0.2,1.3,0.2v-6.9h9.5c0.1-0.4,0.1-0.7,0.2-1.1h-11V31.2z"/>
			<path class="st1" d="M13.2,23.4c0,0.4,0.1,0.7,0.2,1.1h3.3v5.1c0.4,0.3,0.9,0.6,1.3,0.8v-7H13.2L13.2,23.4z"/>
			<path class="st1" d="M18.1,14.2c-0.5,0.2-0.9,0.5-1.3,0.8v5.1h-3.3c-0.1,0.4-0.1,0.7-0.2,1.1h4.8V14.2z"/>
			<path class="st4" d="M20.3,21.2v-7.8c-0.8,0.2-1.5,0.4-2.2,0.8v7v0.1h-4.9c-0.1,0.7-0.1,1.4,0,2.1h4.9v0.1v7
				c0.7,0.4,1.4,0.6,2.2,0.8v-7.9l0,0h11c0.1-0.7,0.1-1.4,0-2.1L20.3,21.2L20.3,21.2z"/>
			<path class="st4" d="M20.3,21.3h11c0,0,0,0,0-0.1L20.3,21.3L20.3,21.3z"/>
			<path class="st4" d="M20.3,23.4h11c0,0,0,0,0-0.1L20.3,23.4L20.3,23.4z"/>
			<path class="st4" d="M18.1,23.4h-4.9c0,0,0,0,0,0.1L18.1,23.4L18.1,23.4z"/>
			<path class="st4" d="M18.1,21.2h-4.8c0,0,0,0,0,0.1L18.1,21.2L18.1,21.2z"/>
		</g>
	</g>
	<circle class="st6" cx="22.3" cy="22.3" r="10.6"/>
</g>
</svg>
