<?xml version="1.0" encoding="utf-8"?>
<!-- Generator: Adobe Illustrator 24.1.3, SVG Export Plug-In . SVG Version: 6.00 Build 0)  -->
<svg version="1.1" id="Layer_1" xmlns="http://www.w3.org/2000/svg" xmlns:xlink="http://www.w3.org/1999/xlink" x="0px" y="0px"
	 viewBox="0 0 78.3 44.8" style="enable-background:new 0 0 78.3 44.8;" xml:space="preserve">
<style type="text/css">
	.st0{clip-path:url(#SVGID_2_);}
	.st1{fill:#FFFFFF;}
	.st2{fill:#F20000;}
	.st3{fill:none;stroke:#000000;stroke-width:1.5;stroke-miterlimit:10;}
	.st4{fill:#050069;}
	.st5{fill:#CD0505;}
	.st6{fill:#FFCD05;}
	.st7{fill:none;stroke:#FFFFFF;stroke-width:1.5;stroke-miterlimit:10;}
</style>
<g>
	<g>
		<g>
			<g>
				<g>
					<g>
						<g>
							<g>
								<g>
									<g>
										<g>
											<g>
												<g>
													<g>
														<g>
															<g>
																<defs>
																	
																		<ellipse id="SVGID_1_" transform="matrix(0.9995 -0.0314 0.0314 0.9995 584.0905 -148.1332)" cx="-4418.38" cy="-18647.29" rx="150.7" ry="150.7"/>
																</defs>
																<clipPath id="SVGID_2_">
																	<use xlink:href="#SVGID_1_"  style="overflow:visible;"/>
																</clipPath>
																<g class="st0">
																	<g id="g1763">
																		<path id="path4640" class="st1" d="M-399.7-97.1h2.6l19.3-14.3v-1.8h-3.5L-400.7-99L-399.7-97.1z"/>
																		<path id="path6505" class="st1" d="M-378.7-97.1h-2.6l-19.3-14.3v-1.8h3.5l19.4,14.2L-378.7-97.1z"/>
																		<path id="path7127" class="st2" d="M-400.2-97.1h1.6l7-5h-1.6L-400.2-97.1z"/>
																		<path id="path8371" class="st2" d="M-386.9-108.2h1.6l7-5h-1.6L-386.9-108.2z"/>
																		<path id="path8994" class="st2" d="M-377.8-96.8v-1.1l-5.8-4.2h-1.8L-377.8-96.8z"/>
																		<path id="path9616" class="st2" d="M-400.6-113.5v1.1l5.8,4.2h1.8L-400.6-113.5z"/>
																		<rect id="rect1530" x="-391.7" y="-115.2" class="st1" width="5" height="19"/>
																		<rect id="rect2152" x="-402.7" y="-108.2" class="st1" width="25.9" height="5.8"/>
																		<rect id="rect3395" x="-402.7" y="-107.2" class="st2" width="25.9" height="3.8"/>
																		<rect id="rect4017" x="-390.7" y="-115.2" class="st2" width="3" height="19"/>
																	</g>
																</g>
															</g>
														</g>
													</g>
												</g>
											</g>
										</g>
									</g>
								</g>
							</g>
						</g>
					</g>
				</g>
			</g>
		</g>
	</g>
</g>
<circle class="st3" cx="22.3" cy="22.3" r="10.6"/>
<g>
	<g>
		<path class="st4" d="M49.35,15.29c0.1-0.06,0.2-0.12,0.32-0.16c0.26-0.11,0.51-0.16,0.75-0.18c0.12-0.01,0.24-0.01,0.36,0
			c0.71,0.05,1.24,0.38,1.31,0.43c-0.14-0.05-1.09-0.34-2,0.23c-0.05,0.03-0.15,0.1-0.27,0.2c-0.2,0.17-0.46,0.45-0.62,0.86
			c-0.02,0.05-0.04,0.1-0.06,0.15c-0.07,0.22-0.11,0.46-0.11,0.7c0,0.29,0.05,0.58,0.15,0.86c0.1,0.25,0.24,0.5,0.44,0.71
			c0.05,0.05,0.1,0.1,0.15,0.14c0.61,0.54,1.49,0.72,2.29,0.44c-0.21,0.13-0.7,0.4-1.36,0.41c-0.02,0-0.05,0-0.07,0
			c-0.02,0-0.04,0-0.06,0c-0.28-0.01-1-0.06-1.63-0.62c-0.09-0.08-0.17-0.16-0.24-0.24c-0.24-0.28-0.39-0.59-0.48-0.86
			c-0.13-0.4-0.14-0.73-0.14-0.81c0-0.01,0-0.03,0-0.04c0-0.2,0.03-0.4,0.08-0.6c-0.76,1.33-1.2,2.87-1.2,4.51
			c0,0.44,0.03,0.88,0.09,1.3h9.01v-1.3v-1.3v-1.3v-1.3v-1.3v-1.3v-1.3v-1.3C53.41,12.33,51.02,13.47,49.35,15.29z M52.45,15.81
			l0.54,0.73l0.14-0.73l0.08-0.41l0.08,0.41l0.14,0.73l0.55-0.73l0.15-0.2l-0.05,0.2l-0.23,0.86l-0.02,0.07l0.13-0.07l0.9-0.46
			l-0.4,0.46l-0.36,0.42l1.16-0.03l-1.06,0.47h0L55.29,18l-1.16-0.04l0.35,0.42l0.39,0.47l-0.9-0.47l-0.13-0.07l0.02,0.07l0.22,0.86
			l0.05,0.2l-0.15-0.2l-0.55-0.73l-0.15,0.73l-0.08,0.41l-0.08-0.41l-0.14-0.73l-0.55,0.73l-0.15,0.2l0.05-0.2l0.22-0.86l0.02-0.07
			l-0.14,0.07l-0.89,0.46l0.39-0.46l0.36-0.42l-1.16,0.03l1.05-0.47l0.01,0l-1.06-0.47l1.16,0.04l-0.35-0.41l-0.4-0.47l0.91,0.47
			l0.12,0.06l-0.02-0.06l-0.22-0.86l-0.05-0.2L52.45,15.81z"/>
		<path class="st5" d="M65.08,22.73c-0.06,0.44-0.16,0.88-0.29,1.3"/>
		<path class="st5" d="M47.07,22.73c0.06,0.44,0.16,0.88,0.28,1.3H64.8c0.13-0.42,0.22-0.86,0.29-1.3h-9.01H47.07z"/>
		<path class="st5" d="M62.44,27.93c-0.51,0.5-1.07,0.93-1.68,1.3"/>
		<path class="st5" d="M51.39,29.23h9.38c0.61-0.37,1.17-0.8,1.68-1.3H49.71C50.22,28.42,50.78,28.86,51.39,29.23z"/>
		<path class="st1" d="M63.54,26.63c-0.33,0.47-0.69,0.9-1.1,1.3"/>
		<path class="st1" d="M49.71,27.93h12.73c0.41-0.4,0.77-0.83,1.1-1.3H48.61C48.94,27.09,49.31,27.53,49.71,27.93z"/>
		<path class="st5" d="M64.3,25.33c-0.22,0.46-0.47,0.89-0.76,1.3"/>
		<path class="st5" d="M48.61,26.63h14.93c0.29-0.41,0.54-0.84,0.76-1.3H47.85C48.07,25.78,48.33,26.22,48.61,26.63z"/>
		<path class="st1" d="M64.8,24.03c-0.13,0.45-0.3,0.88-0.5,1.3"/>
		<path class="st1" d="M47.85,25.33H64.3c0.2-0.42,0.36-0.85,0.5-1.3H47.36C47.49,24.48,47.66,24.91,47.85,25.33z"/>
		<path class="st1" d="M65.18,21.43c0,0.44-0.03,0.88-0.09,1.3"/>
		<path class="st1" d="M56.08,22.73h9.01c0.06-0.42,0.09-0.86,0.09-1.3h-9.1V22.73z"/>
		<path class="st1" d="M60.77,29.23c-1.37,0.82-2.97,1.3-4.69,1.3"/>
		<path class="st1" d="M51.39,29.23c1.37,0.82,2.97,1.3,4.69,1.3c1.72,0,3.32-0.48,4.69-1.3H51.39z"/>
		<path class="st5" d="M62.44,14.93c0.41,0.4,0.77,0.83,1.1,1.3"/>
		<path class="st5" d="M56.08,16.23h7.47c-0.33-0.47-0.69-0.9-1.1-1.3h-6.37V16.23z"/>
		<path class="st5" d="M65.08,20.13c0.06,0.42,0.09,0.86,0.09,1.3"/>
		<path class="st5" d="M56.08,21.43h9.1c0-0.44-0.03-0.88-0.09-1.3h-9.01V21.43z"/>
		<path class="st1" d="M63.54,16.23c0.29,0.41,0.54,0.84,0.76,1.3"/>
		<path class="st1" d="M56.08,17.53h8.22c-0.22-0.46-0.47-0.89-0.76-1.3h-7.47V17.53z"/>
		<path class="st5" d="M56.08,12.33L56.08,12.33c1.72,0,3.32,0.48,4.69,1.3"/>
		<path class="st5" d="M60.77,13.63c-1.37-0.82-2.97-1.3-4.69-1.3v1.3H60.77z"/>
		<path class="st1" d="M60.77,13.63c0.61,0.37,1.17,0.8,1.68,1.3"/>
		<path class="st1" d="M56.08,14.93h6.37c-0.51-0.5-1.07-0.93-1.68-1.3h-4.69V14.93z"/>
		<path class="st1" d="M64.8,18.83c0.13,0.42,0.22,0.86,0.29,1.3"/>
		<path class="st1" d="M56.08,20.13h9.01c-0.06-0.44-0.16-0.88-0.29-1.3h-8.72V20.13z"/>
		<path class="st5" d="M64.3,17.53c0.2,0.42,0.36,0.85,0.5,1.3"/>
		<path class="st5" d="M56.08,18.83h8.72c-0.13-0.45-0.3-0.88-0.5-1.3h-8.22V18.83z"/>
		<polygon class="st6" points="52.57,16.67 52.59,16.73 52.47,16.67 51.56,16.2 51.96,16.67 52.31,17.08 51.15,17.05 52.21,17.52 
			52.2,17.52 51.15,17.99 52.31,17.96 51.95,18.38 51.56,18.84 52.45,18.38 52.59,18.31 52.57,18.38 52.35,19.24 52.29,19.43 
			52.44,19.24 52.99,18.51 53.14,19.24 53.21,19.64 53.3,19.24 53.44,18.51 53.99,19.24 54.14,19.44 54.08,19.24 53.86,18.38 
			53.85,18.31 53.98,18.38 54.87,18.85 54.48,18.38 54.13,17.96 55.29,18 54.23,17.52 54.23,17.52 55.29,17.06 54.13,17.09 
			54.49,16.67 54.88,16.2 53.98,16.67 53.85,16.73 53.87,16.67 54.09,15.81 54.15,15.61 53.99,15.81 53.44,16.54 53.3,15.81 
			53.22,15.4 53.14,15.81 52.99,16.54 52.45,15.81 52.3,15.61 52.35,15.81 		"/>
		<path class="st6" d="M48.09,17.57c0,0.09,0.01,0.42,0.14,0.81c0.09,0.27,0.24,0.57,0.48,0.86c0.07,0.08,0.15,0.16,0.24,0.24
			c0.63,0.55,1.35,0.61,1.63,0.62c0.02,0,0.05,0,0.06,0c0.03,0,0.05,0,0.07,0c0.67-0.02,1.15-0.28,1.36-0.41
			c-0.8,0.28-1.68,0.1-2.29-0.44c-0.05-0.05-0.1-0.09-0.15-0.14c-0.2-0.21-0.35-0.46-0.44-0.71c-0.11-0.28-0.16-0.57-0.15-0.86
			c0-0.24,0.04-0.48,0.11-0.7c0.02-0.05,0.04-0.11,0.06-0.15c0.17-0.4,0.42-0.68,0.62-0.86c0.12-0.1,0.22-0.17,0.27-0.2
			c0.9-0.57,1.86-0.28,2-0.23c-0.07-0.05-0.6-0.38-1.31-0.43c-0.12-0.01-0.24-0.01-0.36,0c-0.24,0.02-0.49,0.07-0.75,0.18
			c-0.11,0.05-0.22,0.1-0.32,0.16c-0.45,0.49-0.85,1.04-1.18,1.63c-0.05,0.2-0.08,0.4-0.08,0.6C48.09,17.54,48.09,17.55,48.09,17.57
			z"/>
	</g>
</g>
<circle class="st7" cx="56.08" cy="21.45" r="10.6"/>
<g>
	<g>
		<path class="st4" d="M15.58,16.17c0.1-0.06,0.2-0.12,0.32-0.16c0.26-0.11,0.51-0.16,0.75-0.18c0.12-0.01,0.24-0.01,0.36,0
			c0.71,0.05,1.24,0.38,1.31,0.43c-0.14-0.05-1.09-0.34-2,0.23c-0.05,0.03-0.15,0.1-0.27,0.2c-0.2,0.17-0.46,0.45-0.62,0.86
			c-0.02,0.05-0.04,0.1-0.06,0.15c-0.07,0.22-0.11,0.46-0.11,0.7c0,0.29,0.05,0.58,0.15,0.86c0.1,0.25,0.24,0.5,0.44,0.71
			c0.05,0.05,0.1,0.1,0.15,0.14c0.61,0.54,1.49,0.72,2.29,0.44c-0.21,0.13-0.7,0.4-1.36,0.41c-0.02,0-0.05,0-0.07,0
			c-0.02,0-0.04,0-0.06,0c-0.28-0.01-1-0.06-1.63-0.62c-0.09-0.08-0.17-0.16-0.24-0.24c-0.24-0.28-0.39-0.59-0.48-0.86
			c-0.13-0.4-0.14-0.73-0.14-0.81c0-0.01,0-0.03,0-0.04c0-0.2,0.03-0.4,0.08-0.6c-0.76,1.33-1.2,2.87-1.2,4.51
			c0,0.44,0.03,0.88,0.09,1.3h9.01v-1.3V21v-1.3v-1.3v-1.3v-1.3v-1.3v-1.3C19.64,13.2,17.24,14.34,15.58,16.17z M18.67,16.69
			l0.54,0.73l0.14-0.73l0.08-0.41l0.08,0.41l0.14,0.73l0.55-0.73l0.15-0.2l-0.05,0.2l-0.23,0.86l-0.02,0.07l0.13-0.07l0.9-0.46
			l-0.4,0.46l-0.36,0.42l1.16-0.03l-1.06,0.47h0l1.06,0.47l-1.16-0.04l0.35,0.42l0.39,0.47l-0.9-0.47l-0.13-0.07l0.02,0.07
			l0.22,0.86l0.05,0.2l-0.15-0.2l-0.55-0.73l-0.15,0.73l-0.08,0.41l-0.08-0.41l-0.14-0.73l-0.55,0.73l-0.15,0.2l0.05-0.2l0.22-0.86
			l0.02-0.07l-0.14,0.07l-0.89,0.46l0.39-0.46l0.36-0.42l-1.16,0.03l1.05-0.47l0.01,0l-1.06-0.47l1.16,0.04l-0.35-0.41l-0.4-0.47
			l0.91,0.47l0.12,0.06l-0.02-0.06l-0.22-0.86l-0.05-0.2L18.67,16.69z"/>
		<path class="st5" d="M31.31,23.6c-0.06,0.44-0.16,0.88-0.29,1.3"/>
		<path class="st5" d="M13.29,23.6c0.06,0.44,0.16,0.88,0.28,1.3h17.44c0.13-0.42,0.22-0.86,0.29-1.3H22.3H13.29z"/>
		<path class="st5" d="M28.67,28.8c-0.51,0.5-1.07,0.93-1.68,1.3"/>
		<path class="st5" d="M17.61,30.1h9.38c0.61-0.37,1.17-0.8,1.68-1.3H15.93C16.44,29.3,17,29.73,17.61,30.1z"/>
		<path class="st1" d="M29.77,27.5c-0.33,0.47-0.69,0.9-1.1,1.3"/>
		<path class="st1" d="M15.93,28.8h12.73c0.41-0.4,0.77-0.83,1.1-1.3H14.83C15.16,27.97,15.53,28.4,15.93,28.8z"/>
		<path class="st5" d="M30.52,26.2c-0.22,0.46-0.47,0.89-0.76,1.3"/>
		<path class="st5" d="M14.83,27.5h14.93c0.29-0.41,0.54-0.84,0.76-1.3H14.08C14.29,26.66,14.55,27.09,14.83,27.5z"/>
		<path class="st1" d="M31.02,24.9c-0.13,0.45-0.3,0.88-0.5,1.3"/>
		<path class="st1" d="M14.08,26.2h16.45c0.2-0.42,0.36-0.85,0.5-1.3H13.58C13.71,25.35,13.88,25.78,14.08,26.2z"/>
		<path class="st1" d="M31.4,22.3c0,0.44-0.03,0.88-0.09,1.3"/>
		<path class="st1" d="M22.3,23.6h9.01c0.06-0.42,0.09-0.86,0.09-1.3h-9.1V23.6z"/>
		<path class="st1" d="M26.99,30.1c-1.37,0.82-2.97,1.3-4.69,1.3"/>
		<path class="st1" d="M17.61,30.1c1.37,0.82,2.97,1.3,4.69,1.3c1.72,0,3.32-0.48,4.69-1.3H17.61z"/>
		<path class="st5" d="M28.67,15.8c0.41,0.4,0.77,0.83,1.1,1.3"/>
		<path class="st5" d="M22.3,17.1h7.47c-0.33-0.47-0.69-0.9-1.1-1.3H22.3V17.1z"/>
		<path class="st5" d="M31.31,21c0.06,0.42,0.09,0.86,0.09,1.3"/>
		<path class="st5" d="M22.3,22.3h9.1c0-0.44-0.03-0.88-0.09-1.3H22.3V22.3z"/>
		<path class="st1" d="M29.77,17.1c0.29,0.41,0.54,0.84,0.76,1.3"/>
		<path class="st1" d="M22.3,18.4h8.22c-0.22-0.46-0.47-0.89-0.76-1.3H22.3V18.4z"/>
		<path class="st5" d="M22.3,13.2L22.3,13.2c1.72,0,3.32,0.48,4.69,1.3"/>
		<path class="st5" d="M26.99,14.5c-1.37-0.82-2.97-1.3-4.69-1.3v1.3H26.99z"/>
		<path class="st1" d="M26.99,14.5c0.61,0.37,1.17,0.8,1.68,1.3"/>
		<path class="st1" d="M22.3,15.8h6.37c-0.51-0.5-1.07-0.93-1.68-1.3H22.3V15.8z"/>
		<path class="st1" d="M31.02,19.7c0.13,0.42,0.22,0.86,0.29,1.3"/>
		<path class="st1" d="M22.3,21h9.01c-0.06-0.44-0.16-0.88-0.29-1.3H22.3V21z"/>
		<path class="st5" d="M30.52,18.4c0.2,0.42,0.36,0.85,0.5,1.3"/>
		<path class="st5" d="M22.3,19.7h8.72c-0.13-0.45-0.3-0.88-0.5-1.3H22.3V19.7z"/>
		<polygon class="st6" points="18.79,17.54 18.81,17.61 18.69,17.54 17.78,17.07 18.18,17.54 18.53,17.96 17.37,17.92 18.43,18.39 
			18.42,18.4 17.37,18.87 18.53,18.83 18.17,19.25 17.78,19.72 18.67,19.25 18.81,19.18 18.79,19.25 18.57,20.11 18.52,20.31 
			18.66,20.11 19.21,19.38 19.36,20.11 19.44,20.52 19.52,20.11 19.66,19.38 20.21,20.11 20.36,20.31 20.31,20.11 20.09,19.25 
			20.07,19.19 20.2,19.25 21.1,19.72 20.7,19.25 20.35,18.84 21.51,18.87 20.45,18.4 20.45,18.4 21.51,17.93 20.35,17.96 
			20.71,17.54 21.1,17.08 20.2,17.54 20.07,17.61 20.09,17.54 20.32,16.69 20.37,16.49 20.22,16.69 19.67,17.42 19.52,16.69 
			19.44,16.27 19.36,16.69 19.22,17.41 18.67,16.69 18.52,16.48 18.57,16.69 		"/>
		<path class="st6" d="M14.31,18.44c0,0.09,0.01,0.42,0.14,0.81c0.09,0.27,0.24,0.57,0.48,0.86c0.07,0.08,0.15,0.16,0.24,0.24
			c0.63,0.55,1.35,0.61,1.63,0.62c0.02,0,0.05,0,0.06,0c0.03,0,0.05,0,0.07,0c0.67-0.02,1.15-0.28,1.36-0.41
			c-0.8,0.28-1.68,0.1-2.29-0.44c-0.05-0.05-0.1-0.09-0.15-0.14c-0.2-0.21-0.35-0.46-0.44-0.71c-0.11-0.28-0.16-0.57-0.15-0.86
			c0-0.24,0.04-0.48,0.11-0.7c0.02-0.05,0.04-0.11,0.06-0.15c0.17-0.4,0.42-0.68,0.62-0.86c0.12-0.1,0.22-0.17,0.27-0.2
			c0.9-0.57,1.86-0.28,2-0.23c-0.07-0.05-0.6-0.38-1.31-0.43c-0.12-0.01-0.24-0.01-0.36,0c-0.24,0.02-0.49,0.07-0.75,0.18
			c-0.11,0.05-0.22,0.1-0.32,0.16c-0.45,0.49-0.85,1.04-1.18,1.63c-0.05,0.2-0.08,0.4-0.08,0.6C14.31,18.41,14.31,18.43,14.31,18.44
			z"/>
	</g>
</g>
</svg>
