<?xml version="1.0" encoding="utf-8"?>
<!-- Generator: Adobe Illustrator 24.1.3, SVG Export Plug-In . SVG Version: 6.00 Build 0)  -->
<svg version="1.1" id="Layer_1" xmlns="http://www.w3.org/2000/svg" xmlns:xlink="http://www.w3.org/1999/xlink" x="0px" y="0px"
	 viewBox="0 0 78.3 44.8" style="enable-background:new 0 0 78.3 44.8;" xml:space="preserve">
<style type="text/css">
	.st0{clip-path:url(#SVGID_2_);}
	.st1{fill:#FFFFFF;}
	.st2{fill:#F20000;}
	.st3{fill:none;stroke:#FFFFFF;stroke-width:1.5;stroke-miterlimit:10;}
	.st4{fill:none;stroke:#000000;stroke-width:1.5;stroke-miterlimit:10;}
	.st5{opacity:0.75;fill:url(#SVGID_3_);}
	.st6{opacity:0.75;fill:url(#SVGID_4_);}
	.st7{fill:#000099;}
	.st8{fill:#CF142B;}
	.st9{opacity:0.75;fill:url(#SVGID_5_);}
	.st10{opacity:0.75;fill:url(#SVGID_6_);}
</style>
<g>
	<g>
		<g>
			<g>
				<g>
					<g>
						<g>
							<g>
								<g>
									<g>
										<g>
											<g>
												<g>
													<g>
														<g>
															<defs>
																
																	<ellipse id="SVGID_1_" transform="matrix(0.9995 -0.0314 0.0314 0.9995 584.0903 -148.1324)" cx="-4418.38" cy="-18647.39" rx="150.7" ry="150.7"/>
															</defs>
															<clipPath id="SVGID_2_">
																<use xlink:href="#SVGID_1_"  style="overflow:visible;"/>
															</clipPath>
															<g class="st0">
																<g id="g1763">
																	<path id="path4640" class="st1" d="M-399.7-97.1h2.6l19.3-14.3v-1.8h-3.5L-400.7-99L-399.7-97.1z"/>
																	<path id="path6505" class="st1" d="M-378.7-97.1h-2.6l-19.3-14.3v-1.8h3.5l19.4,14.2L-378.7-97.1z"/>
																	<path id="path7127" class="st2" d="M-400.2-97.1h1.6l7-5h-1.6L-400.2-97.1z"/>
																	<path id="path8371" class="st2" d="M-386.9-108.2h1.6l7-5h-1.6L-386.9-108.2z"/>
																	<path id="path8994" class="st2" d="M-377.8-96.8v-1.1l-5.8-4.2h-1.8L-377.8-96.8z"/>
																	<path id="path9616" class="st2" d="M-400.6-113.5v1.1l5.8,4.2h1.8L-400.6-113.5z"/>
																	<rect id="rect1530" x="-391.7" y="-115.2" class="st1" width="5" height="19"/>
																	<rect id="rect2152" x="-402.7" y="-108.2" class="st1" width="25.9" height="5.8"/>
																	<rect id="rect3395" x="-402.7" y="-107.2" class="st2" width="25.9" height="3.8"/>
																	<rect id="rect4017" x="-390.7" y="-115.2" class="st2" width="3" height="19"/>
																</g>
															</g>
														</g>
													</g>
												</g>
											</g>
										</g>
									</g>
								</g>
							</g>
						</g>
					</g>
				</g>
			</g>
		</g>
	</g>
</g>
<g>
	<circle class="st3" cx="55.3" cy="22.3" r="10.6"/>
</g>
<g>
	<circle class="st4" cx="22.3" cy="22.3" r="10.6"/>
	<g>
		<g>
			
				<radialGradient id="SVGID_3_" cx="-582.8256" cy="-321.7345" r="1.374010e-04" gradientTransform="matrix(2.5002 0 0 2.5004 1479.4789 835.8553)" gradientUnits="userSpaceOnUse">
				<stop  offset="0" style="stop-color:#FFFFFF"/>
				<stop  offset="1" style="stop-color:#231F20"/>
			</radialGradient>
			<path class="st5" d="M22.3,31.4L22.3,31.4C22.3,31.4,22.3,31.4,22.3,31.4z"/>
			
				<radialGradient id="SVGID_4_" cx="-582.8256" cy="-329.0134" r="1.374000e-04" gradientTransform="matrix(2.5002 0 0 2.5004 1479.4789 835.8553)" gradientUnits="userSpaceOnUse">
				<stop  offset="0" style="stop-color:#FFFFFF"/>
				<stop  offset="1" style="stop-color:#231F20"/>
			</radialGradient>
			<path class="st6" d="M22.3,13.2L22.3,13.2C22.3,13.2,22.3,13.2,22.3,13.2z"/>
			<path class="st7" d="M28.74,15.86c-1.77-1.77-4.11-2.66-6.44-2.66h0c-2.33,0-4.66,0.89-6.44,2.66c-0.12,0.12-0.24,0.25-0.35,0.37
				h1.34h0.31h0.93h0.31h2.84h1.05v0.44v0.23l-2.08,1.35h2.08v0.4v1.21v0.4h-2.84l2.84,1.85v0.17h-0.77h-0.7h-0.34l-2.08-1.34v1.34
				H18.1h-0.93h-0.31v-1.34l-2.08,1.34h-0.34h-0.7H13.2c0,2.33,0.89,4.66,2.66,6.44c1.77,1.77,4.11,2.66,6.44,2.66h0
				c2.33,0,4.66-0.89,6.44-2.66C32.29,25.19,32.29,19.41,28.74,15.86z M18.39,26.45l-0.7-0.73L17,26.44l0.14-1l-1.01-0.09L17,24.85
				l-0.56-0.84l0.95,0.35l0.31-0.98L18,24.36L18.96,24l-0.57,0.85l0.9,0.52l-1.03,0.08L18.39,26.45z M29.79,20.51l0.43,0.16
				l0.14-0.45l0.14,0.45l0.44-0.17l-0.26,0.39l0.41,0.24l-0.47,0.04l0.06,0.46l-0.32-0.33l-0.32,0.33l0.06-0.46l-0.46-0.04l0.4-0.23
				L29.79,20.51z M28.93,22.61l0.13-0.26l0.13,0.26l0.28,0.04l-0.2,0.2l0.05,0.28L29.05,23l-0.25,0.13l0.05-0.28l-0.2-0.2
				L28.93,22.61z M27.41,18.34l0.43,0.16l0.14-0.45l0.14,0.45l0.44-0.17l-0.26,0.39l0.41,0.24L28.23,19l0.06,0.46l-0.32-0.33
				l-0.32,0.33L27.72,19l-0.46-0.04l0.4-0.23L27.41,18.34z M25.62,22.34l-0.32-0.33l-0.32,0.33l0.06-0.46l-0.46-0.04l0.4-0.23
				l-0.26-0.38l0.43,0.16l0.14-0.45l0.14,0.45l0.44-0.17l-0.26,0.39l0.41,0.24l-0.47,0.04L25.62,22.34z M28.3,26.55l-0.32-0.33
				l-0.32,0.33l0.06-0.46l-0.46-0.04l0.4-0.23l-0.26-0.38l0.43,0.16l0.14-0.45l0.14,0.45l0.44-0.17l-0.26,0.39l0.41,0.24l-0.47,0.04
				L28.3,26.55z"/>
			<polygon class="st1" points="18.39,24.84 18.96,24 18,24.36 17.69,23.38 17.38,24.36 16.44,24.01 17,24.85 16.12,25.35 
				17.13,25.44 17,26.44 17.69,25.71 18.39,26.45 18.25,25.44 19.28,25.36 			"/>
			<polygon class="st1" points="28.3,25.82 28.56,25.43 28.12,25.6 27.98,25.15 27.84,25.59 27.41,25.43 27.66,25.82 27.26,26.05 
				27.72,26.09 27.66,26.55 27.98,26.21 28.3,26.55 28.23,26.09 28.7,26.05 			"/>
			<polygon class="st1" points="25.62,21.61 25.88,21.22 25.45,21.39 25.3,20.94 25.16,21.39 24.73,21.23 24.99,21.61 24.59,21.84 
				25.05,21.88 24.99,22.34 25.3,22.01 25.62,22.34 25.56,21.88 26.03,21.85 			"/>
			<polygon class="st1" points="30.11,21.17 30.04,21.63 30.36,21.29 30.68,21.63 30.62,21.17 31.09,21.13 30.68,20.9 30.94,20.51 
				30.5,20.68 30.36,20.23 30.22,20.67 29.79,20.51 30.05,20.9 29.64,21.13 			"/>
			<polygon class="st1" points="27.72,19 27.66,19.45 27.98,19.12 28.3,19.46 28.23,19 28.7,18.96 28.3,18.72 28.56,18.34 
				28.12,18.5 27.98,18.06 27.84,18.5 27.41,18.34 27.66,18.73 27.26,18.96 			"/>
			<polygon class="st1" points="28.85,22.85 28.8,23.13 29.05,23 29.3,23.13 29.26,22.85 29.46,22.65 29.18,22.61 29.05,22.35 
				28.93,22.61 28.65,22.65 			"/>
			<polygon class="st1" points="18.41,19.87 18.1,19.87 18.1,22.3 18.41,22.3 18.41,20.96 20.49,22.3 20.83,22.3 18.41,20.72 
				18.41,20.28 21.53,22.3 22.3,22.3 22.3,22.13 19.46,20.28 22.3,20.28 22.3,19.87 18.46,19.87 			"/>
			<path class="st1" d="M13.53,19.87c-0.04,0.13-0.07,0.27-0.1,0.4h2.38l-2.6,1.69c0,0.11-0.01,0.22-0.01,0.33h0.54l3.12-2.02v0.44
				l-2.42,1.58h0.34l2.08-1.34v1.34h0.31v-2.43H13.53z"/>
			<polygon class="st1" points="18.1,18.66 18.41,18.66 18.46,18.66 22.3,18.66 22.3,18.26 20.22,18.26 22.3,16.91 22.3,16.68 
				19.88,18.26 19.18,18.26 22.3,16.23 21.25,16.23 18.41,18.08 18.41,16.23 18.1,16.23 18.1,18.26 			"/>
			<path class="st1" d="M14.99,16.87c-0.11,0.15-0.22,0.31-0.33,0.47l1.42,0.92h-0.7l-0.92-0.6c-0.03,0.05-0.06,0.11-0.09,0.17
				l0.67,0.43h-0.9c-0.07,0.13-0.13,0.27-0.19,0.4h2.9h0.31v-0.4v-2.02h-0.31v1.85L14.99,16.87z"/>
			<polygon class="st8" points="18.41,20.72 20.83,22.3 21.53,22.3 18.41,20.28 			"/>
			<path class="st7" d="M16.86,18.08v-1.85h-1.34c-0.18,0.21-0.36,0.42-0.52,0.64L16.86,18.08z"/>
			<path class="st8" d="M15.39,18.26h0.7l-1.42-0.92c-0.07,0.11-0.14,0.21-0.2,0.32L15.39,18.26z"/>
			<path class="st7" d="M15.04,18.26l-0.67-0.43c-0.08,0.14-0.16,0.29-0.23,0.43H15.04z"/>
			<path class="st7" d="M15.81,20.28h-2.38c-0.13,0.56-0.2,1.12-0.22,1.69L15.81,20.28z"/>
			<polygon class="st8" points="16.86,20.28 13.74,22.3 14.44,22.3 16.86,20.72 			"/>
			<polygon class="st7" points="21.25,16.23 18.41,16.23 18.41,18.08 			"/>
			<polygon class="st8" points="19.88,18.26 22.3,16.68 22.3,16.23 19.18,18.26 			"/>
			<path class="st8" d="M17.17,18.66h-0.31h-2.9c-0.17,0.4-0.32,0.8-0.43,1.21h3.64v2.43h0.93v-2.43h0.31h0.05h3.84v-1.21h-3.84
				h-0.05H18.1v-0.4v-2.02h-0.93v2.02V18.66z"/>
		</g>
	</g>
</g>
<g>
	<g>
		
			<radialGradient id="SVGID_5_" cx="-569.6265" cy="-321.7345" r="1.374010e-04" gradientTransform="matrix(2.5002 0 0 2.5004 1479.4789 835.8553)" gradientUnits="userSpaceOnUse">
			<stop  offset="0" style="stop-color:#FFFFFF"/>
			<stop  offset="1" style="stop-color:#231F20"/>
		</radialGradient>
		<path class="st9" d="M55.3,31.4L55.3,31.4C55.3,31.4,55.3,31.4,55.3,31.4z"/>
		
			<radialGradient id="SVGID_6_" cx="-569.6265" cy="-329.0134" r="1.374000e-04" gradientTransform="matrix(2.5002 0 0 2.5004 1479.4789 835.8553)" gradientUnits="userSpaceOnUse">
			<stop  offset="0" style="stop-color:#FFFFFF"/>
			<stop  offset="1" style="stop-color:#231F20"/>
		</radialGradient>
		<path class="st10" d="M55.3,13.2L55.3,13.2C55.3,13.2,55.3,13.2,55.3,13.2z"/>
		<path class="st7" d="M61.74,15.86c-1.77-1.77-4.11-2.66-6.44-2.66h0c-2.33,0-4.66,0.89-6.44,2.66c-0.12,0.12-0.24,0.25-0.35,0.37
			h1.34h0.31h0.93h0.31h2.84h1.05v0.44v0.23l-2.08,1.35h2.08v0.4v1.21v0.4h-2.84l2.84,1.85v0.17h-0.77h-0.7h-0.34l-2.08-1.34v1.34
			H51.1h-0.93h-0.31v-1.34l-2.08,1.34h-0.34h-0.7H46.2c0,2.33,0.89,4.66,2.66,6.44c1.77,1.77,4.11,2.66,6.44,2.66h0
			c2.33,0,4.66-0.89,6.44-2.66C65.29,25.19,65.29,19.41,61.74,15.86z M51.39,26.45l-0.7-0.73L50,26.44l0.14-1l-1.01-0.09L50,24.85
			l-0.56-0.84l0.95,0.35l0.31-0.98L51,24.36L51.96,24l-0.57,0.85l0.9,0.52l-1.03,0.08L51.39,26.45z M62.79,20.51l0.43,0.16
			l0.14-0.45l0.14,0.45l0.44-0.17l-0.26,0.39l0.41,0.24l-0.47,0.04l0.06,0.46l-0.32-0.33l-0.32,0.33l0.06-0.46l-0.46-0.04l0.4-0.23
			L62.79,20.51z M61.93,22.61l0.13-0.26l0.13,0.26l0.28,0.04l-0.2,0.2l0.05,0.28L62.05,23l-0.25,0.13l0.05-0.28l-0.2-0.2
			L61.93,22.61z M60.41,18.34l0.43,0.16l0.14-0.45l0.14,0.45l0.44-0.17l-0.26,0.39l0.41,0.24L61.23,19l0.06,0.46l-0.32-0.33
			l-0.32,0.33L60.72,19l-0.46-0.04l0.4-0.23L60.41,18.34z M58.62,22.34l-0.32-0.33l-0.32,0.33l0.06-0.46l-0.46-0.04l0.4-0.23
			l-0.26-0.38l0.43,0.16l0.14-0.45l0.14,0.45l0.44-0.17l-0.26,0.39l0.41,0.24l-0.47,0.04L58.62,22.34z M61.3,26.55l-0.32-0.33
			l-0.32,0.33l0.06-0.46l-0.46-0.04l0.4-0.23l-0.26-0.38l0.43,0.16l0.14-0.45l0.14,0.45l0.44-0.17l-0.26,0.39l0.41,0.24l-0.47,0.04
			L61.3,26.55z"/>
		<polygon class="st1" points="51.39,24.84 51.96,24 51,24.36 50.69,23.38 50.38,24.36 49.44,24.01 50,24.85 49.12,25.35 
			50.13,25.44 50,26.44 50.69,25.71 51.39,26.45 51.25,25.44 52.28,25.36 		"/>
		<polygon class="st1" points="61.3,25.82 61.56,25.43 61.12,25.6 60.98,25.15 60.84,25.59 60.41,25.43 60.66,25.82 60.26,26.05 
			60.72,26.09 60.66,26.55 60.98,26.21 61.3,26.55 61.23,26.09 61.7,26.05 		"/>
		<polygon class="st1" points="58.62,21.61 58.88,21.22 58.45,21.39 58.3,20.94 58.16,21.39 57.73,21.23 57.99,21.61 57.59,21.84 
			58.05,21.88 57.99,22.34 58.3,22.01 58.62,22.34 58.56,21.88 59.03,21.85 		"/>
		<polygon class="st1" points="63.11,21.17 63.04,21.63 63.36,21.29 63.68,21.63 63.62,21.17 64.09,21.13 63.68,20.9 63.94,20.51 
			63.5,20.68 63.36,20.23 63.22,20.67 62.79,20.51 63.05,20.9 62.64,21.13 		"/>
		<polygon class="st1" points="60.72,19 60.66,19.45 60.98,19.12 61.3,19.46 61.23,19 61.7,18.96 61.3,18.72 61.56,18.34 
			61.12,18.5 60.98,18.06 60.84,18.5 60.41,18.34 60.66,18.73 60.26,18.96 		"/>
		<polygon class="st1" points="61.85,22.85 61.8,23.13 62.05,23 62.31,23.13 62.26,22.85 62.46,22.65 62.18,22.61 62.05,22.35 
			61.93,22.61 61.65,22.65 		"/>
		<polygon class="st1" points="51.41,19.87 51.1,19.87 51.1,22.3 51.41,22.3 51.41,20.96 53.49,22.3 53.83,22.3 51.41,20.72 
			51.41,20.28 54.53,22.3 55.3,22.3 55.3,22.13 52.46,20.28 55.3,20.28 55.3,19.87 51.46,19.87 		"/>
		<path class="st1" d="M46.53,19.87c-0.04,0.13-0.07,0.27-0.1,0.4h2.38l-2.6,1.69c0,0.11-0.01,0.22-0.01,0.33h0.54l3.12-2.02v0.44
			l-2.42,1.58h0.34l2.08-1.34v1.34h0.31v-2.43H46.53z"/>
		<polygon class="st1" points="51.1,18.66 51.41,18.66 51.46,18.66 55.3,18.66 55.3,18.26 53.22,18.26 55.3,16.91 55.3,16.68 
			52.88,18.26 52.18,18.26 55.3,16.23 54.25,16.23 51.41,18.08 51.41,16.23 51.1,16.23 51.1,18.26 		"/>
		<path class="st1" d="M47.99,16.87c-0.11,0.15-0.22,0.31-0.33,0.47l1.42,0.92h-0.7l-0.92-0.6c-0.03,0.05-0.06,0.11-0.09,0.17
			l0.67,0.43h-0.9c-0.07,0.13-0.13,0.27-0.19,0.4h2.9h0.31v-0.4v-2.02h-0.31v1.85L47.99,16.87z"/>
		<polygon class="st8" points="51.41,20.72 53.83,22.3 54.53,22.3 51.41,20.28 		"/>
		<path class="st7" d="M49.86,18.08v-1.85h-1.34c-0.18,0.21-0.36,0.42-0.52,0.64L49.86,18.08z"/>
		<path class="st8" d="M48.39,18.26h0.7l-1.42-0.92c-0.07,0.11-0.14,0.21-0.2,0.32L48.39,18.26z"/>
		<path class="st7" d="M48.04,18.26l-0.67-0.43c-0.08,0.14-0.16,0.29-0.23,0.43H48.04z"/>
		<path class="st7" d="M48.81,20.28h-2.38c-0.13,0.56-0.2,1.12-0.22,1.69L48.81,20.28z"/>
		<polygon class="st8" points="49.86,20.28 46.74,22.3 47.44,22.3 49.86,20.72 		"/>
		<polygon class="st7" points="54.25,16.23 51.41,16.23 51.41,18.08 		"/>
		<polygon class="st8" points="52.88,18.26 55.3,16.68 55.3,16.23 52.18,18.26 		"/>
		<path class="st8" d="M50.17,18.66h-0.31h-2.9c-0.17,0.4-0.32,0.8-0.43,1.21h3.64v2.43h0.93v-2.43h0.31h0.05h3.84v-1.21h-3.84
			h-0.05H51.1v-0.4v-2.02h-0.93v2.02V18.66z"/>
	</g>
</g>
</svg>
