<?xml version="1.0" encoding="utf-8"?>
<!-- Generator: Adobe Illustrator 24.1.3, SVG Export Plug-In . SVG Version: 6.00 Build 0)  -->
<svg version="1.1" id="Layer_1" xmlns="http://www.w3.org/2000/svg" xmlns:xlink="http://www.w3.org/1999/xlink" x="0px" y="0px"
	 viewBox="0 0 78.3 44.8" style="enable-background:new 0 0 78.3 44.8;" xml:space="preserve">
<style type="text/css">
	.st0{clip-path:url(#SVGID_2_);}
	.st1{fill:#FFFFFF;}
	.st2{fill:#F20000;}
	.st3{fill:none;stroke:#000000;stroke-width:1.5;stroke-miterlimit:10;}
	.st4{fill:#0565A7;}
	.st5{fill:#F5C200;}
	.st6{fill:none;stroke:#FFFFFF;stroke-width:1.5;stroke-miterlimit:10;}
</style>
<g>
	<g>
		<g>
			<g>
				<g>
					<g>
						<g>
							<g>
								<g>
									<g>
										<g>
											<g>
												<g>
													<defs>
														
															<ellipse id="SVGID_1_" transform="matrix(0.9995 -3.143967e-02 3.143967e-02 0.9995 584.0899 -148.1307)" cx="-4418.4" cy="-18647.6" rx="150.7" ry="150.7"/>
													</defs>
													<clipPath id="SVGID_2_">
														<use xlink:href="#SVGID_1_"  style="overflow:visible;"/>
													</clipPath>
													<g class="st0">
														<g id="g1763">
															<path id="path4640" class="st1" d="M-399.7-97.1h2.6l19.3-14.3v-1.8h-3.5L-400.7-99L-399.7-97.1z"/>
															<path id="path6505" class="st1" d="M-378.7-97.1h-2.6l-19.3-14.3v-1.8h3.5l19.4,14.2L-378.7-97.1z"/>
															<path id="path7127" class="st2" d="M-400.2-97.1h1.6l7-5h-1.6L-400.2-97.1z"/>
															<path id="path8371" class="st2" d="M-386.9-108.2h1.6l7-5h-1.6L-386.9-108.2z"/>
															<path id="path8994" class="st2" d="M-377.8-96.8v-1.1l-5.8-4.2h-1.8L-377.8-96.8z"/>
															<path id="path9616" class="st2" d="M-400.6-113.5v1.1l5.8,4.2h1.8L-400.6-113.5z"/>
															<rect id="rect1530" x="-391.7" y="-115.2" class="st1" width="5" height="19"/>
															<rect id="rect2152" x="-402.7" y="-108.2" class="st1" width="25.9" height="5.8"/>
															<rect id="rect3395" x="-402.7" y="-107.2" class="st2" width="25.9" height="3.8"/>
															<rect id="rect4017" x="-390.7" y="-115.2" class="st2" width="3" height="19"/>
														</g>
													</g>
												</g>
											</g>
										</g>
									</g>
								</g>
							</g>
						</g>
					</g>
				</g>
			</g>
		</g>
	</g>
</g>
<g>
	<circle class="st3" cx="22.3" cy="22.3" r="10.6"/>
	<g>
		<g>
			<path class="st4" d="M20.5,20.6h10.7c-0.3-1.7-1.2-3.3-2.5-4.6c-1.8-1.8-4.1-2.7-6.4-2.7c-0.6,0-1.2,0.1-1.8,0.2L20.5,20.6
				L20.5,20.6z"/>
			<path class="st4" d="M16.9,15.1c-0.3,0.3-0.7,0.5-1,0.8c-1.3,1.3-2.1,2.9-2.5,4.6h3.4v-5.4H16.9z"/>
			<path class="st4" d="M13.4,24.2c0.3,1.7,1.2,3.3,2.5,4.6c0.3,0.3,0.6,0.6,1,0.8v-5.5L13.4,24.2L13.4,24.2z"/>
			<path class="st4" d="M31.2,24.2H20.5v7.1c0.6,0.1,1.2,0.2,1.8,0.2c2.3,0,4.7-0.9,6.4-2.7C30.1,27.6,30.9,25.9,31.2,24.2z"/>
			<path class="st5" d="M20.5,13.5c-1.3,0.3-2.5,0.8-3.6,1.6v5.5h-3.4c-0.2,1.2-0.2,2.4,0,3.6h3.4v5.5c1.1,0.8,2.3,1.4,3.6,1.6v-7.1
				h10.7c0.2-1.2,0.2-2.4,0-3.6H20.5V13.5z"/>
		</g>
	</g>
</g>
<g>
	<g>
		<g>
			<path class="st4" d="M53.5,20.6h10.7c-0.3-1.7-1.2-3.3-2.5-4.6c-1.8-1.8-4.1-2.7-6.4-2.7c-0.6,0-1.2,0.1-1.8,0.2L53.5,20.6
				L53.5,20.6z"/>
			<path class="st4" d="M49.9,15.1c-0.3,0.3-0.7,0.5-1,0.8c-1.3,1.3-2.1,2.9-2.5,4.6h3.4v-5.4H49.9z"/>
			<path class="st4" d="M46.4,24.2c0.3,1.7,1.2,3.3,2.5,4.6c0.3,0.3,0.6,0.6,1,0.8v-5.5L46.4,24.2L46.4,24.2z"/>
			<path class="st4" d="M64.2,24.2H53.5v7.1c0.6,0.1,1.2,0.2,1.8,0.2c2.3,0,4.7-0.9,6.4-2.7C63.1,27.6,63.9,25.9,64.2,24.2z"/>
			<path class="st5" d="M53.5,13.5c-1.3,0.3-2.5,0.8-3.6,1.6v5.5h-3.4c-0.2,1.2-0.2,2.4,0,3.6h3.4v5.5c1.1,0.8,2.3,1.4,3.6,1.6v-7.1
				h10.7c0.2-1.2,0.2-2.4,0-3.6H53.5V13.5z"/>
		</g>
	</g>
	<circle class="st6" cx="55.3" cy="22.3" r="10.6"/>
</g>
</svg>
