<?xml version="1.0" encoding="utf-8"?>
<!-- Generator: Adobe Illustrator 24.1.3, SVG Export Plug-In . SVG Version: 6.00 Build 0)  -->
<svg version="1.1" id="Layer_1" xmlns="http://www.w3.org/2000/svg" xmlns:xlink="http://www.w3.org/1999/xlink" x="0px" y="0px"
	 viewBox="0 0 78.3 44.8" style="enable-background:new 0 0 78.3 44.8;" xml:space="preserve">
<style type="text/css">
	.st0{clip-path:url(#SVGID_2_);}
	.st1{fill:#FFFFFF;}
	.st2{fill:#F20000;}
	.st3{fill:none;stroke:#000000;stroke-width:1.5;stroke-miterlimit:10;}
	.st4{fill:#003366;}
	.st5{fill:#CF142B;}
	.st6{fill:none;stroke:#FFFFFF;stroke-width:1.5;stroke-miterlimit:10;}
</style>
<g>
	<g>
		<g>
			<g>
				<g>
					<g>
						<g>
							<g>
								<g>
									<g>
										<g>
											<g>
												<g>
													<g>
														<defs>
															
																<ellipse id="SVGID_1_" transform="matrix(0.9995 -0.0314 0.0314 0.9995 584.0901 -148.1315)" cx="-4418.38" cy="-18647.49" rx="150.7" ry="150.7"/>
														</defs>
														<clipPath id="SVGID_2_">
															<use xlink:href="#SVGID_1_"  style="overflow:visible;"/>
														</clipPath>
														<g class="st0">
															<g id="g1763">
																<path id="path4640" class="st1" d="M-399.7-97.1h2.6l19.3-14.3v-1.8h-3.5L-400.7-99L-399.7-97.1z"/>
																<path id="path6505" class="st1" d="M-378.7-97.1h-2.6l-19.3-14.3v-1.8h3.5l19.4,14.2L-378.7-97.1z"/>
																<path id="path7127" class="st2" d="M-400.2-97.1h1.6l7-5h-1.6L-400.2-97.1z"/>
																<path id="path8371" class="st2" d="M-386.9-108.2h1.6l7-5h-1.6L-386.9-108.2z"/>
																<path id="path8994" class="st2" d="M-377.8-96.8v-1.1l-5.8-4.2h-1.8L-377.8-96.8z"/>
																<path id="path9616" class="st2" d="M-400.6-113.5v1.1l5.8,4.2h1.8L-400.6-113.5z"/>
																<rect id="rect1530" x="-391.7" y="-115.2" class="st1" width="5" height="19"/>
																<rect id="rect2152" x="-402.7" y="-108.2" class="st1" width="25.9" height="5.8"/>
																<rect id="rect3395" x="-402.7" y="-107.2" class="st2" width="25.9" height="3.8"/>
																<rect id="rect4017" x="-390.7" y="-115.2" class="st2" width="3" height="19"/>
															</g>
														</g>
													</g>
												</g>
											</g>
										</g>
									</g>
								</g>
							</g>
						</g>
					</g>
				</g>
			</g>
		</g>
	</g>
</g>
<g>
	<circle class="st3" cx="22.3" cy="22.3" r="10.6"/>
	<g>
		<g>
			<path class="st1" d="M26.94,19.27h-2.08l4.39-2.84c-0.12-0.15-0.25-0.29-0.39-0.43l-4.23,2.76V13.5
				c-0.31-0.08-0.62-0.15-0.93-0.2v5.96v1.21h0.93h0.16h6.43c-0.08-0.41-0.19-0.82-0.33-1.21h-0.81l0.65-0.42
				c-0.21-0.52-0.48-1.03-0.79-1.51l-2.97,1.94H26.94z"/>
			<path class="st1" d="M19.97,18.75l-4.23-2.76c-0.4,0.42-0.76,0.87-1.07,1.34l2.99,1.94h-2.1l-1.45-0.94
				c-0.08,0.17-0.16,0.34-0.23,0.52l0.65,0.42h-0.81c-0.14,0.4-0.25,0.8-0.33,1.21h6.58h0.93v-1.21v-5.96
				c-0.31,0.05-0.63,0.11-0.93,0.2V18.75z"/>
			<path class="st4" d="M19.97,13.5c-1.5,0.4-2.93,1.18-4.1,2.36c-0.04,0.04-0.08,0.09-0.13,0.13l4.23,2.76V13.5z"/>
			<path class="st5" d="M17.66,19.27l-2.99-1.94c-0.21,0.32-0.4,0.65-0.56,0.99l1.45,0.94H17.66z"/>
			<path class="st4" d="M13.88,18.84c-0.06,0.14-0.11,0.28-0.16,0.42h0.81L13.88,18.84z"/>
			<path class="st4" d="M28.86,15.99c-0.04-0.04-0.08-0.09-0.13-0.13c-1.18-1.18-2.6-1.96-4.11-2.36v5.25L28.86,15.99z"/>
			<path class="st5" d="M24.86,19.27h2.08h0.02l2.97-1.94c-0.2-0.31-0.43-0.62-0.68-0.91L24.86,19.27z"/>
			<path class="st4" d="M30.88,19.27c-0.05-0.14-0.1-0.28-0.16-0.42l-0.65,0.42H30.88z"/>
			<path class="st5" d="M23.7,25.33v-1.21h0.93h0.16h6.43c0.24-1.2,0.24-2.44,0-3.64h-6.43h-0.16H23.7v-1.21v-5.96
				c-0.46-0.07-0.93-0.11-1.4-0.11c-0.47,0-0.94,0.04-1.4,0.11v5.96v1.21h-0.93h-6.58c-0.24,1.2-0.24,2.44,0,3.64h6.58h0.93v1.21
				v5.96c0.46,0.07,0.93,0.11,1.4,0.11c0.47,0,0.94-0.04,1.4-0.11V25.33z"/>
			<path class="st1" d="M24.63,24.12H23.7v1.21v5.96c0.31-0.05,0.63-0.11,0.93-0.2v-3.73v-0.7v-0.82l4.23,2.76
				c0.4-0.42,0.76-0.87,1.07-1.34l-2.98-1.93h0.01h0.82h1.25h0.02l1.44,0.94c0.08-0.17,0.16-0.34,0.23-0.52l-0.65-0.42h0.81
				c0.14-0.4,0.25-0.8,0.33-1.21h-6.43H24.63z"/>
			<path class="st1" d="M14.53,25.33l-0.65,0.42c0.21,0.52,0.47,1.02,0.79,1.5l2.95-1.92h0.04l0,0h2.05h0.01l-4.37,2.84
				c0.13,0.15,0.26,0.29,0.39,0.44l4.23-2.76v5.25c0.31,0.08,0.62,0.15,0.93,0.2v-5.96v-1.21h-0.93h-6.58
				c0.08,0.41,0.19,0.82,0.33,1.21H14.53z"/>
			<path class="st4" d="M15.74,28.61c0.04,0.04,0.08,0.09,0.13,0.13c1.18,1.18,2.6,1.96,4.1,2.36v-5.25L15.74,28.61z"/>
			<path class="st5" d="M19.7,25.33h-2.05l0,0h-0.04l-2.95,1.92c0.2,0.32,0.43,0.62,0.68,0.91l4.37-2.84H19.7z"/>
			<path class="st4" d="M13.72,25.33c0.05,0.14,0.1,0.28,0.16,0.42l0.65-0.42H13.72z"/>
			<path class="st4" d="M24.63,26.67v0.7v3.73c1.5-0.4,2.93-1.18,4.11-2.36c0.04-0.04,0.08-0.09,0.13-0.13l-4.23-2.76V26.67z"/>
			<path class="st5" d="M29.03,25.33h-1.25h-0.82h-0.01l2.98,1.93c0.21-0.32,0.4-0.65,0.56-0.99l-1.44-0.94H29.03z"/>
			<path class="st4" d="M30.72,25.76c0.06-0.14,0.11-0.28,0.16-0.42h-0.81L30.72,25.76z"/>
		</g>
	</g>
</g>
<g>
	<circle class="st6" cx="55.3" cy="22.3" r="10.4"/>
	<g>
		<g>
			<path class="st1" d="M59.94,19.27h-2.08l4.39-2.84c-0.12-0.15-0.25-0.29-0.39-0.43l-4.23,2.76V13.5
				c-0.31-0.08-0.62-0.15-0.93-0.2v5.96v1.21h0.93h0.16h6.43c-0.08-0.41-0.19-0.82-0.33-1.21h-0.81l0.65-0.42
				c-0.21-0.52-0.48-1.03-0.79-1.51l-2.97,1.94H59.94z"/>
			<path class="st1" d="M52.97,18.75l-4.23-2.76c-0.4,0.42-0.76,0.87-1.07,1.34l2.99,1.94h-2.1l-1.45-0.94
				c-0.08,0.17-0.16,0.34-0.23,0.52l0.65,0.42h-0.81c-0.14,0.4-0.25,0.8-0.33,1.21h6.58h0.93v-1.21v-5.96
				c-0.31,0.05-0.63,0.11-0.93,0.2V18.75z"/>
			<path class="st4" d="M52.97,13.5c-1.5,0.4-2.93,1.18-4.1,2.36c-0.04,0.04-0.08,0.09-0.13,0.13l4.23,2.76V13.5z"/>
			<path class="st5" d="M50.66,19.27l-2.99-1.94c-0.21,0.32-0.4,0.65-0.56,0.99l1.45,0.94H50.66z"/>
			<path class="st4" d="M46.88,18.84c-0.06,0.14-0.11,0.28-0.16,0.42h0.81L46.88,18.84z"/>
			<path class="st4" d="M61.86,15.99c-0.04-0.04-0.08-0.09-0.13-0.13c-1.18-1.18-2.6-1.96-4.11-2.36v5.25L61.86,15.99z"/>
			<path class="st5" d="M57.86,19.27h2.08h0.02l2.97-1.94c-0.2-0.31-0.43-0.62-0.68-0.91L57.86,19.27z"/>
			<path class="st4" d="M63.88,19.27c-0.05-0.14-0.1-0.28-0.16-0.42l-0.65,0.42H63.88z"/>
			<path class="st5" d="M56.7,25.33v-1.21h0.93h0.16h6.43c0.24-1.2,0.24-2.44,0-3.64h-6.43h-0.16H56.7v-1.21v-5.96
				c-0.46-0.07-0.93-0.11-1.4-0.11c-0.47,0-0.94,0.04-1.4,0.11v5.96v1.21h-0.93h-6.58c-0.24,1.2-0.24,2.44,0,3.64h6.58h0.93v1.21
				v5.96c0.46,0.07,0.93,0.11,1.4,0.11c0.47,0,0.94-0.04,1.4-0.11V25.33z"/>
			<path class="st1" d="M57.63,24.12H56.7v1.21v5.96c0.31-0.05,0.63-0.11,0.93-0.2v-3.73v-0.7v-0.82l4.23,2.76
				c0.4-0.42,0.76-0.87,1.07-1.34l-2.98-1.93h0.01h0.82h1.25h0.02l1.44,0.94c0.08-0.17,0.16-0.34,0.23-0.52l-0.65-0.42h0.81
				c0.14-0.4,0.25-0.8,0.33-1.21h-6.43H57.63z"/>
			<path class="st1" d="M47.53,25.33l-0.65,0.42c0.21,0.52,0.47,1.02,0.79,1.5l2.95-1.92h0.04l0,0h2.05h0.01l-4.37,2.84
				c0.13,0.15,0.26,0.29,0.39,0.44l4.23-2.76v5.25c0.31,0.08,0.62,0.15,0.93,0.2v-5.96v-1.21h-0.93h-6.58
				c0.08,0.41,0.19,0.82,0.33,1.21H47.53z"/>
			<path class="st4" d="M48.74,28.61c0.04,0.04,0.08,0.09,0.13,0.13c1.18,1.18,2.6,1.96,4.1,2.36v-5.25L48.74,28.61z"/>
			<path class="st5" d="M52.7,25.33h-2.05l0,0h-0.04l-2.95,1.92c0.2,0.32,0.43,0.62,0.68,0.91l4.37-2.84H52.7z"/>
			<path class="st4" d="M46.72,25.33c0.05,0.14,0.1,0.28,0.16,0.42l0.65-0.42H46.72z"/>
			<path class="st4" d="M57.63,26.67v0.7v3.73c1.5-0.4,2.93-1.18,4.11-2.36c0.04-0.04,0.08-0.09,0.13-0.13l-4.23-2.76V26.67z"/>
			<path class="st5" d="M62.03,25.33h-1.25h-0.82h-0.01l2.98,1.93c0.21-0.32,0.4-0.65,0.56-0.99l-1.44-0.94H62.03z"/>
			<path class="st4" d="M63.72,25.76c0.06-0.14,0.11-0.28,0.16-0.42h-0.81L63.72,25.76z"/>
		</g>
	</g>
</g>
</svg>
