<?xml version="1.0" encoding="utf-8"?>
<!-- Generator: Adobe Illustrator 24.1.3, SVG Export Plug-In . SVG Version: 6.00 Build 0)  -->
<svg version="1.1" id="Layer_1" xmlns="http://www.w3.org/2000/svg" xmlns:xlink="http://www.w3.org/1999/xlink" x="0px" y="0px"
	 viewBox="0 0 78.3 44.8" style="enable-background:new 0 0 78.3 44.8;" xml:space="preserve">
<style type="text/css">
	.st0{clip-path:url(#SVGID_2_);}
	.st1{fill:#FFFFFF;}
	.st2{fill:#F20000;}
	.st3{fill:none;stroke:#000000;stroke-width:1.5;stroke-miterlimit:10;}
	.st4{fill:#0043B6;}
	.st5{fill:#E30012;}
	.st6{fill:#FFDD00;}
	.st7{fill:none;stroke:#FFFFFF;stroke-width:1.5;stroke-miterlimit:10;}
</style>
<g>
	<g>
		<g>
			<g>
				<g>
					<g>
						<g>
							<g>
								<g>
									<g>
										<g>
											<g>
												<g>
													<g>
														<defs>
															
																<ellipse id="SVGID_1_" transform="matrix(0.9995 -0.0314 0.0314 0.9995 584.0901 -148.1315)" cx="-4418.38" cy="-18647.49" rx="150.7" ry="150.7"/>
														</defs>
														<clipPath id="SVGID_2_">
															<use xlink:href="#SVGID_1_"  style="overflow:visible;"/>
														</clipPath>
														<g class="st0">
															<g id="g1763">
																<path id="path4640" class="st1" d="M-399.7-97.1h2.6l19.3-14.3v-1.8h-3.5L-400.7-99L-399.7-97.1z"/>
																<path id="path6505" class="st1" d="M-378.7-97.1h-2.6l-19.3-14.3v-1.8h3.5l19.4,14.2L-378.7-97.1z"/>
																<path id="path7127" class="st2" d="M-400.2-97.1h1.6l7-5h-1.6L-400.2-97.1z"/>
																<path id="path8371" class="st2" d="M-386.9-108.2h1.6l7-5h-1.6L-386.9-108.2z"/>
																<path id="path8994" class="st2" d="M-377.8-96.8v-1.1l-5.8-4.2h-1.8L-377.8-96.8z"/>
																<path id="path9616" class="st2" d="M-400.6-113.5v1.1l5.8,4.2h1.8L-400.6-113.5z"/>
																<rect id="rect1530" x="-391.7" y="-115.2" class="st1" width="5" height="19"/>
																<rect id="rect2152" x="-402.7" y="-108.2" class="st1" width="25.9" height="5.8"/>
																<rect id="rect3395" x="-402.7" y="-107.2" class="st2" width="25.9" height="3.8"/>
																<rect id="rect4017" x="-390.7" y="-115.2" class="st2" width="3" height="19"/>
															</g>
														</g>
													</g>
												</g>
											</g>
										</g>
									</g>
								</g>
							</g>
						</g>
					</g>
				</g>
			</g>
		</g>
	</g>
</g>
<g>
	<circle class="st3" cx="22.3" cy="22.3" r="10.6"/>
	<g>
		<g>
			<path class="st4" d="M20.25,19.81c-0.03,0.36-0.1,0.58-0.21,0.84c-0.42,0.97-1.35,1.45-1.91,1.68c-0.32-0.12-1.35-0.54-1.87-1.6
				c-0.17-0.34-0.24-0.66-0.28-0.92l-0.04-0.54h-2.22c-0.69,1.96-0.69,4.11,0,6.07h17.17c0.69-1.96,0.69-4.11,0-6.07H20.29
				C20.28,19.45,20.26,19.63,20.25,19.81z"/>
			<path class="st1" d="M13.72,19.27h2.22l-0.18-2.5c0.05-0.02,0.11-0.05,0.17-0.08c0.46-0.21,1.24-0.47,2.22-0.46
				c0.95,0,1.69,0.26,2.15,0.46c0.07,0.03,0.13,0.06,0.18,0.08c-0.06,0.83-0.13,1.66-0.19,2.5h10.59c-0.44-1.24-1.15-2.41-2.15-3.4
				c-1.78-1.77-4.11-2.66-6.44-2.66c-2.33,0-4.66,0.89-6.44,2.66C14.87,16.86,14.15,18.03,13.72,19.27z"/>
			<path class="st5" d="M30.88,25.34H13.72c0.44,1.24,1.15,2.41,2.15,3.4c1.77,1.77,4.11,2.66,6.44,2.66c2.33,0,4.66-0.89,6.44-2.66
				C29.73,27.75,30.45,26.58,30.88,25.34z"/>
			<path class="st4" d="M19.89,19.96c0,0.05-0.01,0.25-0.16,0.42c-0.02,0.02-0.16,0.17-0.38,0.2c-0.28,0.04-0.34-0.17-0.63-0.17
				c-0.29-0.01-0.32,0.18-0.61,0.17c-0.28-0.01-0.3-0.18-0.56-0.17c-0.26,0.01-0.32,0.19-0.6,0.17c-0.05,0-0.19-0.01-0.32-0.1
				c-0.25-0.16-0.27-0.47-0.28-0.52l0.51-0.69H16.1l0.03,0.41c0.03,0.26,0.1,0.57,0.26,0.9c0.49,1.04,1.43,1.45,1.73,1.57
				c0.52-0.22,1.37-0.69,1.76-1.64c0.11-0.26,0.17-0.47,0.2-0.83c0.01-0.14,0.02-0.27,0.03-0.41h-0.74L19.89,19.96z M18.63,21.71
				c-0.18,0.11-0.36,0.18-0.51,0.23c-0.17-0.05-0.4-0.13-0.65-0.29c-0.3-0.2-0.5-0.43-0.61-0.59c0.04,0,0.09,0.01,0.15,0
				c0.17-0.02,0.26-0.1,0.34-0.14c0.24-0.11,0.37,0.15,0.75,0.15c0.34-0.01,0.42-0.23,0.68-0.15c0.08,0.03,0.17,0.08,0.36,0.12
				c0.09,0.02,0.16,0.02,0.21,0.03C19.22,21.25,18.99,21.5,18.63,21.71z M19.51,20.87c-0.06,0.01-0.14,0.02-0.24,0.02
				c-0.28-0.01-0.36-0.12-0.57-0.14c-0.27-0.03-0.28,0.16-0.58,0.16c-0.34,0.01-0.41-0.22-0.7-0.16c-0.14,0.03-0.2,0.1-0.41,0.12
				c-0.11,0.01-0.2,0-0.26-0.01l-0.16-0.26c0.05,0.03,0.13,0.08,0.24,0.1c0.3,0.06,0.43-0.16,0.76-0.15
				c0.25,0.01,0.25,0.15,0.51,0.15c0.29,0,0.32-0.16,0.59-0.16c0.27,0,0.34,0.17,0.62,0.16c0.16,0,0.28-0.06,0.37-0.11
				C19.62,20.7,19.56,20.78,19.51,20.87z"/>
			<polygon class="st4" points="18.65,19.27 18.64,19.27 18.64,19.28 			"/>
			<path class="st4" d="M16.87,19.27l0.36-0.48l0.36,0.46l0.53-1.05l0.52,1.07h0.01l0.34-0.49l0.38,0.49h0.74
				c0.06-0.86,0.13-1.73,0.19-2.58c-0.46-0.2-1.21-0.45-2.15-0.46c-0.98,0-1.75,0.26-2.22,0.46l0.17,2.58H16.87z M18.59,16.62
				l0.13,0.01l0.05-0.12l0.05,0.12l0.13-0.01l-0.08,0.11l0.08,0.11l-0.13-0.01l-0.05,0.12l-0.05-0.12l-0.13,0.01l0.08-0.11
				L18.59,16.62z M17.93,17.51l0.13,0.01l0.05-0.12l0.05,0.12l0.13-0.01l-0.08,0.11l0.08,0.11l-0.13-0.01l-0.05,0.12l-0.05-0.12
				l-0.13,0.01l0.08-0.11L17.93,17.51z M17.27,16.62l0.13,0.01l0.05-0.12l0.05,0.12l0.13-0.01l-0.08,0.11l0.08,0.11l-0.13-0.01
				l-0.05,0.12l-0.05-0.12l-0.13,0.01l0.08-0.11L17.27,16.62z"/>
			<path class="st5" d="M16.25,20.73c0.53,1.07,1.55,1.49,1.87,1.6c0.56-0.23,1.49-0.71,1.91-1.68c0.11-0.26,0.19-0.48,0.21-0.84
				c0.01-0.18,0.03-0.36,0.04-0.54h-0.18c-0.01,0.14-0.02,0.28-0.03,0.41c-0.03,0.35-0.09,0.57-0.2,0.83
				c-0.39,0.95-1.25,1.42-1.76,1.64c-0.3-0.12-1.24-0.52-1.73-1.57c-0.15-0.33-0.23-0.64-0.26-0.9l-0.03-0.41h-0.16l0.04,0.54
				C16.01,20.07,16.09,20.39,16.25,20.73z"/>
			<path class="st5" d="M15.93,16.69c-0.06,0.03-0.12,0.05-0.17,0.08l0.18,2.5h0.16L15.93,16.69z"/>
			<path class="st5" d="M20.29,19.27c0.06-0.83,0.13-1.66,0.19-2.5c-0.05-0.03-0.11-0.05-0.18-0.08c-0.06,0.85-0.13,1.72-0.19,2.58
				H20.29z"/>
			<polygon class="st6" points="17.4,16.82 17.45,16.94 17.51,16.82 17.64,16.83 17.56,16.73 17.64,16.62 17.51,16.63 17.45,16.52 
				17.4,16.63 17.27,16.62 17.35,16.73 17.27,16.83 			"/>
			<polygon class="st6" points="18.73,16.82 18.78,16.94 18.83,16.82 18.96,16.83 18.88,16.73 18.96,16.62 18.83,16.63 18.78,16.52 
				18.73,16.63 18.59,16.62 18.67,16.73 18.59,16.83 			"/>
			<polygon class="st6" points="18.06,17.71 18.12,17.83 18.17,17.71 18.3,17.72 18.22,17.62 18.3,17.51 18.17,17.53 18.12,17.41 
				18.06,17.53 17.93,17.51 18.01,17.62 17.93,17.72 			"/>
			<path class="st1" d="M16.63,20.48c0.13,0.09,0.27,0.1,0.32,0.1c0.28,0.01,0.35-0.16,0.6-0.17c0.26-0.01,0.27,0.16,0.56,0.17
				c0.29,0.01,0.32-0.18,0.61-0.17c0.3,0.01,0.36,0.21,0.63,0.17c0.22-0.03,0.36-0.18,0.38-0.2c0.15-0.17,0.16-0.37,0.16-0.42
				l-0.52-0.69h-0.72l-0.01,0.01l-0.01-0.01h-1.77l-0.51,0.69C16.36,20.01,16.39,20.31,16.63,20.48z"/>
			<polygon class="st1" points="18.99,18.77 18.65,19.27 19.37,19.27 			"/>
			<polygon class="st1" points="18.12,18.2 17.58,19.25 17.23,18.79 16.87,19.27 18.64,19.27 			"/>
			<path class="st1" d="M18.79,20.92c-0.26-0.08-0.33,0.14-0.68,0.15c-0.38,0.01-0.51-0.26-0.75-0.15
				c-0.08,0.04-0.17,0.12-0.34,0.14c-0.06,0.01-0.12,0-0.15,0c0.11,0.16,0.3,0.39,0.61,0.59c0.25,0.16,0.48,0.25,0.65,0.29
				c0.15-0.05,0.32-0.12,0.51-0.23c0.36-0.21,0.59-0.47,0.73-0.65c-0.05,0-0.12-0.01-0.21-0.03C18.97,21,18.88,20.95,18.79,20.92z"
				/>
			<path class="st1" d="M18.68,20.56c-0.27,0-0.3,0.16-0.59,0.16c-0.26,0-0.26-0.14-0.51-0.15c-0.32-0.01-0.46,0.2-0.76,0.15
				c-0.11-0.02-0.19-0.07-0.24-0.1l0.16,0.26c0.06,0.01,0.15,0.02,0.26,0.01c0.21-0.02,0.27-0.09,0.41-0.12
				c0.29-0.06,0.36,0.17,0.7,0.16c0.3-0.01,0.31-0.19,0.58-0.16c0.2,0.02,0.29,0.13,0.57,0.14c0.1,0,0.19-0.01,0.24-0.02
				c0.05-0.09,0.11-0.17,0.16-0.26c-0.08,0.05-0.21,0.1-0.37,0.11C19.02,20.72,18.95,20.56,18.68,20.56z"/>
		</g>
	</g>
</g>
<g>
	<circle class="st7" cx="55.3" cy="22.3" r="10.6"/>
</g>
<g>
	<g>
		<path class="st4" d="M53.25,19.8c-0.03,0.36-0.1,0.58-0.21,0.84c-0.42,0.97-1.35,1.45-1.91,1.68c-0.32-0.12-1.35-0.54-1.87-1.6
			c-0.17-0.34-0.24-0.66-0.28-0.92l-0.04-0.54h-2.22c-0.69,1.96-0.69,4.11,0,6.07h17.17c0.69-1.96,0.69-4.11,0-6.07H53.29
			C53.28,19.45,53.26,19.62,53.25,19.8z"/>
		<path class="st1" d="M46.72,19.27h2.22l-0.18-2.5c0.05-0.02,0.11-0.05,0.17-0.08c0.46-0.21,1.24-0.47,2.22-0.46
			c0.95,0,1.69,0.26,2.15,0.46c0.07,0.03,0.13,0.06,0.18,0.08c-0.06,0.83-0.13,1.66-0.19,2.5h10.59c-0.44-1.24-1.15-2.41-2.15-3.4
			c-1.78-1.77-4.11-2.66-6.44-2.66c-2.33,0-4.66,0.89-6.44,2.66C47.87,16.86,47.15,18.02,46.72,19.27z"/>
		<path class="st5" d="M63.88,25.33H46.72c0.44,1.24,1.15,2.41,2.15,3.4c1.77,1.77,4.11,2.66,6.44,2.66c2.33,0,4.66-0.89,6.44-2.66
			C62.73,27.74,63.45,26.58,63.88,25.33z"/>
		<path class="st4" d="M52.89,19.95c0,0.05-0.01,0.25-0.16,0.42c-0.02,0.02-0.16,0.17-0.38,0.2c-0.28,0.04-0.34-0.17-0.63-0.17
			c-0.29-0.01-0.32,0.18-0.61,0.17c-0.28-0.01-0.3-0.18-0.56-0.17c-0.26,0.01-0.32,0.19-0.6,0.17c-0.05,0-0.19-0.01-0.32-0.1
			c-0.25-0.16-0.27-0.47-0.28-0.52l0.51-0.69H49.1l0.03,0.41c0.03,0.26,0.1,0.57,0.26,0.9c0.49,1.04,1.43,1.45,1.73,1.57
			c0.52-0.22,1.37-0.69,1.76-1.64c0.11-0.26,0.17-0.47,0.2-0.83c0.01-0.14,0.02-0.27,0.03-0.41h-0.74L52.89,19.95z M51.63,21.71
			c-0.18,0.11-0.36,0.18-0.51,0.23c-0.17-0.05-0.4-0.13-0.65-0.29c-0.3-0.2-0.5-0.43-0.61-0.59c0.04,0,0.09,0.01,0.15,0
			c0.17-0.02,0.26-0.1,0.34-0.14c0.24-0.11,0.37,0.15,0.75,0.15c0.34-0.01,0.42-0.23,0.68-0.15c0.08,0.03,0.17,0.08,0.36,0.12
			c0.09,0.02,0.16,0.02,0.21,0.03C52.22,21.24,51.99,21.5,51.63,21.71z M52.51,20.87c-0.06,0.01-0.14,0.02-0.24,0.02
			c-0.28-0.01-0.36-0.12-0.57-0.14c-0.27-0.03-0.28,0.16-0.58,0.16c-0.34,0.01-0.41-0.22-0.7-0.16c-0.14,0.03-0.2,0.1-0.41,0.12
			c-0.11,0.01-0.2,0-0.26-0.01l-0.16-0.26c0.05,0.03,0.13,0.08,0.24,0.1c0.3,0.06,0.43-0.16,0.76-0.15
			c0.25,0.01,0.25,0.15,0.51,0.15c0.29,0,0.32-0.16,0.59-0.16c0.27,0,0.34,0.17,0.62,0.16c0.16,0,0.28-0.06,0.37-0.11
			C52.62,20.69,52.56,20.78,52.51,20.87z"/>
		<polygon class="st4" points="51.65,19.27 51.64,19.27 51.64,19.28 		"/>
		<path class="st4" d="M49.87,19.27l0.36-0.48l0.36,0.46l0.53-1.05l0.52,1.07h0.01l0.34-0.49l0.38,0.49h0.74
			c0.06-0.86,0.13-1.73,0.19-2.58c-0.46-0.2-1.21-0.45-2.15-0.46c-0.98,0-1.75,0.26-2.22,0.46l0.17,2.58H49.87z M51.59,16.62
			l0.13,0.01l0.05-0.12l0.05,0.12l0.13-0.01l-0.08,0.11l0.08,0.11l-0.13-0.01l-0.05,0.12l-0.05-0.12l-0.13,0.01l0.08-0.11
			L51.59,16.62z M50.93,17.51l0.13,0.01l0.05-0.12l0.05,0.12l0.13-0.01l-0.08,0.11l0.08,0.11l-0.13-0.01l-0.05,0.12l-0.05-0.12
			l-0.13,0.01l0.08-0.11L50.93,17.51z M50.27,16.62l0.13,0.01l0.05-0.12l0.05,0.12l0.13-0.01l-0.08,0.11l0.08,0.11l-0.13-0.01
			l-0.05,0.12l-0.05-0.12l-0.13,0.01l0.08-0.11L50.27,16.62z"/>
		<path class="st5" d="M49.25,20.72c0.53,1.07,1.55,1.49,1.87,1.6c0.56-0.23,1.49-0.71,1.91-1.68c0.11-0.26,0.19-0.48,0.21-0.84
			c0.01-0.18,0.03-0.36,0.04-0.54h-0.18c-0.01,0.14-0.02,0.28-0.03,0.41c-0.03,0.35-0.09,0.57-0.2,0.83
			c-0.39,0.95-1.25,1.42-1.76,1.64c-0.3-0.12-1.24-0.52-1.73-1.57c-0.15-0.33-0.23-0.64-0.26-0.9l-0.03-0.41h-0.16l0.04,0.54
			C49.01,20.07,49.09,20.39,49.25,20.72z"/>
		<path class="st5" d="M48.93,16.69c-0.06,0.03-0.12,0.05-0.17,0.08l0.18,2.5h0.16L48.93,16.69z"/>
		<path class="st5" d="M53.29,19.27c0.06-0.83,0.13-1.66,0.19-2.5c-0.05-0.03-0.11-0.05-0.18-0.08c-0.06,0.85-0.13,1.72-0.19,2.58
			H53.29z"/>
		<polygon class="st6" points="50.4,16.81 50.45,16.93 50.51,16.81 50.64,16.83 50.56,16.72 50.64,16.62 50.51,16.63 50.45,16.51 
			50.4,16.63 50.27,16.62 50.35,16.72 50.27,16.83 		"/>
		<polygon class="st6" points="51.73,16.81 51.78,16.93 51.83,16.81 51.96,16.83 51.88,16.72 51.96,16.62 51.83,16.63 51.78,16.51 
			51.73,16.63 51.59,16.62 51.67,16.72 51.59,16.83 		"/>
		<polygon class="st6" points="51.06,17.71 51.12,17.83 51.17,17.71 51.3,17.72 51.22,17.62 51.3,17.51 51.17,17.52 51.12,17.4 
			51.06,17.52 50.93,17.51 51.01,17.62 50.93,17.72 		"/>
		<path class="st1" d="M49.63,20.48c0.13,0.09,0.27,0.1,0.32,0.1c0.28,0.01,0.35-0.16,0.6-0.17c0.26-0.01,0.27,0.16,0.56,0.17
			c0.29,0.01,0.32-0.18,0.61-0.17c0.3,0.01,0.36,0.21,0.63,0.17c0.22-0.03,0.36-0.18,0.38-0.2c0.15-0.17,0.16-0.37,0.16-0.42
			l-0.52-0.69h-0.72l-0.01,0.01l-0.01-0.01h-1.77l-0.51,0.69C49.36,20,49.39,20.31,49.63,20.48z"/>
		<polygon class="st1" points="51.99,18.77 51.65,19.27 52.37,19.27 		"/>
		<polygon class="st1" points="51.12,18.2 50.58,19.25 50.23,18.79 49.87,19.27 51.64,19.27 		"/>
		<path class="st1" d="M51.79,20.92c-0.26-0.08-0.33,0.14-0.68,0.15c-0.38,0.01-0.51-0.26-0.75-0.15c-0.08,0.04-0.17,0.12-0.34,0.14
			c-0.06,0.01-0.12,0-0.15,0c0.11,0.16,0.3,0.39,0.61,0.59c0.25,0.16,0.48,0.25,0.65,0.29c0.15-0.05,0.32-0.12,0.51-0.23
			c0.36-0.21,0.59-0.47,0.73-0.65c-0.05,0-0.12-0.01-0.21-0.03C51.97,21,51.88,20.94,51.79,20.92z"/>
		<path class="st1" d="M51.68,20.55c-0.27,0-0.3,0.16-0.59,0.16c-0.26,0-0.26-0.14-0.51-0.15c-0.32-0.01-0.46,0.2-0.76,0.15
			c-0.11-0.02-0.19-0.07-0.24-0.1l0.16,0.26c0.06,0.01,0.15,0.02,0.26,0.01c0.21-0.02,0.27-0.09,0.41-0.12
			c0.29-0.06,0.36,0.17,0.7,0.16c0.3-0.01,0.31-0.19,0.58-0.16c0.2,0.02,0.29,0.13,0.57,0.14c0.1,0,0.19-0.01,0.24-0.02
			c0.05-0.09,0.11-0.17,0.16-0.26c-0.08,0.05-0.21,0.1-0.37,0.11C52.02,20.72,51.95,20.56,51.68,20.55z"/>
	</g>
</g>
</svg>
