<?xml version="1.0" encoding="utf-8"?>
<!-- Generator: Adobe Illustrator 24.1.3, SVG Export Plug-In . SVG Version: 6.00 Build 0)  -->
<svg version="1.1" id="Layer_1" xmlns="http://www.w3.org/2000/svg" xmlns:xlink="http://www.w3.org/1999/xlink" x="0px" y="0px"
	 viewBox="0 0 78.3 44.8" style="enable-background:new 0 0 78.3 44.8;" xml:space="preserve">
<style type="text/css">
	.st0{clip-path:url(#SVGID_2_);}
	.st1{fill:#FFFFFF;}
	.st2{fill:#F20000;}
	.st3{fill:none;stroke:#FFFFFF;stroke-width:1.5;stroke-miterlimit:10;}
	.st4{fill:#E2292D;}
	.st5{fill:#184B9E;}
	.st6{fill:#FDFEFF;}
	.st7{fill:none;stroke:#000000;stroke-width:1.5;stroke-miterlimit:10;}
</style>
<g>
	<g>
		<g>
			<g>
				<g>
					<g>
						<g>
							<g>
								<g>
									<g>
										<g>
											<g>
												<g>
													<g>
														<defs>
															
																<ellipse id="SVGID_1_" transform="matrix(0.9995 -0.0314 0.0314 0.9995 584.0901 -148.1315)" cx="-4418.38" cy="-18647.49" rx="150.7" ry="150.7"/>
														</defs>
														<clipPath id="SVGID_2_">
															<use xlink:href="#SVGID_1_"  style="overflow:visible;"/>
														</clipPath>
														<g class="st0">
															<g id="g1763">
																<path id="path4640" class="st1" d="M-399.7-97.1h2.6l19.3-14.3v-1.8h-3.5L-400.7-99L-399.7-97.1z"/>
																<path id="path6505" class="st1" d="M-378.7-97.1h-2.6l-19.3-14.3v-1.8h3.5l19.4,14.2L-378.7-97.1z"/>
																<path id="path7127" class="st2" d="M-400.2-97.1h1.6l7-5h-1.6L-400.2-97.1z"/>
																<path id="path8371" class="st2" d="M-386.9-108.2h1.6l7-5h-1.6L-386.9-108.2z"/>
																<path id="path8994" class="st2" d="M-377.8-96.8v-1.1l-5.8-4.2h-1.8L-377.8-96.8z"/>
																<path id="path9616" class="st2" d="M-400.6-113.5v1.1l5.8,4.2h1.8L-400.6-113.5z"/>
																<rect id="rect1530" x="-391.7" y="-115.2" class="st1" width="5" height="19"/>
																<rect id="rect2152" x="-402.7" y="-108.2" class="st1" width="25.9" height="5.8"/>
																<rect id="rect3395" x="-402.7" y="-107.2" class="st2" width="25.9" height="3.8"/>
																<rect id="rect4017" x="-390.7" y="-115.2" class="st2" width="3" height="19"/>
															</g>
														</g>
													</g>
												</g>
											</g>
										</g>
									</g>
								</g>
							</g>
						</g>
					</g>
				</g>
			</g>
		</g>
	</g>
</g>
<g>
	<circle class="st3" cx="55.3" cy="22.3" r="10.6"/>
</g>
<g>
	<g>
		<g>
			<path class="st4" d="M22.31,19.57c0-0.1,0-0.2-0.01-0.31c-0.01-0.5-0.03-1-0.05-1.5h-7.12c-0.02,0.5-0.04,1-0.06,1.5
				c-0.01,0.18-0.01,0.36-0.01,0.54c-0.01,0.66-0.02,1.33-0.01,1.99c0.01,0.94,0.26,1.86,0.73,2.65c0.13-0.42,0.5-0.71,0.89-0.72
				c0.34-0.01,0.67,0.18,0.86,0.49c0.05-0.15,0.16-0.44,0.44-0.69c0.06-0.06,0.2-0.18,0.37-0.27V21.8h-0.95
				c-0.13,0-0.29,0.01-0.46,0.04s-0.33,0.08-0.45,0.13c0.02-0.15,0.03-0.32,0.03-0.51c0-0.19-0.01-0.37-0.03-0.52
				c0.13,0.04,0.28,0.09,0.46,0.12c0.17,0.03,0.32,0.05,0.45,0.05h0.95v-0.96h-0.56c-0.13,0-0.29,0.01-0.47,0.04
				c-0.18,0.03-0.33,0.08-0.44,0.13c0.02-0.15,0.03-0.32,0.03-0.51c0-0.19-0.01-0.37-0.03-0.52c0.13,0.04,0.28,0.09,0.45,0.12
				c0.17,0.03,0.32,0.05,0.46,0.05h0.56v-0.2v-0.29c0-0.13-0.01-0.29-0.04-0.47c-0.03-0.17-0.08-0.32-0.13-0.44
				c0.15,0.02,0.32,0.03,0.51,0.03c0.19,0,0.37-0.01,0.52-0.03c-0.04,0.13-0.09,0.28-0.12,0.46c-0.03,0.17-0.05,0.32-0.05,0.45v0.29
				v0.2h0.56c0.13,0,0.29-0.01,0.47-0.04c0.18-0.03,0.32-0.08,0.44-0.13c-0.02,0.15-0.03,0.32-0.03,0.51c0,0.19,0.01,0.37,0.03,0.52
				c-0.13-0.04-0.28-0.09-0.45-0.12c-0.17-0.03-0.32-0.05-0.46-0.05h-0.56v0.96h0.95c0.13,0,0.3-0.01,0.48-0.04
				c0.17-0.03,0.31-0.08,0.43-0.13c-0.02,0.15-0.03,0.32-0.03,0.51c0,0.19,0.01,0.37,0.03,0.52c-0.13-0.04-0.28-0.09-0.45-0.12
				c-0.17-0.03-0.32-0.05-0.46-0.05h-0.95v1.46c0.32,0.15,0.63,0.49,0.81,0.95c0.02-0.03,0.32-0.5,0.82-0.49
				c0.4,0,0.77,0.29,0.92,0.73c0.48-0.8,0.73-1.72,0.74-2.67C22.33,21.04,22.33,20.3,22.31,19.57z"/>
			<path class="st5" d="M20.67,23.72c-0.5,0-0.8,0.47-0.82,0.49c-0.18-0.46-0.49-0.81-0.81-0.95c-0.14-0.06-0.28-0.09-0.41-0.08
				c-0.1,0.01-0.19,0.04-0.28,0.08c-0.17,0.08-0.31,0.21-0.37,0.27c-0.27,0.25-0.39,0.54-0.44,0.69c-0.19-0.31-0.52-0.51-0.86-0.49
				c-0.4,0.01-0.76,0.3-0.89,0.72c0.14,0.24,0.3,0.47,0.48,0.69l0,0c0.01,0.02,0.03,0.03,0.04,0.05c0.04,0.05,0.09,0.1,0.13,0.15
				c0.76,0.84,1.63,1.28,2.25,1.49c0.62-0.22,1.48-0.66,2.24-1.49c0.04-0.04,0.08-0.09,0.12-0.14c0.1-0.12,0.19-0.24,0.28-0.36
				c0.09-0.13,0.18-0.26,0.26-0.39C21.44,24.01,21.06,23.72,20.67,23.72z"/>
			<path class="st5" d="M22.64,19.57c0.01,0.73,0.02,1.48,0.01,2.21c-0.01,0.58-0.1,1.16-0.28,1.71c-0.18,0.56-0.44,1.07-0.78,1.54
				c-0.07,0.1-0.15,0.21-0.24,0.31h9.53c0.69-1.96,0.69-4.11,0-6.07h-8.25C22.63,19.37,22.64,19.47,22.64,19.57z"/>
			<path class="st5" d="M14.75,19.8c0-0.18,0.01-0.36,0.01-0.54h-1.04c-0.69,1.96-0.69,4.11,0,6.07h2.29
				c-0.81-0.98-1.26-2.24-1.27-3.54C14.73,21.13,14.73,20.46,14.75,19.8z"/>
			<path class="st6" d="M13.72,19.27h1.04c0.02-0.56,0.04-1.12,0.07-1.67l0.01-0.15h7.74l0.01,0.16c0.02,0.55,0.04,1.12,0.05,1.67
				h8.25c-0.44-1.24-1.15-2.41-2.15-3.4c-1.78-1.78-4.11-2.66-6.44-2.66c-2.33,0-4.66,0.89-6.44,2.66
				C14.87,16.86,14.15,18.02,13.72,19.27z"/>
			<path class="st4" d="M30.88,25.33h-9.53c-0.02,0.03-0.04,0.05-0.06,0.08c-0.86,1-1.86,1.5-2.55,1.74l-0.05,0.02l-0.05-0.02
				c-0.7-0.24-1.72-0.74-2.58-1.76c-0.02-0.02-0.03-0.04-0.05-0.05c0,0,0-0.01-0.01-0.01h-2.29c0.44,1.24,1.15,2.41,2.15,3.4
				c1.77,1.77,4.11,2.66,6.44,2.66c2.33,0,4.66-0.89,6.44-2.66C29.73,27.74,30.45,26.58,30.88,25.33z"/>
			<path class="st6" d="M19.04,23.26V21.8h0.95c0.13,0.01,0.29,0.02,0.46,0.05c0.17,0.03,0.32,0.07,0.45,0.12
				c-0.02-0.15-0.03-0.33-0.03-0.52c0-0.19,0.01-0.36,0.03-0.51c-0.12,0.05-0.26,0.09-0.43,0.13c-0.18,0.04-0.35,0.04-0.48,0.04
				h-0.95v-0.96h0.56c0.13,0.01,0.29,0.02,0.46,0.05c0.17,0.03,0.32,0.07,0.45,0.12c-0.02-0.15-0.03-0.33-0.03-0.52
				c0-0.19,0.01-0.36,0.03-0.51c-0.12,0.05-0.27,0.1-0.44,0.13c-0.18,0.03-0.34,0.04-0.47,0.04h-0.56v-0.2v-0.29
				c0.01-0.13,0.02-0.29,0.05-0.45c0.03-0.17,0.07-0.32,0.12-0.46c-0.15,0.02-0.33,0.03-0.52,0.03c-0.19,0-0.36-0.01-0.51-0.03
				c0.05,0.12,0.1,0.27,0.13,0.44c0.03,0.18,0.04,0.34,0.04,0.47v0.29v0.2h-0.56c-0.13-0.01-0.29-0.02-0.46-0.05
				c-0.17-0.03-0.32-0.07-0.45-0.12c0.02,0.15,0.03,0.33,0.03,0.52c0,0.19-0.01,0.36-0.03,0.51c0.12-0.05,0.27-0.1,0.44-0.13
				c0.18-0.03,0.34-0.04,0.47-0.04h0.56v0.96h-0.95c-0.13-0.01-0.29-0.02-0.45-0.05c-0.17-0.03-0.32-0.07-0.46-0.12
				c0.02,0.15,0.03,0.33,0.03,0.52c0,0.19-0.01,0.36-0.03,0.51c0.12-0.05,0.27-0.1,0.45-0.13s0.34-0.04,0.46-0.04h0.95v1.47
				c0.08-0.04,0.18-0.07,0.28-0.08C18.76,23.17,18.9,23.2,19.04,23.26z"/>
			<path class="st6" d="M22.37,23.48c0.18-0.55,0.27-1.12,0.28-1.71c0.01-0.73,0-1.48-0.01-2.21c0-0.1,0-0.2-0.01-0.3
				c-0.01-0.56-0.03-1.12-0.05-1.67l-0.01-0.16h-7.74l-0.01,0.15c-0.03,0.55-0.05,1.12-0.07,1.67c0,0.18-0.01,0.36-0.01,0.54
				c-0.01,0.66-0.02,1.33-0.01,1.99c0.01,1.3,0.46,2.55,1.27,3.54c0,0,0,0.01,0.01,0.01c0.01,0.02,0.03,0.04,0.05,0.05
				c0.86,1.02,1.88,1.52,2.58,1.76l0.05,0.02l0.05-0.02c0.69-0.24,1.69-0.74,2.55-1.74c0.02-0.03,0.04-0.05,0.06-0.08
				c0.08-0.1,0.16-0.2,0.24-0.31C21.93,24.56,22.19,24.04,22.37,23.48z M21.33,24.84c-0.09,0.12-0.18,0.24-0.28,0.36
				c-0.04,0.05-0.08,0.09-0.12,0.14c-0.76,0.83-1.62,1.27-2.24,1.49c-0.62-0.22-1.49-0.65-2.25-1.49c-0.04-0.05-0.09-0.1-0.13-0.15
				c-0.01-0.02-0.03-0.03-0.04-0.05l0,0c-0.18-0.22-0.34-0.45-0.48-0.69c-0.46-0.8-0.72-1.71-0.73-2.65c-0.01-0.66,0-1.33,0.01-1.99
				c0-0.18,0.01-0.36,0.01-0.54c0.01-0.5,0.03-1,0.06-1.5h7.12c0.02,0.5,0.04,1,0.05,1.5c0,0.1,0,0.21,0.01,0.31
				c0.01,0.73,0.02,1.47,0.01,2.2c-0.01,0.96-0.26,1.87-0.74,2.67C21.5,24.58,21.42,24.71,21.33,24.84z"/>
		</g>
	</g>
	<circle class="st7" cx="22.3" cy="22.3" r="10.6"/>
</g>
<g>
	<g>
		<path class="st4" d="M55.31,19.72c0-0.1,0-0.2-0.01-0.31c-0.01-0.5-0.03-1-0.05-1.5h-7.12c-0.02,0.5-0.04,1-0.06,1.5
			c-0.01,0.18-0.01,0.36-0.01,0.54c-0.01,0.66-0.02,1.33-0.01,1.99c0.01,0.94,0.26,1.86,0.73,2.65c0.13-0.42,0.5-0.71,0.89-0.72
			c0.34-0.01,0.67,0.18,0.86,0.49c0.05-0.15,0.16-0.44,0.44-0.69c0.06-0.06,0.2-0.18,0.37-0.27v-1.47h-0.95
			c-0.13,0-0.29,0.01-0.46,0.04s-0.33,0.08-0.45,0.13c0.02-0.15,0.03-0.32,0.03-0.51c0-0.19-0.01-0.37-0.03-0.52
			c0.13,0.04,0.28,0.09,0.46,0.12c0.17,0.03,0.32,0.05,0.45,0.05h0.95V20.3h-0.56c-0.13,0-0.29,0.01-0.47,0.04
			c-0.18,0.03-0.33,0.08-0.44,0.13c0.02-0.15,0.03-0.32,0.03-0.51c0-0.19-0.01-0.37-0.03-0.52c0.13,0.04,0.28,0.09,0.45,0.12
			c0.17,0.03,0.32,0.05,0.46,0.05h0.56v-0.2v-0.29c0-0.13-0.01-0.29-0.04-0.47c-0.03-0.17-0.08-0.32-0.13-0.44
			c0.15,0.02,0.32,0.03,0.51,0.03c0.19,0,0.37-0.01,0.52-0.03c-0.04,0.13-0.09,0.28-0.12,0.46c-0.03,0.17-0.05,0.32-0.05,0.45v0.29
			v0.2h0.56c0.13,0,0.29-0.01,0.47-0.04c0.18-0.03,0.32-0.08,0.44-0.13c-0.02,0.15-0.03,0.32-0.03,0.51c0,0.19,0.01,0.37,0.03,0.52
			c-0.13-0.04-0.28-0.09-0.45-0.12c-0.17-0.03-0.32-0.05-0.46-0.05h-0.56v0.96h0.95c0.13,0,0.3-0.01,0.48-0.04
			c0.17-0.03,0.31-0.08,0.43-0.13c-0.02,0.15-0.03,0.32-0.03,0.51c0,0.19,0.01,0.37,0.03,0.52c-0.13-0.04-0.28-0.09-0.45-0.12
			c-0.17-0.03-0.32-0.05-0.46-0.05h-0.95v1.46c0.32,0.15,0.63,0.49,0.81,0.95c0.02-0.03,0.32-0.5,0.82-0.49
			c0.4,0,0.77,0.29,0.92,0.73c0.48-0.8,0.73-1.72,0.74-2.67C55.33,21.19,55.33,20.45,55.31,19.72z"/>
		<path class="st5" d="M53.67,23.87c-0.5,0-0.8,0.47-0.82,0.49c-0.18-0.46-0.49-0.81-0.81-0.95c-0.14-0.06-0.28-0.09-0.41-0.08
			c-0.1,0.01-0.19,0.04-0.28,0.08c-0.17,0.08-0.31,0.21-0.37,0.27c-0.27,0.25-0.39,0.54-0.44,0.69c-0.19-0.31-0.52-0.51-0.86-0.49
			c-0.4,0.01-0.76,0.3-0.89,0.72c0.14,0.24,0.3,0.47,0.48,0.69l0,0c0.01,0.02,0.03,0.03,0.04,0.05c0.04,0.05,0.09,0.1,0.13,0.15
			c0.76,0.84,1.63,1.28,2.25,1.49c0.62-0.22,1.48-0.66,2.24-1.49c0.04-0.04,0.08-0.09,0.12-0.14c0.1-0.12,0.19-0.24,0.28-0.36
			c0.09-0.13,0.18-0.26,0.26-0.39C54.44,24.16,54.06,23.87,53.67,23.87z"/>
		<path class="st5" d="M55.64,19.72c0.01,0.73,0.02,1.48,0.01,2.21c-0.01,0.58-0.1,1.16-0.28,1.71c-0.18,0.56-0.44,1.07-0.78,1.54
			c-0.07,0.1-0.15,0.21-0.24,0.31h9.53c0.69-1.96,0.69-4.11,0-6.07h-8.25C55.63,19.52,55.64,19.62,55.64,19.72z"/>
		<path class="st5" d="M47.75,19.95c0-0.18,0.01-0.36,0.01-0.54h-1.04c-0.69,1.96-0.69,4.11,0,6.07h2.29
			c-0.81-0.98-1.26-2.24-1.27-3.54C47.73,21.28,47.73,20.61,47.75,19.95z"/>
		<path class="st6" d="M46.72,19.42h1.04c0.02-0.56,0.04-1.12,0.07-1.67l0.01-0.15h7.74l0.01,0.16c0.02,0.55,0.04,1.12,0.05,1.67
			h8.25c-0.44-1.24-1.15-2.41-2.15-3.4c-1.78-1.78-4.11-2.66-6.44-2.66c-2.33,0-4.66,0.89-6.44,2.66
			C47.87,17.01,47.15,18.17,46.72,19.42z"/>
		<path class="st4" d="M63.88,25.48h-9.53c-0.02,0.03-0.04,0.05-0.06,0.08c-0.86,1-1.86,1.5-2.55,1.74l-0.05,0.02l-0.05-0.02
			c-0.7-0.24-1.72-0.74-2.58-1.76c-0.02-0.02-0.03-0.04-0.05-0.05c0,0,0-0.01-0.01-0.01h-2.29c0.44,1.24,1.15,2.41,2.15,3.4
			c1.77,1.77,4.11,2.66,6.44,2.66c2.33,0,4.66-0.89,6.44-2.66C62.73,27.89,63.45,26.73,63.88,25.48z"/>
		<path class="st6" d="M52.04,23.41v-1.46h0.95c0.13,0.01,0.29,0.02,0.46,0.05c0.17,0.03,0.32,0.07,0.45,0.12
			c-0.02-0.15-0.03-0.33-0.03-0.52c0-0.19,0.01-0.36,0.03-0.51c-0.12,0.05-0.26,0.09-0.43,0.13c-0.18,0.04-0.35,0.04-0.48,0.04
			h-0.95V20.3h0.56c0.13,0.01,0.29,0.02,0.46,0.05c0.17,0.03,0.32,0.07,0.45,0.12c-0.02-0.15-0.03-0.33-0.03-0.52
			c0-0.19,0.01-0.36,0.03-0.51c-0.12,0.05-0.27,0.1-0.44,0.13c-0.18,0.03-0.34,0.04-0.47,0.04h-0.56v-0.2v-0.29
			c0.01-0.13,0.02-0.29,0.05-0.45c0.03-0.17,0.07-0.32,0.12-0.46c-0.15,0.02-0.33,0.03-0.52,0.03c-0.19,0-0.36-0.01-0.51-0.03
			c0.05,0.12,0.1,0.27,0.13,0.44c0.03,0.18,0.04,0.34,0.04,0.47v0.29v0.2h-0.56c-0.13-0.01-0.29-0.02-0.46-0.05
			c-0.17-0.03-0.32-0.07-0.45-0.12c0.02,0.15,0.03,0.33,0.03,0.52c0,0.19-0.01,0.36-0.03,0.51c0.12-0.05,0.27-0.1,0.44-0.13
			c0.18-0.03,0.34-0.04,0.47-0.04h0.56v0.96h-0.95c-0.13-0.01-0.29-0.02-0.45-0.05c-0.17-0.03-0.32-0.07-0.46-0.12
			c0.02,0.15,0.03,0.33,0.03,0.52c0,0.19-0.01,0.36-0.03,0.51c0.12-0.05,0.27-0.1,0.45-0.13s0.34-0.04,0.46-0.04h0.95v1.47
			c0.08-0.04,0.18-0.07,0.28-0.08C51.76,23.32,51.9,23.35,52.04,23.41z"/>
		<path class="st6" d="M55.37,23.63c0.18-0.55,0.27-1.12,0.28-1.71c0.01-0.73,0-1.48-0.01-2.21c0-0.1,0-0.2-0.01-0.3
			c-0.01-0.56-0.03-1.12-0.05-1.67l-0.01-0.16h-7.74l-0.01,0.15c-0.03,0.55-0.05,1.12-0.07,1.67c0,0.18-0.01,0.36-0.01,0.54
			c-0.01,0.66-0.02,1.33-0.01,1.99c0.01,1.3,0.46,2.55,1.27,3.54c0,0,0,0.01,0.01,0.01c0.01,0.02,0.03,0.04,0.05,0.05
			c0.86,1.02,1.88,1.52,2.58,1.76l0.05,0.02l0.05-0.02c0.69-0.24,1.69-0.74,2.55-1.74c0.02-0.03,0.04-0.05,0.06-0.08
			c0.08-0.1,0.16-0.2,0.24-0.31C54.93,24.71,55.19,24.19,55.37,23.63z M54.33,24.99c-0.09,0.12-0.18,0.24-0.28,0.36
			c-0.04,0.05-0.08,0.09-0.12,0.14c-0.76,0.83-1.62,1.27-2.24,1.49c-0.62-0.22-1.49-0.65-2.25-1.49c-0.04-0.05-0.09-0.1-0.13-0.15
			c-0.01-0.02-0.03-0.03-0.04-0.05l0,0c-0.18-0.22-0.34-0.45-0.48-0.69c-0.46-0.8-0.72-1.71-0.73-2.65c-0.01-0.66,0-1.33,0.01-1.99
			c0-0.18,0.01-0.36,0.01-0.54c0.01-0.5,0.03-1,0.06-1.5h7.12c0.02,0.5,0.04,1,0.05,1.5c0,0.1,0,0.21,0.01,0.31
			c0.01,0.73,0.02,1.47,0.01,2.2c-0.01,0.96-0.26,1.87-0.74,2.67C54.5,24.73,54.42,24.86,54.33,24.99z"/>
	</g>
</g>
</svg>
