<?xml version="1.0" encoding="utf-8"?>
<!-- Generator: Adobe Illustrator 24.1.3, SVG Export Plug-In . SVG Version: 6.00 Build 0)  -->
<svg version="1.1" id="Layer_1" xmlns="http://www.w3.org/2000/svg" xmlns:xlink="http://www.w3.org/1999/xlink" x="0px" y="0px"
	 viewBox="0 0 78.3 44.8" style="enable-background:new 0 0 78.3 44.8;" xml:space="preserve">
<style type="text/css">
	.st0{clip-path:url(#SVGID_2_);}
	.st1{fill:#FFFFFF;}
	.st2{fill:#F20000;}
	.st3{fill:none;stroke:#FFFFFF;stroke-width:1.5;stroke-miterlimit:10;}
	.st4{fill:none;stroke:#000000;stroke-width:1.5;stroke-miterlimit:10;}
	.st5{fill:#B22234;}
	.st6{fill:#3C3B6E;}
</style>
<g>
	<g>
		<g>
			<g>
				<g>
					<g>
						<g>
							<g>
								<g>
									<g>
										<g>
											<g>
												<g>
													<g>
														<g>
															<g>
																<defs>
																	
																		<ellipse id="SVGID_1_" transform="matrix(0.9995 -0.0314 0.0314 0.9995 584.0905 -148.1332)" cx="-4418.38" cy="-18647.29" rx="150.7" ry="150.7"/>
																</defs>
																<clipPath id="SVGID_2_">
																	<use xlink:href="#SVGID_1_"  style="overflow:visible;"/>
																</clipPath>
																<g class="st0">
																	<g id="g1763">
																		<path id="path4640" class="st1" d="M-399.7-97.1h2.6l19.3-14.3v-1.8h-3.5L-400.7-99L-399.7-97.1z"/>
																		<path id="path6505" class="st1" d="M-378.7-97.1h-2.6l-19.3-14.3v-1.8h3.5l19.4,14.2L-378.7-97.1z"/>
																		<path id="path7127" class="st2" d="M-400.2-97.1h1.6l7-5h-1.6L-400.2-97.1z"/>
																		<path id="path8371" class="st2" d="M-386.9-108.2h1.6l7-5h-1.6L-386.9-108.2z"/>
																		<path id="path8994" class="st2" d="M-377.8-96.8v-1.1l-5.8-4.2h-1.8L-377.8-96.8z"/>
																		<path id="path9616" class="st2" d="M-400.6-113.5v1.1l5.8,4.2h1.8L-400.6-113.5z"/>
																		<rect id="rect1530" x="-391.7" y="-115.2" class="st1" width="5" height="19"/>
																		<rect id="rect2152" x="-402.7" y="-108.2" class="st1" width="25.9" height="5.8"/>
																		<rect id="rect3395" x="-402.7" y="-107.2" class="st2" width="25.9" height="3.8"/>
																		<rect id="rect4017" x="-390.7" y="-115.2" class="st2" width="3" height="19"/>
																	</g>
																</g>
															</g>
														</g>
													</g>
												</g>
											</g>
										</g>
									</g>
								</g>
							</g>
						</g>
					</g>
				</g>
			</g>
		</g>
	</g>
</g>
<circle class="st3" cx="55.3" cy="22.3" r="10.6"/>
<circle class="st4" cx="22.3" cy="22.3" r="10.6"/>
<text transform="matrix(1 0 0 1 24.3606 420.9449)" style="font-family:'ArialMT'; font-size:12px;">19.5262 mm</text>
<g>
	<g>
		<path class="st1" d="M46.23,22.9c0.04,0.47,0.11,0.94,0.22,1.4h17.71c0.11-0.46,0.18-0.93,0.22-1.4h-9.45H46.23z"/>
		<path class="st5" d="M46.9,25.7h16.81c0.19-0.46,0.34-0.92,0.45-1.4H46.44C46.56,24.77,46.71,25.24,46.9,25.7z"/>
		<path class="st5" d="M48.73,28.5h13.14c0.42-0.44,0.79-0.91,1.1-1.4H47.63C47.94,27.59,48.31,28.06,48.73,28.5z"/>
		<path class="st5" d="M54.93,22.9h9.45c0.04-0.47,0.04-0.93,0-1.4h-9.45V22.9z"/>
		<path class="st5" d="M50.44,29.9c1.48,0.93,3.17,1.4,4.86,1.4c1.69,0,3.38-0.47,4.86-1.4H50.44z"/>
		<path class="st1" d="M48.86,28.64c0.49,0.49,1.02,0.91,1.58,1.26h9.71c0.56-0.35,1.09-0.77,1.58-1.26
			c0.05-0.05,0.09-0.09,0.13-0.14H48.73C48.77,28.54,48.82,28.59,48.86,28.64z"/>
		<path class="st1" d="M47.63,27.1h15.35c0.29-0.45,0.53-0.92,0.73-1.4H46.9C47.1,26.18,47.34,26.65,47.63,27.1z"/>
		<path class="st5" d="M54.93,17.3h8.05c-0.32-0.49-0.68-0.96-1.1-1.4h-6.94V17.3z"/>
		<path class="st5" d="M55.3,13.1h-0.37v0.01C55.05,13.1,55.18,13.1,55.3,13.1z"/>
		<path class="st5" d="M54.93,14.5h5.23c-1.48-0.93-3.17-1.4-4.86-1.4c-0.12,0-0.25,0-0.37,0.01V14.5z"/>
		<path class="st1" d="M54.93,21.5h9.45c-0.04-0.47-0.11-0.94-0.22-1.4h-9.23V21.5z"/>
		<path class="st1" d="M54.93,15.9h6.94c-0.04-0.05-0.09-0.09-0.13-0.14c-0.49-0.49-1.02-0.91-1.58-1.26h-5.23V15.9z"/>
		<path class="st5" d="M54.93,20.1h9.23c-0.11-0.48-0.26-0.94-0.45-1.4h-8.78V20.1z"/>
		<path class="st1" d="M54.93,18.7h8.78c-0.2-0.48-0.44-0.95-0.73-1.4h-8.05V18.7z"/>
		<path class="st6" d="M54.93,21.5v-1.4v-1.4v-1.4v-1.4v-1.4v-1.39c-1.04,0.04-2.08,0.26-3.06,0.66l0.06,0.21h0.35L52,14.2
			l0.09,0.29l0.02,0.08l-0.1-0.08l-0.19-0.15l-0.19,0.15l-0.1,0.08l0.02-0.08l0.09-0.29l-0.27-0.22c-0.91,0.43-1.76,1.02-2.51,1.78
			c-0.64,0.64-1.17,1.36-1.58,2.12h0.29l0.11-0.37l0.11,0.37h0.35l-0.28,0.23l0.11,0.37l-0.28-0.23l-0.28,0.23l0.11-0.37l-0.24-0.2
			c-0.16,0.31-0.31,0.62-0.43,0.94h0.29l-0.02,0.01l-0.27,0.22l0.11,0.37l-0.26-0.21c-0.17,0.51-0.3,1.03-0.38,1.56h0.24l0.11-0.37
			l0.11,0.37h0.35l-0.28,0.23l0.11,0.37l-0.28-0.23l-0.28,0.23l0.11-0.37l-0.19-0.15c-0.1,0.66-0.12,1.34-0.06,2.01h8.7V21.5z
			 M47.97,22.4l-0.28-0.23L47.4,22.4l0.11-0.37l-0.28-0.23h0.35l0.04-0.15l0.01-0.03l0.03-0.11l0.02-0.08l0.02,0.08l0.03,0.11
			l0.01,0.03l0.05,0.15h0.35l-0.28,0.23L47.97,22.4z M47.86,20.07l0.01,0.03l0.04,0.12l0.01,0.03l0.05,0.19l-0.23-0.19l-0.04-0.03
			l-0.01-0.01l-0.01,0.01l-0.04,0.03l-0.23,0.19l0.05-0.19l0.01-0.03l0.04-0.12l0.01-0.03l-0.28-0.23h0.35l0.11-0.37l0.11,0.37h0.35
			L47.86,20.07z M49.01,21.42l-0.28-0.23l-0.28,0.23l0.11-0.37l-0.28-0.23h0.35l0.11-0.37l0.11,0.37h0.35l-0.28,0.23L49.01,21.42z
			 M49.17,18.87l-0.27,0.22l0.11,0.37l-0.28-0.23l-0.28,0.23l0.11-0.37l-0.27-0.22l-0.02-0.01h0.35l0.01-0.02l0.04-0.14l0.06-0.21
			l0.06,0.21l0.04,0.14l0.01,0.02h0.35L49.17,18.87z M48.9,17.14l0.05,0.16L49,17.46l0.01,0.03l0.01,0.02l-0.02-0.02l-0.04-0.03
			l-0.2-0.16l-0.02-0.02L48.7,17.3l-0.2,0.16l-0.04,0.03l-0.02,0.02l0-0.02l0.01-0.03l0.05-0.16l0.05-0.16l-0.28-0.23h0.35
			l0.11-0.37l0.11,0.37h0.35L48.9,17.14z M50.04,22.4l-0.28-0.23l-0.28,0.23l0.11-0.37l-0.28-0.23h0.35l0.05-0.15l0.01-0.03
			l0.03-0.11l0.02-0.08l0.02,0.08l0.03,0.11l0.01,0.03l0.05,0.15h0.35l-0.28,0.23L50.04,22.4z M49.93,20.07l0.01,0.03l0.04,0.12
			l0.01,0.03l0.05,0.19l-0.23-0.19l-0.04-0.03l-0.01-0.01l-0.01,0.01l-0.04,0.03l-0.23,0.19l0.05-0.19l0.01-0.03l0.04-0.12
			l0.01-0.03l-0.28-0.23h0.35l0.11-0.37l0.11,0.37h0.35L49.93,20.07z M49.93,18.11l0.11,0.37l-0.28-0.23l-0.28,0.23l0.11-0.37
			l-0.28-0.23h0.35l0.11-0.37l0.11,0.37h0.35L49.93,18.11z M50.03,16.08l-0.04,0.03l-0.06,0.05l0.11,0.37l-0.28-0.23l-0.28,0.23
			l0.11-0.37l-0.06-0.05l-0.04-0.03l-0.18-0.15h0.35l0.01-0.03l0.1-0.34l0.1,0.34l0.01,0.03h0.35L50.03,16.08z M51.08,21.42
			l-0.28-0.23l-0.28,0.23l0.11-0.37l-0.28-0.23h0.35l0.11-0.37l0.11,0.37h0.35l-0.28,0.23L51.08,21.42z M51.24,18.87l-0.27,0.22
			l0.11,0.37l-0.28-0.23l-0.28,0.23l0.11-0.37l-0.27-0.22l-0.02-0.01h0.35l0.01-0.02l0.04-0.14l0.06-0.21l0.06,0.21l0.04,0.14
			l0.01,0.02h0.35L51.24,18.87z M50.97,17.14l0.05,0.16l0.05,0.16l0.01,0.03l0,0.02l-0.02-0.02l-0.04-0.03l-0.2-0.16l-0.02-0.02
			l-0.02,0.02l-0.2,0.16l-0.04,0.03l-0.02,0.02l0.01-0.02l0.01-0.03l0.05-0.16l0.05-0.16l-0.28-0.23h0.35l0.11-0.37l0.11,0.37h0.35
			L50.97,17.14z M50.97,15.18l0.11,0.37l-0.28-0.23l-0.28,0.23l0.11-0.37l-0.28-0.23h0.35l0.06-0.22l0.01-0.03l0.03-0.12l0.03,0.12
			l0.01,0.03l0.06,0.22h0.35L50.97,15.18z M52.11,22.4l-0.28-0.23l-0.28,0.23l0.11-0.37l-0.28-0.23h0.35l0.05-0.15l0.01-0.03
			l0.03-0.11l0.02-0.08l0.02,0.08l0.03,0.11l0.01,0.03l0.05,0.15h0.35L52,22.02L52.11,22.4z M52,20.07l0.01,0.03l0.04,0.12
			l0.01,0.03l0.05,0.19l-0.23-0.19l-0.04-0.03l-0.01-0.01l-0.01,0.01l-0.04,0.03l-0.23,0.19l0.05-0.19l0.01-0.03l0.04-0.12
			l0.01-0.03l-0.28-0.23h0.35l0.11-0.37l0.11,0.37h0.35L52,20.07z M52,18.11l0.11,0.37l-0.28-0.23l-0.28,0.23l0.11-0.37l-0.28-0.23
			h0.35l0.11-0.37l0.11,0.37h0.35L52,18.11z M52.1,16.08l-0.04,0.03L52,16.16l0.11,0.37l-0.28-0.23l-0.28,0.23l0.11-0.37l-0.06-0.05
			l-0.04-0.03l-0.18-0.15h0.35l0.01-0.03l0.1-0.34l0.1,0.34l0.01,0.03h0.35L52.1,16.08z M53.15,21.42l-0.28-0.23l-0.28,0.23
			l0.11-0.37l-0.28-0.23h0.35l0.11-0.37l0.11,0.37h0.35l-0.28,0.23L53.15,21.42z M53.31,18.87l-0.27,0.22l0.11,0.37l-0.28-0.23
			l-0.28,0.23l0.11-0.37l-0.27-0.22l-0.02-0.01h0.35l0.01-0.02l0.04-0.14l0.06-0.21l0.06,0.21l0.04,0.14l0.01,0.02h0.35L53.31,18.87
			z M53.04,17.14l0.05,0.16l0.05,0.16l0.01,0.03l0,0.02l-0.02-0.02l-0.04-0.03l-0.2-0.16l-0.02-0.02l-0.02,0.02l-0.2,0.16
			l-0.04,0.03l-0.02,0.02l0-0.02l0.01-0.03l0.05-0.16l0.05-0.16l-0.28-0.23h0.35l0.11-0.37l0.11,0.37h0.35L53.04,17.14z
			 M53.04,15.18l0.11,0.37l-0.28-0.23l-0.28,0.23l0.11-0.37l-0.28-0.23h0.35l0.06-0.22l0.01-0.03l0.03-0.12l0.03,0.12l0.01,0.03
			l0.06,0.22h0.35L53.04,15.18z M54.18,22.4l-0.28-0.23l-0.28,0.23l0.11-0.37l-0.28-0.23h0.35l0.05-0.15l0.01-0.03l0.03-0.11
			l0.02-0.08l0.02,0.08l0.03,0.11l0.01,0.03L54,21.79h0.35l-0.28,0.23L54.18,22.4z M54.07,20.07l0.01,0.03l0.04,0.12l0.01,0.03
			l0.05,0.19l-0.23-0.19l-0.04-0.03l-0.01-0.01l-0.01,0.01l-0.04,0.03l-0.23,0.19l0.05-0.19l0.01-0.03l0.04-0.12l0.01-0.03
			l-0.28-0.23h0.35l0.11-0.37L54,19.84h0.35L54.07,20.07z M54.07,18.11l0.11,0.37l-0.28-0.23l-0.28,0.23l0.11-0.37l-0.28-0.23h0.35
			l0.11-0.37L54,17.88h0.35L54.07,18.11z M54.17,16.08l-0.04,0.03l-0.06,0.05l0.11,0.37l-0.28-0.23l-0.28,0.23l0.11-0.37l-0.06-0.05
			l-0.04-0.03l-0.18-0.15h0.35l0.01-0.03l0.1-0.34l0.1,0.34L54,15.93h0.35L54.17,16.08z M54.07,14.2l0.09,0.29l0.02,0.08l-0.1-0.08
			l-0.19-0.15L53.7,14.5l-0.1,0.08l0.02-0.08l0.09-0.29l-0.28-0.23h0.35l0.11-0.37L54,13.97h0.35L54.07,14.2z"/>
		<path class="st6" d="M51.76,13.81c-0.12,0.05-0.24,0.1-0.36,0.16h0.32L51.76,13.81z"/>
		<polygon class="st1" points="47.79,21.79 47.75,21.64 47.74,21.6 47.71,21.5 47.69,21.42 47.66,21.5 47.63,21.6 47.62,21.64 
			47.58,21.79 47.22,21.79 47.51,22.02 47.4,22.4 47.69,22.17 47.97,22.4 47.86,22.02 48.15,21.79 		"/>
		<polygon class="st1" points="49.86,21.79 49.82,21.64 49.81,21.6 49.78,21.5 49.75,21.42 49.73,21.5 49.7,21.6 49.69,21.64 
			49.65,21.79 49.29,21.79 49.58,22.02 49.47,22.4 49.75,22.17 50.04,22.4 49.93,22.02 50.21,21.79 		"/>
		<polygon class="st1" points="51.93,21.79 51.89,21.64 51.88,21.6 51.85,21.5 51.82,21.42 51.8,21.5 51.77,21.6 51.76,21.64 
			51.71,21.79 51.36,21.79 51.65,22.02 51.54,22.4 51.82,22.17 52.11,22.4 52,22.02 52.28,21.79 		"/>
		<polygon class="st1" points="54,21.79 53.96,21.64 53.95,21.6 53.91,21.5 53.89,21.42 53.87,21.5 53.84,21.6 53.83,21.64 
			53.78,21.79 53.43,21.79 53.72,22.02 53.61,22.4 53.89,22.17 54.18,22.4 54.07,22.02 54.35,21.79 		"/>
		<polygon class="st1" points="47.69,19.46 47.58,19.84 47.22,19.84 47.51,20.07 47.5,20.1 47.46,20.22 47.45,20.26 47.4,20.44 
			47.63,20.26 47.67,20.22 47.69,20.21 47.7,20.22 47.74,20.26 47.97,20.44 47.92,20.26 47.91,20.22 47.87,20.1 47.86,20.07 
			48.15,19.84 47.79,19.84 		"/>
		<polygon class="st1" points="49.75,19.46 49.65,19.84 49.29,19.84 49.58,20.07 49.57,20.1 49.53,20.22 49.52,20.26 49.47,20.44 
			49.7,20.26 49.74,20.22 49.75,20.21 49.77,20.22 49.81,20.26 50.04,20.44 49.98,20.26 49.97,20.22 49.94,20.1 49.93,20.07 
			50.21,19.84 49.86,19.84 		"/>
		<polygon class="st1" points="51.82,19.46 51.71,19.84 51.36,19.84 51.65,20.07 51.64,20.1 51.6,20.22 51.59,20.26 51.54,20.44 
			51.77,20.26 51.81,20.22 51.82,20.21 51.84,20.22 51.88,20.26 52.11,20.44 52.05,20.26 52.04,20.22 52.01,20.1 52,20.07 
			52.28,19.84 51.93,19.84 		"/>
		<polygon class="st1" points="53.89,19.46 53.78,19.84 53.43,19.84 53.72,20.07 53.71,20.1 53.67,20.22 53.66,20.26 53.61,20.44 
			53.84,20.26 53.88,20.22 53.89,20.21 53.91,20.22 53.95,20.26 54.18,20.44 54.12,20.26 54.11,20.22 54.08,20.1 54.07,20.07 
			54.35,19.84 54,19.84 		"/>
		<path class="st1" d="M47.4,18.49l0.28-0.23l0.28,0.23l-0.11-0.37l0.28-0.23h-0.35l-0.11-0.37l-0.11,0.37h-0.29
			c-0.01,0.01-0.01,0.02-0.02,0.03l0.24,0.2L47.4,18.49z"/>
		<polygon class="st1" points="49.75,17.51 49.65,17.88 49.29,17.88 49.58,18.11 49.47,18.49 49.75,18.26 50.04,18.49 49.93,18.11 
			50.21,17.88 49.86,17.88 		"/>
		<polygon class="st1" points="51.82,17.51 51.71,17.88 51.36,17.88 51.65,18.11 51.54,18.49 51.82,18.26 52.11,18.49 52,18.11 
			52.28,17.88 51.93,17.88 		"/>
		<polygon class="st1" points="53.89,17.51 53.78,17.88 53.43,17.88 53.72,18.11 53.61,18.49 53.89,18.26 54.18,18.49 54.07,18.11 
			54.35,17.88 54,17.88 		"/>
		<polygon class="st1" points="49.85,15.9 49.75,15.56 49.65,15.9 49.65,15.93 49.29,15.93 49.48,16.08 49.52,16.11 49.58,16.16 
			49.47,16.53 49.75,16.3 50.04,16.53 49.93,16.16 49.99,16.11 50.03,16.08 50.21,15.93 49.86,15.93 		"/>
		<polygon class="st1" points="51.92,15.9 51.82,15.56 51.72,15.9 51.71,15.93 51.36,15.93 51.55,16.08 51.59,16.11 51.65,16.16 
			51.54,16.53 51.82,16.3 52.11,16.53 52,16.16 52.06,16.11 52.1,16.08 52.28,15.93 51.93,15.93 		"/>
		<polygon class="st1" points="53.99,15.9 53.89,15.56 53.79,15.9 53.78,15.93 53.43,15.93 53.61,16.08 53.66,16.11 53.72,16.16 
			53.61,16.53 53.89,16.3 54.18,16.53 54.07,16.16 54.13,16.11 54.17,16.08 54.35,15.93 54,15.93 		"/>
		<polygon class="st1" points="50.84,14.73 50.83,14.7 50.8,14.58 50.76,14.7 50.75,14.73 50.69,14.95 50.34,14.95 50.62,15.18 
			50.51,15.55 50.8,15.32 51.08,15.55 50.97,15.18 51.26,14.95 50.9,14.95 		"/>
		<polygon class="st1" points="52.91,14.73 52.9,14.7 52.86,14.58 52.83,14.7 52.82,14.73 52.76,14.95 52.4,14.95 52.69,15.18 
			52.58,15.55 52.86,15.32 53.15,15.55 53.04,15.18 53.33,14.95 52.97,14.95 		"/>
		<polygon class="st1" points="48.73,16.53 48.62,16.91 48.27,16.91 48.55,17.14 48.5,17.3 48.46,17.46 48.45,17.49 48.44,17.51 
			48.46,17.49 48.51,17.46 48.7,17.3 48.73,17.28 48.75,17.3 48.95,17.46 48.99,17.49 49.01,17.51 49.01,17.49 49,17.46 48.95,17.3 
			48.9,17.14 49.19,16.91 48.84,16.91 		"/>
		<polygon class="st1" points="50.8,16.53 50.69,16.91 50.34,16.91 50.62,17.14 50.57,17.3 50.53,17.46 50.52,17.49 50.51,17.51 
			50.53,17.49 50.57,17.46 50.77,17.3 50.8,17.28 50.82,17.3 51.02,17.46 51.06,17.49 51.08,17.51 51.08,17.49 51.07,17.46 
			51.02,17.3 50.97,17.14 51.26,16.91 50.9,16.91 		"/>
		<polygon class="st1" points="52.86,16.53 52.76,16.91 52.4,16.91 52.69,17.14 52.64,17.3 52.6,17.46 52.59,17.49 52.58,17.51 
			52.6,17.49 52.64,17.46 52.84,17.3 52.86,17.28 52.89,17.3 53.09,17.46 53.13,17.49 53.15,17.51 53.14,17.49 53.13,17.46 
			53.09,17.3 53.04,17.14 53.33,16.91 52.97,16.91 		"/>
		<path class="st1" d="M46.83,19.09l0.27-0.22l0.02-0.01h-0.29c-0.05,0.13-0.1,0.26-0.15,0.4l0.26,0.21L46.83,19.09z"/>
		<polygon class="st1" points="48.83,18.84 48.79,18.7 48.73,18.49 48.67,18.7 48.62,18.84 48.62,18.86 48.27,18.86 48.28,18.87 
			48.55,19.09 48.44,19.46 48.73,19.23 49.01,19.46 48.9,19.09 49.17,18.87 49.19,18.86 48.84,18.86 		"/>
		<polygon class="st1" points="50.9,18.84 50.86,18.7 50.8,18.49 50.73,18.7 50.69,18.84 50.69,18.86 50.34,18.86 50.35,18.87 
			50.62,19.09 50.51,19.46 50.8,19.23 51.08,19.46 50.97,19.09 51.24,18.87 51.26,18.86 50.9,18.86 		"/>
		<polygon class="st1" points="52.97,18.84 52.93,18.7 52.86,18.49 52.8,18.7 52.76,18.84 52.76,18.86 52.4,18.86 52.42,18.87 
			52.69,19.09 52.58,19.46 52.86,19.23 53.15,19.46 53.04,19.09 53.31,18.87 53.33,18.86 52.97,18.86 		"/>
		<path class="st1" d="M46.37,21.42l0.28-0.23l0.28,0.23l-0.11-0.37l0.28-0.23h-0.35l-0.11-0.37l-0.11,0.37H46.3
			c0,0.03-0.01,0.05-0.01,0.08l0.19,0.15L46.37,21.42z"/>
		<polygon class="st1" points="48.84,20.82 48.73,20.44 48.62,20.82 48.27,20.82 48.55,21.05 48.44,21.42 48.73,21.19 49.01,21.42 
			48.9,21.05 49.19,20.82 		"/>
		<polygon class="st1" points="50.9,20.82 50.8,20.44 50.69,20.82 50.34,20.82 50.62,21.05 50.51,21.42 50.8,21.19 51.08,21.42 
			50.97,21.05 51.26,20.82 		"/>
		<polygon class="st1" points="52.97,20.82 52.86,20.44 52.76,20.82 52.4,20.82 52.69,21.05 52.58,21.42 52.86,21.19 53.15,21.42 
			53.04,21.05 53.33,20.82 		"/>
		<path class="st1" d="M51.56,14.5l-0.02,0.08l0.1-0.08l0.19-0.15l0.19,0.15l0.1,0.08l-0.02-0.08L52,14.2l0.28-0.23h-0.35
			l-0.06-0.21c-0.04,0.02-0.07,0.03-0.11,0.05l-0.05,0.16H51.4c-0.01,0-0.01,0.01-0.02,0.01l0.27,0.22L51.56,14.5z"/>
		<polygon class="st1" points="53.89,13.6 53.78,13.97 53.43,13.97 53.72,14.2 53.63,14.5 53.61,14.58 53.7,14.5 53.89,14.35 
			54.08,14.5 54.18,14.58 54.15,14.5 54.07,14.2 54.35,13.97 54,13.97 		"/>
	</g>
</g>
<g>
	<g>
		<path class="st1" d="M13.23,23c0.04,0.47,0.11,0.94,0.22,1.4h17.71c0.11-0.46,0.18-0.93,0.22-1.4h-9.45H13.23z"/>
		<path class="st5" d="M13.9,25.8h16.81c0.19-0.46,0.34-0.92,0.45-1.4H13.44C13.56,24.88,13.71,25.34,13.9,25.8z"/>
		<path class="st5" d="M15.73,28.6h13.14c0.42-0.44,0.79-0.91,1.1-1.4H14.63C14.94,27.69,15.31,28.16,15.73,28.6z"/>
		<path class="st5" d="M21.93,23h9.45c0.04-0.47,0.04-0.93,0-1.4h-9.45V23z"/>
		<path class="st5" d="M17.44,30c1.48,0.93,3.17,1.4,4.86,1.4c1.69,0,3.38-0.47,4.86-1.4H17.44z"/>
		<path class="st1" d="M15.86,28.74c0.49,0.49,1.02,0.91,1.58,1.26h9.71c0.56-0.35,1.09-0.77,1.58-1.26
			c0.05-0.05,0.09-0.09,0.13-0.14H15.73C15.77,28.65,15.82,28.69,15.86,28.74z"/>
		<path class="st1" d="M14.63,27.2h15.35c0.29-0.45,0.53-0.92,0.73-1.4H13.9C14.1,26.28,14.34,26.75,14.63,27.2z"/>
		<path class="st5" d="M21.93,17.4h8.05c-0.32-0.49-0.68-0.96-1.1-1.4h-6.94V17.4z"/>
		<path class="st5" d="M22.3,13.2h-0.37v0.01C22.05,13.2,22.18,13.2,22.3,13.2z"/>
		<path class="st5" d="M21.93,14.6h5.23c-1.48-0.93-3.17-1.4-4.86-1.4c-0.12,0-0.25,0-0.37,0.01V14.6z"/>
		<path class="st1" d="M21.93,21.6h9.45c-0.04-0.47-0.11-0.94-0.22-1.4h-9.23V21.6z"/>
		<path class="st1" d="M21.93,16h6.94c-0.04-0.05-0.09-0.09-0.13-0.14c-0.49-0.49-1.02-0.91-1.58-1.26h-5.23V16z"/>
		<path class="st5" d="M21.93,20.2h9.23c-0.11-0.48-0.26-0.94-0.45-1.4h-8.78V20.2z"/>
		<path class="st1" d="M21.93,18.8h8.78c-0.2-0.48-0.44-0.95-0.73-1.4h-8.05V18.8z"/>
		<path class="st6" d="M21.93,21.6v-1.4v-1.4v-1.4V16v-1.4v-1.39c-1.04,0.04-2.08,0.26-3.06,0.66l0.06,0.21h0.35L19,14.31l0.09,0.29
			l0.02,0.08l-0.1-0.08l-0.19-0.15l-0.19,0.15l-0.1,0.08l0.02-0.08l0.09-0.29l-0.27-0.22c-0.91,0.43-1.76,1.02-2.51,1.78
			c-0.64,0.64-1.17,1.36-1.58,2.12h0.29l0.11-0.37l0.11,0.37h0.35l-0.28,0.23l0.11,0.37l-0.28-0.23l-0.28,0.23l0.11-0.37l-0.24-0.2
			c-0.16,0.31-0.31,0.62-0.43,0.94h0.29l-0.02,0.01l-0.27,0.22l0.11,0.37l-0.26-0.21c-0.17,0.51-0.3,1.03-0.38,1.56h0.24l0.11-0.37
			l0.11,0.37h0.35l-0.28,0.23l0.11,0.37l-0.28-0.23l-0.28,0.23l0.11-0.37l-0.19-0.15c-0.1,0.66-0.12,1.34-0.06,2.01h8.7V21.6z
			 M14.97,22.5l-0.28-0.23L14.4,22.5l0.11-0.37l-0.28-0.23h0.35l0.04-0.15l0.01-0.03l0.03-0.11l0.02-0.08l0.02,0.08l0.03,0.11
			l0.01,0.03l0.05,0.15h0.35l-0.28,0.23L14.97,22.5z M14.86,20.17l0.01,0.03l0.04,0.12l0.01,0.03l0.05,0.19l-0.23-0.19l-0.04-0.03
			l-0.01-0.01l-0.01,0.01l-0.04,0.03l-0.23,0.19l0.05-0.19l0.01-0.03l0.04-0.12l0.01-0.03l-0.28-0.23h0.35l0.11-0.37l0.11,0.37h0.35
			L14.86,20.17z M16.01,21.52l-0.28-0.23l-0.28,0.23l0.11-0.37l-0.28-0.23h0.35l0.11-0.37l0.11,0.37h0.35l-0.28,0.23L16.01,21.52z
			 M16.17,18.98l-0.27,0.22l0.11,0.37l-0.28-0.23l-0.28,0.23l0.11-0.37l-0.27-0.22l-0.02-0.01h0.35l0.01-0.02l0.04-0.14l0.06-0.21
			l0.06,0.21l0.04,0.14l0.01,0.02h0.35L16.17,18.98z M15.9,17.24l0.05,0.16L16,17.56l0.01,0.03l0.01,0.02l-0.02-0.02l-0.04-0.03
			l-0.2-0.16l-0.02-0.02L15.7,17.4l-0.2,0.16l-0.04,0.03l-0.02,0.02l0-0.02l0.01-0.03l0.05-0.16l0.05-0.16l-0.28-0.23h0.35
			l0.11-0.37l0.11,0.37h0.35L15.9,17.24z M17.04,22.5l-0.28-0.23l-0.28,0.23l0.11-0.37l-0.28-0.23h0.35l0.05-0.15l0.01-0.03
			l0.03-0.11l0.02-0.08l0.02,0.08l0.03,0.11l0.01,0.03l0.05,0.15h0.35l-0.28,0.23L17.04,22.5z M16.93,20.17l0.01,0.03l0.04,0.12
			l0.01,0.03l0.05,0.19l-0.23-0.19l-0.04-0.03l-0.01-0.01l-0.01,0.01l-0.04,0.03l-0.23,0.19l0.05-0.19l0.01-0.03l0.04-0.12
			l0.01-0.03l-0.28-0.23h0.35l0.11-0.37l0.11,0.37h0.35L16.93,20.17z M16.93,18.22l0.11,0.37l-0.28-0.23l-0.28,0.23l0.11-0.37
			l-0.28-0.23h0.35l0.11-0.37l0.11,0.37h0.35L16.93,18.22z M17.03,16.18l-0.04,0.03l-0.06,0.05l0.11,0.37l-0.28-0.23l-0.28,0.23
			l0.11-0.37l-0.06-0.05l-0.04-0.03l-0.18-0.15h0.35L16.65,16l0.1-0.34l0.1,0.34l0.01,0.03h0.35L17.03,16.18z M18.08,21.52
			l-0.28-0.23l-0.28,0.23l0.11-0.37l-0.28-0.23h0.35l0.11-0.37l0.11,0.37h0.35l-0.28,0.23L18.08,21.52z M18.24,18.98l-0.27,0.22
			l0.11,0.37l-0.28-0.23l-0.28,0.23l0.11-0.37l-0.27-0.22l-0.02-0.01h0.35l0.01-0.02l0.04-0.14l0.06-0.21l0.06,0.21l0.04,0.14
			l0.01,0.02h0.35L18.24,18.98z M17.97,17.24l0.05,0.16l0.05,0.16l0.01,0.03l0,0.02l-0.02-0.02l-0.04-0.03l-0.2-0.16l-0.02-0.02
			l-0.02,0.02l-0.2,0.16l-0.04,0.03l-0.02,0.02l0.01-0.02l0.01-0.03l0.05-0.16l0.05-0.16l-0.28-0.23h0.35l0.11-0.37l0.11,0.37h0.35
			L17.97,17.24z M17.97,15.28l0.11,0.37l-0.28-0.23l-0.28,0.23l0.11-0.37l-0.28-0.23h0.35l0.06-0.22l0.01-0.03l0.03-0.12l0.03,0.12
			l0.01,0.03l0.06,0.22h0.35L17.97,15.28z M19.11,22.5l-0.28-0.23l-0.28,0.23l0.11-0.37l-0.28-0.23h0.35l0.05-0.15l0.01-0.03
			l0.03-0.11l0.02-0.08l0.02,0.08l0.03,0.11l0.01,0.03l0.05,0.15h0.35L19,22.12L19.11,22.5z M19,20.17l0.01,0.03l0.04,0.12
			l0.01,0.03l0.05,0.19l-0.23-0.19l-0.04-0.03l-0.01-0.01l-0.01,0.01l-0.04,0.03l-0.23,0.19l0.05-0.19l0.01-0.03l0.04-0.12
			l0.01-0.03l-0.28-0.23h0.35l0.11-0.37l0.11,0.37h0.35L19,20.17z M19,18.22l0.11,0.37l-0.28-0.23l-0.28,0.23l0.11-0.37l-0.28-0.23
			h0.35l0.11-0.37l0.11,0.37h0.35L19,18.22z M19.1,16.18l-0.04,0.03L19,16.26l0.11,0.37l-0.28-0.23l-0.28,0.23l0.11-0.37l-0.06-0.05
			l-0.04-0.03l-0.18-0.15h0.35L18.72,16l0.1-0.34l0.1,0.34l0.01,0.03h0.35L19.1,16.18z M20.15,21.52l-0.28-0.23l-0.28,0.23
			l0.11-0.37l-0.28-0.23h0.35l0.11-0.37l0.11,0.37h0.35l-0.28,0.23L20.15,21.52z M20.31,18.98l-0.27,0.22l0.11,0.37l-0.28-0.23
			l-0.28,0.23l0.11-0.37l-0.27-0.22l-0.02-0.01h0.35l0.01-0.02l0.04-0.14l0.06-0.21l0.06,0.21l0.04,0.14l0.01,0.02h0.35L20.31,18.98
			z M20.04,17.24l0.05,0.16l0.05,0.16l0.01,0.03l0,0.02l-0.02-0.02l-0.04-0.03l-0.2-0.16l-0.02-0.02l-0.02,0.02l-0.2,0.16
			l-0.04,0.03l-0.02,0.02l0-0.02l0.01-0.03l0.05-0.16l0.05-0.16l-0.28-0.23h0.35l0.11-0.37l0.11,0.37h0.35L20.04,17.24z
			 M20.04,15.28l0.11,0.37l-0.28-0.23l-0.28,0.23l0.11-0.37l-0.28-0.23h0.35l0.06-0.22l0.01-0.03l0.03-0.12l0.03,0.12l0.01,0.03
			l0.06,0.22h0.35L20.04,15.28z M21.18,22.5l-0.28-0.23l-0.28,0.23l0.11-0.37l-0.28-0.23h0.35l0.05-0.15l0.01-0.03l0.03-0.11
			l0.02-0.08l0.02,0.08l0.03,0.11l0.01,0.03L21,21.89h0.35l-0.28,0.23L21.18,22.5z M21.07,20.17l0.01,0.03l0.04,0.12l0.01,0.03
			l0.05,0.19l-0.23-0.19l-0.04-0.03l-0.01-0.01l-0.01,0.01l-0.04,0.03l-0.23,0.19l0.05-0.19l0.01-0.03l0.04-0.12l0.01-0.03
			l-0.28-0.23h0.35l0.11-0.37L21,19.94h0.35L21.07,20.17z M21.07,18.22l0.11,0.37l-0.28-0.23l-0.28,0.23l0.11-0.37l-0.28-0.23h0.35
			l0.11-0.37L21,17.98h0.35L21.07,18.22z M21.17,16.18l-0.04,0.03l-0.06,0.05l0.11,0.37l-0.28-0.23l-0.28,0.23l0.11-0.37l-0.06-0.05
			l-0.04-0.03l-0.18-0.15h0.35L20.79,16l0.1-0.34l0.1,0.34L21,16.03h0.35L21.17,16.18z M21.07,14.31l0.09,0.29l0.02,0.08l-0.1-0.08
			l-0.19-0.15L20.7,14.6l-0.1,0.08l0.02-0.08l0.09-0.29l-0.28-0.23h0.35l0.11-0.37L21,14.08h0.35L21.07,14.31z"/>
		<path class="st6" d="M18.76,13.91c-0.12,0.05-0.24,0.1-0.36,0.16h0.32L18.76,13.91z"/>
		<polygon class="st1" points="14.79,21.89 14.75,21.74 14.74,21.71 14.71,21.6 14.69,21.52 14.66,21.6 14.63,21.71 14.62,21.74 
			14.58,21.89 14.22,21.89 14.51,22.12 14.4,22.5 14.69,22.27 14.97,22.5 14.86,22.12 15.15,21.89 		"/>
		<polygon class="st1" points="16.86,21.89 16.82,21.74 16.81,21.71 16.78,21.6 16.75,21.52 16.73,21.6 16.7,21.71 16.69,21.74 
			16.65,21.89 16.29,21.89 16.58,22.12 16.47,22.5 16.75,22.27 17.04,22.5 16.93,22.12 17.21,21.89 		"/>
		<polygon class="st1" points="18.93,21.89 18.89,21.74 18.88,21.71 18.85,21.6 18.82,21.52 18.8,21.6 18.77,21.71 18.76,21.74 
			18.71,21.89 18.36,21.89 18.65,22.12 18.54,22.5 18.82,22.27 19.11,22.5 19,22.12 19.28,21.89 		"/>
		<polygon class="st1" points="21,21.89 20.96,21.74 20.95,21.71 20.91,21.6 20.89,21.52 20.87,21.6 20.84,21.71 20.83,21.74 
			20.78,21.89 20.43,21.89 20.72,22.12 20.61,22.5 20.89,22.27 21.18,22.5 21.07,22.12 21.35,21.89 		"/>
		<polygon class="st1" points="14.69,19.57 14.58,19.94 14.22,19.94 14.51,20.17 14.5,20.2 14.46,20.32 14.45,20.36 14.4,20.54 
			14.63,20.36 14.67,20.32 14.69,20.31 14.7,20.32 14.74,20.36 14.97,20.54 14.92,20.36 14.91,20.32 14.87,20.2 14.86,20.17 
			15.15,19.94 14.79,19.94 		"/>
		<polygon class="st1" points="16.75,19.57 16.65,19.94 16.29,19.94 16.58,20.17 16.57,20.2 16.53,20.32 16.52,20.36 16.47,20.54 
			16.7,20.36 16.74,20.32 16.75,20.31 16.77,20.32 16.81,20.36 17.04,20.54 16.98,20.36 16.97,20.32 16.94,20.2 16.93,20.17 
			17.21,19.94 16.86,19.94 		"/>
		<polygon class="st1" points="18.82,19.57 18.71,19.94 18.36,19.94 18.65,20.17 18.64,20.2 18.6,20.32 18.59,20.36 18.54,20.54 
			18.77,20.36 18.81,20.32 18.82,20.31 18.84,20.32 18.88,20.36 19.11,20.54 19.05,20.36 19.04,20.32 19.01,20.2 19,20.17 
			19.28,19.94 18.93,19.94 		"/>
		<polygon class="st1" points="20.89,19.57 20.78,19.94 20.43,19.94 20.72,20.17 20.71,20.2 20.67,20.32 20.66,20.36 20.61,20.54 
			20.84,20.36 20.88,20.32 20.89,20.31 20.91,20.32 20.95,20.36 21.18,20.54 21.12,20.36 21.11,20.32 21.08,20.2 21.07,20.17 
			21.35,19.94 21,19.94 		"/>
		<path class="st1" d="M14.4,18.59l0.28-0.23l0.28,0.23l-0.11-0.37l0.28-0.23h-0.35l-0.11-0.37l-0.11,0.37h-0.29
			c-0.01,0.01-0.01,0.02-0.02,0.03l0.24,0.2L14.4,18.59z"/>
		<polygon class="st1" points="16.75,17.61 16.65,17.98 16.29,17.98 16.58,18.22 16.47,18.59 16.75,18.36 17.04,18.59 16.93,18.22 
			17.21,17.98 16.86,17.98 		"/>
		<polygon class="st1" points="18.82,17.61 18.71,17.98 18.36,17.98 18.65,18.22 18.54,18.59 18.82,18.36 19.11,18.59 19,18.22 
			19.28,17.98 18.93,17.98 		"/>
		<polygon class="st1" points="20.89,17.61 20.78,17.98 20.43,17.98 20.72,18.22 20.61,18.59 20.89,18.36 21.18,18.59 21.07,18.22 
			21.35,17.98 21,17.98 		"/>
		<polygon class="st1" points="16.85,16 16.75,15.66 16.65,16 16.65,16.03 16.29,16.03 16.48,16.18 16.52,16.21 16.58,16.26 
			16.47,16.63 16.75,16.4 17.04,16.63 16.93,16.26 16.99,16.21 17.03,16.18 17.21,16.03 16.86,16.03 		"/>
		<polygon class="st1" points="18.92,16 18.82,15.66 18.72,16 18.71,16.03 18.36,16.03 18.55,16.18 18.59,16.21 18.65,16.26 
			18.54,16.63 18.82,16.4 19.11,16.63 19,16.26 19.06,16.21 19.1,16.18 19.28,16.03 18.93,16.03 		"/>
		<polygon class="st1" points="20.99,16 20.89,15.66 20.79,16 20.78,16.03 20.43,16.03 20.61,16.18 20.66,16.21 20.72,16.26 
			20.61,16.63 20.89,16.4 21.18,16.63 21.07,16.26 21.13,16.21 21.17,16.18 21.35,16.03 21,16.03 		"/>
		<polygon class="st1" points="17.84,14.83 17.83,14.8 17.8,14.68 17.76,14.8 17.75,14.83 17.69,15.05 17.34,15.05 17.62,15.28 
			17.51,15.66 17.8,15.43 18.08,15.66 17.97,15.28 18.26,15.05 17.9,15.05 		"/>
		<polygon class="st1" points="19.91,14.83 19.9,14.8 19.86,14.68 19.83,14.8 19.82,14.83 19.76,15.05 19.4,15.05 19.69,15.28 
			19.58,15.66 19.86,15.43 20.15,15.66 20.04,15.28 20.33,15.05 19.97,15.05 		"/>
		<polygon class="st1" points="15.73,16.63 15.62,17.01 15.27,17.01 15.55,17.24 15.5,17.4 15.46,17.56 15.45,17.59 15.44,17.61 
			15.46,17.59 15.51,17.56 15.7,17.4 15.73,17.38 15.75,17.4 15.95,17.56 15.99,17.59 16.01,17.61 16.01,17.59 16,17.56 15.95,17.4 
			15.9,17.24 16.19,17.01 15.84,17.01 		"/>
		<polygon class="st1" points="17.8,16.63 17.69,17.01 17.34,17.01 17.62,17.24 17.57,17.4 17.53,17.56 17.52,17.59 17.51,17.61 
			17.53,17.59 17.57,17.56 17.77,17.4 17.8,17.38 17.82,17.4 18.02,17.56 18.06,17.59 18.08,17.61 18.08,17.59 18.07,17.56 
			18.02,17.4 17.97,17.24 18.26,17.01 17.9,17.01 		"/>
		<polygon class="st1" points="19.86,16.63 19.76,17.01 19.4,17.01 19.69,17.24 19.64,17.4 19.6,17.56 19.59,17.59 19.58,17.61 
			19.6,17.59 19.64,17.56 19.84,17.4 19.86,17.38 19.89,17.4 20.09,17.56 20.13,17.59 20.15,17.61 20.14,17.59 20.13,17.56 
			20.09,17.4 20.04,17.24 20.33,17.01 19.97,17.01 		"/>
		<path class="st1" d="M13.83,19.19l0.27-0.22l0.02-0.01h-0.29c-0.05,0.13-0.1,0.26-0.15,0.4l0.26,0.21L13.83,19.19z"/>
		<polygon class="st1" points="15.83,18.94 15.79,18.8 15.73,18.59 15.67,18.8 15.62,18.94 15.62,18.96 15.27,18.96 15.28,18.98 
			15.55,19.19 15.44,19.57 15.73,19.34 16.01,19.57 15.9,19.19 16.17,18.98 16.19,18.96 15.84,18.96 		"/>
		<polygon class="st1" points="17.9,18.94 17.86,18.8 17.8,18.59 17.73,18.8 17.69,18.94 17.69,18.96 17.34,18.96 17.35,18.98 
			17.62,19.19 17.51,19.57 17.8,19.34 18.08,19.57 17.97,19.19 18.24,18.98 18.26,18.96 17.9,18.96 		"/>
		<polygon class="st1" points="19.97,18.94 19.93,18.8 19.86,18.59 19.8,18.8 19.76,18.94 19.76,18.96 19.4,18.96 19.42,18.98 
			19.69,19.19 19.58,19.57 19.86,19.34 20.15,19.57 20.04,19.19 20.31,18.98 20.33,18.96 19.97,18.96 		"/>
		<path class="st1" d="M13.37,21.52l0.28-0.23l0.28,0.23l-0.11-0.37l0.28-0.23h-0.35l-0.11-0.37l-0.11,0.37H13.3
			c0,0.03-0.01,0.05-0.01,0.08l0.19,0.15L13.37,21.52z"/>
		<polygon class="st1" points="15.84,20.92 15.73,20.54 15.62,20.92 15.27,20.92 15.55,21.15 15.44,21.52 15.73,21.29 16.01,21.52 
			15.9,21.15 16.19,20.92 		"/>
		<polygon class="st1" points="17.9,20.92 17.8,20.54 17.69,20.92 17.34,20.92 17.62,21.15 17.51,21.52 17.8,21.29 18.08,21.52 
			17.97,21.15 18.26,20.92 		"/>
		<polygon class="st1" points="19.97,20.92 19.86,20.54 19.76,20.92 19.4,20.92 19.69,21.15 19.58,21.52 19.86,21.29 20.15,21.52 
			20.04,21.15 20.33,20.92 		"/>
		<path class="st1" d="M18.56,14.6l-0.02,0.08l0.1-0.08l0.19-0.15l0.19,0.15l0.1,0.08l-0.02-0.08L19,14.31l0.28-0.23h-0.35
			l-0.06-0.21c-0.04,0.02-0.07,0.03-0.11,0.05l-0.05,0.16H18.4c-0.01,0-0.01,0.01-0.02,0.01l0.27,0.22L18.56,14.6z"/>
		<polygon class="st1" points="20.89,13.7 20.78,14.08 20.43,14.08 20.72,14.31 20.63,14.6 20.61,14.68 20.7,14.6 20.89,14.45 
			21.08,14.6 21.18,14.68 21.15,14.6 21.07,14.31 21.35,14.08 21,14.08 		"/>
	</g>
</g>
</svg>
