<?xml version="1.0" encoding="utf-8"?>
<!-- Generator: Adobe Illustrator 24.1.3, SVG Export Plug-In . SVG Version: 6.00 Build 0)  -->
<svg version="1.1" id="Layer_1" xmlns="http://www.w3.org/2000/svg" xmlns:xlink="http://www.w3.org/1999/xlink" x="0px" y="0px"
	 viewBox="0 0 78.3 44.8" style="enable-background:new 0 0 78.3 44.8;" xml:space="preserve">
<style type="text/css">
	.st0{clip-path:url(#SVGID_2_);}
	.st1{fill:#FFFFFF;}
	.st2{fill:#F20000;}
	.st3{fill:none;stroke:#FFFFFF;stroke-width:1.5;stroke-miterlimit:10;}
	.st4{fill:none;stroke:#000000;stroke-width:1.5;stroke-miterlimit:10;}
	.st5{fill:#062983;}
	.st6{fill:#CF142B;}
	.st7{fill:#FAFAFA;}
</style>
<g>
	<g>
		<g>
			<g>
				<g>
					<g>
						<g>
							<g>
								<g>
									<g>
										<g>
											<g>
												<g>
													<g>
														<g>
															<g>
																<defs>
																	
																		<ellipse id="SVGID_1_" transform="matrix(0.9995 -0.0314 0.0314 0.9995 584.0905 -148.1332)" cx="-4418.38" cy="-18647.29" rx="150.7" ry="150.7"/>
																</defs>
																<clipPath id="SVGID_2_">
																	<use xlink:href="#SVGID_1_"  style="overflow:visible;"/>
																</clipPath>
																<g class="st0">
																	<g id="g1763">
																		<path id="path4640" class="st1" d="M-399.7-97.1h2.6l19.3-14.3v-1.8h-3.5L-400.7-99L-399.7-97.1z"/>
																		<path id="path6505" class="st1" d="M-378.7-97.1h-2.6l-19.3-14.3v-1.8h3.5l19.4,14.2L-378.7-97.1z"/>
																		<path id="path7127" class="st2" d="M-400.2-97.1h1.6l7-5h-1.6L-400.2-97.1z"/>
																		<path id="path8371" class="st2" d="M-386.9-108.2h1.6l7-5h-1.6L-386.9-108.2z"/>
																		<path id="path8994" class="st2" d="M-377.8-96.8v-1.1l-5.8-4.2h-1.8L-377.8-96.8z"/>
																		<path id="path9616" class="st2" d="M-400.6-113.5v1.1l5.8,4.2h1.8L-400.6-113.5z"/>
																		<rect id="rect1530" x="-391.7" y="-115.2" class="st1" width="5" height="19"/>
																		<rect id="rect2152" x="-402.7" y="-108.2" class="st1" width="25.9" height="5.8"/>
																		<rect id="rect3395" x="-402.7" y="-107.2" class="st2" width="25.9" height="3.8"/>
																		<rect id="rect4017" x="-390.7" y="-115.2" class="st2" width="3" height="19"/>
																	</g>
																</g>
															</g>
														</g>
													</g>
												</g>
											</g>
										</g>
									</g>
								</g>
							</g>
						</g>
					</g>
				</g>
			</g>
		</g>
	</g>
</g>
<circle class="st3" cx="55.3" cy="22.3" r="10.6"/>
<circle class="st4" cx="22.3" cy="22.3" r="10.6"/>
<g>
	<g>
		<path class="st5" d="M61.74,15.86c-1.77-1.78-4.11-2.66-6.44-2.66c-1.8,0-3.6,0.53-5.15,1.59h0.14h0.91h0.3h2.77h1.02v0.43v0.23
			l-2.03,1.31h2.03v0.39v1.18v0.39h-2.77l2.77,1.8v0.17h-0.75h-0.68h-0.33l-2.02-1.31v1.31h-0.3h-0.91h-0.3V19.4l-2.03,1.31h-0.33
			h-0.68h-0.61c-0.5,2.83,0.34,5.85,2.52,8.03c1.78,1.77,4.11,2.66,6.44,2.66c2.33,0,4.66-0.89,6.44-2.66
			C65.29,25.19,65.29,19.41,61.74,15.86z M63.04,20.51l0.19-0.59l0.19,0.59h0.63l-0.51,0.37l0.19,0.59l-0.51-0.37l-0.51,0.37
			l0.19-0.59l-0.51-0.37H63.04z M60.69,18.45l0.22-0.66l0.22,0.66h0.7l-0.57,0.41l0.22,0.66l-0.57-0.41l-0.57,0.41l0.22-0.66
			l-0.57-0.41H60.69z M58.75,22.25l-0.56-0.41l-0.56,0.41l0.21-0.66l-0.56-0.41h0.69l0.21-0.66l0.21,0.66h0.69l-0.56,0.41
			L58.75,22.25z M60.9,26.18l-0.61,0.44l0.23-0.71l-0.61-0.44h0.75l0.23-0.71l0.23,0.71h0.75l-0.61,0.44l0.23,0.71L60.9,26.18z"/>
		<path class="st5" d="M48.97,18.74h-2.04c-0.23,0.54-0.41,1.1-0.53,1.67L48.97,18.74z"/>
		<path class="st5" d="M48.22,16.76l-0.1-0.06c-0.02,0.02-0.03,0.04-0.05,0.06H48.22z"/>
		<path class="st5" d="M49.99,16.6V14.9c-0.4,0.28-0.77,0.6-1.13,0.96L49.99,16.6z"/>
		<polygon class="st5" points="54.27,14.79 51.51,14.79 51.51,16.6 		"/>
		<polygon class="st6" points="60.56,19.22 60.9,18.97 61.25,19.22 61.11,18.82 61.46,18.57 61.03,18.57 60.9,18.17 60.77,18.57 
			60.35,18.57 60.69,18.82 		"/>
		<path class="st1" d="M60.34,19.53l0.57-0.41l0.57,0.41l-0.22-0.66l0.57-0.41h-0.7l-0.22-0.66l-0.22,0.66h-0.7l0.57,0.41
			L60.34,19.53z M60.35,18.57h0.42l0.13-0.4l0.13,0.4h0.42l-0.34,0.25l0.13,0.4l-0.34-0.25l-0.34,0.25l0.13-0.4L60.35,18.57z"/>
		<polygon class="st6" points="61.52,25.59 61.05,25.59 60.9,25.14 60.76,25.59 60.28,25.59 60.67,25.86 60.52,26.31 60.9,26.04 
			61.29,26.31 61.14,25.86 		"/>
		<path class="st1" d="M61.88,25.47h-0.75l-0.23-0.71l-0.23,0.71h-0.75l0.61,0.44l-0.23,0.71l0.61-0.44l0.61,0.44l-0.23-0.71
			L61.88,25.47z M61.29,26.31l-0.38-0.28l-0.38,0.28l0.15-0.45l-0.38-0.28h0.47l0.15-0.45l0.15,0.45h0.47l-0.38,0.28L61.29,26.31z"
			/>
		<polygon class="st6" points="58.32,21.3 58.19,20.9 58.06,21.3 57.64,21.3 57.98,21.55 57.85,21.94 58.19,21.7 58.53,21.94 
			58.4,21.55 58.73,21.3 		"/>
		<path class="st1" d="M58.4,21.18l-0.21-0.66l-0.21,0.66h-0.69l0.56,0.41l-0.21,0.66l0.56-0.41l0.56,0.41l-0.21-0.66l0.56-0.41
			H58.4z M58.53,21.94l-0.34-0.24l-0.34,0.24l0.13-0.4l-0.34-0.24h0.42l0.13-0.4l0.13,0.4h0.42l-0.34,0.24L58.53,21.94z"/>
		<polygon class="st6" points="62.95,21.17 63.23,20.96 63.51,21.17 63.41,20.84 63.69,20.63 63.34,20.63 63.23,20.3 63.12,20.63 
			62.77,20.63 63.06,20.84 		"/>
		<path class="st1" d="M62.72,21.48l0.51-0.37l0.51,0.37l-0.19-0.59l0.51-0.37h-0.63l-0.19-0.59l-0.19,0.59h-0.63l0.51,0.37
			L62.72,21.48z M62.77,20.63h0.35l0.11-0.33l0.11,0.33h0.35l-0.28,0.21l0.11,0.33l-0.28-0.21l-0.28,0.21l0.11-0.33L62.77,20.63z"/>
		<polygon class="st7" points="51.51,18.34 51.2,18.34 51.2,20.71 51.51,20.71 51.51,19.4 53.53,20.71 53.86,20.71 51.51,19.17 
			51.51,18.74 54.55,20.71 55.3,20.71 55.3,20.54 52.53,18.74 55.3,18.74 55.3,18.34 51.56,18.34 		"/>
		<path class="st7" d="M47.1,18.34c-0.06,0.13-0.12,0.26-0.18,0.39h2.04l-2.57,1.67c-0.02,0.1-0.04,0.2-0.06,0.3h0.61l3.04-1.97
			v0.43l-2.36,1.54h0.33l2.03-1.31v1.31h0.3v-2.37H47.1z"/>
		<polygon class="st7" points="51.2,17.16 51.51,17.16 51.56,17.16 55.3,17.16 55.3,16.76 53.27,16.76 55.3,15.45 55.3,15.23 
			52.94,16.76 52.26,16.76 55.3,14.79 54.27,14.79 51.51,16.6 51.51,14.79 51.2,14.79 51.2,16.76 		"/>
		<path class="st7" d="M49.99,16.6l-1.13-0.74c0,0,0,0,0,0c-0.13,0.13-0.26,0.27-0.38,0.41l0.76,0.49h-0.68l-0.32-0.21
			c-0.04,0.05-0.07,0.1-0.11,0.14l0.1,0.06h-0.15c-0.1,0.13-0.2,0.26-0.29,0.39h2.2h0.3v-0.39v-1.97h-0.14
			c-0.05,0.04-0.11,0.07-0.16,0.11V16.6z"/>
		<polygon class="st6" points="51.51,19.17 53.86,20.71 54.55,20.71 51.51,18.74 		"/>
		<path class="st6" d="M48.56,16.76h0.68l-0.76-0.49c-0.08,0.09-0.16,0.19-0.24,0.28L48.56,16.76z"/>
		<polygon class="st6" points="49.99,18.74 46.95,20.71 47.63,20.71 49.99,19.17 		"/>
		<polygon class="st6" points="52.94,16.76 55.3,15.23 55.3,14.79 52.26,16.76 		"/>
		<path class="st6" d="M50.29,17.16h-0.3h-2.2c-0.26,0.38-0.49,0.78-0.69,1.18h3.19v2.37h0.91v-2.37h0.3h0.05h3.74v-1.18h-3.74
			h-0.05h-0.3v-0.39v-1.97h-0.91v1.97V17.16z"/>
	</g>
</g>
<g>
	<g>
		<path class="st5" d="M28.74,15.86c-1.77-1.78-4.11-2.66-6.44-2.66c-1.8,0-3.6,0.53-5.15,1.59h0.14h0.91h0.3h2.77h1.02v0.43v0.23
			l-2.03,1.31h2.03v0.39v1.18v0.39h-2.77l2.77,1.8v0.17h-0.75h-0.68h-0.33l-2.02-1.31v1.31h-0.3h-0.91h-0.3V19.4l-2.03,1.31h-0.33
			h-0.68h-0.61c-0.5,2.83,0.34,5.85,2.52,8.03c1.78,1.77,4.11,2.66,6.44,2.66c2.33,0,4.66-0.89,6.44-2.66
			C32.29,25.19,32.29,19.41,28.74,15.86z M30.04,20.51l0.19-0.59l0.19,0.59h0.63l-0.51,0.37l0.19,0.59l-0.51-0.37l-0.51,0.37
			l0.19-0.59l-0.51-0.37H30.04z M27.69,18.45l0.22-0.66l0.22,0.66h0.7l-0.57,0.41l0.22,0.66l-0.57-0.41l-0.57,0.41l0.22-0.66
			l-0.57-0.41H27.69z M25.75,22.25l-0.56-0.41l-0.56,0.41l0.21-0.66l-0.56-0.41h0.69l0.21-0.66l0.21,0.66h0.69l-0.56,0.41
			L25.75,22.25z M27.9,26.18l-0.61,0.44l0.23-0.71l-0.61-0.44h0.75l0.23-0.71l0.23,0.71h0.75l-0.61,0.44l0.23,0.71L27.9,26.18z"/>
		<path class="st5" d="M15.97,18.74h-2.04c-0.23,0.54-0.41,1.1-0.53,1.67L15.97,18.74z"/>
		<path class="st5" d="M15.22,16.76l-0.1-0.06c-0.02,0.02-0.03,0.04-0.05,0.06H15.22z"/>
		<path class="st5" d="M16.99,16.6V14.9c-0.4,0.28-0.77,0.6-1.13,0.96L16.99,16.6z"/>
		<polygon class="st5" points="21.28,14.79 18.51,14.79 18.51,16.6 		"/>
		<polygon class="st6" points="27.56,19.22 27.9,18.97 28.25,19.22 28.12,18.82 28.46,18.57 28.03,18.57 27.9,18.17 27.77,18.57 
			27.35,18.57 27.69,18.82 		"/>
		<path class="st1" d="M27.34,19.53l0.57-0.41l0.57,0.41l-0.22-0.66l0.57-0.41h-0.7l-0.22-0.66l-0.22,0.66h-0.7l0.57,0.41
			L27.34,19.53z M27.35,18.57h0.42l0.13-0.4l0.13,0.4h0.42l-0.34,0.25l0.13,0.4l-0.34-0.25l-0.34,0.25l0.13-0.4L27.35,18.57z"/>
		<polygon class="st6" points="28.52,25.59 28.05,25.59 27.9,25.14 27.76,25.59 27.29,25.59 27.67,25.86 27.52,26.31 27.9,26.04 
			28.29,26.31 28.14,25.86 		"/>
		<path class="st1" d="M28.88,25.47h-0.75l-0.23-0.71l-0.23,0.71h-0.75l0.61,0.44l-0.23,0.71l0.61-0.44l0.61,0.44l-0.23-0.71
			L28.88,25.47z M28.29,26.31l-0.38-0.28l-0.38,0.28l0.15-0.45l-0.38-0.28h0.47l0.15-0.45l0.15,0.45h0.47l-0.38,0.28L28.29,26.31z"
			/>
		<polygon class="st6" points="25.32,21.3 25.19,20.9 25.06,21.3 24.64,21.3 24.98,21.55 24.85,21.94 25.19,21.7 25.53,21.94 
			25.4,21.55 25.74,21.3 		"/>
		<path class="st1" d="M25.4,21.18l-0.21-0.66l-0.21,0.66h-0.69l0.56,0.41l-0.21,0.66l0.56-0.41l0.56,0.41l-0.21-0.66l0.56-0.41
			H25.4z M25.53,21.94l-0.34-0.24l-0.34,0.24l0.13-0.4l-0.34-0.24h0.42l0.13-0.4l0.13,0.4h0.42l-0.34,0.24L25.53,21.94z"/>
		<polygon class="st6" points="29.95,21.17 30.23,20.96 30.51,21.17 30.41,20.84 30.69,20.63 30.34,20.63 30.23,20.3 30.12,20.63 
			29.77,20.63 30.06,20.84 		"/>
		<path class="st1" d="M29.72,21.48l0.51-0.37l0.51,0.37l-0.19-0.59l0.51-0.37h-0.63l-0.19-0.59l-0.19,0.59h-0.63l0.51,0.37
			L29.72,21.48z M29.77,20.63h0.35l0.11-0.33l0.11,0.33h0.35l-0.28,0.21l0.11,0.33l-0.28-0.21l-0.28,0.21l0.11-0.33L29.77,20.63z"/>
		<polygon class="st7" points="18.51,18.34 18.2,18.34 18.2,20.71 18.51,20.71 18.51,19.4 20.53,20.71 20.87,20.71 18.51,19.17 
			18.51,18.74 21.55,20.71 22.3,20.71 22.3,20.54 19.53,18.74 22.3,18.74 22.3,18.34 18.56,18.34 		"/>
		<path class="st7" d="M14.1,18.34c-0.06,0.13-0.12,0.26-0.18,0.39h2.04l-2.57,1.67c-0.02,0.1-0.04,0.2-0.06,0.3h0.61l3.04-1.97
			v0.43l-2.36,1.54h0.33l2.03-1.31v1.31h0.3v-2.37H14.1z"/>
		<polygon class="st7" points="18.2,17.16 18.51,17.16 18.56,17.16 22.3,17.16 22.3,16.76 20.27,16.76 22.3,15.45 22.3,15.23 
			19.94,16.76 19.26,16.76 22.3,14.79 21.28,14.79 18.51,16.6 18.51,14.79 18.2,14.79 18.2,16.76 		"/>
		<path class="st7" d="M16.99,16.6l-1.13-0.74c0,0,0,0,0,0c-0.13,0.13-0.26,0.27-0.38,0.41l0.76,0.49h-0.68l-0.32-0.21
			c-0.04,0.05-0.07,0.1-0.11,0.14l0.1,0.06h-0.15c-0.1,0.13-0.2,0.26-0.29,0.39h2.2h0.3v-0.39v-1.97h-0.14
			c-0.05,0.04-0.11,0.07-0.16,0.11V16.6z"/>
		<polygon class="st6" points="18.51,19.17 20.87,20.71 21.55,20.71 18.51,18.74 		"/>
		<path class="st6" d="M15.56,16.76h0.68l-0.76-0.49c-0.08,0.09-0.16,0.19-0.24,0.28L15.56,16.76z"/>
		<polygon class="st6" points="16.99,18.74 13.95,20.71 14.63,20.71 16.99,19.17 		"/>
		<polygon class="st6" points="19.94,16.76 22.3,15.23 22.3,14.79 19.26,16.76 		"/>
		<path class="st6" d="M17.29,17.16h-0.3h-2.2c-0.26,0.38-0.49,0.78-0.69,1.18h3.19v2.37h0.91v-2.37h0.3h0.05h3.74v-1.18h-3.74
			h-0.05h-0.3v-0.39v-1.97h-0.91v1.97V17.16z"/>
	</g>
</g>
</svg>
