<?xml version="1.0" encoding="utf-8"?>
<!-- Generator: Adobe Illustrator 24.1.3, SVG Export Plug-In . SVG Version: 6.00 Build 0)  -->
<svg version="1.1" id="Layer_1" xmlns="http://www.w3.org/2000/svg" xmlns:xlink="http://www.w3.org/1999/xlink" x="0px" y="0px"
	 viewBox="0 0 78.3 44.8" style="enable-background:new 0 0 78.3 44.8;" xml:space="preserve">
<style type="text/css">
	.st0{clip-path:url(#SVGID_2_);}
	.st1{fill:#FFFFFF;}
	.st2{fill:#F20000;}
	.st3{fill:none;stroke:#000000;stroke-width:1.5;stroke-miterlimit:10;}
	.st4{fill:#E92B3C;}
	.st5{fill:none;stroke:#FFFFFF;stroke-width:1.5;stroke-miterlimit:10;}
</style>
<g>
	<g>
		<g>
			<g>
				<g>
					<g>
						<g>
							<g>
								<g>
									<g>
										<g>
											<g>
												<g>
													<defs>
														
															<ellipse id="SVGID_1_" transform="matrix(0.9995 -3.143967e-02 3.143967e-02 0.9995 584.0899 -148.1307)" cx="-4418.4" cy="-18647.6" rx="150.7" ry="150.7"/>
													</defs>
													<clipPath id="SVGID_2_">
														<use xlink:href="#SVGID_1_"  style="overflow:visible;"/>
													</clipPath>
													<g class="st0">
														<g id="g1763">
															<path id="path4640" class="st1" d="M-399.7-97.1h2.6l19.3-14.3v-1.8h-3.5L-400.7-99L-399.7-97.1z"/>
															<path id="path6505" class="st1" d="M-378.7-97.1h-2.6l-19.3-14.3v-1.8h3.5l19.4,14.2L-378.7-97.1z"/>
															<path id="path7127" class="st2" d="M-400.2-97.1h1.6l7-5h-1.6L-400.2-97.1z"/>
															<path id="path8371" class="st2" d="M-386.9-108.2h1.6l7-5h-1.6L-386.9-108.2z"/>
															<path id="path8994" class="st2" d="M-377.8-96.8v-1.1l-5.8-4.2h-1.8L-377.8-96.8z"/>
															<path id="path9616" class="st2" d="M-400.6-113.5v1.1l5.8,4.2h1.8L-400.6-113.5z"/>
															<rect id="rect1530" x="-391.7" y="-115.2" class="st1" width="5" height="19"/>
															<rect id="rect2152" x="-402.7" y="-108.2" class="st1" width="25.9" height="5.8"/>
															<rect id="rect3395" x="-402.7" y="-107.2" class="st2" width="25.9" height="3.8"/>
															<rect id="rect4017" x="-390.7" y="-115.2" class="st2" width="3" height="19"/>
														</g>
													</g>
												</g>
											</g>
										</g>
									</g>
								</g>
							</g>
						</g>
					</g>
				</g>
			</g>
		</g>
	</g>
</g>
<g>
	<circle class="st3" cx="22.3" cy="22.3" r="10.6"/>
	<g>
		<g>
			<path class="st4" d="M13.2,22.4h18.2c0-5-4.1-9.1-9.1-9.1S13.2,17.4,13.2,22.4z M20.2,20.1l-0.5-0.4l-0.5,0.4l0.2-0.6l-0.5-0.4
				h0.6l0.2-0.6l0.2,0.6h0.6L20,19.5L20.2,20.1z M18.3,17h0.6l0.2-0.6l0.2,0.6h0.6l-0.5,0.4l0.2,0.6l-0.5-0.4L18.6,18l0.2-0.6
				L18.3,17z M22.5,17l0.2-0.6l0.2,0.6h0.6L23,17.4l0.2,0.6l-0.5-0.4L22.2,18l0.2-0.6L21.9,17H22.5z M22,18.6l0.2,0.6h0.6l-0.5,0.4
				l0.2,0.6L22,19.8l-0.5,0.4l0.2-0.6l-0.5-0.4h0.6L22,18.6z M20.9,15.1l0.2,0.6h0.6l-0.5,0.4l0.2,0.6l-0.5-0.4l-0.5,0.4l0.2-0.6
				l-0.5-0.4h0.6L20.9,15.1z M17.7,14.7c1.2-0.5,2.3-0.2,2.5-0.1c-0.3,0-1,0.1-1.7,0.6c-1.3,0.9-1.4,2.3-1.4,2.5
				c0,0.1-0.1,1.7,1.2,2.7c0.8,0.6,1.6,0.7,1.9,0.7c-0.3,0.1-0.7,0.2-1.3,0.2c-0.3,0-1.1-0.1-2-0.7c-0.8-0.6-1.4-1.7-1.3-2.9
				C15.8,16.4,16.6,15.2,17.7,14.7z"/>
			<path class="st1" d="M31.4,22.4H13.2c0,5,4.1,9.1,9.1,9.1S31.4,27.4,31.4,22.4z"/>
			<polygon class="st1" points="20.6,16 20.4,16.6 20.9,16.2 21.4,16.6 21.2,16 21.7,15.7 21.1,15.7 20.9,15.1 20.7,15.7 20.1,15.7 
							"/>
			<polygon class="st1" points="22.2,17.9 22.7,17.6 23.2,17.9 23,17.4 23.5,17 22.9,17 22.7,16.4 22.5,17 21.9,17 22.4,17.4 			"/>
			<polygon class="st1" points="19.1,17.6 19.6,17.9 19.4,17.4 19.9,17 19.3,17 19.1,16.4 18.9,17 18.3,17 18.8,17.4 18.6,17.9 			
				"/>
			<polygon class="st1" points="19.9,19.2 19.7,18.6 19.6,19.2 19,19.2 19.4,19.5 19.3,20.1 19.7,19.8 20.2,20.1 20,19.5 20.5,19.2 
							"/>
			<polygon class="st1" points="21.7,19.5 21.6,20.1 22,19.8 22.5,20.1 22.3,19.5 22.8,19.2 22.2,19.2 22,18.6 21.9,19.2 21.2,19.2 
							"/>
			<path class="st1" d="M17,20.6c0.8,0.6,1.7,0.7,2,0.7c0.6,0,1-0.1,1.3-0.2c-0.3,0-1.1-0.1-1.9-0.7c-1.3-1-1.2-2.6-1.2-2.7
				c0-0.1,0.1-1.6,1.4-2.5c0.7-0.5,1.4-0.6,1.7-0.6c-0.3-0.1-1.4-0.4-2.5,0.1s-1.9,1.6-2,2.9C15.6,18.9,16.2,19.9,17,20.6z"/>
		</g>
	</g>
</g>
<g>
	<g>
		<g>
			<path class="st4" d="M46.2,22.4h18.2c0-5-4.1-9.1-9.1-9.1S46.2,17.4,46.2,22.4z M53.2,20.1l-0.5-0.4l-0.5,0.4l0.2-0.6l-0.5-0.4
				h0.6l0.2-0.6l0.2,0.6h0.6L53,19.5L53.2,20.1z M51.3,17h0.6l0.2-0.6l0.2,0.6h0.6l-0.5,0.4l0.2,0.6l-0.5-0.4L51.6,18l0.2-0.6
				L51.3,17z M55.5,17l0.2-0.6l0.2,0.6h0.6L56,17.4l0.2,0.6l-0.5-0.4L55.2,18l0.2-0.6L54.9,17H55.5z M55,18.6l0.2,0.6h0.6l-0.5,0.4
				l0.2,0.6L55,19.8l-0.5,0.4l0.2-0.6l-0.5-0.4h0.6L55,18.6z M53.9,15.1l0.2,0.6h0.6l-0.5,0.4l0.2,0.6l-0.5-0.4l-0.5,0.4l0.2-0.6
				l-0.5-0.4h0.6L53.9,15.1z M50.7,14.7c1.2-0.5,2.3-0.2,2.5-0.1c-0.3,0-1,0.1-1.7,0.6c-1.3,0.9-1.4,2.3-1.4,2.5
				c0,0.1-0.1,1.7,1.2,2.7c0.8,0.6,1.6,0.7,1.9,0.7c-0.3,0.1-0.7,0.2-1.3,0.2c-0.3,0-1.1-0.1-2-0.7c-0.8-0.6-1.4-1.7-1.3-2.9
				C48.8,16.4,49.6,15.2,50.7,14.7z"/>
			<path class="st1" d="M64.4,22.4H46.2c0,5,4.1,9.1,9.1,9.1S64.4,27.4,64.4,22.4z"/>
			<polygon class="st1" points="53.6,16 53.4,16.6 53.9,16.2 54.4,16.6 54.2,16 54.7,15.7 54.1,15.7 53.9,15.1 53.7,15.7 53.1,15.7 
							"/>
			<polygon class="st1" points="55.2,17.9 55.7,17.6 56.2,17.9 56,17.4 56.5,17 55.9,17 55.7,16.4 55.5,17 54.9,17 55.4,17.4 			"/>
			<polygon class="st1" points="52.1,17.6 52.6,17.9 52.4,17.4 52.9,17 52.3,17 52.1,16.4 51.9,17 51.3,17 51.8,17.4 51.6,17.9 			
				"/>
			<polygon class="st1" points="52.9,19.2 52.7,18.6 52.6,19.2 52,19.2 52.4,19.5 52.3,20.1 52.7,19.8 53.2,20.1 53,19.5 53.5,19.2 
							"/>
			<polygon class="st1" points="54.7,19.5 54.6,20.1 55,19.8 55.5,20.1 55.3,19.5 55.8,19.2 55.2,19.2 55,18.6 54.9,19.2 54.2,19.2 
							"/>
			<path class="st1" d="M50,20.6c0.8,0.6,1.7,0.7,2,0.7c0.6,0,1-0.1,1.3-0.2c-0.3,0-1.1-0.1-1.9-0.7c-1.3-1-1.2-2.6-1.2-2.7
				c0-0.1,0.1-1.6,1.4-2.5c0.7-0.5,1.4-0.6,1.7-0.6c-0.3-0.1-1.4-0.4-2.5,0.1s-1.9,1.6-2,2.9C48.6,18.9,49.2,19.9,50,20.6z"/>
		</g>
	</g>
	<circle class="st5" cx="55.3" cy="22.3" r="10.6"/>
</g>
</svg>
