<?xml version="1.0" encoding="utf-8"?>
<!-- Generator: Adobe Illustrator 23.0.2, SVG Export Plug-In . SVG Version: 6.00 Build 0)  -->
<svg version="1.1" id="Layer_1" xmlns="http://www.w3.org/2000/svg" xmlns:xlink="http://www.w3.org/1999/xlink" x="0px" y="0px"
	 viewBox="0 0 321 183" style="enable-background:new 0 0 321 183;" xml:space="preserve">
<style type="text/css">
	.st0{fill:#FFFFFF;}
</style>
<path d="M126.5,49.8c0.3-0.3,0.3-0.7,0-1c0,0,0,0,0,0l-9.1-8.8l9-8.8c0.3-0.3,0.3-0.7,0-1c0,0,0,0,0,0c-0.3-0.3-0.7-0.3-1,0
	l-9.5,9.3c-0.1,0.1-0.2,0.3-0.2,0.5c0,0.2,0.1,0.4,0.2,0.5l9.5,9.3C125.7,50.1,126.1,50.1,126.5,49.8L126.5,49.8L126.5,49.8z"/>
<path d="M148.9,30.2c-0.3,0.3-0.3,0.7,0,1c0,0,0,0,0,0l9.1,8.8l-9.1,8.8c-0.3,0.3-0.3,0.7,0,1c0,0,0,0,0,0c0.3,0.3,0.7,0.3,1,0
	l9.5-9.3c0.1-0.1,0.2-0.3,0.2-0.5c0-0.2-0.1-0.4-0.2-0.5l-9.5-9.3C149.6,29.9,149.2,29.9,148.9,30.2L148.9,30.2L148.9,30.2z"/>
<path d="M37,47.8c0.2-0.2,0.2-0.6,0-0.8l0,0l-6.6-7l6.6-7c0.2-0.2,0.2-0.6,0-0.8c-0.2-0.2-0.5-0.2-0.7-0.1c0,0,0,0,0,0l0,0l-6.9,7.4
	c-0.1,0.1-0.2,0.3-0.2,0.4c0,0.1,0.1,0.3,0.2,0.4l6.9,7.4C36.4,48,36.7,48.1,37,47.8C37,47.9,37,47.9,37,47.8L37,47.8z"/>
<path d="M65.3,32.2c-0.2,0.2-0.2,0.6,0,0.8l0,0l6.6,7l-6.6,7c-0.2,0.2-0.2,0.6,0,0.8c0.2,0.2,0.5,0.2,0.7,0.1c0,0,0,0,0,0l0,0
	l6.9-7.4c0.1-0.1,0.2-0.3,0.2-0.4c0-0.1-0.1-0.3-0.2-0.4l-6.9-7.4C65.9,32,65.6,31.9,65.3,32.2C65.4,32.1,65.4,32.1,65.3,32.2
	L65.3,32.2z"/>
<path class="st0" d="M126.5,92.8c0.3-0.3,0.3-0.7,0-1c0,0,0,0,0,0l-9.1-8.8l9.1-8.8c0.3-0.3,0.3-0.7,0-1c0,0,0,0,0,0
	c-0.3-0.3-0.7-0.3-1,0l-9.5,9.3c-0.1,0.1-0.2,0.3-0.2,0.5c0,0.2,0.1,0.4,0.2,0.5l9.5,9.3C125.7,93.1,126.1,93.1,126.5,92.8
	C126.4,92.8,126.5,92.8,126.5,92.8z"/>
<path class="st0" d="M148.9,73.2c-0.3,0.3-0.3,0.7,0,1c0,0,0,0,0,0l9.1,8.8l-9.1,8.8c-0.3,0.3-0.3,0.7,0,1c0,0,0,0,0,0
	c0.3,0.3,0.7,0.3,1,0l9.5-9.3c0.1-0.1,0.2-0.3,0.2-0.5c0-0.2-0.1-0.4-0.2-0.5l-9.5-9.3C149.6,72.9,149.2,72.9,148.9,73.2L148.9,73.2
	L148.9,73.2z"/>
<path class="st0" d="M37,90.8c0.2-0.2,0.2-0.6,0-0.8l0,0l-6.6-7l6.6-7c0.2-0.2,0.2-0.6,0-0.8c-0.2-0.2-0.5-0.2-0.7-0.1c0,0,0,0,0,0
	l0,0l-6.9,7.4c-0.1,0.1-0.2,0.3-0.2,0.4c0,0.1,0.1,0.3,0.2,0.4l6.9,7.4C36.4,91,36.7,91.1,37,90.8C37,90.9,37,90.9,37,90.8L37,90.8
	L37,90.8z"/>
<path class="st0" d="M65.3,75.2c-0.2,0.2-0.2,0.6,0,0.8l0,0l6.6,7l-6.6,7c-0.2,0.2-0.2,0.6,0,0.8c0.2,0.2,0.5,0.2,0.7,0c0,0,0,0,0,0
	l6.9-7.4c0.1-0.1,0.2-0.3,0.2-0.4c0-0.1-0.1-0.3-0.2-0.4l-6.9-7.4C65.9,75,65.6,74.9,65.3,75.2C65.4,75.1,65.3,75.1,65.3,75.2
	L65.3,75.2L65.3,75.2z"/>
<path d="M271.1,129.5c0.3,0.3,0.7,0.3,1,0c0,0,0,0,0,0l8.8-9.1l8.8,9c0.3,0.3,0.7,0.3,1,0c0,0,0,0,0,0c0.3-0.3,0.3-0.7,0-1l-9.3-9.5
	c-0.1-0.1-0.3-0.2-0.5-0.2c-0.2,0-0.4,0.1-0.5,0.2l-9.3,9.5C270.9,128.7,270.8,129.1,271.1,129.5L271.1,129.5L271.1,129.5z"/>
<path d="M290.7,151.9c-0.3-0.3-0.7-0.3-1,0c0,0,0,0,0,0l-8.8,9.1l-8.8-9.1c-0.3-0.3-0.7-0.3-1,0c0,0,0,0,0,0c-0.3,0.3-0.3,0.7,0,1
	l9.3,9.5c0.1,0.1,0.3,0.2,0.5,0.2c0.2,0,0.4-0.1,0.5-0.2l9.3-9.5C291,152.6,291,152.2,290.7,151.9L290.7,151.9L290.7,151.9z"/>
<path d="M273.1,40c0.2,0.2,0.6,0.2,0.8,0l0,0l7-6.6l7,6.6c0.2,0.2,0.6,0.2,0.8,0c0.2-0.2,0.2-0.5,0.1-0.7c0,0,0,0,0,0l0,0l-7.4-6.9
	c-0.1-0.1-0.3-0.2-0.4-0.2c-0.1,0-0.3,0.1-0.4,0.2l-7.4,6.9C272.9,39.4,272.9,39.7,273.1,40C273,40,273.1,40,273.1,40L273.1,40z"/>
<path d="M288.8,68.3c-0.2-0.2-0.6-0.2-0.8,0l0,0l-7,6.6l-7-6.6c-0.2-0.2-0.6-0.2-0.8,0c-0.2,0.2-0.2,0.5-0.1,0.7c0,0,0,0,0,0l0,0
	l7.4,6.9c0.1,0.1,0.3,0.2,0.4,0.2c0.1,0,0.3-0.1,0.4-0.2l7.4-6.9C289,68.9,289,68.6,288.8,68.3C288.8,68.4,288.8,68.4,288.8,68.3
	L288.8,68.3z"/>
<path class="st0" d="M228.1,129.5c0.3,0.3,0.7,0.3,1,0c0,0,0,0,0,0l8.8-9.1l8.8,9.1c0.3,0.3,0.7,0.3,1,0c0,0,0,0,0,0
	c0.3-0.3,0.3-0.7,0-1l-9.3-9.5c-0.1-0.1-0.3-0.2-0.5-0.2c-0.2,0-0.4,0.1-0.5,0.2l-9.3,9.5C227.9,128.7,227.8,129.1,228.1,129.5
	C228.1,129.4,228.1,129.5,228.1,129.5z"/>
<path class="st0" d="M247.7,151.9c-0.3-0.3-0.7-0.3-1,0c0,0,0,0,0,0l-8.8,9.1l-8.8-9.1c-0.3-0.3-0.7-0.3-1,0c0,0,0,0,0,0
	c-0.3,0.3-0.3,0.7,0,1l9.3,9.5c0.1,0.1,0.3,0.2,0.5,0.2c0.2,0,0.4-0.1,0.5-0.2l9.3-9.5C248,152.6,248,152.2,247.7,151.9L247.7,151.9
	L247.7,151.9z"/>
<path class="st0" d="M230.1,40c0.2,0.2,0.6,0.2,0.8,0l0,0l7-6.6l7,6.6c0.2,0.2,0.6,0.2,0.8,0c0.2-0.2,0.2-0.5,0.1-0.7c0,0,0,0,0,0
	l0,0l-7.4-6.9c-0.1-0.1-0.3-0.2-0.4-0.2c-0.1,0-0.3,0.1-0.4,0.2l-7.4,6.9C229.9,39.4,229.9,39.7,230.1,40
	C230.1,40,230.1,40,230.1,40L230.1,40L230.1,40z"/>
<path class="st0" d="M245.8,68.3c-0.2-0.2-0.6-0.2-0.8,0l0,0l-7,6.6l-7-6.6c-0.2-0.2-0.6-0.2-0.8,0c-0.2,0.2-0.2,0.5,0,0.7
	c0,0,0,0,0,0l7.4,6.9c0.1,0.1,0.3,0.2,0.4,0.2c0.1,0,0.3-0.1,0.4-0.2l7.4-6.9C246,68.9,246,68.6,245.8,68.3
	C245.8,68.4,245.8,68.3,245.8,68.3L245.8,68.3L245.8,68.3z"/>
</svg>
