<?xml version="1.0" encoding="utf-8"?>
<!-- Generator: Adobe Illustrator 27.5.0, SVG Export Plug-In . SVG Version: 6.00 Build 0)  -->
<svg version="1.1" id="Layer_1" xmlns="http://www.w3.org/2000/svg" xmlns:xlink="http://www.w3.org/1999/xlink" x="0px" y="0px"
	 viewBox="0 0 805 150" style="enable-background:new 0 0 805 150;" xml:space="preserve">
<style type="text/css">
	.st0{fill:none;stroke:#000000;stroke-miterlimit:10;}
	.st1{fill:none;stroke:#AC9751;stroke-miterlimit:10;}
	.st2{fill:#AC9751;stroke:#AC9751;stroke-miterlimit:10;}
	.st3{fill:none;stroke:#FFFFFF;stroke-miterlimit:10;}
	.st4{fill:#FFFFFF;}
	.st5{fill:#A7BDB1;}
	.st6{fill:none;stroke:#000000;}
	.st7{fill:#AC9751;}
	.st8{fill:none;stroke:#000000;stroke-width:2;stroke-miterlimit:10;}
</style>
<path class="st0" d="M238,62h28"/>
<path class="st0" d="M238,70h28"/>
<path class="st0" d="M238,78h28"/>
<path class="st0" d="M167.8,57c4.9,0,8.8,4,8.8,8.8c0,3.6-6.7,13.2-8.8,17.2c-2.2-4-8.8-13.5-8.8-17.2C159,61,163,57,167.8,57z
	 M167.8,70c2.2,0,4-1.8,4-4c0-2.2-1.8-4-4-4c-2.2,0-4,1.8-4,4C163.9,68.2,165.7,70,167.8,70z"/>
<path class="st0" d="M300.6,79l-8.6-9l8.6-9"/>
<path class="st0" d="M90.3,61.9c-2.7-3-7-2.2-9.9,0.5c-2.7-2.7-7.2-3.5-9.9-0.5c-2.3,2.7-1.8,6.7,0.5,9.5c2.8,3.3,6,6.5,9.4,9.4
	c3.4-2.8,6.5-6,9.4-9.4C92.1,68.4,92.8,64.6,90.3,61.9z"/>
<path class="st0" d="M330.9,76.3c3.9,0,7.1-3.2,7.1-7.1c0-3.9-3.2-7.1-7.1-7.1s-7.1,3.2-7.1,7.1C323.7,73.1,326.9,76.3,330.9,76.3z"
	/>
<path class="st0" d="M326.3,74.7L321,80"/>
<path class="st1" d="M330.9,128.3c3.9,0,7.1-3.2,7.1-7.1c0-3.9-3.2-7.1-7.1-7.1s-7.1,3.2-7.1,7.1
	C323.7,125.1,326.9,128.3,330.9,128.3z"/>
<path class="st1" d="M326.3,126.7L321,132"/>
<path class="st0" d="M367.1,64v14.3"/>
<path class="st0" d="M360,71.1h14"/>
<path class="st0" d="M490,64l14,14"/>
<path class="st0" d="M490,78l13.7-13.7"/>
<path d="M577,69.9v-2c0-2.8-2.2-5-5-5s-5,2.2-5,5v2c-1.1,0-2,0.9-2,2v5c0,1.1,0.9,2,2,2h10c1.1,0,2-0.9,2-2v-5
	C579,70.8,578.1,69.9,577,69.9z M575,69.9h-6v-2c0-1.7,1.3-3,3-3s3,1.3,3,3V69.9z"/>
<path class="st2" d="M90.4,133H72v-5.1c0-4,3.1-7.2,7.2-7.2h4c4,0,7.2,3.1,7.2,7.2V133z"/>
<path class="st2" d="M81,118.3c2.8,0,5.1-2.3,5.1-5.1c0-2.8-2.3-5.1-5.1-5.1s-5.1,2.3-5.1,5.1C75.9,116,78.2,118.3,81,118.3z"/>
<path class="st3" d="M201,14l18,18"/>
<path class="st3" d="M201,32l17.6-17.6"/>
<path class="st0" d="M201,60l18,18"/>
<path class="st0" d="M201,78l17.6-17.6"/>
<path class="st3" d="M167.8,11c4.9,0,8.8,4,8.8,8.8c0,3.6-6.7,13.2-8.8,17.2c-2.2-4-8.8-13.5-8.8-17.2C159,15,163,11,167.8,11z
	 M167.8,24c2.2,0,4-1.8,4-4c0-2.2-1.8-4-4-4c-2.2,0-4,1.8-4,4C163.9,22.2,165.7,24,167.8,24z"/>
<path class="st3" d="M90.3,15.9c-2.7-3-7-2.2-9.9,0.5c-2.7-2.7-7.2-3.5-9.9-0.5c-2.3,2.7-1.8,6.7,0.5,9.5c2.8,3.3,6,6.5,9.4,9.4
	c3.4-2.8,6.5-6,9.4-9.4C92.1,22.4,92.8,18.6,90.3,15.9z"/>
<path class="st3" d="M367.1,18v14.3"/>
<path class="st3" d="M360,25.1h14"/>
<path class="st3" d="M470,21l-6.5,6.2L457,21"/>
<path class="st0" d="M470,67l-6.5,6.2L457,67"/>
<path class="st4" d="M577,23.9v-2c0-2.8-2.2-5-5-5s-5,2.2-5,5v2c-1.1,0-2,0.9-2,2v5c0,1.1,0.9,2,2,2h10c1.1,0,2-0.9,2-2v-5
	C579,24.8,578.1,23.9,577,23.9z M575,23.9h-6v-2c0-1.7,1.3-3,3-3s3,1.3,3,3V23.9z"/>
<path class="st4" d="M772.2,14.9c0.3,2.6,1.7,4.1,4.2,4.2V22c-1.5,0.1-3-0.3-4.2-1.2v5.4c0,6.8-7.4,9-10.4,4.1
	c-1.9-3.1-0.7-8.7,5.4-8.9v3c-0.5,0.1-1,0.2-1.4,0.4c-1.3,0.3-2.2,1.5-1.9,2.9c0,0,0,0,0,0c0.4,2.9,5.8,3.8,5.4-1.9V14.9H772.2z"/>
<path class="st4" d="M690.6,32.9v-8H688v-3.2h2.6v-2.5c-0.3-2,1.2-3.9,3.3-4.2c0.3,0,0.6,0,0.7,0c1.2,0,2.2,0.1,2.5,0.1V18h-1.7
	c-1.3,0-1.6,0.6-1.6,1.6v2.2h2.9l-0.4,3.2H694v8"/>
<path d="M740,67.2c0-0.7-0.2-1.5-0.4-2.2c-0.2-0.6-0.6-1.1-1-1.6c-0.4-0.5-1-0.8-1.6-1c-0.7-0.3-1.4-0.4-2.2-0.4
	c-1,0-1.3-0.1-3.7-0.1c-1.2,0-2.5,0-3.7,0.1c-0.7,0-1.5,0.2-2.2,0.4c-0.6,0.2-1.1,0.6-1.6,1c-0.5,0.4-0.8,1-1,1.6
	c-0.3,0.7-0.4,1.4-0.4,2.2c0,1-0.1,1.3-0.1,3.7c0,1.2,0,2.5,0.1,3.7c0,0.7,0.2,1.5,0.4,2.2c0.2,0.6,0.6,1.1,1,1.6
	c0.4,0.5,1,0.8,1.6,1c0.7,0.3,1.4,0.4,2.2,0.4c1,0,1.3,0.1,3.7,0.1c1.2,0,2.5,0,3.7-0.1c0.7,0,1.5-0.2,2.2-0.4
	c1.2-0.5,2.1-1.4,2.6-2.6c0.3-0.7,0.4-1.4,0.4-2.2c0-1,0.1-1.3,0.1-3.7C740,68.4,740,68.1,740,67.2z M738.3,74.5
	c0,0.6-0.1,1.2-0.3,1.7c-0.3,0.8-0.9,1.4-1.7,1.7c-0.5,0.2-1.1,0.3-1.7,0.3c-0.9,0-1.2,0.1-3.6,0.1c-1.2,0-2.4,0-3.6-0.1
	c-0.6,0-1.2-0.1-1.7-0.3c-0.4-0.1-0.7-0.4-1-0.7c-0.3-0.3-0.5-0.6-0.7-1c-0.2-0.5-0.3-1.1-0.3-1.7c0-0.9-0.1-1.2-0.1-3.6
	c0-1.2,0-2.4,0.1-3.6c0-0.6,0.1-1.2,0.3-1.7c0.1-0.4,0.4-0.7,0.7-1c0.3-0.3,0.6-0.5,1-0.7c0.5-0.2,1.1-0.3,1.7-0.3h3.6
	c1.2,0,2.4,0,3.6,0.1c0.6,0,1.2,0.1,1.7,0.3c0.4,0.1,0.7,0.4,1,0.7c0.3,0.3,0.5,0.6,0.7,1c0.2,0.5,0.3,1.1,0.3,1.7
	c0,0.9,0.1,1.2,0.1,3.6C738.4,72.2,738.4,73.3,738.3,74.5z"/>
<path d="M735.8,65c-0.6,0-1.1,0.5-1.1,1.1c0,0.6,0.5,1.1,1.1,1.1c0.6,0,1.1-0.5,1.1-1.1c0-0.6-0.4-1.1-1-1.1
	C735.9,65,735.8,65,735.8,65z"/>
<path d="M731,66.3c-2.5,0-4.6,2-4.6,4.6v0c0,2.5,2.1,4.6,4.6,4.6c2.5,0,4.6-2,4.6-4.6v0c0-2.5-2-4.6-4.5-4.6
	C731.1,66.3,731,66.3,731,66.3z M734,70.9c0,1.7-1.3,3-3,3s-3-1.3-3-3c0-1.7,1.3-3,3-3c1.6,0,3,1.3,3,2.9
	C734,70.8,734,70.9,734,70.9z"/>
<path d="M772.2,61.9c0.3,2.6,1.7,4.1,4.2,4.2V69c-1.5,0.1-3-0.3-4.2-1.2v5.4c0,6.8-7.4,9-10.4,4.1c-1.9-3.1-0.7-8.7,5.4-8.9v3
	c-0.5,0.1-1,0.2-1.4,0.4c-1.3,0.3-2.2,1.5-1.9,2.9c0,0,0,0,0,0c0.4,2.9,5.8,3.8,5.4-1.9V61.9H772.2z"/>
<path class="st3" d="M136.6,19.1H113V36h23.6V19.1z"/>
<path class="st3" d="M119.4,19.1c0-5,2.4-9.1,5.4-9.1s5.4,4.2,5.4,9.1"/>
<path class="st0" d="M136.6,65.1H113V82h23.6V65.1z"/>
<path class="st0" d="M119.4,65.1c0-5,2.4-9.1,5.4-9.1s5.4,4.2,5.4,9.1"/>
<path class="st3" d="M47.4,37H29v-5.1c0-4,3.1-7.2,7.2-7.2h4c4,0,7.2,3.1,7.2,7.2V37z"/>
<path class="st3" d="M38,22.3c2.8,0,5.1-2.3,5.1-5.1S40.9,12,38,12s-5.1,2.3-5.1,5.1S35.2,22.3,38,22.3z"/>
<path d="M729.7,119.2v-5.4l4.7,2.7L729.7,119.2z M740.1,112.1c-0.2-0.8-0.8-1.4-1.6-1.6c-4.7-0.5-9.3-0.5-14,0
	c-0.8,0.2-1.4,0.8-1.6,1.6c-0.3,1.5-0.4,2.9-0.4,4.4c0,1.5,0.1,2.9,0.4,4.4c0.2,0.8,0.8,1.4,1.6,1.6c4.7,0.5,9.3,0.5,14,0
	c0.8-0.2,1.4-0.8,1.6-1.6c0.3-1.5,0.4-2.9,0.4-4.4C740.5,115,740.4,113.6,740.1,112.1z"/>
<path class="st4" d="M767.3,119.2v-5.4l4.7,2.7L767.3,119.2z M777.8,112.1c-0.2-0.8-0.8-1.4-1.6-1.6c-4.7-0.5-9.3-0.5-14,0
	c-0.8,0.2-1.4,0.8-1.6,1.6c-0.3,1.5-0.4,2.9-0.4,4.4c0,1.5,0.1,2.9,0.4,4.4c0.2,0.8,0.8,1.4,1.6,1.6c4.7,0.5,9.3,0.5,14,0
	c0.8-0.2,1.4-0.8,1.6-1.6c0.3-1.5,0.4-2.9,0.4-4.4C778.2,115,778.1,113.6,777.8,112.1z"/>
<path class="st3" d="M238,17h28"/>
<path class="st3" d="M238,25h28"/>
<path class="st3" d="M238,33h28"/>
<path class="st0" d="M259.3,103.3c-1.8-2-4.7-1.5-6.6,0.3c-1.8-1.8-4.8-2.4-6.6-0.3c-1.6,1.8-1.2,4.5,0.3,6.4
	c1.9,2.2,4.1,4.4,6.3,6.3c2.3-1.9,4.4-4.1,6.3-6.3C260.6,107.7,261,105.1,259.3,103.3z"/>
<path class="st3" d="M300.6,33l-8.6-9l8.6-9"/>
<path class="st3" d="M429,18l6.2,6.5L429,31"/>
<path class="st0" d="M429,65l6.2,6.5L429,78"/>
<path class="st3" d="M330.9,30.3c3.9,0,7.1-3.2,7.1-7.1s-3.2-7.1-7.1-7.1s-7.1,3.2-7.1,7.1S326.9,30.3,330.9,30.3z"/>
<path class="st3" d="M326.3,28.7L321,34"/>
<path class="st3" d="M490,18l14,14"/>
<path class="st3" d="M490,32l13.7-13.7"/>
<path class="st5" d="M539.6,23.4l-5,5c-0.5,0.5-1.3,0.5-1.8,0l-2.5-2.5c-0.5-0.5-0.5-1.3,0-1.8s1.3-0.5,1.8,0l1.6,1.6l4.1-4.1
	c0.5-0.5,1.3-0.5,1.8,0S540.1,22.9,539.6,23.4z"/>
<path class="st5" d="M535,15c-5.5,0-10,4.5-10,10s4.5,10,10,10s10-4.5,10-10S540.5,15,535,15L535,15z M539.6,23.4l-5,5
	c-0.5,0.5-1.3,0.5-1.8,0l-2.5-2.5c-0.5-0.5-0.5-1.3,0-1.8s1.3-0.5,1.8,0l1.6,1.6l4.1-4.1c0.5-0.5,1.3-0.5,1.8,0
	S540.1,22.9,539.6,23.4z"/>
<path class="st6" d="M530,25.7l3.8,2.3l6.2-7"/>
<path class="st3" d="M395,25h14"/>
<path class="st0" d="M395,71h14"/>
<rect x="395" y="104.5" width="16.2" height="0.6"/>
<ellipse cx="398.9" cy="104.7" rx="1.2" ry="1.2"/>
<rect x="395" y="100.2" width="16.2" height="0.6"/>
<ellipse cx="407.3" cy="100.3" rx="1.2" ry="1.2"/>
<rect x="395" y="108.5" width="16.2" height="0.6"/>
<circle cx="407.3" cy="108.8" r="1.2"/>
<rect x="456" y="104" class="st7" width="16.2" height="1.1"/>
<ellipse class="st7" cx="460.1" cy="104.4" rx="1.4" ry="1.4"/>
<rect x="456" y="99.6" class="st7" width="16.2" height="1.1"/>
<ellipse class="st7" cx="468.1" cy="100.1" rx="1.4" ry="1.4"/>
<rect x="456" y="108.5" class="st7" width="16.2" height="1.1"/>
<circle class="st7" cx="468.1" cy="109" r="1.4"/>
<path class="st6" d="M496.6,103v-4.7 M496.4,102.7l4,2.3 M504,103c0,3.9-3.1,7-7,7s-7-3.1-7-7s3.1-7,7-7S504,99.1,504,103z"/>
<path class="st0" d="M599,61l18,18"/>
<path class="st0" d="M599,79l17.6-17.6"/>
<path class="st3" d="M600,15l18,18"/>
<path class="st3" d="M600,33l17.6-17.6"/>
<path d="M689.6,79.9v-8H687v-3.2h2.6v-2.5c-0.3-2,1.2-3.9,3.3-4.2c0.3,0,0.6,0,0.7,0c1.2,0,2.2,0.1,2.5,0.1V65h-1.7
	c-1.3,0-1.6,0.6-1.6,1.6v2.2h2.9l-0.4,3.2H693v8"/>
<path class="st0" d="M47.4,83H29v-5.1c0-4,3.1-7.2,7.2-7.2h4c4,0,7.2,3.1,7.2,7.2V83z"/>
<path class="st0" d="M38,68.3c2.8,0,5.1-2.3,5.1-5.1c0-2.8-2.3-5.1-5.1-5.1s-5.1,2.3-5.1,5.1C32.9,66,35.2,68.3,38,68.3z"/>
<path class="st8" d="M47.4,133.2H29V128c0-4,3.1-7.2,7.2-7.2h4c4,0,7.2,3.1,7.2,7.2V133.2z"/>
<path class="st8" d="M38,118.5c2.8,0,5.1-2.3,5.1-5.1c0-2.8-2.3-5.1-5.1-5.1s-5.1,2.3-5.1,5.1C32.9,116.2,35.2,118.5,38,118.5z"/>
<g id="social-instagram">
	<path class="st4" d="M740,20.2c0-0.7-0.2-1.5-0.4-2.2c-0.2-0.6-0.6-1.1-1-1.6c-0.4-0.5-1-0.8-1.6-1c-0.7-0.3-1.4-0.4-2.2-0.4
		c-1,0-1.3-0.1-3.7-0.1c-1.2,0-2.5,0-3.7,0.1c-0.7,0-1.5,0.2-2.2,0.4c-0.6,0.2-1.1,0.6-1.6,1c-0.5,0.4-0.8,1-1,1.6
		c-0.3,0.7-0.4,1.4-0.4,2.2c0,1-0.1,1.3-0.1,3.7c0,1.2,0,2.5,0.1,3.7c0,0.7,0.2,1.5,0.4,2.2c0.2,0.6,0.6,1.1,1,1.6
		c0.4,0.5,1,0.8,1.6,1c0.7,0.3,1.4,0.4,2.2,0.4c1,0,1.3,0.1,3.7,0.1c1.2,0,2.5,0,3.7-0.1c0.7,0,1.5-0.2,2.2-0.4
		c1.2-0.5,2.1-1.4,2.6-2.6c0.3-0.7,0.4-1.4,0.4-2.2c0-1,0.1-1.3,0.1-3.7C740,21.4,740,21.1,740,20.2z M738.3,27.5
		c0,0.6-0.1,1.2-0.3,1.7c-0.3,0.8-0.9,1.4-1.7,1.7c-0.5,0.2-1.1,0.3-1.7,0.3c-0.9,0-1.2,0.1-3.6,0.1c-1.2,0-2.4,0-3.6-0.1
		c-0.6,0-1.2-0.1-1.7-0.3c-0.4-0.1-0.7-0.4-1-0.7c-0.3-0.3-0.5-0.6-0.7-1c-0.2-0.5-0.3-1.1-0.3-1.7c0-0.9-0.1-1.2-0.1-3.6
		c0-1.2,0-2.4,0.1-3.6c0-0.6,0.1-1.2,0.3-1.7c0.1-0.4,0.4-0.7,0.7-1c0.3-0.3,0.6-0.5,1-0.7c0.5-0.2,1.1-0.3,1.7-0.3h3.6
		c1.2,0,2.4,0,3.6,0.1c0.6,0,1.2,0.1,1.7,0.3c0.4,0.1,0.7,0.4,1,0.7c0.3,0.3,0.5,0.6,0.7,1c0.2,0.5,0.3,1.1,0.3,1.7
		c0,0.9,0.1,1.2,0.1,3.6C738.4,25.2,738.4,26.3,738.3,27.5z"/>
	<path class="st4" d="M735.8,18c-0.6,0-1.1,0.5-1.1,1.1s0.5,1.1,1.1,1.1s1.1-0.5,1.1-1.1l0,0c0-0.6-0.4-1.1-1-1.1
		C735.9,18,735.8,18,735.8,18z"/>
	<path class="st4" d="M731,19.3L731,19.3c-2.5,0-4.6,2-4.6,4.6v0c0,2.5,2.1,4.6,4.6,4.6c2.5,0,4.6-2,4.6-4.6v0c0-2.5-2-4.6-4.5-4.6
		C731.1,19.3,731,19.3,731,19.3z M734,23.9c0,1.7-1.3,3-3,3s-3-1.3-3-3s1.3-3,3-3c1.6,0,3,1.3,3,2.9C734,23.8,734,23.9,734,23.9z"/>
</g>
</svg>
