<?xml version="1.0" encoding="utf-8"?>
<!-- Generator: Adobe Illustrator 22.0.1, SVG Export Plug-In . SVG Version: 6.00 Build 0)  -->
<svg version="1.1" id="Layer_1" xmlns="http://www.w3.org/2000/svg" xmlns:xlink="http://www.w3.org/1999/xlink" x="0px" y="0px"
	 viewBox="0 0 200 121.667" style="enable-background:new 0 0 200 121.667;" xml:space="preserve">
<style type="text/css">
	.st0{fill:#0255A3;}
	.st1{fill:#FFFFFF;}
	.st2{stroke:#000000;stroke-width:0.054;stroke-miterlimit:10;}
	.st3{fill:#0255A3;stroke:#0255A3;stroke-width:0.1;stroke-miterlimit:10;}
	.st4{fill:none;stroke:#000000;stroke-width:0.215;stroke-miterlimit:10;}
	.st5{fill:none;stroke:#FFFFFF;stroke-width:0.215;stroke-miterlimit:10;}
	.st6{stroke:#000000;stroke-width:0.1;stroke-miterlimit:10;}
	.st7{fill:#FFFFFF;stroke:#FFFFFF;stroke-width:0.1;stroke-miterlimit:10;}
	.st8{clip-path:url(#SVGID_2_);}
	.st9{fill:none;stroke:#000000;stroke-width:0.22;stroke-miterlimit:10;}
	.st10{fill:#1E1E1E;}
	.st11{fill:none;stroke:#0255A3;stroke-width:0.22;stroke-miterlimit:10;}
	.st12{fill:none;stroke:#FFFFFF;stroke-width:0.22;stroke-miterlimit:10;}
	.st13{fill:#3E3E3E;}
	.st14{fill:#3E3E3E;stroke:#3E3E3E;stroke-width:0.1;stroke-miterlimit:10;}
</style>
<title>global-sprite-sd-v3</title>
<path d="M7.791,3.776c-0.721-0.704-1.875-0.69-2.579,0.03C4.565,4.469,4.517,5.511,5.1,6.23C5.039,6.366,4.937,6.48,4.807,6.554
	C4.722,6.597,4.689,6.701,4.732,6.785c0.025,0.049,0.071,0.083,0.125,0.092C4.904,6.884,4.952,6.888,5,6.888
	c0.231-0.001,0.456-0.076,0.642-0.213C6.53,7.152,7.636,6.818,8.113,5.93c0.381-0.71,0.251-1.586-0.319-2.155L7.791,3.776z
	 M7.643,6.209C7.123,6.73,6.317,6.833,5.682,6.461C5.641,6.435,5.588,6.442,5.555,6.477L5.546,6.483
	C5.39,6.61,5.197,6.68,4.996,6.683H5C5.139,6.574,5.247,6.43,5.313,6.267C5.32,6.245,5.321,6.222,5.315,6.2
	C5.313,6.178,5.304,6.157,5.289,6.141C4.697,5.472,4.759,4.45,5.428,3.858s1.691-0.53,2.283,0.139
	c0.567,0.64,0.537,1.611-0.068,2.215V6.209z"/>
<path d="M6.628,5.066c0,0.071-0.057,0.128-0.128,0.128S6.372,5.137,6.372,5.066S6.429,4.938,6.5,4.938h0
	C6.571,4.938,6.628,4.995,6.628,5.066z"/>
<path d="M7.289,5.066c0.001,0.071-0.057,0.129-0.128,0.13s-0.129-0.057-0.13-0.128s0.057-0.129,0.128-0.13c0.001,0,0.001,0,0.002,0
	C7.231,4.939,7.288,4.996,7.289,5.066z"/>
<path d="M5.968,5.066c0.001,0.071-0.057,0.129-0.128,0.13C5.769,5.197,5.711,5.139,5.71,5.068c-0.001-0.071,0.057-0.129,0.128-0.13
	c0,0,0.001,0,0.001,0C5.91,4.938,5.967,4.995,5.968,5.066z"/>
<path class="st0" d="M66.93,50.215h-2.409c-0.099,0-0.18-0.081-0.18-0.18s0.081-0.18,0.18-0.18h2.409c0.099,0,0.18,0.081,0.18,0.18
	S67.029,50.215,66.93,50.215z"/>
<path class="st0" d="M66.93,49.087h-2.409c-0.099,0-0.18-0.081-0.18-0.18s0.081-0.18,0.18-0.18h2.409c0.099,0,0.18,0.081,0.18,0.18
	S67.029,49.087,66.93,49.087z"/>
<path class="st0" d="M66.93,47.958h-2.409c-0.099,0.007-0.186-0.067-0.193-0.166c-0.007-0.099,0.067-0.186,0.166-0.193
	c0.009-0.001,0.018-0.001,0.027,0h2.409c0.099-0.007,0.186,0.067,0.193,0.166c0.007,0.099-0.067,0.186-0.166,0.193
	C66.948,47.959,66.939,47.959,66.93,47.958z"/>
<path class="st0" d="M63.99,47.792c0.001,0.134-0.107,0.242-0.241,0.243c-0.134,0.001-0.242-0.107-0.243-0.241
	c-0.001-0.134,0.107-0.242,0.241-0.243c0,0,0.001,0,0.001,0C63.881,47.551,63.989,47.659,63.99,47.792z"/>
<path class="st0" d="M63.99,48.907c0,0.134-0.108,0.242-0.242,0.242s-0.242-0.108-0.242-0.242s0.108-0.242,0.242-0.242
	c0.133-0.001,0.241,0.107,0.242,0.24C63.99,48.906,63.99,48.906,63.99,48.907z"/>
<path class="st0" d="M63.99,50.021c0.001,0.134-0.107,0.242-0.241,0.243c-0.134,0.001-0.242-0.107-0.243-0.241
	c-0.001-0.134,0.107-0.242,0.241-0.243c0,0,0.001,0,0.001,0C63.881,49.78,63.989,49.888,63.99,50.021z"/>
<path d="M66.93,59.314h-2.409c-0.099,0-0.18-0.081-0.18-0.18s0.081-0.18,0.18-0.18h2.409c0.099,0,0.18,0.081,0.18,0.18
	S67.029,59.314,66.93,59.314z"/>
<path d="M66.93,58.185h-2.409c-0.099,0.007-0.186-0.067-0.193-0.166c-0.007-0.099,0.067-0.186,0.166-0.193
	c0.009-0.001,0.018-0.001,0.027,0h2.409c0.099-0.007,0.186,0.067,0.193,0.166c0.007,0.099-0.067,0.186-0.166,0.193
	C66.948,58.186,66.939,58.186,66.93,58.185z"/>
<path d="M66.93,57.057h-2.409c-0.099,0-0.18-0.081-0.18-0.18s0.081-0.18,0.18-0.18h2.409c0.099,0,0.18,0.081,0.18,0.18
	S67.029,57.057,66.93,57.057z"/>
<path d="M63.99,56.891c0,0.134-0.108,0.242-0.242,0.242s-0.242-0.108-0.242-0.242s0.108-0.242,0.242-0.242
	c0.133-0.001,0.241,0.107,0.242,0.24C63.99,56.89,63.99,56.89,63.99,56.891z"/>
<path d="M63.99,58.005c0.001,0.134-0.107,0.242-0.241,0.243c-0.134,0.001-0.242-0.107-0.243-0.241
	c-0.001-0.134,0.107-0.242,0.241-0.243c0,0,0.001,0,0.001,0C63.881,57.764,63.989,57.872,63.99,58.005z"/>
<path d="M63.99,59.12c0,0.134-0.108,0.242-0.242,0.242s-0.242-0.108-0.242-0.242s0.108-0.242,0.242-0.242
	c0.133-0.001,0.241,0.107,0.242,0.24C63.99,59.119,63.99,59.119,63.99,59.12z"/>
<path class="st1" d="M66.93,68.406h-2.409c-0.099,0.007-0.186-0.067-0.193-0.166s0.067-0.186,0.166-0.193
	c0.009-0.001,0.018-0.001,0.027,0h2.409c0.099-0.007,0.186,0.067,0.193,0.166s-0.067,0.186-0.166,0.193
	C66.948,68.407,66.939,68.407,66.93,68.406z"/>
<path class="st1" d="M66.93,67.278h-2.409c-0.099,0.007-0.186-0.067-0.193-0.166s0.067-0.186,0.166-0.193
	c0.009-0.001,0.018-0.001,0.027,0h2.409c0.099-0.007,0.186,0.067,0.193,0.166s-0.067,0.186-0.166,0.193
	C66.948,67.279,66.939,67.279,66.93,67.278z"/>
<path class="st1" d="M66.93,66.15h-2.409c-0.099,0-0.18-0.081-0.18-0.18s0.081-0.18,0.18-0.18h2.409c0.099,0,0.18,0.081,0.18,0.18
	S67.029,66.15,66.93,66.15z"/>
<path class="st1" d="M63.99,65.984c0,0.134-0.108,0.242-0.242,0.242s-0.242-0.108-0.242-0.242c0-0.134,0.108-0.242,0.242-0.242
	c0,0,0,0,0,0c0.133-0.001,0.241,0.107,0.242,0.24C63.99,65.983,63.99,65.983,63.99,65.984z"/>
<path class="st1" d="M63.99,67.1c0.001,0.134-0.107,0.242-0.241,0.243c-0.134,0.001-0.242-0.107-0.243-0.241
	c-0.001-0.134,0.107-0.242,0.241-0.243c0,0,0.001,0,0.001,0C63.881,66.859,63.989,66.967,63.99,67.1z"/>
<path class="st1" d="M63.99,68.213c0,0.134-0.108,0.242-0.242,0.242s-0.242-0.108-0.242-0.242c0-0.134,0.108-0.242,0.242-0.242
	c0,0,0,0,0,0c0.133-0.001,0.241,0.107,0.242,0.24C63.99,68.212,63.99,68.212,63.99,68.213z"/>
<path d="M5.612,14.154l-0.7-0.7l-0.235,0.234l0.94,0.94l2.009-2.018l-0.235-0.235L5.612,14.154z"/>
<path class="st0" d="M5.612,21l-0.7-0.7l-0.235,0.234l0.94,0.94l2.014-2.014l-0.235-0.235L5.612,21z"/>
<path d="M13.539,4.324l-0.034,0.034L13.539,4.324z"/>
<path d="M14.171,4.444c0.047,0.058,0.072,0.131,0.068,0.205c0.001,0.061-0.017,0.12-0.052,0.17
	c-0.013,0.035-0.037,0.066-0.068,0.086l-0.1,0.1c-0.072,0.072-0.135,0.152-0.188,0.239c-0.028,0.088-0.04,0.181-0.034,0.274h0.222
	c0.003-0.081,0.014-0.161,0.034-0.24c0.036-0.074,0.089-0.138,0.154-0.188c0.1-0.1,0.171-0.187,0.222-0.239
	c0.033-0.063,0.051-0.134,0.052-0.205c-0.001-0.132-0.05-0.26-0.137-0.359C14.232,4.2,14.093,4.151,13.951,4.15
	c-0.293-0.019-0.546,0.204-0.565,0.497c0,0.001,0,0.002,0,0.003c-0.002,0.029-0.002,0.057,0,0.086h0.222
	c-0.001-0.083,0.016-0.164,0.052-0.239c0.055-0.107,0.171-0.168,0.29-0.154c0.085-0.002,0.167,0.035,0.222,0.1L14.171,4.444z"/>
<path class="st2" d="M15.811,5.076c0.002-1.01-0.814-1.83-1.824-1.832c-1.01-0.002-1.83,0.814-1.832,1.824
	c-0.002,1.01,0.814,1.83,1.824,1.832c0.001,0,0.003,0,0.004,0l0,0C14.991,6.899,15.808,6.084,15.811,5.076z M12.326,5.076
	c0-0.925,0.749-1.674,1.674-1.674s1.674,0.749,1.674,1.674c0,0.925-0.749,1.674-1.674,1.674c0,0,0,0,0,0
	c-0.924,0.001-1.673-0.748-1.674-1.672C12.326,5.077,12.326,5.077,12.326,5.076z"/>
<rect x="13.795" y="5.725" width="0.239" height="0.256"/>
<path class="st0" d="M9.26,28.01c0-0.06-0.042-0.111-0.1-0.124L7,26.838c-0.035-0.017-0.076-0.017-0.111,0L4.709,27.9
	c-0.042,0.021-0.07,0.063-0.072,0.11v2.658c0,0.049,0.028,0.093,0.072,0.115l2.181,1.052l0,0H6.9l0,0h0.01l0,0h0.011h0.033h0.011
	l0,0h0.01l0,0h0.01H7l2.188-1.06c0.044-0.021,0.072-0.066,0.072-0.115v-2.646l0,0L9.26,28.01z M6.945,27.093l1.891,0.917l-0.7,0.338
	l-1.891-0.917L6.945,27.093z M6.945,28.928l-1.891-0.917l0.9-0.438l1.891,0.917L6.945,28.928z M4.891,28.215l1.927,0.934v2.368
	l-1.927-0.934V28.215z M7.072,31.515v-2.366l0.9-0.439v0.619c0,0.071,0.057,0.128,0.128,0.128c0.071,0,0.128-0.057,0.128-0.128l0,0
	v-0.743l0.774-0.375v2.368L7.072,31.515z"/>
<path class="st0" d="M17.9,27.411c-0.828,0.001-1.54,0.587-1.7,1.4l-0.33-0.412l-0.209,0.167l0.534,0.667
	c0.039,0.049,0.107,0.064,0.163,0.036l0.8-0.4l-0.119-0.238l-0.588,0.294c0.125-0.8,0.875-1.347,1.674-1.222
	c0.8,0.125,1.347,0.875,1.222,1.674c-0.111,0.714-0.726,1.24-1.449,1.24v0.266c0.958,0,1.734-0.776,1.734-1.734
	c0-0.958-0.776-1.734-1.734-1.734L17.9,27.411z"/>
<path class="st3" d="M43.668,27.2h-4.111c-0.128,0-0.232,0.104-0.232,0.232V28.5c0,0.042,0.034,0.076,0.076,0.076l0,0h0.152v2.974
	c0,0.042,0.034,0.076,0.076,0.076l0,0H43.6c0.042,0,0.076-0.034,0.076-0.076l0,0v-2.979h0.152c0.039-0.002,0.07-0.032,0.072-0.071
	v-1.07c0.001-0.128-0.102-0.231-0.23-0.232c0,0-0.001,0-0.001,0L43.668,27.2z M43.518,31.471H39.7V31.24h3.814L43.518,31.471z
	 M43.518,31.089H39.7v-2.518h3.814L43.518,31.089z M43.747,28.421h-4.27V27.43c0-0.044,0.036-0.08,0.08-0.08l0,0h4.111
	c0.044,0,0.08,0.036,0.08,0.08v0v0.989L43.747,28.421z"/>
<path class="st3" d="M40.545,30.248h2.136c0.042,0,0.076-0.034,0.076-0.076l0,0v-1.067c0-0.042-0.034-0.076-0.076-0.076l0,0h-2.136
	c-0.042,0-0.076,0.034-0.076,0.076l0,0v1.067c-0.001,0.041,0.033,0.075,0.074,0.076C40.544,30.248,40.544,30.248,40.545,30.248z
	 M40.621,29.181H42.6V30.1h-1.979V29.181z"/>
<path class="st3" d="M53.375,29.356h-0.838c-0.035,0-0.063,0.028-0.063,0.063s0.028,0.063,0.063,0.063c0,0,0,0,0,0h0.838
	c0.035,0,0.063-0.028,0.063-0.063C53.438,29.384,53.41,29.356,53.375,29.356z"/>
<path class="st3" d="M54.214,28.952h-1.677c-0.035,0-0.063,0.028-0.063,0.063s0.028,0.063,0.063,0.063c0,0,0,0,0,0h1.677
	c0.035,0,0.063-0.028,0.063-0.063C54.277,28.98,54.249,28.952,54.214,28.952z"/>
<path class="st3" d="M54.214,29.759h-1.677c-0.035,0-0.063,0.028-0.063,0.063s0.028,0.063,0.063,0.063c0,0,0,0,0,0h1.677
	c0.035,0,0.063-0.028,0.063-0.063S54.249,29.759,54.214,29.759z"/>
<path class="st3" d="M55.073,28.391l-0.9-0.895c-0.011-0.012-0.027-0.019-0.044-0.019h-2.1c-0.198,0.001-0.359,0.162-0.36,0.36
	v3.694c0.008,0.193,0.167,0.346,0.36,0.347h2.691c0.198-0.001,0.359-0.162,0.36-0.36v-3.125h-0.008L55.073,28.391z M54.185,27.68
	l0.681,0.68h-0.5c-0.102-0.001-0.184-0.083-0.185-0.185L54.185,27.68z M54.955,31.518c-0.001,0.128-0.105,0.232-0.233,0.233h-2.691
	c-0.128-0.001-0.232-0.105-0.233-0.233v-3.694c0.001-0.128,0.105-0.232,0.233-0.233h2.029v0.585c0.001,0.171,0.14,0.31,0.311,0.311
	h0.584V31.518z"/>
<path class="st3" d="M53.375,30.166h-0.838c-0.035,0-0.063,0.028-0.063,0.063s0.028,0.063,0.063,0.063c0,0,0,0,0,0h0.838
	c0.035,0,0.063-0.028,0.063-0.063C53.438,30.194,53.41,30.166,53.375,30.166z"/>
<path class="st3" d="M54.214,30.57h-1.677c-0.035,0-0.063,0.028-0.063,0.063s0.028,0.063,0.063,0.063c0,0,0,0,0,0h1.677
	c0.035,0,0.063-0.028,0.063-0.063C54.277,30.598,54.249,30.57,54.214,30.57z"/>
<path class="st1" d="M67.56,29.263c-0.016-0.049-0.058-0.084-0.109-0.092l-1.516-0.215l-0.682-1.371
	c-0.023-0.046-0.07-0.075-0.121-0.075c-0.051,0-0.098,0.03-0.121,0.076l-0.673,1.375l-1.516,0.225
	c-0.051,0.008-0.093,0.043-0.109,0.092c-0.016,0.049-0.002,0.102,0.035,0.137l1.1,1.066l-0.254,1.51
	c-0.012,0.074,0.038,0.144,0.112,0.156c0.007,0.001,0.014,0.002,0.021,0.002c0.022,0,0.044-0.005,0.063-0.016l1.353-0.717
	l1.357,0.709c0.019,0.01,0.04,0.015,0.062,0.015c0.074-0.001,0.134-0.061,0.135-0.135c0.002-0.01,0.002-0.021,0-0.031l-0.262-1.5
	l1.089-1.074c0.038-0.035,0.052-0.09,0.036-0.139L67.56,29.263z M66.195,30.331c-0.031,0.031-0.046,0.076-0.038,0.119l0.228,1.309
	l-1.179-0.615c-0.04-0.02-0.086-0.02-0.126,0l-1.175,0.622l0.22-1.311c0.007-0.044-0.007-0.088-0.039-0.119l-0.954-0.925l1.315-0.2
	c0.043-0.007,0.081-0.034,0.1-0.074l0.584-1.193l0.592,1.191c0.02,0.039,0.057,0.067,0.1,0.074l1.316,0.188L66.195,30.331z"/>
<path class="st1" d="M67.45,37.653h-4.5c-0.051,0-0.093,0.042-0.093,0.093v2.462c0.001,0.264,0.214,0.477,0.478,0.478h3.736
	c0.264-0.001,0.477-0.214,0.478-0.478v-2.462c-0.003-0.051-0.044-0.091-0.095-0.093H67.45z M67.357,40.208
	c0,0.161-0.13,0.291-0.291,0.291l0,0H63.33c-0.161,0-0.291-0.13-0.291-0.291l0,0V37.95l2.1,1.719c0.034,0.028,0.084,0.028,0.118,0
	l1.625-1.327c0.042-0.03,0.052-0.089,0.022-0.131c-0.03-0.042-0.089-0.052-0.131-0.022c-0.003,0.002-0.007,0.005-0.01,0.008
	L65.2,39.476l-2-1.636h4.157V40.208z"/>
<path class="st1" d="M67.158,37.995c-0.033-0.04-0.092-0.046-0.132-0.013L67,38.005c-0.04,0.033-0.046,0.092-0.013,0.132
	c0.018,0.022,0.044,0.034,0.072,0.034c0.021-0.001,0.042-0.008,0.059-0.021l0.028-0.023c0.04-0.033,0.047-0.092,0.014-0.132
	L67.158,37.995z"/>
<circle class="st4" cx="22.46" cy="5.053" r="1.694"/>
<path d="M23.3,4.968h-0.765V4.2h-0.163v0.765H21.61v0.164h0.765V5.9h0.164V5.131H23.3V4.968z"/>
<circle class="st4" cx="13.983" cy="13.499" r="1.694"/>
<path d="M14.64,14.035l-0.541-0.541l0.54-0.54l-0.115-0.116l-0.541,0.541l-0.541-0.541l-0.116,0.116l0.541,0.541l-0.541,0.541
	l0.116,0.116l0.541-0.542l0.541,0.542C14.524,14.152,14.64,14.035,14.64,14.035z"/>
<circle class="st5" cx="22.46" cy="12.707" r="1.694"/>
<path class="st1" d="M23.3,12.621h-0.765v-0.764h-0.163v0.765H21.61v0.164h0.765v0.765h0.164v-0.766H23.3
	C23.3,12.785,23.3,12.621,23.3,12.621z"/>
<circle class="st4" cx="31.824" cy="5.053" r="1.694"/>
<rect x="30.975" y="4.971" width="1.694" height="0.164"/>
<circle class="st5" cx="31.824" cy="12.788" r="1.694"/>
<rect x="30.975" y="12.707" class="st1" width="1.694" height="0.164"/>
<path d="M9.26,37.133c0-0.06-0.042-0.111-0.1-0.124L7,35.961c-0.035-0.017-0.076-0.017-0.111,0l-2.18,1.057
	c-0.042,0.021-0.07,0.063-0.072,0.11v2.658c0,0.049,0.028,0.093,0.072,0.115l2.181,1.057l0,0H6.9l0,0h0.01l0,0h0.011h0.033h0.011
	l0,0h0.01l0,0h0.01H7L9.191,39.9c0.044-0.021,0.072-0.066,0.072-0.115v-2.648l0,0L9.26,37.133z M6.945,36.216l1.891,0.917
	l-0.7,0.338l-1.891-0.917L6.945,36.216z M6.945,38.051l-1.891-0.917l0.9-0.438l1.891,0.917L6.945,38.051z M4.891,37.338l1.927,0.934
	v2.368l-1.927-0.934V37.338z M7.072,40.638v-2.366l0.9-0.439v0.619c0,0.071,0.057,0.128,0.128,0.128
	c0.071,0,0.128-0.057,0.128-0.128l0,0v-0.743l0.774-0.375V39.7L7.072,40.638z"/>
<path d="M17.9,36.534c-0.828,0.001-1.54,0.587-1.7,1.4l-0.33-0.412l-0.209,0.167l0.534,0.667c0.039,0.049,0.107,0.064,0.163,0.036
	l0.8-0.4l-0.119-0.238l-0.588,0.294c0.125-0.8,0.875-1.347,1.674-1.222s1.347,0.875,1.222,1.674c-0.111,0.714-0.726,1.24-1.449,1.24
	V40c0.958-0.001,1.733-0.778,1.732-1.736c-0.001-0.956-0.776-1.732-1.732-1.732L17.9,36.534z"/>
<path class="st6" d="M43.668,36.321h-4.111c-0.128,0-0.232,0.104-0.232,0.232v1.065c0,0.042,0.034,0.076,0.076,0.076l0,0h0.152
	v2.974c0,0.042,0.034,0.076,0.076,0.076l0,0H43.6c0.042,0,0.076-0.034,0.076-0.076l0,0v-2.974h0.152
	c0.042,0,0.076-0.034,0.076-0.076l0,0v-1.065c0.001-0.128-0.102-0.231-0.23-0.232c0,0-0.001,0-0.001,0L43.668,36.321z
	 M43.518,40.592H39.7v-0.229h3.814L43.518,40.592z M43.518,40.21H39.7v-2.516h3.814L43.518,40.21z M43.747,37.542h-4.27v-0.989
	c0-0.044,0.036-0.08,0.08-0.08h0h4.111c0.044,0,0.08,0.036,0.08,0.08v0v0.989H43.747z"/>
<path class="st6" d="M40.545,39.371h2.136c0.042,0,0.076-0.034,0.076-0.076l0,0v-1.067c0-0.042-0.034-0.076-0.076-0.076l0,0h-2.136
	c-0.042,0-0.076,0.034-0.076,0.076l0,0V39.3c-0.001,0.041,0.033,0.075,0.074,0.076c0.001,0,0.001,0,0.002,0V39.371z M40.621,38.304
	H42.6v0.915h-1.979V38.304z"/>
<path class="st6" d="M53.375,38.479h-0.838c-0.035,0-0.063,0.028-0.063,0.063s0.028,0.063,0.063,0.063c0,0,0,0,0,0h0.838
	c0.035,0,0.063-0.028,0.063-0.063C53.438,38.507,53.41,38.479,53.375,38.479z"/>
<path class="st6" d="M54.214,38.075h-1.677c-0.035,0-0.063,0.028-0.063,0.063s0.028,0.063,0.063,0.063c0,0,0,0,0,0h1.677
	c0.035,0,0.063-0.028,0.063-0.063C54.277,38.103,54.249,38.075,54.214,38.075z"/>
<path class="st6" d="M54.214,38.882h-1.677c-0.035,0-0.063,0.028-0.063,0.063c0,0.035,0.028,0.063,0.063,0.063h1.677
	c0.035,0,0.063-0.028,0.063-0.063C54.277,38.91,54.249,38.882,54.214,38.882z"/>
<path class="st6" d="M55.073,37.514l-0.9-0.9c-0.011-0.012-0.027-0.019-0.044-0.019h-2.1c-0.198,0.001-0.359,0.162-0.36,0.36v3.694
	c0.008,0.193,0.167,0.346,0.36,0.347h2.691c0.198-0.001,0.359-0.162,0.36-0.36v-3.12h-0.008L55.073,37.514z M54.185,36.803
	l0.681,0.68h-0.5c-0.102-0.001-0.184-0.083-0.185-0.185L54.185,36.803z M54.955,40.641c-0.001,0.128-0.105,0.232-0.233,0.233h-2.691
	c-0.128-0.001-0.232-0.105-0.233-0.233v-3.694c0.001-0.128,0.105-0.232,0.233-0.233h2.029V37.3c0.001,0.171,0.14,0.31,0.311,0.311
	h0.584V40.641z"/>
<path class="st6" d="M53.375,39.288h-0.838c-0.035,0-0.063,0.028-0.063,0.063c0,0.035,0.028,0.063,0.063,0.063h0.838
	c0.035,0,0.063-0.028,0.063-0.063C53.438,39.316,53.41,39.288,53.375,39.288z"/>
<path class="st6" d="M54.214,39.693h-1.677c-0.035,0-0.063,0.028-0.063,0.063c0,0.035,0.028,0.063,0.063,0.063h1.677
	c0.035,0,0.063-0.028,0.063-0.063C54.277,39.721,54.249,39.693,54.214,39.693z"/>
<path d="M74.049,5.724L75,4.35c0.01-0.015,0.01-0.035,0-0.05c-0.008-0.016-0.024-0.025-0.042-0.025h-1.896
	c-0.018,0-0.034,0.01-0.042,0.025c-0.002,0.007-0.002,0.015,0,0.022c0,0.01,0.003,0.019,0.008,0.027l0.948,1.374
	c0.009,0.013,0.023,0.021,0.039,0.021c0.016-0.001,0.03-0.008,0.039-0.021L74.049,5.724z"/>
<g id="_Group_2">
	<g id="_Clip_Group_">
		<path id="_Compound_Path_2" d="M38.006,5.047l1.437-1.437c0.036-0.035,0.037-0.091,0.002-0.127
			c-0.033-0.034-0.086-0.037-0.122-0.007l-0.007,0.007l-1.5,1.5c-0.034,0.035-0.034,0.091,0,0.126l0,0l1.5,1.5
			c0.017,0.016,0.039,0.026,0.063,0.027c0.024,0,0.047-0.009,0.063-0.027c0.034-0.035,0.034-0.092,0-0.127l0,0L38.006,5.047z"/>
	</g>
</g>
<g id="_Group_2-2">
	<g id="_Clip_Group_2">
		<path id="_Compound_Path_2-2" d="M48.254,5.054l-1.437,1.437c-0.038,0.032-0.043,0.089-0.012,0.127
			c0.032,0.038,0.089,0.043,0.127,0.012c0.002-0.001,0.003-0.003,0.005-0.004l0.007-0.007l1.5-1.5c0.034-0.035,0.034-0.091,0-0.126
			l0,0l-1.5-1.5c-0.017-0.016-0.039-0.026-0.063-0.027c-0.024,0-0.047,0.009-0.063,0.027c-0.034,0.035-0.034,0.092,0,0.127l0,0
			L48.254,5.054z"/>
	</g>
</g>
<path d="M82.97,4.3l-0.948,1.374c-0.014,0.022-0.008,0.052,0.014,0.066c0.008,0.005,0.017,0.008,0.026,0.008h1.894
	c0.019,0,0.036-0.011,0.044-0.028c0.002-0.007,0.002-0.013,0-0.02c0.003-0.009,0.003-0.02,0-0.029L83.047,4.3
	c-0.009-0.013-0.023-0.021-0.039-0.021C82.993,4.28,82.979,4.288,82.97,4.3z"/>
<g id="_Group_2-3">
	<g id="_Clip_Group_3">
		<path id="_Compound_Path_2-3" d="M55.633,4.427l1.437,1.437c0.032,0.038,0.089,0.043,0.127,0.012
			c0.038-0.032,0.043-0.089,0.012-0.127c-0.001-0.002-0.003-0.003-0.004-0.005L57.2,5.737l-1.5-1.5
			c-0.035-0.035-0.091-0.035-0.126,0c0,0,0,0,0,0l0,0l-1.5,1.5c-0.016,0.017-0.026,0.039-0.027,0.063
			c0,0.024,0.009,0.047,0.027,0.063c0.035,0.034,0.092,0.034,0.127,0l0,0L55.633,4.427z"/>
	</g>
</g>
<g id="_Group_2-4">
	<g id="_Clip_Group_4">
		<path id="_Compound_Path_2-4" d="M64.625,5.674l-1.436-1.437c-0.033-0.037-0.09-0.041-0.127-0.007
			c-0.037,0.033-0.041,0.09-0.007,0.127l0.008,0.007l1.5,1.5c0.035,0.034,0.091,0.034,0.126,0l0,0l1.5-1.5
			c0.016-0.017,0.026-0.039,0.027-0.063c0-0.024-0.009-0.047-0.027-0.063c-0.035-0.034-0.091-0.034-0.126,0l0,0L64.625,5.674z"/>
	</g>
</g>
<path class="st1" d="M74.049,13.628L75,12.254c0.01-0.015,0.01-0.034,0-0.049c-0.008-0.016-0.024-0.025-0.042-0.025h-1.896
	c-0.018,0-0.034,0.01-0.042,0.025c-0.002,0.007-0.002,0.015,0,0.022c0,0.01,0.003,0.019,0.008,0.027l0.948,1.374
	c0.009,0.013,0.023,0.021,0.039,0.021c0.016-0.001,0.03-0.008,0.039-0.021H74.049z"/>
<path id="_Compound_Path_2-5" class="st1" d="M38.006,12.951l1.437-1.437c0.036-0.035,0.037-0.091,0.002-0.127
	c-0.033-0.034-0.086-0.037-0.122-0.007l-0.007,0.007l-1.5,1.5c-0.034,0.035-0.034,0.091,0,0.126l0,0l1.5,1.5
	c0.017,0.016,0.039,0.026,0.063,0.027c0.024,0,0.047-0.009,0.063-0.027c0.034-0.035,0.034-0.092,0-0.127l0,0L38.006,12.951z"/>
<path id="_Compound_Path_2-6" class="st1" d="M48.254,12.958L46.817,14.4c-0.038,0.032-0.043,0.089-0.012,0.127
	s0.089,0.043,0.127,0.012c0.002-0.001,0.003-0.003,0.005-0.004l0.007-0.007l1.5-1.5c0.034-0.035,0.034-0.091,0-0.126l0,0l-1.5-1.5
	c-0.017-0.016-0.039-0.026-0.063-0.027c-0.024,0-0.047,0.009-0.063,0.027c-0.034,0.035-0.034,0.092,0,0.127l0,0L48.254,12.958z"/>
<path class="st1" d="M82.97,12.2l-0.948,1.374c-0.014,0.022-0.008,0.052,0.014,0.066c0.008,0.005,0.017,0.008,0.026,0.008h1.894
	c0.018,0.001,0.035-0.008,0.044-0.024c0.002-0.007,0.002-0.015,0-0.022c0.002-0.009,0.002-0.018,0-0.027L83.047,12.2
	c-0.009-0.013-0.023-0.021-0.039-0.021C82.993,12.18,82.979,12.188,82.97,12.2z"/>
<path id="_Compound_Path_2-7" class="st1" d="M55.633,12.331l1.437,1.437c0.032,0.038,0.089,0.043,0.127,0.012
	c0.038-0.032,0.043-0.089,0.012-0.127c-0.001-0.002-0.003-0.003-0.004-0.005l-0.007-0.007l-1.5-1.5
	c-0.035-0.035-0.091-0.035-0.126,0c0,0,0,0,0,0l0,0l-1.5,1.5c-0.016,0.017-0.026,0.039-0.027,0.063c0,0.024,0.009,0.047,0.027,0.063
	c0.035,0.034,0.092,0.034,0.127,0l0,0L55.633,12.331z"/>
<path id="_Compound_Path_2-8" class="st1" d="M64.625,13.578l-1.436-1.437c-0.033-0.037-0.09-0.041-0.127-0.007
	c-0.037,0.033-0.041,0.09-0.007,0.127l0.008,0.007l1.5,1.5c0.035,0.034,0.091,0.034,0.126,0l0,0l1.5-1.5
	c0.016-0.017,0.026-0.039,0.027-0.063c0-0.024-0.009-0.047-0.027-0.063c-0.035-0.034-0.091-0.034-0.126,0l0,0L64.625,13.578z"/>
<path class="st0" d="M77.312,37.653h-4.5c-0.051,0-0.093,0.042-0.093,0.093l0,0v2.462c0.001,0.264,0.214,0.477,0.478,0.478h3.736
	c0.264-0.001,0.477-0.214,0.478-0.478v-2.462c-0.003-0.051-0.044-0.091-0.095-0.093H77.312z M77.219,40.208
	c0,0.161-0.13,0.291-0.291,0.291l0,0h-3.736c-0.161,0-0.291-0.13-0.291-0.291l0,0V37.95L75,39.669c0.034,0.028,0.084,0.028,0.118,0
	l1.625-1.327c0.038-0.036,0.04-0.095,0.004-0.133c-0.032-0.034-0.085-0.04-0.123-0.012l-1.564,1.279l-2-1.636h4.157v2.368H77.219z"
	/>
<path class="st0" d="M77.02,37.995c-0.033-0.04-0.092-0.046-0.132-0.013l-0.028,0.023c-0.04,0.033-0.046,0.092-0.013,0.132
	c0.018,0.022,0.044,0.034,0.072,0.034c0.021-0.001,0.042-0.008,0.059-0.021l0.028-0.023C77.046,38.094,77.052,38.035,77.02,37.995z"
	/>
<path class="st7" d="M76.405,30.863l-0.7-0.36c-0.061-0.036-0.101-0.099-0.106-0.17v-0.254l0.063-0.063
	c0.091-0.13,0.163-0.272,0.212-0.423c0.108-0.047,0.176-0.157,0.17-0.275v-0.3c-0.002-0.068-0.024-0.135-0.063-0.191v-0.4
	c0.013-0.175-0.04-0.349-0.149-0.487c-0.437-0.339-1.047-0.339-1.484,0c-0.121,0.132-0.175,0.31-0.149,0.487v0.4
	c-0.04,0.056-0.062,0.122-0.063,0.191v0.3c0.004,0.089,0.042,0.172,0.106,0.233c0.041,0.195,0.128,0.376,0.254,0.53v0.233
	c-0.006,0.071-0.045,0.134-0.106,0.17l-0.656,0.36c-0.212,0.122-0.342,0.349-0.339,0.593v0.233c0,0.339,1.1,0.445,1.694,0.445
	s1.694-0.084,1.694-0.445v-0.233C76.761,31.194,76.619,30.979,76.405,30.863z M76.616,31.663c0,0.106-0.551,0.3-1.546,0.3
	s-1.546-0.191-1.546-0.3V31.43c0.001-0.188,0.107-0.36,0.275-0.445l0.656-0.36c0.107-0.061,0.172-0.176,0.17-0.3v-0.3l-0.021-0.021
	c-0.126-0.154-0.213-0.335-0.254-0.53v-0.02l-0.021-0.021c-0.041-0.029-0.065-0.077-0.063-0.127v-0.3
	c0.001-0.039,0.016-0.077,0.042-0.106l0.021-0.021v-0.488c-0.004-0.138,0.041-0.273,0.127-0.381c0.361-0.281,0.867-0.281,1.228,0
	c0.085,0.109,0.13,0.243,0.127,0.381v0.465l0.021,0.021c0.042,0.021,0.042,0.063,0.042,0.106v0.3
	c-0.001,0.067-0.043,0.126-0.106,0.149l-0.042,0.021l-0.021,0.042c-0.049,0.151-0.12,0.294-0.212,0.423
	c-0.021,0.021-0.042,0.063-0.063,0.084l-0.021,0.021v0.3c-0.009,0.131,0.069,0.253,0.191,0.3l0.7,0.36
	c0.171,0.092,0.277,0.272,0.275,0.466L76.616,31.663L76.616,31.663z"/>
<g>
	<defs>
		<rect id="SVGID_1_" x="39.309" y="56.392" width="4.72" height="3.226"/>
	</defs>
	<clipPath id="SVGID_2_">
		<use xlink:href="#SVGID_1_"  style="overflow:visible;"/>
	</clipPath>
	<g class="st8">
		<path d="M43.644,56.391h-3.952c-0.211-0.001-0.382,0.17-0.383,0.381c0,0.001,0,0.001,0,0.002v2.461
			c-0.001,0.211,0.17,0.382,0.381,0.383c0.001,0,0.001,0,0.002,0h3.952c0.212,0,0.383-0.171,0.383-0.383v-2.462
			C44.026,56.562,43.855,56.391,43.644,56.391z M39.692,56.602h3.952c0.094,0.001,0.17,0.077,0.171,0.171v0.32H39.52v-0.32
			C39.521,56.678,39.597,56.602,39.692,56.602z M43.815,57.613H39.52V57.3h4.295V57.613z M43.644,59.406h-3.952
			c-0.095,0-0.171-0.076-0.172-0.171v-1.411h4.295v1.405c0.002,0.096-0.073,0.175-0.169,0.177
			C43.645,59.406,43.645,59.406,43.644,59.406z M43.324,58.39c0,0.055-0.045,0.1-0.1,0.1h-1.1c-0.055,0-0.1-0.045-0.1-0.1
			c0-0.055,0.045-0.1,0.1-0.1h1.09c0.055-0.005,0.104,0.036,0.109,0.091C43.323,58.384,43.323,58.387,43.324,58.39L43.324,58.39z
			 M43.324,58.949c0,0.055-0.045,0.1-0.1,0.1h-0.628c-0.057,0-0.103-0.046-0.103-0.103s0.046-0.103,0.103-0.103h0.628
			c0.054,0.003,0.097,0.046,0.1,0.1V58.949z"/>
	</g>
</g>
<path class="st9" d="M18.909,58.116c-0.192,0.379-0.655,0.53-1.034,0.338c-0.146-0.074-0.265-0.193-0.338-0.338
	c-0.7,0.316-1.146,1.016-1.137,1.784h3.644C20.053,59.133,19.608,58.433,18.909,58.116z"/>
<ellipse class="st9" cx="18.223" cy="57.3" rx="0.906" ry="1.193"/>
<path d="M8.351,56.424c-0.478-0.477-1.251-0.477-1.729,0l-0.121,0.121l-0.122-0.123c-0.471-0.484-1.244-0.495-1.728-0.024
	s-0.495,1.244-0.024,1.728c0.008,0.008,0.016,0.016,0.024,0.024l1.759,1.759c0.047,0.049,0.125,0.05,0.174,0.003
	c0.001-0.001,0.002-0.002,0.003-0.003l1.762-1.755c0.477-0.478,0.477-1.253,0-1.731L8.351,56.424z M8.172,57.976L6.5,59.642
	l-1.671-1.669c-0.379-0.379-0.38-0.993-0.001-1.372c0.379-0.379,0.993-0.38,1.372-0.001l0.211,0.212
	c0.049,0.049,0.129,0.05,0.178,0.001c0,0,0.001-0.001,0.001-0.001l0.21-0.21c0.379-0.379,0.993-0.379,1.372,0
	c0.379,0.379,0.379,0.993,0,1.372V57.976z"/>
<path d="M54.975,56h-2.858c-0.11,0-0.2,0.09-0.2,0.2l0,0v0.358h-0.236c-0.042-0.003-0.079,0.029-0.082,0.072
	c0,0.003,0,0.006,0,0.009c-0.002,0.043,0.031,0.08,0.074,0.082c0.003,0,0.005,0,0.008,0h0.236v0.448h-0.236
	c-0.045,0-0.081,0.036-0.081,0.081s0.036,0.081,0.081,0.081c0,0,0,0,0.001,0h0.236v0.448h-0.236
	c-0.043-0.002-0.08,0.031-0.082,0.074c0,0.003,0,0.005,0,0.008c-0.002,0.042,0.03,0.079,0.073,0.081c0.003,0,0.006,0,0.009,0h0.236
	v0.448h-0.236c-0.042-0.003-0.079,0.029-0.082,0.072c0,0.003,0,0.006,0,0.009c-0.002,0.043,0.031,0.08,0.074,0.082
	c0.003,0,0.005,0,0.008,0h0.236V59h-0.236c-0.045,0-0.081,0.036-0.081,0.081s0.036,0.081,0.081,0.081c0,0,0,0,0.001,0h0.236v0.66
	c0,0.11,0.09,0.2,0.2,0.2l0,0h2.866c0.11,0,0.2-0.09,0.2-0.2l0,0v-3.637C55.175,56.077,55.083,55.995,54.975,56z M55.008,59.819
	c-0.001,0.018-0.015,0.032-0.033,0.033h-2.858c-0.017-0.001-0.031-0.016-0.032-0.033v-0.66h0.236c0.045,0,0.081-0.037,0.081-0.081
	c0-0.044-0.036-0.081-0.081-0.081h-0.236v-0.448h0.236c0.042,0.002,0.079-0.03,0.081-0.073c0-0.003,0-0.006,0-0.009
	c0.003-0.042-0.029-0.078-0.071-0.081c-0.003,0-0.007,0-0.01,0h-0.236v-0.448h0.236c0.042,0.003,0.078-0.029,0.081-0.071
	c0-0.003,0-0.007,0-0.01c0.003-0.042-0.029-0.079-0.072-0.082c-0.003,0-0.006,0-0.009,0h-0.236v-0.448h0.236
	c0.045,0,0.081-0.037,0.081-0.081c0-0.044-0.036-0.081-0.081-0.081h-0.236v-0.448h0.236c0.042,0.002,0.079-0.03,0.081-0.073
	c0-0.003,0-0.006,0-0.009c0.003-0.042-0.029-0.078-0.071-0.081c-0.003,0-0.007,0-0.01,0h-0.236v-0.367
	c0.001-0.017,0.015-0.031,0.032-0.032h2.866c0.017,0.001,0.032,0.015,0.033,0.032v3.632L55.008,59.819z"/>
<path d="M54.381,56.707h-1.319c-0.045,0-0.081,0.036-0.081,0.081s0.036,0.081,0.081,0.081c0,0,0,0,0.001,0h1.319
	c0.045,0,0.081-0.036,0.081-0.081S54.426,56.707,54.381,56.707C54.381,56.707,54.381,56.707,54.381,56.707z"/>
<path d="M54.381,57.3h-1.319c-0.045-0.005-0.086,0.027-0.091,0.072s0.027,0.086,0.072,0.091c0.006,0.001,0.012,0.001,0.018,0h1.319
	c0.045-0.005,0.077-0.046,0.072-0.091C54.449,57.334,54.419,57.304,54.381,57.3z"/>
<polygon class="st10" points="29.918,58.005 27.848,56.481 27.848,59.529 "/>
<polygon class="st10" points="32.043,58.005 29.973,56.481 29.973,59.529 "/>
<path class="st0" d="M43.644,47.292h-3.952c-0.212,0-0.383,0.171-0.383,0.383v2.462c0,0.211,0.171,0.382,0.382,0.382
	c0,0,0.001,0,0.001,0h3.952c0.211,0,0.382-0.171,0.383-0.382v-2.462C44.026,47.464,43.855,47.293,43.644,47.292z M39.692,47.503
	h3.952c0.095,0.001,0.171,0.077,0.171,0.172v0.319H39.52v-0.319C39.521,47.58,39.597,47.504,39.692,47.503z M43.815,48.514H39.52
	V48.2h4.295V48.514z M43.644,50.307h-3.952c-0.095,0-0.171-0.076-0.172-0.171v-1.41h4.295v1.405
	c0.002,0.095-0.073,0.174-0.168,0.176C43.646,50.307,43.645,50.307,43.644,50.307z M43.324,49.291c0,0.055-0.045,0.1-0.1,0.1h-1.1
	c-0.057,0-0.103-0.046-0.103-0.103s0.046-0.103,0.103-0.103h1.09c0.055-0.005,0.104,0.036,0.109,0.091c0,0.003,0,0.006,0,0.009
	L43.324,49.291z M43.324,49.85c0,0.055-0.045,0.1-0.1,0.1h-0.628c-0.057,0-0.103-0.046-0.103-0.103s0.046-0.103,0.103-0.103h0.628
	c0.054,0.003,0.097,0.046,0.1,0.1V49.85z"/>
<path class="st11" d="M18.909,49.018c-0.192,0.379-0.655,0.53-1.034,0.338c-0.146-0.074-0.265-0.193-0.338-0.338
	c-0.701,0.316-1.147,1.018-1.137,1.787h3.644C20.055,50.037,19.609,49.335,18.909,49.018z"/>
<ellipse class="st11" cx="18.223" cy="48.202" rx="0.906" ry="1.193"/>
<path class="st0" d="M8.351,47.326c-0.477-0.477-1.251-0.478-1.728-0.001c0,0-0.001,0.001-0.001,0.001l-0.121,0.121l-0.122-0.123
	c-0.477-0.478-1.25-0.479-1.728-0.002c-0.001,0.001-0.001,0.001-0.002,0.002c-0.477,0.478-0.477,1.251,0,1.729l1.761,1.758
	c0.049,0.048,0.128,0.048,0.177,0l1.762-1.756c0.477-0.478,0.477-1.252,0-1.73L8.351,47.326z M8.172,48.877L6.5,50.544l-1.669-1.67
	c-0.379-0.378-0.381-0.992-0.003-1.372C5.207,47.123,5.821,47.122,6.2,47.5l0.211,0.211c0.049,0.049,0.129,0.05,0.178,0.001
	c0,0,0.001-0.001,0.001-0.001l0.21-0.209c0.386-0.371,1-0.359,1.372,0.028c0.36,0.375,0.361,0.968,0,1.343V48.877z"/>
<path class="st0" d="M54.975,46.9h-2.858c-0.11,0-0.2,0.09-0.2,0.2l0,0v0.358h-0.236c-0.043-0.002-0.08,0.031-0.082,0.074
	c0,0.003,0,0.005,0,0.008c-0.002,0.042,0.03,0.079,0.073,0.081c0.003,0,0.006,0,0.009,0h0.236v0.448h-0.236
	c-0.045-0.005-0.086,0.027-0.091,0.072s0.027,0.086,0.072,0.091c0.006,0.001,0.012,0.001,0.018,0h0.236v0.448h-0.236
	c-0.042-0.003-0.079,0.029-0.082,0.072c0,0.003,0,0.006,0,0.009c-0.002,0.043,0.031,0.08,0.074,0.082c0.003,0,0.005,0,0.008,0h0.236
	v0.447h-0.236c-0.043-0.002-0.08,0.031-0.082,0.074c0,0.003,0,0.005,0,0.008c-0.002,0.042,0.03,0.079,0.073,0.081
	c0.003,0,0.006,0,0.009,0h0.236V49.9h-0.236c-0.045-0.005-0.086,0.027-0.091,0.072s0.027,0.086,0.072,0.091
	c0.006,0.001,0.012,0.001,0.018,0h0.236v0.66c0,0.11,0.09,0.2,0.2,0.2l0,0h2.866c0.11,0,0.2-0.09,0.2-0.2l0,0v-3.636
	C55.176,46.978,55.084,46.895,54.975,46.9z M55.008,50.719c-0.001,0.017-0.016,0.031-0.033,0.032h-2.858
	c-0.017-0.001-0.031-0.015-0.032-0.032v-0.66h0.236c0.045-0.005,0.077-0.046,0.072-0.091c-0.004-0.038-0.034-0.068-0.072-0.072
	h-0.236v-0.448h0.236c0.042,0.003,0.078-0.029,0.081-0.071c0-0.003,0-0.007,0-0.01c0.003-0.042-0.029-0.079-0.072-0.082
	c-0.003,0-0.006,0-0.009,0h-0.236v-0.447h0.236c0.042,0.002,0.079-0.03,0.081-0.073c0-0.003,0-0.006,0-0.009
	c0.003-0.042-0.029-0.078-0.071-0.081c-0.003,0-0.007,0-0.01,0h-0.236v-0.448h0.236c0.045-0.005,0.077-0.046,0.072-0.091
	c-0.004-0.038-0.034-0.068-0.072-0.072h-0.236v-0.448h0.236c0.042,0.003,0.078-0.029,0.081-0.071c0-0.003,0-0.007,0-0.01
	c0.003-0.042-0.029-0.079-0.072-0.082c-0.003,0-0.006,0-0.009,0h-0.236v-0.366c0.001-0.017,0.015-0.032,0.032-0.033h2.866
	c0.018,0.001,0.032,0.015,0.033,0.033v3.632L55.008,50.719z"/>
<path class="st0" d="M54.381,47.608h-1.319c-0.045-0.005-0.086,0.027-0.091,0.072s0.027,0.086,0.072,0.091
	c0.006,0.001,0.012,0.001,0.018,0h1.319c0.045-0.005,0.077-0.046,0.072-0.091C54.449,47.642,54.419,47.612,54.381,47.608z"/>
<path class="st0" d="M54.381,48.2h-1.319c-0.043-0.002-0.08,0.031-0.082,0.074c0,0.003,0,0.005,0,0.008
	c-0.002,0.042,0.03,0.079,0.073,0.081c0.003,0,0.006,0,0.009,0h1.319c0.042,0.003,0.078-0.029,0.081-0.071c0-0.003,0-0.007,0-0.01
	c0.003-0.042-0.029-0.079-0.072-0.082C54.387,48.2,54.384,48.2,54.381,48.2z"/>
<polygon class="st0" points="29.918,48.907 27.848,47.383 27.848,50.431 "/>
<polygon class="st0" points="32.043,48.907 29.973,47.383 29.973,50.431 "/>
<path class="st1" d="M43.644,65.484h-3.952c-0.211-0.001-0.382,0.17-0.383,0.381c0,0.001,0,0.001,0,0.002v2.461
	c-0.001,0.211,0.17,0.382,0.381,0.383c0.001,0,0.001,0,0.002,0h3.952c0.212,0,0.383-0.171,0.383-0.383l0,0v-2.462
	C44.026,65.655,43.855,65.484,43.644,65.484z M39.692,65.695h3.952c0.094,0.001,0.17,0.077,0.171,0.171v0.32H39.52v-0.32
	C39.521,65.771,39.597,65.695,39.692,65.695z M43.815,66.706H39.52v-0.314h4.295V66.706z M43.644,68.5h-3.952
	c-0.095,0-0.171-0.076-0.172-0.171v-1.412h4.295v1.405c0.002,0.096-0.073,0.175-0.169,0.177
	C43.645,68.499,43.645,68.499,43.644,68.5L43.644,68.5z M43.324,67.484c0,0.055-0.045,0.1-0.1,0.1h-1.1
	c-0.055,0-0.1-0.044-0.101-0.099c0-0.055,0.044-0.1,0.099-0.101c0,0,0.001,0,0.001,0h1.09c0.055-0.005,0.104,0.036,0.109,0.091
	C43.323,67.478,43.323,67.481,43.324,67.484L43.324,67.484z M43.324,68.043c0,0.055-0.045,0.1-0.1,0.1h-0.628
	c-0.057,0-0.103-0.046-0.103-0.103c0-0.057,0.046-0.103,0.103-0.103h0.628c0.054,0.003,0.097,0.046,0.1,0.1V68.043z"/>
<path class="st12" d="M18.909,67.209c-0.192,0.379-0.655,0.53-1.034,0.338c-0.146-0.074-0.265-0.193-0.338-0.338
	C16.835,67.526,16.388,68.23,16.4,69h3.644C20.056,68.23,19.61,67.527,18.909,67.209z"/>
<ellipse class="st12" cx="18.223" cy="66.393" rx="0.906" ry="1.193"/>
<path class="st1" d="M8.351,65.517c-0.478-0.477-1.251-0.477-1.729,0l-0.121,0.121l-0.122-0.123
	c-0.47-0.484-1.244-0.495-1.728-0.024c-0.484,0.47-0.495,1.244-0.024,1.728c0.008,0.008,0.016,0.016,0.024,0.024L6.41,69
	c0.047,0.049,0.125,0.05,0.174,0.003C6.585,69.002,6.586,69.001,6.587,69l1.762-1.755c0.477-0.478,0.477-1.253,0-1.731L8.351,65.517
	z M8.172,67.069L6.5,68.735l-1.671-1.669c-0.379-0.379-0.379-0.992,0-1.371c0.379-0.379,0.992-0.379,1.371,0l0.211,0.212
	c0.049,0.049,0.129,0.05,0.178,0.001c0,0,0.001-0.001,0.001-0.001l0.21-0.21c0.379-0.379,0.993-0.379,1.372,0
	C8.551,66.076,8.551,66.69,8.172,67.069z"/>
<path class="st1" d="M54.975,65.091h-2.858c-0.11,0-0.2,0.09-0.2,0.2v0.358h-0.236c-0.042-0.003-0.079,0.029-0.082,0.072
	c0,0.003,0,0.006,0,0.009c-0.002,0.043,0.031,0.08,0.074,0.082c0.003,0,0.005,0,0.008,0h0.236v0.447h-0.236
	c-0.043-0.002-0.08,0.031-0.082,0.074c0,0.003,0,0.005,0,0.008c-0.002,0.042,0.03,0.079,0.073,0.081c0.003,0,0.006,0,0.009,0h0.236
	v0.448h-0.236c-0.045-0.005-0.086,0.027-0.091,0.072c-0.005,0.045,0.027,0.086,0.072,0.091c0.006,0.001,0.012,0.001,0.018,0h0.236
	v0.448h-0.236c-0.042-0.003-0.079,0.029-0.082,0.072c0,0.003,0,0.006,0,0.009c-0.002,0.043,0.031,0.08,0.074,0.082
	c0.003,0,0.005,0,0.008,0h0.236v0.448h-0.236c-0.045,0-0.081,0.036-0.081,0.081s0.036,0.081,0.081,0.081l0,0h0.236v0.66
	c0,0.11,0.09,0.2,0.2,0.2h2.866c0.11,0,0.2-0.09,0.2-0.2v-3.636C55.176,65.169,55.084,65.086,54.975,65.091z M55.008,68.91
	c-0.001,0.018-0.015,0.032-0.033,0.033h-2.858c-0.017-0.001-0.031-0.016-0.032-0.033v-0.66h0.236c0.045,0,0.081-0.036,0.081-0.081
	s-0.036-0.081-0.081-0.081h-0.236V67.64h0.236c0.042,0.002,0.079-0.03,0.081-0.073c0-0.003,0-0.006,0-0.009
	c0.003-0.042-0.029-0.078-0.071-0.081c-0.003,0-0.007,0-0.01,0h-0.236v-0.448h0.236c0.045-0.005,0.077-0.046,0.072-0.091
	c-0.004-0.038-0.034-0.068-0.072-0.072h-0.236v-0.448h0.236c0.042,0.003,0.078-0.029,0.081-0.071c0-0.003,0-0.007,0-0.01
	c0.003-0.042-0.029-0.079-0.072-0.082c-0.003,0-0.006,0-0.009,0h-0.236v-0.447h0.236c0.042,0.002,0.079-0.03,0.081-0.073
	c0-0.003,0-0.006,0-0.009c0.003-0.042-0.029-0.078-0.071-0.081c-0.003,0-0.007,0-0.01,0h-0.236v-0.367
	c0.001-0.017,0.015-0.031,0.032-0.032h2.866c0.017,0.001,0.032,0.015,0.033,0.032v3.632H55.008z"/>
<path class="st1" d="M54.381,65.8h-1.319c-0.043-0.002-0.08,0.031-0.082,0.074c0,0.003,0,0.005,0,0.008
	c-0.002,0.042,0.03,0.079,0.073,0.081c0.003,0,0.006,0,0.009,0h1.319c0.042,0.003,0.078-0.029,0.081-0.071c0-0.003,0-0.007,0-0.01
	c0.003-0.042-0.029-0.079-0.072-0.082C54.387,65.8,54.384,65.8,54.381,65.8z"/>
<path class="st1" d="M54.381,66.394h-1.319c-0.042-0.003-0.079,0.029-0.082,0.072c0,0.003,0,0.006,0,0.009
	c-0.002,0.043,0.031,0.08,0.074,0.082c0.003,0,0.005,0,0.008,0h1.319c0.042,0.002,0.079-0.03,0.081-0.073c0-0.003,0-0.006,0-0.009
	c0.003-0.042-0.029-0.078-0.071-0.081C54.388,66.394,54.384,66.394,54.381,66.394z"/>
<polygon class="st1" points="29.918,67.098 27.848,65.574 27.848,68.622 "/>
<polygon class="st1" points="32.043,67.098 29.973,65.574 29.973,68.622 "/>
<path class="st1" d="M85.936,68.63h-1.422v-3.063h1.422c0.06-0.006,0.105-0.059,0.099-0.12c-0.005-0.052-0.047-0.094-0.099-0.099
	H84.4c-0.06,0-0.109,0.049-0.109,0.109c0,0,0,0.001,0,0.001v3.281c0,0.06,0.049,0.109,0.109,0.109l0,0h1.532
	c0.06,0,0.109-0.049,0.109-0.109s-0.049-0.109-0.109-0.109H85.936z"/>
<path class="st1" d="M87.763,67.022l-0.754-0.766c-0.042-0.043-0.111-0.043-0.154-0.001c0,0-0.001,0.001-0.001,0.001
	c-0.043,0.044-0.043,0.113,0,0.157l0.569,0.577H85.17c-0.061,0-0.11,0.049-0.11,0.11s0.049,0.11,0.11,0.11h2.253l-0.569,0.577
	c-0.043,0.044-0.043,0.113,0,0.157c0.042,0.043,0.111,0.043,0.154,0.001c0,0,0.001-0.001,0.001-0.001l0.754-0.766
	C87.803,67.135,87.801,67.067,87.763,67.022z"/>
<path class="st0" d="M76.541,47.4c-0.708-0.716-1.863-0.722-2.579-0.014c-0.675,0.667-0.725,1.74-0.116,2.468
	c-0.061,0.136-0.163,0.25-0.293,0.324c-0.085,0.043-0.118,0.147-0.075,0.231c0.025,0.049,0.071,0.083,0.125,0.092
	c0.048,0.007,0.096,0.011,0.144,0.011c0.231-0.001,0.456-0.076,0.642-0.213c0.888,0.477,1.994,0.143,2.471-0.745
	C77.241,48.844,77.111,47.968,76.541,47.4L76.541,47.4z M76.393,49.833c-0.52,0.521-1.326,0.624-1.961,0.252
	c-0.041-0.026-0.094-0.019-0.127,0.016l-0.009,0.006c-0.156,0.127-0.349,0.197-0.55,0.2l0,0c0.139-0.109,0.247-0.253,0.313-0.416
	c0.009-0.021,0.011-0.045,0.006-0.067c-0.002-0.022-0.011-0.043-0.026-0.059c-0.592-0.669-0.53-1.691,0.139-2.283
	c0.669-0.592,1.691-0.53,2.283,0.139c0.567,0.64,0.537,1.611-0.068,2.215L76.393,49.833z"/>
<path class="st0" d="M75.378,48.691c0,0.071-0.057,0.128-0.128,0.128s-0.128-0.057-0.128-0.128c0-0.071,0.057-0.128,0.128-0.128l0,0
	C75.321,48.563,75.378,48.62,75.378,48.691z"/>
<path class="st0" d="M76.039,48.691c0.001,0.071-0.057,0.129-0.128,0.13c-0.071,0.001-0.129-0.057-0.13-0.128
	c-0.001-0.071,0.057-0.129,0.128-0.13c0.001,0,0.001,0,0.002,0C75.981,48.564,76.038,48.621,76.039,48.691z"/>
<path class="st0" d="M74.718,48.691c0.001,0.071-0.057,0.129-0.128,0.13c-0.071,0.001-0.129-0.057-0.13-0.128
	c-0.001-0.071,0.057-0.129,0.128-0.13c0,0,0.001,0,0.001,0C74.66,48.563,74.717,48.62,74.718,48.691z"/>
<path d="M76.541,56.317c-0.708-0.716-1.863-0.722-2.579-0.014c-0.675,0.667-0.725,1.74-0.116,2.468
	c-0.061,0.136-0.163,0.25-0.293,0.324c-0.067,0.033-0.105,0.105-0.093,0.179c0.012,0.074,0.069,0.132,0.143,0.144
	c0.048,0.007,0.096,0.01,0.144,0.01c0.231-0.001,0.456-0.075,0.642-0.213c0.886,0.48,1.993,0.151,2.473-0.735
	c0.386-0.713,0.255-1.594-0.321-2.165L76.541,56.317z M76.393,58.75c-0.521,0.52-1.327,0.623-1.961,0.25
	c-0.041-0.026-0.094-0.019-0.127,0.016l-0.009,0.006c-0.156,0.127-0.349,0.197-0.55,0.2l0,0c0.138-0.109,0.246-0.253,0.313-0.416
	c0.009-0.021,0.011-0.045,0.006-0.067c-0.002-0.022-0.011-0.043-0.026-0.059c-0.592-0.669-0.53-1.691,0.139-2.283
	c0.669-0.592,1.691-0.53,2.283,0.139c0.567,0.64,0.537,1.611-0.068,2.215L76.393,58.75z"/>
<path d="M75.378,57.607c0,0.071-0.057,0.128-0.128,0.128s-0.128-0.057-0.128-0.128c0-0.071,0.057-0.128,0.128-0.128l0,0
	C75.321,57.479,75.378,57.536,75.378,57.607z"/>
<path d="M76.039,57.607c0.001,0.071-0.057,0.129-0.128,0.13c-0.071,0.001-0.129-0.057-0.13-0.128
	c-0.001-0.071,0.057-0.129,0.128-0.13c0.001,0,0.001,0,0.002,0C75.982,57.479,76.039,57.536,76.039,57.607z"/>
<path d="M74.718,57.607c0.001,0.071-0.057,0.129-0.128,0.13c-0.071,0.001-0.129-0.057-0.13-0.128
	c-0.001-0.071,0.057-0.129,0.128-0.13c0,0,0.001,0,0.001,0C74.66,57.478,74.717,57.535,74.718,57.607
	C74.718,57.606,74.718,57.607,74.718,57.607z"/>
<path class="st1" d="M76.541,65.442c-0.69-0.734-1.844-0.769-2.578-0.079c-0.718,0.675-0.77,1.799-0.117,2.537
	c-0.061,0.136-0.163,0.25-0.293,0.324c-0.067,0.033-0.105,0.105-0.093,0.179c0.012,0.074,0.069,0.132,0.143,0.144
	c0.048,0.007,0.096,0.01,0.144,0.01c0.231-0.001,0.456-0.075,0.642-0.213c0.886,0.48,1.993,0.151,2.473-0.735
	c0.386-0.713,0.255-1.594-0.321-2.165L76.541,65.442z M76.393,67.875c-0.52,0.521-1.326,0.624-1.961,0.252
	c-0.041-0.026-0.094-0.019-0.127,0.016l-0.009,0.006c-0.156,0.127-0.349,0.197-0.55,0.2l0,0c0.138-0.109,0.246-0.253,0.313-0.416
	c0.009-0.021,0.011-0.045,0.006-0.067c-0.002-0.022-0.011-0.043-0.026-0.059c-0.592-0.669-0.53-1.691,0.139-2.283
	c0.669-0.592,1.691-0.53,2.283,0.139c0.567,0.64,0.537,1.611-0.068,2.215L76.393,67.875z"/>
<path class="st1" d="M75.378,66.732c0,0.071-0.057,0.128-0.128,0.128c-0.071,0-0.128-0.057-0.128-0.128
	c0-0.071,0.057-0.128,0.128-0.128l0,0C75.321,66.604,75.378,66.661,75.378,66.732z"/>
<path class="st1" d="M76.039,66.732c0.001,0.071-0.057,0.129-0.128,0.13c-0.071,0.001-0.129-0.057-0.13-0.128
	c-0.001-0.071,0.057-0.129,0.128-0.13c0.001,0,0.001,0,0.002,0C75.982,66.604,76.039,66.661,76.039,66.732z"/>
<path class="st1" d="M74.718,66.732c0.001,0.071-0.057,0.129-0.128,0.13c-0.071,0.001-0.129-0.057-0.13-0.128
	c-0.001-0.071,0.057-0.129,0.128-0.13c0,0,0.001,0,0.001,0C74.66,66.603,74.717,66.66,74.718,66.732
	C74.718,66.731,74.718,66.732,74.718,66.732z"/>
<g id="_Group_">
	<path id="_Compound_Path_" class="st13" d="M87.627,57.246c-0.053-0.053-0.122-0.185-0.2-0.185H87.34v-0.34
		c-0.006-0.707-0.578-1.277-1.285-1.281c-0.344-0.005-0.676,0.131-0.917,0.377c-0.248,0.234-0.389,0.559-0.39,0.9v0.34h-0.067
		c-0.077,0-0.156,0.132-0.209,0.185c-0.059,0.089-0.091,0.193-0.094,0.3v1.649c0,0.076,0.04,0.048,0.094,0.1
		s0.132-0.013,0.209-0.013h2.746c0.077,0,0.146,0.066,0.2,0.013s0.084-0.026,0.084-0.1v-1.646
		C87.711,57.439,87.682,57.335,87.627,57.246L87.627,57.246z M86.786,57.061H85.3v-0.34c0.002-0.41,0.335-0.742,0.746-0.74
		c0.197,0.001,0.385,0.08,0.524,0.219c0.14,0.135,0.218,0.322,0.216,0.517L86.786,57.061z"/>
</g>
<path d="M28.046,39.161c-0.375-0.001-0.679,0.303-0.68,0.678c-0.001,0.375,0.303,0.679,0.678,0.68
	c0.375,0.001,0.679-0.303,0.68-0.678c0,0,0-0.001,0-0.001C28.723,39.466,28.42,39.162,28.046,39.161z M28.046,40.306
	c-0.258,0-0.467-0.209-0.467-0.467c0-0.258,0.209-0.467,0.467-0.467c0.258,0,0.467,0.209,0.467,0.467c0,0,0,0.001,0,0.001
	C28.512,40.098,28.304,40.306,28.046,40.306z"/>
<path d="M31.351,39.161c-0.375-0.001-0.679,0.303-0.68,0.678c-0.001,0.375,0.303,0.679,0.678,0.68
	c0.375,0.001,0.679-0.303,0.68-0.678c0,0,0-0.001,0-0.001C32.028,39.466,31.725,39.162,31.351,39.161z M31.351,40.306
	c-0.258,0.001-0.467-0.208-0.468-0.466s0.208-0.467,0.466-0.468c0.258-0.001,0.467,0.208,0.468,0.466c0,0.001,0,0.001,0,0.002
	C31.816,40.097,31.608,40.305,31.351,40.306z"/>
<path d="M30.718,39.893H28.6c-0.055,0-0.1-0.045-0.1-0.1c0-0.055,0.045-0.1,0.1-0.1h2.116c0.055,0,0.1,0.045,0.1,0.1
	c0,0.055-0.045,0.1-0.1,0.1H30.718z"/>
<path d="M32.31,39.9h-0.4c-0.062-0.006-0.108-0.061-0.102-0.123c0.005-0.054,0.048-0.097,0.102-0.102h0.4
	c0.162-0.012,0.285-0.151,0.278-0.313v-0.433c0-0.157-0.056-0.31-0.159-0.429L31.98,38c-0.009-0.009-0.015-0.021-0.019-0.033
	l-0.368-0.894c-0.063-0.175-0.226-0.294-0.412-0.3h-4.113c-0.185,0.011-0.327,0.171-0.316,0.356v2.231
	c-0.007,0.162,0.115,0.301,0.277,0.313h0.446c0.058,0.003,0.103,0.053,0.1,0.112c0,0,0,0,0,0c0.003,0.058-0.042,0.108-0.1,0.112
	h-0.446c-0.28-0.018-0.493-0.258-0.477-0.538v-2.231c-0.017-0.303,0.213-0.562,0.516-0.581h4.113c0.266,0.009,0.5,0.177,0.593,0.427
	l0.36,0.877l0.435,0.486c0.142,0.163,0.22,0.373,0.218,0.589v0.433c0.016,0.28-0.197,0.52-0.477,0.538V39.9z"/>
<path id="_Compound_Path_2-9" d="M29.438,38.736l0.232-1.414h0.465c0.092-0.002,0.184,0.007,0.274,0.025
	c0.074,0.02,0.143,0.057,0.2,0.108c0.067,0.057,0.118,0.129,0.148,0.211c0.035,0.092,0.052,0.19,0.05,0.289
	c0.002,0.129-0.024,0.258-0.076,0.376c-0.044,0.103-0.113,0.194-0.2,0.265c-0.071,0.059-0.156,0.1-0.246,0.119
	c-0.112,0.016-0.224,0.023-0.337,0.021H29.438z M29.908,38.42H30c0.075,0.005,0.15-0.01,0.218-0.042
	c0.055-0.04,0.097-0.095,0.121-0.158c0.036-0.089,0.053-0.184,0.05-0.279c0-0.208-0.077-0.312-0.233-0.312h-0.12L29.908,38.42z"/>
<path id="_Compound_Path_3" d="M29.29,37.628l-0.377,0.093c-0.011-0.043-0.04-0.08-0.079-0.1c-0.043-0.025-0.092-0.038-0.141-0.037
	c-0.1,0-0.143,0.031-0.143,0.095c0,0.019,0.007,0.038,0.02,0.052c0.035,0.025,0.074,0.044,0.115,0.056l0.231,0.082
	c0.061,0.022,0.119,0.054,0.17,0.094c0.048,0.035,0.086,0.081,0.113,0.134c0.022,0.049,0.034,0.101,0.034,0.155
	c0.002,0.14-0.063,0.273-0.174,0.358c-0.134,0.1-0.298,0.149-0.464,0.141c-0.15,0.003-0.299-0.031-0.433-0.1
	c-0.121-0.063-0.213-0.171-0.258-0.3l0.421-0.08c0.043,0.108,0.155,0.172,0.27,0.154c0.046,0.004,0.091-0.007,0.13-0.032
	c0.024-0.016,0.039-0.044,0.04-0.073c0-0.017-0.005-0.033-0.015-0.046c-0.009-0.012-0.02-0.022-0.033-0.029
	c-0.012-0.006-0.068-0.027-0.167-0.063c-0.096-0.034-0.19-0.073-0.281-0.117c-0.056-0.029-0.103-0.073-0.136-0.126
	c-0.037-0.06-0.056-0.129-0.054-0.2c-0.001-0.127,0.052-0.248,0.147-0.332c0.128-0.1,0.288-0.148,0.45-0.135
	c0.139-0.005,0.278,0.028,0.4,0.095C29.178,37.424,29.255,37.517,29.29,37.628z"/>
<path class="st0" d="M28.046,30.038c-0.375-0.001-0.679,0.303-0.68,0.678c-0.001,0.375,0.303,0.679,0.678,0.68
	c0.375,0.001,0.679-0.303,0.68-0.678c0,0,0-0.001,0-0.001C28.723,30.343,28.42,30.039,28.046,30.038z M28.046,31.183
	c-0.258,0-0.467-0.209-0.467-0.467c0-0.258,0.209-0.467,0.467-0.467s0.467,0.209,0.467,0.467c0,0,0,0.001,0,0.001
	C28.512,30.975,28.304,31.183,28.046,31.183z"/>
<path class="st0" d="M31.351,30.038c-0.375-0.001-0.679,0.303-0.68,0.678c-0.001,0.375,0.303,0.679,0.678,0.68
	c0.375,0.001,0.679-0.303,0.68-0.678c0,0,0-0.001,0-0.001C32.028,30.343,31.725,30.039,31.351,30.038z M31.351,31.183
	c-0.258,0.001-0.467-0.208-0.468-0.466s0.208-0.467,0.466-0.468c0.258-0.001,0.467,0.208,0.468,0.466c0,0.001,0,0.001,0,0.002
	C31.816,30.974,31.608,31.182,31.351,31.183z"/>
<path class="st0" d="M30.718,30.77H28.6c-0.055,0-0.1-0.045-0.1-0.1s0.045-0.1,0.1-0.1h2.116c0.055,0,0.1,0.045,0.1,0.1
	s-0.045,0.1-0.1,0.1H30.718z"/>
<path class="st0" d="M32.31,30.774h-0.4c-0.062-0.006-0.108-0.061-0.102-0.123c0.005-0.054,0.048-0.097,0.102-0.102h0.4
	c0.162-0.012,0.285-0.151,0.278-0.313V29.8c0-0.157-0.056-0.31-0.159-0.429l-0.449-0.5c-0.009-0.009-0.015-0.021-0.019-0.033
	l-0.368-0.894c-0.063-0.175-0.226-0.294-0.412-0.3h-4.113c-0.185,0.011-0.327,0.171-0.316,0.356v2.232
	c-0.007,0.162,0.115,0.301,0.277,0.313h0.446c0.058,0.003,0.103,0.053,0.1,0.112c0,0,0,0,0,0c0.003,0.058-0.042,0.108-0.1,0.112
	h-0.446c-0.28-0.018-0.493-0.258-0.477-0.538v-2.226c-0.017-0.303,0.213-0.562,0.516-0.581h4.113c0.266,0.009,0.5,0.177,0.593,0.427
	l0.36,0.877l0.435,0.486c0.142,0.163,0.22,0.373,0.218,0.589v0.433C32.803,30.516,32.59,30.756,32.31,30.774z"/>
<path id="_Compound_Path_4" class="st0" d="M29.438,29.613L29.67,28.2h0.465c0.092-0.002,0.184,0.007,0.274,0.025
	c0.074,0.02,0.143,0.057,0.2,0.108c0.067,0.057,0.118,0.129,0.148,0.211c0.035,0.092,0.052,0.19,0.05,0.289
	c0.002,0.129-0.024,0.258-0.076,0.376c-0.044,0.103-0.113,0.194-0.2,0.265c-0.071,0.059-0.156,0.1-0.246,0.119
	c-0.112,0.016-0.224,0.023-0.337,0.021L29.438,29.613z M29.908,29.297H30c0.075,0.005,0.15-0.01,0.218-0.042
	c0.055-0.04,0.097-0.095,0.121-0.158c0.036-0.089,0.053-0.184,0.05-0.279c0-0.208-0.077-0.312-0.233-0.312h-0.12L29.908,29.297z"/>
<path id="_Compound_Path_5" class="st0" d="M29.29,28.505l-0.377,0.093c-0.011-0.043-0.04-0.08-0.079-0.1
	c-0.043-0.025-0.092-0.038-0.141-0.037c-0.1,0-0.143,0.031-0.143,0.095c0,0.019,0.007,0.038,0.02,0.052
	c0.035,0.025,0.074,0.044,0.115,0.056l0.231,0.082c0.061,0.022,0.119,0.054,0.17,0.094c0.048,0.035,0.086,0.081,0.113,0.134
	c0.022,0.049,0.034,0.101,0.034,0.155c0.002,0.14-0.063,0.273-0.174,0.358c-0.134,0.1-0.298,0.149-0.464,0.141
	c-0.15,0.003-0.299-0.031-0.433-0.1c-0.121-0.063-0.213-0.171-0.258-0.3l0.421-0.08c0.043,0.108,0.155,0.172,0.27,0.154
	c0.046,0.004,0.091-0.007,0.13-0.032c0.024-0.016,0.039-0.044,0.04-0.073c0-0.017-0.005-0.033-0.015-0.046
	c-0.009-0.012-0.02-0.022-0.033-0.029c-0.012-0.006-0.068-0.027-0.167-0.063c-0.096-0.034-0.19-0.073-0.281-0.117
	c-0.056-0.029-0.103-0.073-0.136-0.126c-0.037-0.06-0.056-0.129-0.054-0.2c-0.001-0.127,0.052-0.248,0.147-0.332
	c0.128-0.1,0.288-0.148,0.45-0.135c0.14-0.003,0.278,0.031,0.4,0.1C29.177,28.304,29.253,28.396,29.29,28.505z"/>
<g>
	<path class="st3" d="M94.347,46.973v3.05h4.256v-3.05H94.347z M98.461,49.882H94.49v-2.766h3.972V49.882z M98.461,49.882"/>
	<path class="st3" d="M98.107,47.47h-0.709v0.709h0.709V47.47z M97.965,48.037h-0.426v-0.426h0.426V48.037z M97.965,48.037"/>
	<path class="st3" d="M94.915,47.895h1.419c0.039,0,0.071-0.031,0.071-0.071c0-0.04-0.032-0.071-0.071-0.071h-1.419
		c-0.039,0-0.071,0.031-0.071,0.071C94.844,47.864,94.876,47.895,94.915,47.895L94.915,47.895z M94.915,47.895"/>
	<path class="st3" d="M94.915,48.25h1.419c0.039,0,0.071-0.031,0.071-0.071c0-0.04-0.032-0.071-0.071-0.071h-1.419
		c-0.039,0-0.071,0.031-0.071,0.071C94.844,48.219,94.876,48.25,94.915,48.25L94.915,48.25z M94.915,48.25"/>
	<path class="st3" d="M94.915,47.541h0.568c0.039,0,0.071-0.031,0.071-0.071c0-0.04-0.032-0.071-0.071-0.071h-0.568
		c-0.039,0-0.071,0.031-0.071,0.071C94.844,47.509,94.876,47.541,94.915,47.541L94.915,47.541z M94.915,47.541"/>
</g>
<g>
	<path class="st14" d="M94.347,55.973v3.05h4.256v-3.05H94.347z M98.461,58.882H94.49v-2.766h3.972V58.882z M98.461,58.882"/>
	<path class="st14" d="M98.107,56.47h-0.709v0.709h0.709V56.47z M97.965,57.037h-0.426v-0.426h0.426V57.037z M97.965,57.037"/>
	<path class="st14" d="M94.915,56.895h1.419c0.039,0,0.071-0.031,0.071-0.071c0-0.04-0.032-0.071-0.071-0.071h-1.419
		c-0.039,0-0.071,0.031-0.071,0.071C94.844,56.864,94.876,56.895,94.915,56.895L94.915,56.895z M94.915,56.895"/>
	<path class="st14" d="M94.915,57.25h1.419c0.039,0,0.071-0.031,0.071-0.071c0-0.04-0.032-0.071-0.071-0.071h-1.419
		c-0.039,0-0.071,0.031-0.071,0.071C94.844,57.219,94.876,57.25,94.915,57.25L94.915,57.25z M94.915,57.25"/>
	<path class="st14" d="M94.915,56.541h0.568c0.039,0,0.071-0.031,0.071-0.071c0-0.04-0.032-0.071-0.071-0.071h-0.568
		c-0.039,0-0.071,0.031-0.071,0.071C94.844,56.509,94.876,56.541,94.915,56.541L94.915,56.541z M94.915,56.541"/>
</g>
<path class="st13" d="M88.312,37.653h-4.5c-0.051,0-0.093,0.042-0.093,0.093l0,0v2.462c0.001,0.264,0.214,0.477,0.478,0.478h3.736
	c0.264-0.001,0.477-0.214,0.478-0.478v-2.462c-0.003-0.051-0.044-0.091-0.095-0.093H88.312z M88.219,40.208
	c0,0.161-0.13,0.291-0.291,0.291l0,0h-3.736c-0.161,0-0.291-0.13-0.291-0.291l0,0V37.95L86,39.669c0.034,0.028,0.084,0.028,0.118,0
	l1.625-1.327c0.038-0.036,0.04-0.095,0.004-0.133c-0.032-0.034-0.085-0.04-0.123-0.012l-1.564,1.279l-2-1.636h4.157v2.368H88.219z"
	/>
<path class="st13" d="M88.02,37.995c-0.033-0.04-0.092-0.046-0.132-0.013l-0.028,0.023c-0.04,0.033-0.046,0.092-0.013,0.132
	c0.018,0.022,0.044,0.034,0.072,0.034c0.021-0.001,0.042-0.008,0.059-0.021l0.028-0.023C88.046,38.094,88.052,38.035,88.02,37.995z"
	/>
</svg>
