<?xml version="1.0" encoding="UTF-8"?><svg id="svg-sprite" xmlns="http://www.w3.org/2000/svg" viewBox="0 0 805 150"><defs><style>.cls-1{fill:#fff;}.cls-2{stroke:#0000ed;}.cls-2,.cls-3,.cls-4{fill:none;stroke-linecap:round;stroke-linejoin:round;}.cls-3{stroke:#131313;}.cls-5{fill:#131313;}.cls-6{fill:#1c1c1c;}.cls-7{fill:#80e096;}.cls-4{stroke:#1c1c1c;stroke-width:2px;}.cls-8{fill:#0000ed;}</style></defs><path class="cls-7" d="M539.6,23.3l-5,5c-.493,.497-1.295,.501-1.792,.008-.003-.003-.005-.005-.008-.008l-2.5-2.5c-.488-.506-.473-1.312,.033-1.8,.493-.475,1.274-.475,1.767,0l1.6,1.6,4.1-4.1c.506-.488,1.312-.473,1.8,.033,.475,.493,.475,1.274,0,1.767h0Z"/><path id="mobile-menu" d="M240,80c-.552,0-1-.448-1-1s.448-1,1-1h24c.552,0,1,.448,1,1s-.448,1-1,1h-24Zm0-9c-.552,0-1-.448-1-1s.448-1,1-1h24c.552,0,1,.448,1,1s-.448,1-1,1h-24Zm0-9c-.552,0-1-.448-1-1s.448-1,1-1h24c.552,0,1,.448,1,1s-.448,1-1,1h-24Z"/><path id="close" d="M217.3,77.7l-7.3-7.3-7.3,7.3c-.391,.383-1.017,.376-1.4-.014-.377-.385-.377-1.001,0-1.386l7.3-7.3-7.3-7.3c-.383-.391-.376-1.017,.014-1.4,.385-.377,1.001-.377,1.386,0h0l7.3,7.3,7.3-7.3c.391-.383,1.017-.376,1.4,.014,.377,.385,.377,1.001,0,1.386l-7.3,7.3,7.3,7.3c.383,.391,.376,1.017-.014,1.4-.385,.377-1.001,.377-1.386,0Z"/><path id="store-locator" d="M165.8,81.9l-5.5-5.5c-4.446-4.446-4.445-11.654,0-16.099,4.446-4.446,11.654-4.445,16.099,0,4.445,4.446,4.445,11.653,0,16.099h0l-5.5,5.5c-1.351,1.408-3.587,1.455-4.995,.105-.036-.034-.071-.069-.105-.105Zm-4.1-20.1c-3.673,3.635-3.703,9.559-.069,13.231,.023,.023,.046,.046,.069,.069l5.5,5.5c.611,.6,1.589,.6,2.2,0h0l5.6-5.6c3.645-3.673,3.623-9.605-.05-13.25-3.673-3.645-9.605-3.623-13.25,.05Zm2.7,6.4c0-2.209,1.791-4,4-4s4,1.791,4,4-1.791,4-4,4c-2.206-.007-3.993-1.794-4-4Zm2,0c0,1.105,.895,2,2,2s2-.895,2-2-.895-2-2-2c-1.103,.003-1.997,.897-2,2Z"/><path id="back-chevron" d="M300.1,79.1c-.266,.007-.522-.102-.7-.3l-8.1-8.1c-.387-.368-.401-.981-.033-1.367,.011-.011,.022-.022,.033-.033l8.1-8.1c.383-.391,1.009-.397,1.4-.014,.391,.383,.397,1.009,.014,1.4-.005,.005-.01,.01-.014,.014h0l-7.4,7.4,7.4,7.4c.387,.368,.401,.981,.033,1.367-.011,.011-.022,.022-.033,.033-.178,.198-.434,.307-.7,.3h0Z"/><path id="wish-list" d="M75.5,59.5c1.723,.009,3.373,.691,4.6,1.9l.9,.9,.9-.9c2.541-2.541,6.659-2.541,9.2,0s2.541,6.659,0,9.2h0l-9.4,9.4c-.368,.387-.981,.401-1.367,.033-.011-.011-.022-.022-.033-.033l-9.4-9.4c-2.541-2.536-2.544-6.652-.008-9.192,1.221-1.223,2.879-1.91,4.608-1.908Zm5.5,5.2c-.266,.007-.522-.102-.7-.3l-1.6-1.6c-1.767-1.767-4.633-1.767-6.4,0s-1.767,4.633,0,6.4l8.7,8.7,8.7-8.7c1.767-1.767,1.767-4.633,0-6.4s-4.633-1.767-6.4,0l-1.6,1.6c-.165,.215-.43,.329-.7,.3Z"/><path id="search" d="M338,80.4c-.14,.004-.279-.03-.4-.1h0c-.1-.1-.2-.1-.3-.2l-4.7-4.7c-3.176,2.402-7.698,1.776-10.1-1.4-2.402-3.176-1.776-7.698,1.4-10.1,3.176-2.402,7.697-1.776,10.1,1.4,1.9,2.589,1.9,6.111,0,8.7l4.7,4.8h0c0,.055,.045,.1,.1,.1h0c.08,.117,.115,.259,.1,.4h0v.1h0c.015,.141-.02,.283-.1,.4h0c0,.1-.1,.2-.2,.3h0c-.1,0-.1,.1-.2,.1h0c-.1,.1-.3,.1-.4,.2Zm-9.8-16c-2.872,0-5.2,2.328-5.2,5.2s2.328,5.2,5.2,5.2c2.872,0,5.2-2.328,5.2-5.2,.02-2.852-2.276-5.18-5.128-5.2-.024,0-.048,0-.072,0Z"/><path id="search-2" class="cls-8" d="M338,132.4c-.14,.004-.279-.03-.4-.1h0c-.1-.1-.2-.1-.3-.2l-4.7-4.7c-3.176,2.402-7.698,1.776-10.1-1.4-2.402-3.176-1.776-7.698,1.4-10.1,3.176-2.402,7.697-1.776,10.1,1.4,1.9,2.589,1.9,6.111,0,8.7l4.7,4.8h0c0,.055,.045,.1,.1,.1h0c.08,.117,.115,.259,.1,.4h0v.1h0c.015,.141-.02,.283-.1,.4h0c0,.1-.1,.2-.2,.3h0c-.1,0-.1,.1-.2,.1h0c-.1,.1-.3,.1-.4,.2Zm-9.8-16c-2.872,0-5.2,2.328-5.2,5.2s2.328,5.2,5.2,5.2c2.872,0,5.2-2.328,5.2-5.2,.02-2.852-2.276-5.18-5.128-5.2-.024,0-.048,0-.072,0Z"/><path id="expand" d="M366,76.9v-5h-5c-.552,0-1-.448-1-1s.448-1,1-1h5v-5c0-.552,.448-1,1-1s1,.448,1,1v5h5c.552,0,1,.448,1,1s-.448,1-1,1h-5v5c.031,.521-.366,.969-.887,1-.038,.002-.076,.002-.113,0-.552,0-1-.448-1-1Z"/><path id="minimise" d="M408,72.4h-12c-.552,0-1-.448-1-1s.448-1,1-1h12c.552,0,1,.448,1,1s-.448,1-1,1Z"/><path id="chevron-right" d="M429.3,77c-.387-.368-.401-.981-.033-1.367,.011-.011,.022-.022,.033-.033h0l4.6-4.5-4.6-4.5c-.383-.391-.376-1.017,.014-1.4,.385-.377,1.001-.377,1.386,0l5.2,5.1c.4,.496,.4,1.204,0,1.7l-5.2,5.1c-.44,.269-1.002,.229-1.4-.1Z"/><path id="chevron-down" d="M463.2,74.1c-.296,.008-.583-.1-.8-.3l-5.1-5.2c-.383-.391-.376-1.017,.014-1.4,.385-.377,1.001-.377,1.386,0l4.5,4.6,4.5-4.6c.391-.383,1.017-.376,1.4,.014,.377,.385,.377,1.001,0,1.386h0l-5.1,5.2c-.217,.2-.504,.308-.8,.3Z"/><path id="close-small" d="M502.3,77.6l-5.3-5.3-5.3,5.3c-.178,.198-.434,.307-.7,.3-.521,.031-.969-.366-1-.887-.002-.038-.002-.076,0-.113-.007-.266,.102-.522,.3-.7l5.3-5.3-5.3-5.3c-.383-.391-.376-1.017,.014-1.4,.385-.377,1.001-.377,1.386,0l5.3,5.3,5.3-5.3c.391-.383,1.017-.376,1.4,.014,.377,.385,.377,1.001,0,1.386h0l-5.3,5.3,5.3,5.3c.383,.391,.376,1.017-.014,1.4-.385,.377-1.001,.377-1.386,0h0Z"/><path d="M577,69.9v-2c0-2.761-2.239-5-5-5s-5,2.239-5,5v2c-1.103,.003-1.997,.897-2,2v5c.003,1.103,.897,1.997,2,2h10c1.103-.003,1.997-.897,2-2v-5c-.003-1.103-.897-1.997-2-2Zm-2,0h-6v-2c0-1.657,1.343-3,3-3s3,1.343,3,3v2Z"/><path id="basket" d="M114,82c-.521,.031-.969-.366-1-.887-.002-.038-.002-.076,0-.113v-.1l1.3-16c.046-.516,.482-.909,1-.9h3v-1.7c0-3.479,2.821-6.3,6.3-6.3s6.3,2.821,6.3,6.3v1.7h3c.518-.009,.954,.384,1,.9l1.3,16c.014,.539-.369,1.007-.9,1.1h-21.3Zm1.1-2h19.2l-1.2-14h-2.1v1.7c0,.552-.448,1-1,1s-1-.448-1-1v-1.7h-8.7v1.7c0,.552-.448,1-1,1s-1-.448-1-1v-1.7h-2.1l-1.1,14Zm13.9-16v-1.7c-.002-2.375-1.928-4.299-4.303-4.297-2.373,.002-4.296,1.925-4.297,4.297v1.7h8.6Z"/><path id="remove" d="M604.4,79.5c-1.48,.025-2.716-1.122-2.8-2.6l-.6-9.9c-.552,0-1-.448-1-1s.448-1,1-1h3.4v-1.7c0-1.049,.851-1.9,1.9-1.9h3.6c1.049,0,1.9,.851,1.9,1.9h0v1.7h3.4c.552,0,1,.448,1,1s-.448,1-1,1l-.7,9.9c-.084,1.478-1.32,2.625-2.8,2.6h-7.3Zm-.7-2.7c.038,.409,.39,.716,.8,.7h7.4c.398-.016,.731-.308,.8-.7l.7-9.7h-10.4l.7,9.7Zm6.1-11.8v-1.6h-3.3v1.6h3.3Zm-.9,9.9v-5.3c0-.552,.448-1,1-1s1,.448,1,1v5.3c0,.552-.448,1-1,1s-1-.448-1-1Zm-3.6,0v-5.3c0-.552,.448-1,1-1s1,.448,1,1v5.3c0,.552-.448,1-1,1s-1-.448-1-1Z"/><path id="account" d="M81.2,107.1c3.479,0,6.3,2.821,6.3,6.3s-2.821,6.3-6.3,6.3-6.3-2.821-6.3-6.3h0c-.014-3.465,2.783-6.286,6.248-6.3,.017,0,.035,0,.052,0Zm0,14.5c5.624,.024,10.176,4.576,10.2,10.2,.031,.521-.366,.969-.887,1-.038,.002-.076,.002-.113,0h-18.5c-.521,.031-.969-.366-1-.887-.002-.038-.002-.076,0-.113,.07-5.643,4.657-10.185,10.3-10.2Z"/><path id="account-2" d="M38.2,57.1c3.479,0,6.3,2.821,6.3,6.3s-2.821,6.3-6.3,6.3-6.3-2.821-6.3-6.3h0c-.014-3.465,2.783-6.286,6.248-6.3,.017,0,.035,0,.052,0Zm0,10.6c2.375,0,4.3-1.925,4.3-4.3,0-2.375-1.925-4.3-4.3-4.3-2.375,0-4.3,1.925-4.3,4.3h0c.017,2.368,1.932,4.283,4.3,4.3Zm0,3.9c5.624,.024,10.176,4.576,10.2,10.2,.031,.521-.366,.969-.887,1-.038,.002-.076,.002-.113,0H28.9c-.521,.031-.969-.366-1-.887-.002-.038-.002-.076,0-.113,.07-5.643,4.657-10.185,10.3-10.2Zm8.1,9.2c-.553-4.529-4.673-7.751-9.202-7.198-3.768,.46-6.737,3.43-7.198,7.198h16.4Z"/><path id="mobile-menu-2" class="cls-1" d="M240,34c-.552,0-1-.448-1-1s.448-1,1-1h24c.552,0,1,.448,1,1s-.448,1-1,1h-24Zm0-9c-.552,0-1-.448-1-1s.448-1,1-1h24c.552,0,1,.448,1,1s-.448,1-1,1h-24Zm0-9c-.552,0-1-.448-1-1s.448-1,1-1h24c.552,0,1,.448,1,1s-.448,1-1,1h-24Z"/><path id="close-2" class="cls-1" d="M217.3,31.7l-7.3-7.3-7.3,7.3c-.391,.383-1.017,.376-1.4-.014-.377-.385-.377-1.001,0-1.386l7.3-7.3-7.3-7.3c-.383-.391-.376-1.017,.014-1.4,.385-.377,1.001-.377,1.386,0h0l7.3,7.3,7.3-7.3c.391-.383,1.017-.376,1.4,.014,.377,.385,.377,1.001,0,1.386l-7.3,7.3,7.3,7.3c.391,.383,.397,1.009,.014,1.4s-1.009,.397-1.4,.014c-.005-.005-.01-.01-.014-.014Z"/><path id="store-locator-2" class="cls-1" d="M165.8,35.9l-5.5-5.5c-4.446-4.446-4.445-11.654,0-16.099,4.446-4.446,11.654-4.445,16.099,0,4.445,4.446,4.445,11.653,0,16.099h0l-5.5,5.5c-1.351,1.408-3.587,1.455-4.995,.105-.036-.034-.071-.069-.105-.105Zm-4.1-20.1c-3.673,3.635-3.703,9.559-.069,13.231,.023,.023,.046,.046,.069,.069l5.5,5.5c.611,.6,1.589,.6,2.2,0h0l5.6-5.6c3.645-3.673,3.623-9.605-.05-13.25s-9.605-3.623-13.25,.05Zm2.7,6.4c0-2.209,1.791-4,4-4s4,1.791,4,4-1.791,4-4,4c-2.206-.007-3.993-1.794-4-4Zm2,0c0,1.105,.895,2,2,2s2-.895,2-2-.895-2-2-2c-1.103,.003-1.997,.897-2,2Z"/><path id="back-chevron-2" class="cls-1" d="M300.1,33.1c-.266,.007-.522-.102-.7-.3l-8.1-8.1c-.387-.368-.401-.981-.033-1.367,.011-.011,.022-.022,.033-.033l8.1-8.1c.383-.391,1.009-.397,1.4-.014,.391,.383,.397,1.009,.014,1.4-.005,.005-.01,.01-.014,.014h0l-7.4,7.4,7.4,7.4c.387,.368,.401,.981,.033,1.367-.011,.011-.022,.022-.033,.033-.178,.198-.434,.307-.7,.3h0Z"/><path id="wish-list-2" class="cls-1" d="M75.5,13.5c1.723,.009,3.373,.691,4.6,1.9l.9,.9,.9-.9c2.541-2.541,6.659-2.541,9.2,0,2.541,2.541,2.541,6.659,0,9.2h0l-9.4,9.4c-.368,.387-.981,.401-1.367,.033-.011-.011-.022-.022-.033-.033l-9.4-9.4c-2.541-2.536-2.544-6.652-.008-9.192,1.221-1.223,2.879-1.91,4.608-1.908Zm5.5,5.2c-.266,.007-.522-.102-.7-.3l-1.6-1.6c-1.767-1.767-4.633-1.767-6.4,0-1.767,1.767-1.767,4.633,0,6.4h0l8.7,8.7,8.7-8.7c1.767-1.767,1.767-4.633,0-6.4-1.767-1.767-4.633-1.767-6.4,0h0l-1.6,1.6c-.165,.215-.43,.329-.7,.3Z"/><path id="search-3" class="cls-1" d="M338,34.4c-.14,.004-.279-.03-.4-.1h0c-.1-.1-.2-.1-.3-.2l-4.7-4.7c-3.176,2.402-7.698,1.776-10.1-1.4-2.402-3.176-1.776-7.698,1.4-10.1,3.176-2.402,7.697-1.776,10.1,1.4,1.9,2.589,1.9,6.111,0,8.7l4.7,4.8h0c0,.055,.045,.1,.1,.1h0c.08,.117,.115,.259,.1,.4h0v.1h0c.015,.141-.02,.283-.1,.4h0c0,.1-.1,.2-.2,.3h0c-.1,0-.1,.1-.2,.1h0c-.1,.1-.3,.1-.4,.2Zm-9.8-16c-2.872,0-5.2,2.328-5.2,5.2s2.328,5.2,5.2,5.2c2.872,0,5.2-2.328,5.2-5.2,.02-2.852-2.276-5.18-5.128-5.2-.024,0-.048,0-.072,0Z"/><path id="expand-2" class="cls-1" d="M366,30.9v-5h-5c-.552,0-1-.448-1-1s.448-1,1-1h5v-5c0-.552,.448-1,1-1s1,.448,1,1v5h5c.552,0,1,.448,1,1s-.448,1-1,1h-5v5c.031,.521-.366,.969-.887,1-.038,.002-.076,.002-.113,0-.552,0-1-.448-1-1Z"/><path id="minimise-2" class="cls-1" d="M408,26.4h-12c-.552,0-1-.448-1-1s.448-1,1-1h12c.552,0,1,.448,1,1s-.448,1-1,1Z"/><path id="chevron-right-2" class="cls-1" d="M429.3,31c-.387-.368-.401-.981-.033-1.367,.011-.011,.022-.022,.033-.033h0l4.6-4.5-4.6-4.5c-.383-.391-.376-1.017,.014-1.4,.385-.377,1.001-.377,1.386,0l5.2,5.1c.4,.496,.4,1.204,0,1.7l-5.2,5.1c-.44,.269-1.002,.229-1.4-.1Z"/><path id="chevron-down-2" class="cls-1" d="M463.2,28.1c-.296,.008-.583-.1-.8-.3l-5.1-5.2c-.391-.383-.397-1.009-.014-1.4,.383-.391,1.009-.397,1.4-.014,.005,.005,.01,.01,.014,.014l4.5,4.6,4.5-4.6c.391-.383,1.017-.376,1.4,.014,.377,.385,.377,1.001,0,1.386h0l-5.1,5.2c-.217,.2-.504,.308-.8,.3Z"/><path id="close-small-2" class="cls-1" d="M502.3,31.6l-5.3-5.3-5.3,5.3c-.178,.198-.434,.307-.7,.3-.521,.031-.969-.366-1-.887-.002-.038-.002-.076,0-.113-.007-.266,.102-.522,.3-.7l5.3-5.3-5.3-5.3c-.391-.383-.397-1.009-.014-1.4,.383-.391,1.009-.397,1.4-.014,.005,.005,.01,.01,.014,.014l5.3,5.3,5.3-5.3c.391-.383,1.017-.376,1.4,.014,.377,.385,.377,1.001,0,1.386h0l-5.3,5.3,5.3,5.3c.383,.391,.376,1.017-.014,1.4-.385,.377-1.001,.377-1.386,0h0Z"/><path class="cls-7" d="M535,14.9c-5.523,0-10,4.477-10,10s4.477,10,10,10,10-4.477,10-10c-.016-5.516-4.484-9.984-10-10Zm4.6,8.4l-5,5c-.493,.497-1.295,.501-1.792,.008-.003-.003-.005-.005-.008-.008l-2.5-2.5c-.488-.506-.473-1.312,.033-1.8,.493-.475,1.274-.475,1.767,0l1.6,1.6,4.1-4.1c.506-.488,1.312-.473,1.8,.033,.475,.493,.475,1.274,0,1.767h0Z"/><path class="cls-1" d="M577,23.9v-2c0-2.761-2.239-5-5-5s-5,2.239-5,5v2c-1.103,.003-1.997,.897-2,2v5c.003,1.103,.897,1.997,2,2h10c1.103-.003,1.997-.897,2-2v-5c-.003-1.103-.897-1.997-2-2Zm-2,0h-6v-2c0-1.657,1.343-3,3-3s3,1.343,3,3v2Z"/><g id="social-instagram"><path class="cls-1" d="M740,20.2c-.036-.748-.17-1.487-.4-2.2-.236-.588-.575-1.13-1-1.6-.427-.479-.982-.826-1.6-1-.697-.286-1.447-.422-2.2-.4-1,0-1.3-.1-3.7-.1-1.234-.044-2.47-.011-3.7,.1-.748,.036-1.487,.17-2.2,.4-.588,.236-1.13,.575-1.6,1-.479,.427-.826,.982-1,1.6-.286,.697-.422,1.447-.4,2.2,0,1-.1,1.3-.1,3.7-.044,1.234-.011,2.47,.1,3.7,.036,.748,.17,1.487,.4,2.2,.236,.588,.575,1.13,1,1.6,.427,.479,.982,.826,1.6,1,.697,.286,1.447,.422,2.2,.4,1,0,1.3,.1,3.7,.1,1.234,.044,2.47,.011,3.7-.1,.748-.036,1.487-.17,2.2-.4,1.201-.451,2.149-1.399,2.6-2.6,.286-.697,.422-1.447,.4-2.2,0-1,.1-1.3,.1-3.7-.1-2.5-.1-2.8-.1-3.7Zm-1.7,7.3c-.002,.58-.104,1.155-.3,1.7-.289,.789-.911,1.411-1.7,1.7-.543,.205-1.12,.306-1.7,.3-.9,0-1.2,.1-3.6,.1-1.201,.045-2.403,.012-3.6-.1-.58-.002-1.155-.104-1.7-.3-.391-.138-.736-.38-1-.7-.289-.291-.525-.629-.7-1-.205-.543-.306-1.12-.3-1.7,0-.9-.1-1.2-.1-3.6-.045-1.201-.012-2.403,.1-3.6,.002-.58,.104-1.155,.3-1.7,.138-.391,.38-.736,.7-1,.291-.289,.629-.525,1-.7,.543-.205,1.12-.306,1.7-.3h3.6c1.201-.045,2.403-.012,3.6,.1,.58,.002,1.155,.104,1.7,.3,.391,.138,.736,.38,1,.7,.289,.291,.525,.629,.7,1,.205,.543,.306,1.12,.3,1.7,0,.9,.1,1.2,.1,3.6,.044,1.168,.01,2.337-.1,3.5Z"/><path class="cls-1" d="M735.8,18c-.607,0-1.1,.492-1.1,1.1s.492,1.1,1.1,1.1c.608,0,1.1-.492,1.1-1.1h0c.039-.569-.391-1.061-.959-1.1-.047-.003-.094-.003-.141,0Z"/><path class="cls-1" d="M731,19.3h0c-2.534-.007-4.593,2.042-4.6,4.576v.024c.029,2.529,2.071,4.571,4.6,4.6,2.534,.007,4.593-2.042,4.6-4.576v-.024c.041-2.499-1.951-4.559-4.451-4.6-.05,0-.099,0-.149,0Zm3,4.6c0,1.657-1.343,3-3,3s-3-1.343-3-3,1.343-3,3-3c1.627-.03,2.97,1.264,3,2.891,0,.036,0,.073,0,.109Z"/></g><path id="social-tiktok" class="cls-1" d="M772.2,14.9c.3,2.6,1.7,4.1,4.2,4.2v2.9c-1.497,.101-2.982-.323-4.2-1.2v5.4c0,6.8-7.4,9-10.4,4.1-1.9-3.1-.7-8.7,5.4-8.9v3c-.482,.073-.952,.208-1.4,.4-1.315,.261-2.17,1.538-1.91,2.854,.003,.015,.006,.031,.01,.046h0c.4,2.9,5.8,3.8,5.4-1.9V14.9h2.9Z"/><path id="social-facebook" class="cls-1" d="M702.1,23.9c0-5.026-4.074-9.1-9.1-9.1s-9.1,4.074-9.1,9.1c-.029,4.443,3.208,8.233,7.6,8.9v-6.3h-2.3v-2.6h2.3v-2c-.188-1.74,1.07-3.303,2.81-3.492,.03-.003,.06-.006,.09-.008h.6c.671,.012,1.34,.079,2,.2v2.2h-1.1c-.714-.096-1.377,.39-1.5,1.1v2h2.5l-.4,2.6h-2.1v6.3c4.449-.591,7.755-4.412,7.7-8.9h0Z"/><g id="social-instagram-2"><path d="M740,67.2c-.036-.748-.17-1.487-.4-2.2-.236-.588-.575-1.13-1-1.6-.427-.479-.982-.826-1.6-1-.697-.286-1.447-.422-2.2-.4-1,0-1.3-.1-3.7-.1-1.234-.044-2.47-.011-3.7,.1-.748,.036-1.487,.17-2.2,.4-.588,.236-1.13,.575-1.6,1-.479,.427-.826,.982-1,1.6-.286,.697-.422,1.447-.4,2.2,0,1-.1,1.3-.1,3.7-.044,1.234-.011,2.47,.1,3.7,.036,.748,.17,1.487,.4,2.2,.236,.588,.575,1.13,1,1.6,.427,.479,.982,.826,1.6,1,.697,.286,1.447,.422,2.2,.4,1,0,1.3,.1,3.7,.1,1.234,.044,2.47,.011,3.7-.1,.748-.036,1.487-.17,2.2-.4,1.201-.451,2.149-1.399,2.6-2.6,.286-.697,.422-1.447,.4-2.2,0-1,.1-1.3,.1-3.7-.1-2.5-.1-2.8-.1-3.7Zm-1.7,7.3c-.002,.58-.104,1.155-.3,1.7-.289,.789-.911,1.411-1.7,1.7-.543,.205-1.12,.306-1.7,.3-.9,0-1.2,.1-3.6,.1-1.201,.045-2.403,.012-3.6-.1-.58-.002-1.155-.104-1.7-.3-.391-.138-.736-.38-1-.7-.289-.291-.525-.629-.7-1-.205-.543-.306-1.12-.3-1.7,0-.9-.1-1.2-.1-3.6-.045-1.201-.012-2.403,.1-3.6,.002-.58,.104-1.155,.3-1.7,.138-.391,.38-.736,.7-1,.291-.289,.629-.525,1-.7,.543-.205,1.12-.306,1.7-.3h3.6c1.201-.045,2.403-.012,3.6,.1,.58,.002,1.155,.104,1.7,.3,.391,.138,.736,.38,1,.7,.289,.291,.525,.629,.7,1,.205,.543,.306,1.12,.3,1.7,0,.9,.1,1.2,.1,3.6,.044,1.168,.01,2.337-.1,3.5Z"/><path d="M735.8,65c-.607,0-1.1,.492-1.1,1.1s.492,1.1,1.1,1.1c.608,0,1.1-.492,1.1-1.1h0c.039-.569-.391-1.061-.959-1.1-.047-.003-.094-.003-.141,0Z"/><path d="M731,66.3h0c-2.534-.007-4.593,2.042-4.6,4.576v.024c.029,2.529,2.071,4.571,4.6,4.6,2.534,.007,4.593-2.042,4.6-4.576v-.024c.041-2.499-1.951-4.559-4.451-4.6-.05,0-.099,0-.149,0Zm3,4.6c0,1.657-1.343,3-3,3s-3-1.343-3-3,1.343-3,3-3c1.627-.03,2.97,1.264,3,2.891,0,.036,0,.073,0,.109Z"/></g><path id="social-tiktok-2" d="M772.2,61.9c.3,2.6,1.7,4.1,4.2,4.2v2.9c-1.497,.101-2.982-.323-4.2-1.2v5.4c0,6.8-7.4,9-10.4,4.1-1.9-3.1-.7-8.7,5.4-8.9v3c-.482,.073-.952,.208-1.4,.4-1.315,.261-2.17,1.538-1.91,2.854,.003,.015,.006,.031,.01,.046h0c.4,2.9,5.8,3.8,5.4-1.9v-10.9h2.9Z"/><path id="social-facebook-2" d="M702.1,70.9c0-5.026-4.074-9.1-9.1-9.1s-9.1,4.074-9.1,9.1c-.029,4.443,3.208,8.233,7.6,8.9v-6.3h-2.3v-2.6h2.3v-2c-.188-1.74,1.07-3.303,2.81-3.492,.03-.003,.06-.006,.09-.008h.6c.671,.012,1.34,.079,2,.2v2.2h-1.1c-.714-.096-1.377,.39-1.5,1.1v2h2.5l-.4,2.6h-2.1v6.3c4.449-.591,7.755-4.412,7.7-8.9h0Z"/><path id="basket-2" class="cls-1" d="M114,36c-.521,.031-.969-.366-1-.887-.002-.038-.002-.076,0-.113v-.1l1.3-16c.046-.516,.482-.909,1-.9h3v-1.7c0-3.479,2.821-6.3,6.3-6.3s6.3,2.821,6.3,6.3v1.7h3c.518-.009,.954,.384,1,.9l1.3,16c.014,.539-.369,1.007-.9,1.1h-21.3Zm1.1-2h19.2l-1.2-14h-2.1v1.7c0,.552-.448,1-1,1s-1-.448-1-1v-1.7h-8.7v1.7c0,.552-.448,1-1,1s-1-.448-1-1v-1.7h-2.1l-1.1,14Zm13.9-16v-1.7c-.002-2.375-1.928-4.299-4.303-4.297-2.373,.002-4.296,1.925-4.297,4.297v1.7h8.6Z"/><path id="remove-2" class="cls-1" d="M604.4,33.5c-1.48,.025-2.716-1.122-2.8-2.6l-.6-9.9c-.552,0-1-.448-1-1s.448-1,1-1h3.4v-1.7c0-1.049,.851-1.9,1.9-1.9h3.6c1.049,0,1.9,.851,1.9,1.9h0v1.7h3.4c.552,0,1,.448,1,1s-.448,1-1,1l-.7,9.9c-.084,1.478-1.32,2.625-2.8,2.6h-7.3Zm-.7-2.7c.038,.409,.39,.716,.8,.7h7.4c.398-.016,.731-.308,.8-.7l.7-9.7h-10.4l.7,9.7Zm6.1-11.8v-1.6h-3.3v1.6h3.3Zm-.9,9.9v-5.3c0-.552,.448-1,1-1s1,.448,1,1v5.3c0,.552-.448,1-1,1s-1-.448-1-1Zm-3.6,0v-5.3c0-.552,.448-1,1-1s1,.448,1,1v5.3c0,.552-.448,1-1,1s-1-.448-1-1Z"/><path id="account-3" class="cls-1" d="M38.2,107.1c3.479,0,6.3,2.821,6.3,6.3s-2.821,6.3-6.3,6.3-6.3-2.821-6.3-6.3h0c-.014-3.465,2.783-6.286,6.248-6.3,.017,0,.035,0,.052,0Zm0,14.5c5.624,.024,10.176,4.576,10.2,10.2,.031,.521-.366,.969-.887,1-.038,.002-.076,.002-.113,0H28.9c-.521,.031-.969-.366-1-.887-.002-.038-.002-.076,0-.113,.07-5.643,4.657-10.185,10.3-10.2Z"/><path id="account-4" class="cls-1" d="M38.2,11.1c3.479,0,6.3,2.821,6.3,6.3s-2.821,6.3-6.3,6.3-6.3-2.821-6.3-6.3h0c-.014-3.465,2.783-6.286,6.248-6.3,.017,0,.035,0,.052,0Zm0,10.6c2.375,0,4.3-1.925,4.3-4.3,0-2.375-1.925-4.3-4.3-4.3s-4.3,1.925-4.3,4.3h0c.017,2.368,1.932,4.283,4.3,4.3Zm0,3.9c5.624,.024,10.176,4.576,10.2,10.2,.031,.521-.366,.969-.887,1-.038,.002-.076,.002-.113,0H28.9c-.521,.031-.969-.366-1-.887-.002-.038-.002-.076,0-.113,.07-5.643,4.657-10.185,10.3-10.2Zm8.1,9.2c-.553-4.529-4.673-7.751-9.202-7.198-3.768,.46-6.737,3.43-7.198,7.198h16.4Z"/><path class="cls-6" d="M539.6,23.3l-5,5c-.493,.497-1.295,.501-1.792,.008-.003-.003-.005-.005-.008-.008l-2.5-2.5c-.488-.506-.473-1.312,.033-1.8,.493-.475,1.274-.475,1.767,0l1.6,1.6,4.1-4.1c.506-.488,1.312-.473,1.8,.033,.475,.493,.475,1.274,0,1.767h0Z"/><path d="M729.7,119.2v-5.4l4.7,2.7s-4.7,2.7-4.7,2.7Zm10.4-7.1c-.191-.791-.809-1.409-1.6-1.6-4.651-.533-9.349-.533-14,0-.791,.191-1.409,.809-1.6,1.6-.277,1.45-.411,2.924-.4,4.4-.007,1.476,.127,2.949,.4,4.4,.191,.791,.809,1.409,1.6,1.6,4.651,.533,9.349,.533,14,0,.791-.191,1.409-.809,1.6-1.6,.277-1.45,.411-2.924,.4-4.4,.007-1.476-.127-2.949-.4-4.4"/><path class="cls-1" d="M767.3,119.2v-5.4l4.7,2.7s-4.7,2.7-4.7,2.7Zm10.5-7.1c-.191-.791-.809-1.409-1.6-1.6-4.651-.533-9.349-.533-14,0-.791,.191-1.409,.809-1.6,1.6-.277,1.45-.411,2.924-.4,4.4-.007,1.476,.127,2.949,.4,4.4,.191,.791,.809,1.409,1.6,1.6,4.651,.533,9.349,.533,14,0,.791-.191,1.409-.809,1.6-1.6,.277-1.45,.411-2.924,.4-4.4,.007-1.476-.127-2.949-.4-4.4"/><path class="cls-8" d="M469.815,108.333c0-1.105-.895-2-2-2s-2,.895-2,2h4Zm0,0c0,1.105-.895,2-2,2s-2-.895-2-2h4Zm-12-6c0,1.105,.895,2,2,2s2-.895,2-2h-4Zm0,0c0-1.105,.895-2,2-2s2,.895,2,2h-4Z"/><path class="cls-2" d="M469.815,108.333h2m-2,0c0-1.105-.895-2-2-2s-2,.895-2,2m4,0h-4m4,0c0,1.105-.895,2-2,2s-2-.895-2-2m0,0h-10m2-6c0,1.105,.895,2,2,2s2-.895,2-2m-4,0h4m-4,0c0-1.105,.895-2,2-2s2,.895,2,2m-4,0h-2m6,0h10"/><path class="cls-5" d="M408.5,107.333c0-1.105-.895-2-2-2s-2,.895-2,2h4Zm0,0c0,1.105-.895,2-2,2s-2-.895-2-2h4Zm-12-6c0,1.105,.895,2,2,2s2-.895,2-2h-4Zm0,0c0-1.105,.895-2,2-2s2,.895,2,2h-4Z"/><path class="cls-3" d="M408.5,107.333h2m-2,0c0-1.105-.895-2-2-2s-2,.895-2,2m4,0h-4m4,0c0,1.105-.895,2-2,2s-2-.895-2-2m0,0h-10m2-6c0,1.105,.895,2,2,2s2-.895,2-2m-4,0h4m-4,0c0-1.105,.895-2,2-2s2,.895,2,2m-4,0h-2m6,0h10"/><path class="cls-4" d="M246.32,103.565c-1.562,1.562-1.563,4.094-.001,5.657h.001s6.828,6.829,6.828,6.829l6.828-6.828c1.589-1.535,1.633-4.067,.098-5.656-1.535-1.589-4.067-1.633-5.656-.098-.033,.032-.066,.065-.098,.098l-1.172,1.172-1.172-1.172c-1.562-1.562-4.094-1.563-5.657-.001,0,0,0,0-.001,.001h0l.002-.002Z"/><g id="new-tag"><path id="container" class="cls-8" d="M637,17.9h26v12h-26v-12Z"/><path id="new-tag-2" class="cls-1" d="M639.3,26.9h1.4l.6-3.6,.1-.8h0c.1,.3,.2,.5,.3,.8l1.5,3.7h1.6l1.1-6.4h-1.4l-.6,3.7c-.077,.259-.11,.53-.1,.8h0c-.083-.273-.184-.54-.3-.8l-1.4-3.7h-1.7l-1.1,6.3h0Zm12.1-5.3l.2-1.1h-4.4l-1.1,6.4h4.4l.2-1.1h-2.9l.3-1.6h2.7l.2-1.1h-2.7l.3-1.4s2.8-.1,2.8-.1Zm1.3,5.3h1.7l1.6-4.3c.081-.154,.116-.327,.1-.5h0v.5l.1,4.3h1.7l2.6-6.4h-1.6l-1.5,4.1c-.1,.2-.1,.4-.2,.5h0v-.5l-.2-4.1h-1.5l-1.6,4.1c-.1,.2-.1,.3-.2,.5h0v-.5l-.1-4.1h-1.5l.6,6.4h0Z"/></g><g id="game-logo"><path class="cls-1" d="M634.2,106.6h-2.4c-.507-.042-.986,.238-1.2,.7-1.6,2.6-3.3,5.3-4.9,7.9-.098,.222-.233,.425-.4,.6-.1-.2-.2-.2-.2-.3-1.8-2.8-3.5-5.6-5.2-8.4-.118-.275-.404-.438-.7-.4h-1.9c-.9,0-1.3,.4-1.3,1.3v17.3c-.004,.395,.234,.752,.6,.9,1.1,.4,2.2,.7,3.4,1.1v-11.9c.1,.1,.3,.2,.4,.4,1.1,1.8,2.3,3.6,3.4,5.4l.3,.3c.879,.749,2.199,.643,2.948-.236,.018-.021,.035-.042,.052-.064,.8-1.4,1.7-2.8,2.6-4.2l1-1.7h.1v11.9l3-1h0c.654-.125,1.094-.741,1-1.4v-17.7c-.2-.4-.3-.5-.6-.5h0Z"/><path class="cls-1" d="M594.4,115.2h-6.8c-.3,0-.4,.1-.4,.4v2.4c.065,.567,.578,.973,1.144,.908,.019-.002,.037-.005,.056-.008h2.7c.3,0,.4,.1,.4,.4v3.2h0c0,.2-.1,.4-.3,.4-1.365,.385-2.787,.52-4.2,.4h-.1c-3.504-.309-6.099-3.395-5.8-6.9,.215-3.408,2.987-6.093,6.4-6.2,2.081,0,4.134,.48,6,1.4,.218,.112,.456,.18,.7,.2,.586-.094,1.013-.606,1-1.2v-1.2c.022-.77-.467-1.462-1.2-1.7-2.594-1.189-5.476-1.606-8.3-1.2h-.2c-5.62,1.015-9.37,6.372-8.4,12,.8,5.1,4.8,8.3,9.8,8.6,2.857,.178,5.713-.372,8.3-1.6,.21-.087,.361-.276,.4-.5v-9.1c0-.4-.6-.8-1.2-.7h0Z"/><path class="cls-1" d="M649.9,123.4h-9.4v-4.7h7.7c.7,0,1.2-.3,1.2-.9v-2.9h-8.9v-4.5h8.2c.568-.014,1.016-.486,1.002-1.053,0-.016-.001-.031-.002-.047v-2.7h-12.4c-.604,.116-1.004,.694-.9,1.3v17.9c0,1,.4,1.4,1.4,1.4h11.1c.545,.061,1.036-.331,1.098-.876,0-.008,.002-.016,.002-.024,0-.9-.1-1.9-.1-2.9h0Z"/><path class="cls-1" d="M614.4,124.7l-3.6-9c-1.2-2.9-2.4-5.8-3.5-8.7-.072-.265-.328-.436-.6-.4h-1c-1.1,0-1.3,.1-1.7,1.1l-4.8,11.8-2.1,5.1c-.3,.7-.1,1.3,.5,1.5,1.013,.393,2.048,.727,3.1,1,.1-.2,.1-.4,.2-.5,.5-1.4,1-2.9,1.6-4.4,.072-.265,.328-.436,.6-.4h5.6c.21-.004,.404,.113,.5,.3,.5,1.4,1,2.7,1.4,4l.3,.9c1-.3,1.9-.6,2.8-.9,.604-.116,1.004-.694,.9-1.3-.1,.1-.1,0-.2-.1Zm-10.4-6.5c.6-1.7,1.2-3.3,1.8-5.1,.6,1.8,1.2,3.4,1.8,5.1h-3.6Z"/></g><path class="cls-1" d="M497.032,96.522c-4.998,0-9.046,4.057-9.046,9.055s4.048,9.055,9.046,9.055,9.064-4.057,9.064-9.055-4.057-9.055-9.064-9.055Zm.009,16.299c-4.002,0-7.244-3.242-7.244-7.244s3.242-7.244,7.244-7.244,7.244,3.242,7.244,7.244-3.242,7.244-7.244,7.244Z"/><path class="cls-1" d="M497.494,101.05h-1.358v5.433l4.754,2.852,.679-1.114-4.075-2.418v-4.754Z"/></svg>