<?xml version="1.0" encoding="UTF-8"?><svg id="a" xmlns="http://www.w3.org/2000/svg" viewBox="0 0 1000 1000"><defs><style>.b{fill:#0052b4;}.c{fill:#f0f0f0;}.d{fill:#fff;}.e{fill:#ffda44;}.f{fill:#ff9811;}.g{fill:#a2001d;}.h{fill:#acabb1;}.i{fill:#d80027;}.j{fill:#6da544;}.k{fill:#2e52b2;}.l{fill:#338af3;}.m{fill:#496e2d;}</style></defs><g><rect class="c" x="72" y="28.33" width="143.36" height="95.57"/><path class="i" d="M152.64,28.33h-17.92v38.83h-62.72v17.92h62.72v38.83h17.92v-38.83h62.72v-17.92h-62.72V28.33h0Z"/><path class="b" d="M182.26,92.73l33.1,18.39v-18.39h-33.1Z"/><path class="b" d="M159.26,92.73l56.1,31.17v-8.81l-40.24-22.35h-15.86Z"/><path class="b" d="M200.42,123.9l-41.15-22.87v22.87h41.15Z"/><path class="c" d="M159.26,92.73l56.1,31.17v-8.81l-40.24-22.35h-15.86Z"/><path class="i" d="M159.26,92.73l56.1,31.17v-8.81l-40.24-22.35h-15.86Z"/><path class="b" d="M97.3,92.73l-25.3,14.05v-14.05h25.3Z"/><path class="b" d="M128.1,96.69v27.2h-48.96l48.96-27.2Z"/><path class="i" d="M112.23,92.73l-40.23,22.35v8.81l56.1-31.17h-15.86Z"/><path class="b" d="M105.1,59.49l-33.1-18.39v18.39h33.1Z"/><path class="b" d="M128.1,59.49l-56.1-31.17v8.81l40.23,22.35h15.86Z"/><path class="b" d="M86.94,28.33l41.15,22.87V28.33h-41.15Z"/><path class="c" d="M128.1,59.49l-56.1-31.17v8.81l40.23,22.35h15.86Z"/><path class="i" d="M128.1,59.49l-56.1-31.17v8.81l40.23,22.35h15.86Z"/><path class="b" d="M190.07,59.49l25.3-14.05v14.05h-25.3Z"/><path class="b" d="M159.26,55.53V28.33h48.96l-48.96,27.2Z"/><path class="i" d="M175.13,59.49l40.24-22.35v-8.81l-56.1,31.17h15.86Z"/></g><g><rect class="b" x="242.75" y="28.16" width="143.36" height="95.57"/><path class="c" d="M305.3,75.94c.08-.08,.15-.17,.23-.25-.08,.09-.15,.17-.23,.25h0Z"/><path class="c" d="M295.73,87.68l3.07,6.42,6.93-1.6-3.1,6.4,5.57,4.42-6.94,1.56,.02,7.11-5.55-4.45-5.55,4.45,.02-7.11-6.94-1.56,5.57-4.42-3.1-6.4,6.93,1.6,3.07-6.42Z"/><path class="c" d="M351.13,95.65l1.46,3.06,3.3-.76-1.48,3.05,2.66,2.11-3.31,.75v3.39l-2.64-2.12-2.64,2.12v-3.39l-3.3-.75,2.66-2.11-1.48-3.05,3.3,.76,1.46-3.06Z"/><path class="c" d="M337.52,63.19l1.46,3.06,3.3-.76-1.48,3.05,2.66,2.11-3.31,.75v3.39l-2.64-2.12-2.65,2.12v-3.39l-3.3-.75,2.66-2.11-1.48-3.05,3.3,.76,1.47-3.06Z"/><path class="c" d="M351.13,44.64l1.46,3.06,3.3-.76-1.48,3.05,2.66,2.11-3.31,.74v3.39l-2.64-2.12-2.64,2.12v-3.39l-3.3-.74,2.66-2.11-1.48-3.05,3.3,.76,1.46-3.06Z"/><path class="c" d="M363.02,58.55l1.46,3.06,3.3-.76-1.48,3.05,2.66,2.11-3.31,.75v3.39l-2.64-2.12-2.65,2.12v-3.39l-3.3-.75,2.66-2.11-1.48-3.05,3.31,.76,1.46-3.06Z"/><path class="c" d="M354.52,74.79l1.15,3.54h3.72l-3.01,2.19,1.15,3.54-3.01-2.19-3.02,2.19,1.15-3.54-3.01-2.19h3.73l1.15-3.54Z"/><path class="c" d="M314.43,28.16v8.55l-12.65,7.03h12.65v16.62h-16.55l16.55,9.19v6.39h-7.47l-20.58-11.43v11.43h-15.58v-13.6l-24.48,13.6h-3.57v-8.55l12.65-7.03h-12.65v-16.62h16.55l-16.55-9.2v-6.39h7.47l20.58,11.43v-11.43h15.58v13.6l24.48-13.6h3.57Z"/><path class="i" d="M283.07,28.16h-8.96v19.41h-31.36v8.96h31.36v19.41h8.96v-19.41h31.36v-8.96h-31.36V28.16Z"/><path class="b" d="M286.38,60.36l28.05,15.58v-4.41l-20.12-11.17h-7.93Z"/><path class="c" d="M286.38,60.36l28.05,15.58v-4.41l-20.12-11.17h-7.93Z"/><path class="i" d="M286.38,60.36l28.05,15.58v-4.41l-20.12-11.17h-7.93Z"/><path class="i" d="M262.87,60.36l-20.12,11.18v4.41l28.05-15.58h-7.93Z"/><path class="b" d="M270.8,43.74l-28.05-15.58v4.41l20.12,11.18h7.93Z"/><path class="c" d="M270.8,43.74l-28.05-15.58v4.41l20.12,11.18h7.93Z"/><path class="i" d="M270.8,43.74l-28.05-15.58v4.41l20.12,11.18h7.93Z"/><path class="i" d="M294.31,43.74l20.12-11.18v-4.41l-28.05,15.58h7.93Z"/></g><g><rect class="c" x="415" y="28.33" width="143.36" height="95.57"/><rect class="i" x="415" y="28.33" width="143.36" height="31.86"/><rect class="i" x="415" y="92.04" width="143.36" height="31.86"/></g><g><rect class="e" x="585" y="28.33" width="143.36" height="95.57"/><rect x="585" y="28.33" width="47.79" height="95.57"/><rect class="i" x="680.57" y="28.33" width="47.79" height="95.57"/></g><g><rect class="m" x="755" y="28.33" width="143.36" height="95.57"/><rect class="c" x="755" y="28.33" width="143.36" height="31.86"/><rect class="i" x="755" y="92.04" width="143.36" height="31.86"/></g><g><rect class="c" x="72" y="144.33" width="143.36" height="95.57"/><rect class="i" x="72" y="144.33" width="143.36" height="31.86"/><rect class="b" x="72" y="208.04" width="143.36" height="31.86"/><path class="l" d="M156.15,177.57h-8.31l1.38-10.39,5.54-4.16,5.54,4.16v8.31l-4.15,2.08Z"/><path class="l" d="M131.21,177.57h8.31l-1.39-10.39-5.54-4.16-5.54,4.16v8.31l4.16,2.08Z"/><path class="b" d="M149.22,177.57h-11.08v-10.39l5.54-4.16,5.54,4.16v10.39Z"/><path class="c" d="M127.06,175.49v22.85c0,5.44,2.63,10.28,6.68,13.32l2.91-.73,3.67,3.69c1.09,.22,2.21,.34,3.36,.34s2.26-.12,3.34-.34l4.19-3.49,2.41,.51c4.05-3.03,6.68-7.87,6.68-13.31v-22.85h-33.24Z"/><rect class="i" x="127.06" y="175.49" width="6.65" height="6.65"/><rect class="i" x="140.35" y="175.49" width="6.65" height="6.65"/><rect class="i" x="153.65" y="175.49" width="6.65" height="6.65"/><rect class="i" x="133.71" y="182.14" width="6.65" height="6.65"/><rect class="i" x="147.01" y="182.14" width="6.65" height="6.65"/><rect class="i" x="127.06" y="188.79" width="6.65" height="6.65"/><rect class="i" x="133.71" y="195.44" width="6.65" height="6.65"/><rect class="i" x="140.35" y="188.79" width="6.65" height="6.65"/><rect class="i" x="153.65" y="188.79" width="6.65" height="6.65"/><rect class="i" x="147.01" y="195.44" width="6.65" height="6.65"/><rect class="i" x="140.35" y="202.09" width="6.65" height="6.65"/><path class="i" d="M133.71,202.09h-6.22c.57,2.47,1.69,4.73,3.23,6.65h2.99v-6.65h0Z"/><path class="i" d="M153.65,208.73h2.99c1.54-1.92,2.66-4.18,3.23-6.65h-6.22v6.65h0Z"/><path class="i" d="M133.71,208.73v2.9c1.93,1.46,4.19,2.5,6.65,3v-5.9h-6.65Z"/><path class="i" d="M147,208.73v5.9c2.46-.5,4.72-1.54,6.65-3v-2.9h-6.65Z"/></g><g><rect class="b" x="243" y="144.33" width="143.36" height="95.57"/><path class="i" d="M386.36,192.11v47.79H243l60.25-47.79h83.11Z"/><path class="c" d="M386.36,144.33v47.79h-83.11l-60.25-47.79h143.36Z"/></g><g><rect x="415" y="144.33" width="143.36" height="95.57"/><rect class="b" x="415" y="144.33" width="143.36" height="31.86"/><rect class="c" x="415" y="208.04" width="143.36" height="31.86"/></g><g><rect class="c" x="586" y="144.33" width="143.36" height="95.57"/><path class="k" d="M729.36,186.14v11.95h-91.94v41.81h-11.95v-41.81h-39.47v-11.95h39.47v-41.81h11.95v41.81h91.94Z"/></g><g><rect class="c" x="755" y="144.33" width="143.36" height="95.57"/><rect class="b" x="755" y="144.33" width="47.79" height="95.57"/><rect class="i" x="850.57" y="144.33" width="47.79" height="95.57"/></g><g><rect class="i" x="72" y="260.33" width="143.36" height="95.58"/><rect x="72" y="260.33" width="143.36" height="31.86"/><rect class="e" x="72" y="324.04" width="143.36" height="31.86"/></g><g><rect class="c" x="243" y="260.46" width="143.31" height="95.54"/><rect class="l" x="243" y="260.46" width="143.31" height="11.94"/><rect class="l" x="243" y="284.34" width="143.31" height="11.94"/><rect class="l" x="243" y="308.23" width="143.31" height="11.94"/><rect class="l" x="243" y="332.11" width="143.31" height="11.94"/><rect class="l" x="243" y="260.46" width="52.96" height="47.77"/><rect class="c" x="243" y="279.04" width="52.96" height="10.61"/><rect class="c" x="264.17" y="260.46" width="10.62" height="47.77"/></g><g><rect class="c" x="414" y="260.33" width="143.36" height="95.57"/><rect class="i" x="414" y="260.33" width="143.36" height="31.86"/><rect class="j" x="414" y="324.04" width="143.36" height="31.86"/></g><g><rect class="b" x="586" y="260.33" width="143.36" height="95.58"/><path class="c" d="M729.36,319.28h-86.74v36.62h-22.33v-36.62h-34.28v-22.34h34.28v-36.62h22.33v36.62h86.74v22.34h0Z"/><path class="i" d="M729.36,302.14v11.95h-91.94v41.81h-11.95v-41.81h-39.47v-11.95h39.47v-41.81h11.95v41.81h91.94Z"/></g><g><rect class="c" x="756" y="260.33" width="143.36" height="95.57"/><rect class="j" x="756" y="260.33" width="47.79" height="95.58"/><rect class="f" x="851.57" y="260.33" width="47.79" height="95.58"/></g><g><path class="c" d="M167.57,376.33H72v95.57H215.36v-95.57h-47.79Z"/><rect class="j" x="72" y="376.33" width="47.79" height="95.57"/><rect class="i" x="167.57" y="376.33" width="47.79" height="95.57"/></g><g><rect class="c" x="243" y="376.33" width="143.36" height="95.57"/><rect class="g" x="243" y="376.33" width="143.36" height="31.86"/><rect class="g" x="243" y="440.04" width="143.36" height="31.86"/></g><g><rect class="j" x="414" y="376.33" width="143.36" height="95.57"/><rect class="e" x="414" y="376.33" width="143.36" height="31.86"/><rect class="i" x="414" y="440.04" width="143.36" height="31.86"/></g><g><rect class="c" x="586" y="376.33" width="143.36" height="95.57"/><rect class="i" x="586" y="376.33" width="143.36" height="31.86"/><rect class="l" x="586" y="440.04" width="143.36" height="31.86"/></g><g><rect class="c" x="756" y="376.33" width="143.36" height="95.58"/><rect class="i" x="756" y="388.27" width="143.36" height="11.95"/><rect class="i" x="756" y="412.17" width="143.36" height="11.95"/><rect class="i" x="756" y="436.06" width="143.36" height="11.95"/><rect class="i" x="756" y="459.95" width="143.36" height="11.95"/><rect class="b" x="756" y="376.33" width="71.68" height="51.46"/><path class="e" d="M795.46,413.87c-6.53,0-11.82-5.29-11.82-11.82s5.29-11.82,11.82-11.82c2.03,0,3.95,.52,5.62,1.42-2.62-2.56-6.21-4.15-10.17-4.15-8.03,0-14.54,6.51-14.54,14.54s6.51,14.54,14.54,14.54c3.96,0,7.54-1.58,10.17-4.15-1.67,.91-3.59,1.42-5.62,1.42h0Z"/><path class="e" d="M798.79,393.74l2.1,4.39,4.74-1.1-2.12,4.38,3.81,3.02-4.74,1.07v4.86l-3.78-3.04-3.79,3.04v-4.86l-4.73-1.07,3.81-3.02-2.12-4.38,4.74,1.1,2.1-4.39Z"/></g><g><rect class="c" x="72" y="492.33" width="143.36" height="95.57"/><rect class="i" x="143.68" y="492.33" width="71.68" height="95.58"/><path class="h" d="M130.3,507.26v-5.97h-5.97v5.97h-5.97v5.97h5.97v5.97h5.97v-5.97h5.97v-5.97h-5.97Z"/></g><g><rect class="e" x="243" y="492.33" width="143.36" height="95.57"/><rect class="i" x="335.46" y="492.33" width="50.9" height="95.58"/><rect class="b" x="243" y="492.33" width="50.9" height="95.58"/><path class="f" d="M331.3,529.92h-11.43c0-2.87-2.33-5.2-5.19-5.2s-5.2,2.33-5.2,5.2h-11.43c0,2.83,2.46,5.11,5.28,5.11h-.17c0,2.83,2.29,5.11,5.11,5.11,0,2.5,1.8,4.58,4.17,5.02l-4.03,9.1c1.93,.78,4.04,1.22,6.25,1.22s4.32-.44,6.26-1.22l-4.03-9.1c2.37-.44,4.17-2.52,4.17-5.02,2.83,0,5.11-2.29,5.11-5.11h-.17c2.83,0,5.29-2.29,5.29-5.11h0Z"/><path class="b" d="M314.68,536.99l-6.75,3.12v6.23l6.75,4.16,6.75-4.16v-6.23l-6.75-3.12Z"/><rect class="i" x="307.93" y="533.88" width="13.5" height="6.23"/></g><g><rect class="b" x="414" y="492.33" width="143.36" height="95.58"/><path class="i" d="M533.09,533.88l.95,2.92h3.07l-2.48,1.8,.95,2.92-2.48-1.8-2.48,1.8,.95-2.92-2.48-1.8h3.07l.95-2.92Z"/><path class="i" d="M522.11,554.9l1.42,4.38h4.6l-3.72,2.71,1.42,4.38-3.72-2.71-3.73,2.71,1.42-4.38-3.73-2.71h4.6l1.42-4.38Z"/><path class="i" d="M522.52,520.5l1.19,3.65h3.84l-3.1,2.26,1.19,3.65-3.1-2.26-3.1,2.26,1.19-3.65-3.1-2.26h3.84l1.19-3.65Z"/><path class="i" d="M511.97,533.75l1.42,4.38h4.61l-3.73,2.71,1.42,4.38-3.73-2.71-3.73,2.71,1.42-4.38-3.73-2.71h4.61l1.42-4.38Z"/><path class="c" d="M485.68,492.32v8.56l-12.65,7.02h12.65v16.62h-16.55l16.55,9.2v6.39h-7.47l-20.58-11.43v11.43h-15.58v-13.6l-24.48,13.6h-3.57v-8.55l12.65-7.03h-12.65v-16.62h16.55l-16.55-9.2v-6.39h7.47l20.58,11.43v-11.43h15.58v13.6l24.48-13.6h3.57Z"/><path class="i" d="M454.32,492.32h-8.96v19.41h-31.36v8.96h31.36v19.41h8.96v-19.41h31.36v-8.96h-31.36v-19.41Z"/><path class="b" d="M457.63,524.53l28.05,15.58v-4.41l-20.12-11.18h-7.93Z"/><path class="c" d="M457.63,524.53l28.05,15.58v-4.41l-20.12-11.18h-7.93Z"/><path class="i" d="M457.63,524.53l28.05,15.58v-4.41l-20.12-11.18h-7.93Z"/><path class="i" d="M434.12,524.53l-20.12,11.18v4.41l28.05-15.58h-7.93Z"/><path class="b" d="M442.05,507.91l-28.05-15.58v4.41l20.12,11.18h7.93Z"/><path class="c" d="M442.05,507.91l-28.05-15.58v4.41l20.12,11.18h7.93Z"/><path class="i" d="M442.05,507.91l-28.05-15.58v4.41l20.12,11.18h7.93Z"/><path class="i" d="M465.56,507.91l20.12-11.18v-4.41l-28.05,15.58h7.93Z"/></g><g><rect class="i" x="585" y="492.33" width="143.36" height="95.58"/><path class="c" d="M728.36,551.28h-86.74v36.62h-22.33v-36.62h-34.28v-22.34h34.28v-36.62h22.33v36.62h86.74v22.34h0Z"/><path class="k" d="M728.36,534.14v11.95h-91.94v41.81h-11.95v-41.81h-39.47v-11.95h39.47v-41.81h11.95v41.81h91.94Z"/></g><g><rect class="c" x="756" y="492.33" width="143.36" height="95.57"/><rect class="c" x="756" y="492.33" width="143.36" height="47.79"/><rect class="i" x="756" y="540.11" width="143.36" height="47.79"/></g><g><rect class="i" x="72" y="608.33" width="143.36" height="95.57"/><rect class="j" x="72" y="608.33" width="55.06" height="95.57"/><path class="e" d="M144.98,656.11c0,9.9-8.02,17.92-17.92,17.92s-17.92-8.02-17.92-17.92,8.02-17.92,17.92-17.92,17.92,8.02,17.92,17.92h0Z"/><path class="i" d="M116.98,647.15v11.2c0,5.57,4.51,10.08,10.08,10.08s10.08-4.51,10.08-10.08v-11.2h-20.16Z"/><path class="c" d="M127.06,661.71c-1.85,0-3.36-1.51-3.36-3.36v-4.48h6.72v4.48c0,1.85-1.51,3.36-3.36,3.36h0Z"/></g><g><rect class="e" x="243" y="608.33" width="143.36" height="95.57"/><rect class="b" x="243" y="608.33" width="47.79" height="95.58"/><rect class="i" x="338.57" y="608.33" width="47.79" height="95.58"/></g><g><rect class="b" x="414" y="608.33" width="143.36" height="95.58"/><rect class="i" x="414" y="608.33" width="143.36" height="31.86"/><rect class="c" x="414" y="672.04" width="143.36" height="31.86"/><path class="i" d="M450.25,635.33v23.84c0,13.56,17.71,17.72,17.71,17.72,0,0,17.71-4.16,17.71-17.72v-23.84h-35.43Z"/><path class="e" d="M457.58,639.49h20.78v-8.31l-4.15,2.08-6.23-6.23-6.23,6.23-4.15-2.08v8.31Z"/><path class="e" d="M481.52,662.49l-13.51-13.51-13.51,13.51,4.41,4.41,9.1-9.1,9.1,9.1,4.41-4.41Z"/><path class="c" d="M481.52,649.88h-6.3c.35-.61,.56-1.32,.56-2.08,0-2.29-1.86-4.16-4.16-4.16-1.58,0-2.96,.89-3.66,2.2-.7-1.3-2.08-2.2-3.66-2.2-2.3,0-4.16,1.86-4.16,4.16,0,.76,.21,1.47,.56,2.08h-6.19c0,2.29,2,4.16,4.29,4.16h-.14c0,2.3,1.86,4.16,4.16,4.16,0,2.03,1.46,3.72,3.39,4.08l-3.27,7.39c1.57,.64,3.28,.99,5.08,.99s3.51-.35,5.08-.99l-3.27-7.39c1.93-.36,3.39-2.05,3.39-4.08,2.3,0,4.16-1.86,4.16-4.16h-.14c2.3,0,4.29-1.86,4.29-4.16h0Z"/></g><g><rect class="c" x="585" y="608.33" width="143.36" height="95.57"/><rect class="i" x="585" y="608.33" width="143.36" height="47.79"/><path class="c" d="M608.37,632.22c0-6.96,4.89-12.78,11.43-14.21-1.01-.22-2.05-.34-3.12-.34-8.03,0-14.54,6.51-14.54,14.54s6.51,14.54,14.54,14.54c1.07,0,2.11-.12,3.12-.34-6.53-1.42-11.43-7.24-11.43-14.21h0Z"/><path class="c" d="M627.07,618.72l1.03,3.17h3.34l-2.7,1.96,1.03,3.17-2.7-1.96-2.7,1.96,1.03-3.17-2.7-1.96h3.34l1.03-3.17Z"/><path class="c" d="M618.98,624.95l1.03,3.17h3.34l-2.7,1.96,1.03,3.17-2.7-1.96-2.7,1.96,1.03-3.17-2.7-1.96h3.34l1.03-3.17Z"/><path class="c" d="M635.17,624.95l1.03,3.17h3.34l-2.7,1.96,1.03,3.17-2.7-1.96-2.7,1.96,1.03-3.17-2.7-1.96h3.34l1.03-3.17Z"/><path class="c" d="M632.05,634.3l1.03,3.17h3.34l-2.7,1.96,1.03,3.17-2.7-1.96-2.7,1.96,1.03-3.17-2.7-1.96h3.34l1.03-3.17Z"/><path class="c" d="M622.09,634.3l1.03,3.17h3.34l-2.7,1.96,1.03,3.17-2.7-1.96-2.7,1.96,1.03-3.17-2.7-1.96h3.34l1.03-3.17Z"/></g><g><rect class="c" x="756" y="608.33" width="143.36" height="95.57"/><rect class="b" x="756" y="639.49" width="143.36" height="33.24"/><rect class="i" x="756" y="672.74" width="143.36" height="31.16"/><path class="c" d="M792.25,635.34v23.84c0,13.56,17.72,17.72,17.72,17.72,0,0,17.72-4.16,17.72-17.72v-23.84h-35.43Z"/><path class="i" d="M796.92,636.04v22.94c0,1.53,.34,2.98,1.02,4.34h24.07c.67-1.36,1.02-2.8,1.02-4.34v-22.94h-26.1Z"/><path class="c" d="M817.96,652.03h-6v-4h4v-4h-4v-4h-4v4h-4v4h4v4h-6v4h6v4h4v-4h6v-4Z"/><path class="b" d="M803.39,668.9c2.58,1.62,5.22,2.56,6.58,2.98,1.36-.42,4-1.36,6.58-2.98,2.6-1.63,4.42-3.5,5.46-5.58-1.14-.81-2.53-1.28-4.04-1.28-.55,0-1.08,.07-1.59,.18-1.08-2.46-3.54-4.18-6.41-4.18s-5.32,1.72-6.41,4.18c-.51-.12-1.04-.18-1.59-.18-1.5,0-2.9,.48-4.04,1.28,1.03,2.08,2.86,3.95,5.45,5.58h0Z"/></g><g><rect class="c" x="72" y="724.33" width="143.36" height="95.57"/><rect class="b" x="72" y="756.19" width="143.36" height="31.86"/><rect class="i" x="72" y="788.04" width="143.36" height="31.86"/><path class="c" d="M137.41,755.49v4.15c0,9.54-12.47,12.47-12.47,12.47,0,0-12.47-2.92-12.47-12.47v-4.15l-.04-12.37,24.93-.08,.04,12.45Z"/><path class="b" d="M137.41,755.49v4.15c0,9.54-12.47,12.47-12.47,12.47,0,0-12.47-2.92-12.47-12.47v-4.15l-.04-12.37,24.93-.08,.04,12.45Z"/><path class="c" d="M137.41,755.49v4.15c0,9.54-12.47,12.47-12.47,12.47,0,0-12.47-2.92-12.47-12.47v-4.15l4.16,4.15,8.31-6.23,8.31,6.23,4.15-4.15Z"/></g><g><rect class="e" x="243" y="724.33" width="143.36" height="95.58"/><rect class="i" x="243" y="724.33" width="143.36" height="31.86"/><rect class="i" x="243" y="788.04" width="143.36" height="31.86"/></g><g><rect class="b" x="414" y="724.33" width="143.36" height="95.57"/><path class="e" d="M467.76,724.33h-17.92v38.83h-35.84v17.92h35.84v38.83h17.92v-38.83h89.6v-17.92h-89.6v-38.83h0Z"/></g><g><rect class="i" x="585" y="724.33" width="143.36" height="95.57"/><path class="c" d="M684.73,762.77h-18.7v-18.7h-18.7v18.7h-18.7v18.7h18.7v18.7h18.7v-18.7h18.7v-18.7h0Z"/></g><g><rect class="e" x="756" y="724.33" width="143.36" height="95.57"/><rect class="l" x="756" y="724.33" width="143.36" height="47.79"/></g><g><rect class="c" x="72" y="840.33" width="143.36" height="95.58"/><rect class="i" x="72" y="852.27" width="143.36" height="11.95"/><rect class="i" x="72" y="876.16" width="143.36" height="11.95"/><rect class="i" x="72" y="900.06" width="143.36" height="11.95"/><rect class="i" x="72" y="923.95" width="143.36" height="11.95"/><rect class="k" x="72" y="840.33" width="71.68" height="51.46"/><path class="c" d="M99.95,861.41l-1.15,3.55h-3.73l3.02,2.19-1.15,3.55,3.02-2.19,3.02,2.19-1.15-3.55,3.02-2.19h-3.73l-1.15-3.55Z"/><path class="c" d="M101.1,877.78l-1.15-3.55-1.15,3.55h-3.73l3.02,2.19-1.15,3.55,3.02-2.19,3.02,2.19-1.15-3.55,3.02-2.19h-3.73Z"/><path class="c" d="M85.32,877.78l-1.15-3.55-1.15,3.55h-3.74l3.02,2.19-1.15,3.55,3.02-2.19,3.02,2.19-1.15-3.55,3.02-2.19h-3.73Z"/><path class="c" d="M84.17,861.41l-1.15,3.55h-3.73l3.02,2.19-1.15,3.55,3.02-2.19,3.02,2.19-1.15-3.55,3.02-2.19h-3.73l-1.15-3.55Z"/><path class="c" d="M99.95,848.59l-1.15,3.55h-3.73l3.02,2.19-1.15,3.55,3.02-2.19,3.02,2.19-1.15-3.55,3.02-2.19h-3.73l-1.15-3.55Z"/><path class="c" d="M84.17,848.59l-1.15,3.55h-3.73l3.02,2.19-1.15,3.55,3.02-2.19,3.02,2.19-1.15-3.55,3.02-2.19h-3.73l-1.15-3.55Z"/><path class="c" d="M115.73,861.41l-1.15,3.55h-3.73l3.02,2.19-1.15,3.55,3.02-2.19,3.02,2.19-1.15-3.55,3.02-2.19h-3.73l-1.15-3.55Z"/><path class="c" d="M116.89,877.78l-1.15-3.55-1.15,3.55h-3.73l3.02,2.19-1.15,3.55,3.02-2.19,3.02,2.19-1.15-3.55,3.02-2.19h-3.73Z"/><path class="c" d="M132.67,877.78l-1.15-3.55-1.15,3.55h-3.73l3.02,2.19-1.15,3.55,3.02-2.19,3.02,2.19-1.15-3.55,3.02-2.19h-3.73Z"/><path class="c" d="M131.51,861.41l-1.15,3.55h-3.73l3.02,2.19-1.15,3.55,3.02-2.19,3.02,2.19-1.15-3.55,3.02-2.19h-3.73l-1.15-3.55Z"/><path class="c" d="M115.73,848.59l-1.15,3.55h-3.73l3.02,2.19-1.15,3.55,3.02-2.19,3.02,2.19-1.15-3.55,3.02-2.19h-3.73l-1.15-3.55Z"/><path class="c" d="M131.51,848.59l-1.15,3.55h-3.73l3.02,2.19-1.15,3.55,3.02-2.19,3.02,2.19-1.15-3.55,3.02-2.19h-3.73l-1.15-3.55Z"/></g><g><rect class="i" x="243.36" y="840.32" width="143.36" height="95.57"/><path class="d" d="M386.72,882.14v11.95h-91.94v41.81h-11.95v-41.81h-39.47v-11.95h39.47v-41.81h11.95v41.81h91.94Z"/></g></svg>