<?xml version="1.0" encoding="utf-8"?>
<!-- Generator: Adobe Illustrator 23.0.2, SVG Export Plug-In . SVG Version: 6.00 Build 0)  -->
<svg version="1.1" id="Layer_1" xmlns="http://www.w3.org/2000/svg" xmlns:xlink="http://www.w3.org/1999/xlink" x="0px" y="0px"
	 viewBox="0 0 1600 1080" style="enable-background:new 0 0 1600 1080;" xml:space="preserve">
<style type="text/css">
	.st0{fill:#A6A6A6;}
	.st1{fill:#FFFFFF;stroke:#FFFFFF;stroke-width:0.2;stroke-miterlimit:10;}
	.st2{fill:#FFFFFF;}
	.st3{fill:url(#SVGID_1_);}
	.st4{fill:url(#SVGID_2_);}
	.st5{fill:url(#SVGID_3_);}
	.st6{fill:url(#SVGID_4_);}
	.st7{opacity:0.2;enable-background:new    ;}
	.st8{opacity:0.12;enable-background:new    ;}
	.st9{opacity:0.25;fill:#FFFFFF;enable-background:new    ;}
	.st10{fill:#B6B6B6;}
</style>
<g>
	<g>
		<path d="M227.2,91.2H32.8c-4.3,0-7.8-3.5-7.8-7.8V36.8c0-4.3,3.5-7.8,7.8-7.8h194.4c4.3,0,7.8,3.5,7.8,7.8v46.7
			C235,87.7,231.5,91.2,227.2,91.2z"/>
	</g>
	<g>
		<g>
			<path class="st0" d="M227.2,30.2c3.6,0,6.5,2.9,6.5,6.5v46.7c0,3.6-2.9,6.5-6.5,6.5H32.8c-3.6,0-6.5-2.9-6.5-6.5V36.8
				c0-3.6,2.9-6.5,6.5-6.5H227.2 M227.2,29H32.8c-4.3,0-7.8,3.5-7.8,7.8v46.7c0,4.3,3.5,7.8,7.8,7.8h194.4c4.3,0,7.8-3.5,7.8-7.8
				V36.8C235,32.5,231.5,29,227.2,29L227.2,29z"/>
		</g>
	</g>
	<g>
		<path class="st1" d="M98.8,44.9c0,1.3-0.4,2.3-1.2,3.1c-0.9,0.9-2,1.4-3.4,1.4c-1.3,0-2.5-0.5-3.4-1.4c-0.9-0.9-1.4-2.1-1.4-3.5
			c0-1.4,0.5-2.5,1.4-3.5c0.9-0.9,2.1-1.4,3.4-1.4c0.7,0,1.3,0.1,1.9,0.4c0.6,0.3,1.1,0.6,1.5,1l-0.8,0.8c-0.6-0.7-1.5-1.1-2.6-1.1
			c-1,0-1.8,0.3-2.5,1c-0.7,0.7-1.1,1.6-1.1,2.7c0,1.1,0.4,2,1.1,2.7c0.7,0.7,1.6,1,2.5,1c1,0,1.9-0.3,2.6-1
			c0.5-0.5,0.7-1.1,0.8-1.9h-3.4v-1.1h4.5C98.7,44.5,98.8,44.7,98.8,44.9z"/>
		<path class="st1" d="M105.9,41h-4.3v3h3.8v1.1h-3.8v3h4.3v1.1h-5.4v-9.3h5.4V41z"/>
		<path class="st1" d="M111,49.2h-1.2V41h-2.6v-1.1h6.4V41H111V49.2z"/>
		<path class="st1" d="M118.2,49.2v-9.3h1.2v9.3H118.2z"/>
		<path class="st1" d="M124.8,49.2h-1.2V41h-2.6v-1.1h6.4V41h-2.6V49.2z"/>
		<path class="st1" d="M139.5,48c-0.9,0.9-2.1,1.4-3.4,1.4c-1.4,0-2.5-0.5-3.4-1.4c-0.9-0.9-1.4-2.1-1.4-3.5c0-1.4,0.5-2.5,1.4-3.5
			c0.9-0.9,2.1-1.4,3.4-1.4c1.4,0,2.5,0.5,3.4,1.4c0.9,0.9,1.4,2.1,1.4,3.5C140.9,45.9,140.4,47.1,139.5,48z M133.5,47.2
			c0.7,0.7,1.5,1,2.5,1s1.8-0.3,2.5-1c0.7-0.7,1-1.6,1-2.7c0-1.1-0.3-2-1-2.7c-0.7-0.7-1.5-1-2.5-1s-1.8,0.3-2.5,1
			c-0.7,0.7-1,1.6-1,2.7C132.5,45.6,132.9,46.5,133.5,47.2z"/>
		<path class="st1" d="M142.6,49.2v-9.3h1.5l4.5,7.3h0.1l-0.1-1.8v-5.5h1.2v9.3h-1.3l-4.7-7.6h-0.1l0.1,1.8v5.8H142.6z"/>
	</g>
	<path class="st2" d="M131,62.8c-3.7,0-6.6,2.8-6.6,6.6c0,3.8,3,6.6,6.6,6.6c3.7,0,6.6-2.8,6.6-6.6C137.6,65.6,134.6,62.8,131,62.8z
		 M131,73.5c-2,0-3.7-1.7-3.7-4c0-2.4,1.7-4,3.7-4s3.7,1.6,3.7,4C134.7,71.8,133,73.5,131,73.5z M116.5,62.8c-3.7,0-6.6,2.8-6.6,6.6
		c0,3.8,3,6.6,6.6,6.6c3.7,0,6.6-2.8,6.6-6.6C123.1,65.6,120.2,62.8,116.5,62.8z M116.5,73.5c-2,0-3.7-1.7-3.7-4c0-2.4,1.7-4,3.7-4
		c2,0,3.7,1.6,3.7,4C120.2,71.8,118.5,73.5,116.5,73.5z M99.3,64.9v2.8h6.7c-0.2,1.6-0.7,2.7-1.5,3.5c-1,1-2.5,2.1-5.2,2.1
		c-4.1,0-7.4-3.3-7.4-7.5c0-4.1,3.2-7.5,7.4-7.5c2.2,0,3.9,0.9,5.1,2l2-2c-1.7-1.6-3.9-2.8-7-2.8c-5.7,0-10.4,4.6-10.4,10.3
		c0,5.7,4.8,10.3,10.4,10.3c3.1,0,5.4-1,7.2-2.9c1.9-1.9,2.4-4.5,2.4-6.6c0-0.7-0.1-1.3-0.2-1.8H99.3z M169.7,67
		c-0.6-1.5-2.2-4.2-5.7-4.2c-3.4,0-6.2,2.7-6.2,6.6c0,3.7,2.8,6.6,6.6,6.6c3,0,4.8-1.9,5.5-2.9l-2.3-1.5c-0.8,1.1-1.8,1.8-3.3,1.8
		c-1.5,0-2.5-0.7-3.2-2l8.8-3.7L169.7,67z M160.7,69.3c-0.1-2.6,2-3.9,3.5-3.9c1.2,0,2.1,0.6,2.5,1.4L160.7,69.3z M153.5,75.7h2.9
		V56.2h-2.9V75.7z M148.8,64.3h-0.1c-0.7-0.8-1.9-1.5-3.5-1.5c-3.3,0-6.3,2.9-6.3,6.6c0,3.7,3,6.6,6.3,6.6c1.6,0,2.8-0.7,3.5-1.5
		h0.1v1c0,2.5-1.4,3.9-3.5,3.9c-1.8,0-2.9-1.3-3.3-2.4l-2.5,1.1c0.7,1.8,2.7,3.9,5.9,3.9c3.4,0,6.3-2,6.3-6.9V63.2h-2.8V64.3z
		 M145.4,73.5c-2,0-3.7-1.7-3.7-4c0-2.3,1.7-4,3.7-4c2,0,3.5,1.7,3.5,4C149,71.8,147.4,73.5,145.4,73.5z M183.4,56.2h-7v19.4h2.9
		v-7.4h4.1c3.2,0,6.4-2.3,6.4-6S186.6,56.2,183.4,56.2z M183.4,65.6h-4.1v-6.7h4.1c2.2,0,3.4,1.8,3.4,3.3
		C186.8,63.8,185.6,65.6,183.4,65.6z M201.4,62.8c-2.1,0-4.3,0.9-5.2,3l2.6,1.1c0.6-1.1,1.6-1.4,2.7-1.4c1.5,0,3,0.9,3.1,2.5v0.2
		c-0.5-0.3-1.7-0.8-3-0.8c-2.8,0-5.6,1.5-5.6,4.4c0,2.6,2.3,4.3,4.8,4.3c2,0,3-0.9,3.7-1.9h0.1v1.5h2.8v-7.5
		C207.3,64.7,204.7,62.8,201.4,62.8z M201,73.5c-1,0-2.3-0.5-2.3-1.7c0-1.5,1.7-2.1,3.1-2.1c1.3,0,1.9,0.3,2.7,0.7
		C204.3,72.2,202.7,73.5,201,73.5z M217.5,63.2l-3.3,8.4h-0.1l-3.5-8.4h-3.1l5.2,11.8l-3,6.6h3l8-18.3H217.5z M191.3,75.7h2.9V56.2
		h-2.9V75.7z"/>
	<g>
		
			<linearGradient id="SVGID_1_" gradientUnits="userSpaceOnUse" x1="58.9106" y1="1039.4515" x2="32.8047" y2="1013.3456" gradientTransform="matrix(1 0 0 -1 0 1082)">
			<stop  offset="0" style="stop-color:#00A0FF"/>
			<stop  offset="6.574450e-03" style="stop-color:#00A1FF"/>
			<stop  offset="0.2601" style="stop-color:#00BEFF"/>
			<stop  offset="0.5122" style="stop-color:#00D2FF"/>
			<stop  offset="0.7604" style="stop-color:#00DFFF"/>
			<stop  offset="1" style="stop-color:#00E3FF"/>
		</linearGradient>
		<path class="st3" d="M41.2,40.7c-0.5,0.5-0.7,1.2-0.7,2.2v34.4c0,1,0.3,1.7,0.7,2.2l0.1,0.1l19.3-19.3v-0.2v-0.2L41.3,40.6
			L41.2,40.7z"/>
		
			<linearGradient id="SVGID_2_" gradientUnits="userSpaceOnUse" x1="77.6312" y1="1021.8866" x2="39.9916" y2="1021.8866" gradientTransform="matrix(1 0 0 -1 0 1082)">
			<stop  offset="0" style="stop-color:#FFE000"/>
			<stop  offset="0.4087" style="stop-color:#FFBD00"/>
			<stop  offset="0.7754" style="stop-color:#FFA500"/>
			<stop  offset="1" style="stop-color:#FF9C00"/>
		</linearGradient>
		<path class="st4" d="M67,66.8l-6.4-6.4v-0.2v-0.2l6.4-6.4l0.1,0.1l7.6,4.3c2.2,1.2,2.2,3.3,0,4.5l-7.6,4.3L67,66.8z"/>
		
			<linearGradient id="SVGID_3_" gradientUnits="userSpaceOnUse" x1="63.6196" y1="1018.3171" x2="28.2179" y2="982.9154" gradientTransform="matrix(1 0 0 -1 0 1082)">
			<stop  offset="0" style="stop-color:#FF3A44"/>
			<stop  offset="1" style="stop-color:#C31162"/>
		</linearGradient>
		<path class="st5" d="M67.2,66.7l-6.6-6.6L41.2,79.5c0.7,0.8,1.9,0.9,3.2,0.1L67.2,66.7"/>
		
			<linearGradient id="SVGID_4_" gradientUnits="userSpaceOnUse" x1="36.3513" y1="1052.7258" x2="52.1597" y2="1036.9175" gradientTransform="matrix(1 0 0 -1 0 1082)">
			<stop  offset="0" style="stop-color:#32A071"/>
			<stop  offset="6.850000e-02" style="stop-color:#2DA771"/>
			<stop  offset="0.4762" style="stop-color:#15CF74"/>
			<stop  offset="0.8009" style="stop-color:#06E775"/>
			<stop  offset="1" style="stop-color:#00F076"/>
		</linearGradient>
		<path class="st6" d="M67.2,53.5L44.5,40.6c-1.3-0.8-2.5-0.7-3.2,0.1l19.4,19.4L67.2,53.5z"/>
		<g>
			<path class="st7" d="M67,66.5L44.5,79.4c-1.3,0.7-2.4,0.7-3.1,0l0,0l-0.1,0.1l0,0l0.1,0.1l0,0c0.7,0.7,1.9,0.7,3.1,0l22.7-12.9
				L67,66.5z"/>
			<path class="st8" d="M41.2,79.3c-0.5-0.5-0.7-1.2-0.7-2.2v0.2c0,1,0.3,1.7,0.7,2.2l0.1-0.1L41.2,79.3z"/>
		</g>
		<path class="st8" d="M74.8,62.1L67,66.5l0.1,0.1l7.6-4.3c1.1-0.6,1.6-1.4,1.6-2.2l0,0C76.3,60.8,75.8,61.6,74.8,62.1z"/>
		<path class="st9" d="M44.5,40.9l30.3,17.2c1,0.6,1.5,1.3,1.6,2l0,0c0-0.8-0.5-1.6-1.6-2.2L44.5,40.6c-2.2-1.2-4-0.2-4,2.3v0.2
			C40.5,40.6,42.3,39.6,44.5,40.9z"/>
	</g>
</g>
<g>
	<g>
		<g>
			<g>
				<path class="st10" d="M217.4,115.1H41.7c-0.6,0-1.3,0-1.9,0c-0.5,0-1.1,0-1.6,0c-1.2,0-2.3,0.1-3.5,0.3
					c-1.2,0.2-2.3,0.6-3.3,1.1c-1,0.5-2,1.2-2.8,2.1c-0.8,0.8-1.5,1.8-2.1,2.8c-0.5,1.1-0.9,2.2-1.1,3.3c-0.2,1.2-0.3,2.3-0.3,3.5
					c0,0.5,0,1.1,0,1.6c0,0.6,0,1.3,0,1.9v36.6c0,0.6,0,1.3,0,1.9c0,0.5,0,1.1,0,1.6c0,1.2,0.1,2.3,0.3,3.5c0.2,1.2,0.5,2.3,1.1,3.3
					c0.5,1,1.2,2,2.1,2.8c0.8,0.8,1.8,1.5,2.8,2.1c1.1,0.5,2.2,0.9,3.3,1.1c1.2,0.2,2.3,0.3,3.5,0.3c0.5,0,1.1,0,1.6,0
					c0.6,0,1.3,0,1.9,0h175.7c0.6,0,1.3,0,1.9,0c0.5,0,1.1,0,1.6,0c1.2,0,2.3-0.1,3.5-0.3c1.2-0.2,2.3-0.6,3.3-1.1
					c1-0.5,2-1.2,2.8-2.1c0.8-0.8,1.5-1.8,2.1-2.8c0.5-1.1,0.9-2.2,1.1-3.3c0.2-1.2,0.3-2.3,0.3-3.5c0-0.5,0-1.1,0-1.6
					c0-0.6,0-1.3,0-1.9v-36.6c0-0.6,0-1.3,0-1.9c0-0.5,0-1.1,0-1.6c0-1.2-0.1-2.3-0.3-3.5c-0.2-1.2-0.5-2.3-1.1-3.3
					c-0.5-1-1.2-2-2.1-2.8c-0.8-0.8-1.8-1.5-2.8-2.1c-1.1-0.5-2.2-0.9-3.3-1.1c-1.1-0.2-2.3-0.3-3.5-0.3c-0.5,0-1.1,0-1.6,0
					C218.6,115.1,218,115.1,217.4,115.1L217.4,115.1z"/>
				<path d="M39.7,183.4c-0.5,0-1.1,0-1.6,0c-1,0-2.1-0.1-3.3-0.3c-1.1-0.2-2-0.5-2.9-1c-0.9-0.5-1.7-1.1-2.4-1.8
					c-0.7-0.7-1.3-1.5-1.8-2.4c-0.5-0.9-0.8-1.8-0.9-2.9c-0.2-1.2-0.3-2.4-0.3-3.3c0-0.4,0-1.6,0-1.6v-40.3c0,0,0-1.2,0-1.6
					c0-0.9,0.1-2.1,0.3-3.3c0.2-1.1,0.5-2,0.9-2.9c0.5-0.9,1.1-1.7,1.8-2.4c0.7-0.7,1.5-1.3,2.4-1.8c0.9-0.5,1.8-0.8,2.9-1
					c1.2-0.2,2.4-0.3,3.3-0.3l1.6,0h179.5l1.6,0c0.9,0,2.1,0.1,3.2,0.3c1.1,0.2,2,0.5,2.9,1c0.9,0.5,1.7,1.1,2.4,1.8
					c0.7,0.7,1.3,1.5,1.8,2.5c0.5,0.9,0.8,1.8,0.9,2.9c0.2,1.1,0.3,2.2,0.3,3.3c0,0.5,0,1,0,1.6c0,0.7,0,1.3,0,1.9v36.6
					c0,0.6,0,1.3,0,1.9c0,0.6,0,1.1,0,1.6c0,1-0.1,2.2-0.3,3.2c-0.2,1.1-0.5,2-0.9,2.9c-0.5,0.9-1.1,1.7-1.8,2.4
					c-0.7,0.7-1.5,1.3-2.4,1.8c-0.9,0.5-1.8,0.8-2.9,1c-1.1,0.2-2.3,0.3-3.3,0.3c-0.5,0-1,0-1.6,0l-1.9,0L39.7,183.4z"/>
			</g>
		</g>
		<g id="XMLID_20_">
			<g id="XMLID_22_">
				<g id="XMLID_23_">
					<path id="XMLID_25_" class="st2" d="M68.3,150.5c0-4.8,3.9-7.1,4.1-7.3c-2.3-3.3-5.7-3.7-7-3.8c-2.9-0.3-5.8,1.8-7.3,1.8
						c-1.5,0-3.8-1.7-6.3-1.7c-3.2,0-6.2,1.9-7.8,4.8c-3.4,5.8-0.9,14.4,2.4,19.2c1.6,2.3,3.5,4.9,6,4.8c2.4-0.1,3.3-1.5,6.3-1.5
						c2.9,0,3.7,1.5,6.3,1.5c2.6,0,4.2-2.3,5.8-4.7c1.9-2.7,2.6-5.3,2.7-5.4C73.3,158.2,68.3,156.3,68.3,150.5z"/>
					<path id="XMLID_24_" class="st2" d="M63.5,136.4c1.3-1.6,2.2-3.8,1.9-6.1c-1.9,0.1-4.2,1.3-5.6,2.9c-1.2,1.4-2.3,3.7-2,5.9
						C60,139.2,62.1,138,63.5,136.4z"/>
				</g>
			</g>
			<g>
				<path class="st2" d="M98.9,162.5h-8.3l-2,5.9h-3.5l7.8-21.7h3.6l7.8,21.7h-3.6L98.9,162.5z M91.5,159.8H98l-3.2-9.5h-0.1
					L91.5,159.8z"/>
				<path class="st2" d="M121.3,160.4c0,4.9-2.6,8.1-6.6,8.1c-2.3,0-4-1-5-2.8h-0.1v7.8h-3.2v-21h3.1v2.6h0.1c0.9-1.7,2.8-2.8,5-2.8
					C118.7,152.4,121.3,155.5,121.3,160.4z M118,160.4c0-3.2-1.7-5.3-4.2-5.3c-2.5,0-4.1,2.1-4.1,5.3c0,3.2,1.7,5.3,4.1,5.3
					C116.3,165.7,118,163.7,118,160.4z"/>
				<path class="st2" d="M138.7,160.4c0,4.9-2.6,8.1-6.6,8.1c-2.3,0-4-1-5-2.8h-0.1v7.8h-3.2v-21h3.1v2.6h0.1c0.9-1.7,2.8-2.8,5-2.8
					C136.1,152.4,138.7,155.5,138.7,160.4z M135.4,160.4c0-3.2-1.7-5.3-4.2-5.3c-2.5,0-4.1,2.1-4.1,5.3c0,3.2,1.7,5.3,4.1,5.3
					C133.8,165.7,135.4,163.7,135.4,160.4z"/>
				<path class="st2" d="M150.2,162.3c0.2,2.2,2.3,3.6,5.2,3.6c2.7,0,4.7-1.4,4.7-3.4c0-1.7-1.2-2.7-4-3.4l-2.8-0.7
					c-4-1-5.8-2.8-5.8-5.8c0-3.7,3.3-6.3,7.9-6.3c4.6,0,7.7,2.6,7.8,6.3h-3.3c-0.2-2.2-2-3.5-4.6-3.5c-2.6,0-4.4,1.3-4.4,3.2
					c0,1.5,1.1,2.4,3.9,3.1l2.4,0.6c4.4,1.1,6.3,2.8,6.3,6c0,4.1-3.2,6.6-8.4,6.6c-4.8,0-8.1-2.5-8.3-6.4H150.2z"/>
				<path class="st2" d="M170.6,148.8v3.7h3v2.6h-3v8.7c0,1.4,0.6,2,1.9,2c0.3,0,0.9,0,1.1-0.1v2.6c-0.4,0.1-1.1,0.2-1.8,0.2
					c-3.2,0-4.4-1.2-4.4-4.3v-9.1H165v-2.6h2.3v-3.7H170.6z"/>
				<path class="st2" d="M175.3,160.4c0-5,2.9-8.1,7.5-8.1c4.6,0,7.5,3.1,7.5,8.1c0,5-2.9,8.1-7.5,8.1
					C178.2,168.5,175.3,165.4,175.3,160.4z M187,160.4c0-3.4-1.6-5.4-4.2-5.4s-4.2,2-4.2,5.4c0,3.4,1.6,5.4,4.2,5.4
					S187,163.9,187,160.4z"/>
				<path class="st2" d="M193,152.5h3.1v2.7h0.1c0.5-1.8,1.9-2.9,3.8-2.9c0.5,0,0.9,0.1,1.1,0.1v3c-0.3-0.1-0.8-0.2-1.5-0.2
					c-2.1,0-3.4,1.4-3.4,3.6v9.4H193V152.5z"/>
				<path class="st2" d="M216,163.7c-0.4,2.9-3.2,4.8-6.8,4.8c-4.6,0-7.5-3.1-7.5-8c0-5,2.9-8.2,7.3-8.2c4.4,0,7.1,3,7.1,7.8v1.1
					h-11.2v0.2c0,2.7,1.7,4.5,4.3,4.5c1.8,0,3.2-0.9,3.7-2.2H216z M205.1,159h7.9c-0.1-2.4-1.6-4-3.9-4
					C206.9,155,205.2,156.6,205.1,159z"/>
			</g>
		</g>
	</g>
	<g id="XMLID_1_">
		<g>
			<path class="st2" d="M91.1,130.3c3.1,0,4.9,1.9,4.9,5.2c0,3.3-1.8,5.2-4.9,5.2h-3.8v-10.4H91.1z M88.9,139.3h2
				c2.2,0,3.4-1.4,3.4-3.7c0-2.4-1.3-3.7-3.4-3.7h-2V139.3z"/>
			<path class="st2" d="M97.8,136.8c0-2.5,1.4-4.1,3.7-4.1c2.3,0,3.7,1.5,3.7,4.1c0,2.5-1.4,4.1-3.7,4.1
				C99.2,140.9,97.8,139.4,97.8,136.8z M103.6,136.8c0-1.7-0.8-2.7-2.1-2.7c-1.3,0-2.1,1-2.1,2.7c0,1.7,0.8,2.7,2.1,2.7
				C102.9,139.5,103.6,138.5,103.6,136.8z"/>
			<path class="st2" d="M115.1,140.7h-1.6l-1.6-5.8h-0.1l-1.6,5.8h-1.6l-2.2-7.9h1.6l1.4,6h0.1l1.6-6h1.5l1.6,6h0.1l1.4-6h1.6
				L115.1,140.7z"/>
			<path class="st2" d="M119.1,132.9h1.5v1.2h0.1c0.4-0.9,1.2-1.4,2.3-1.4c1.8,0,2.7,1.1,2.7,2.9v5.1h-1.6V136
				c0-1.3-0.5-1.9-1.7-1.9s-1.9,0.8-1.9,2v4.6h-1.6V132.9z"/>
			<path class="st2" d="M128.2,129.8h1.6v10.9h-1.6V129.8z"/>
			<path class="st2" d="M131.9,136.8c0-2.5,1.4-4.1,3.7-4.1c2.3,0,3.7,1.5,3.7,4.1c0,2.5-1.4,4.1-3.7,4.1
				C133.3,140.9,131.9,139.4,131.9,136.8z M137.7,136.8c0-1.7-0.8-2.7-2.1-2.7c-1.3,0-2.1,1-2.1,2.7c0,1.7,0.8,2.7,2.1,2.7
				C137,139.5,137.7,138.5,137.7,136.8z"/>
			<path class="st2" d="M141,138.5c0-1.4,1.1-2.2,2.9-2.3l2.1-0.1v-0.7c0-0.8-0.5-1.3-1.6-1.3c-0.9,0-1.5,0.3-1.6,0.9h-1.5
				c0.2-1.4,1.4-2.2,3.2-2.2c2,0,3.1,1,3.1,2.6v5.4h-1.5v-1.1H146c-0.5,0.8-1.3,1.2-2.4,1.2C142.1,140.9,141,140,141,138.5z
				 M146,137.8v-0.7l-1.9,0.1c-1.1,0.1-1.6,0.4-1.6,1.1c0,0.7,0.6,1.1,1.5,1.1C145.2,139.6,146,138.8,146,137.8z"/>
			<path class="st2" d="M149.6,136.8c0-2.5,1.3-4.1,3.3-4.1c1.1,0,2,0.5,2.4,1.4h0.1v-4.3h1.6v10.9h-1.5v-1.2h-0.1
				c-0.5,0.9-1.4,1.4-2.5,1.4C150.9,140.9,149.6,139.3,149.6,136.8z M151.2,136.8c0,1.7,0.8,2.7,2.1,2.7c1.3,0,2.1-1,2.1-2.7
				c0-1.6-0.8-2.7-2.1-2.7C152,134.1,151.2,135.1,151.2,136.8z"/>
			<path class="st2" d="M163.4,136.8c0-2.5,1.4-4.1,3.7-4.1c2.3,0,3.7,1.5,3.7,4.1c0,2.5-1.4,4.1-3.7,4.1
				C164.8,140.9,163.4,139.4,163.4,136.8z M169.2,136.8c0-1.7-0.8-2.7-2.1-2.7c-1.3,0-2.1,1-2.1,2.7c0,1.7,0.8,2.7,2.1,2.7
				C168.4,139.5,169.2,138.5,169.2,136.8z"/>
			<path class="st2" d="M172.9,132.9h1.5v1.2h0.1c0.4-0.9,1.2-1.4,2.3-1.4c1.8,0,2.7,1.1,2.7,2.9v5.1H178V136c0-1.3-0.5-1.9-1.7-1.9
				c-1.1,0-1.9,0.8-1.9,2v4.6h-1.6V132.9z"/>
			<path class="st2" d="M188.3,130.9v2h1.7v1.3h-1.7v4c0,0.8,0.3,1.2,1.1,1.2c0.2,0,0.4,0,0.6,0v1.3c-0.3,0-0.5,0.1-0.8,0.1
				c-1.7,0-2.4-0.6-2.4-2.1v-4.4h-1.2v-1.3h1.2v-2H188.3z"/>
			<path class="st2" d="M192.2,129.8h1.5v4.3h0.1c0.4-0.9,1.2-1.4,2.4-1.4c1.7,0,2.7,1.1,2.7,2.9v5.1h-1.6V136
				c0-1.3-0.6-1.9-1.7-1.9c-1.3,0-2,0.8-2,2v4.6h-1.6V129.8z"/>
			<path class="st2" d="M208,138.6c-0.4,1.4-1.6,2.3-3.4,2.3c-2.3,0-3.6-1.5-3.6-4.1c0-2.5,1.4-4.1,3.6-4.1c2.2,0,3.5,1.5,3.5,4v0.5
				h-5.6v0.1c0.1,1.4,0.9,2.3,2.1,2.3c0.9,0,1.6-0.3,1.9-1H208z M202.5,136.1h4c0-1.2-0.8-2-1.9-2
				C203.4,134,202.6,134.9,202.5,136.1z"/>
		</g>
	</g>
</g>
<path id="Twitter" d="M61.9,239.3c-1.5,0.9-3.1,1.6-4.9,1.9c-1.4-1.5-3.4-2.5-5.6-2.5c-4.2,0-7.7,3.5-7.7,7.9c0,0.6,0.1,1.2,0.2,1.8
	c-6.4-0.3-12-3.5-15.8-8.2c-0.7,1.2-1,2.5-1,4c0,2.7,1.4,5.1,3.4,6.6c-1.3,0-2.4-0.4-3.5-1v0.1c0,3.8,2.6,7,6.2,7.7
	c-0.6,0.2-1.3,0.3-2,0.3c-0.5,0-1,0-1.4-0.1c1,3.1,3.8,5.4,7.2,5.5c-2.6,2.1-5.9,3.4-9.5,3.4c-0.6,0-1.2,0-1.8-0.1
	c3.4,2.2,7.4,3.5,11.8,3.5c14.1,0,21.9-12,21.9-22.4c0-0.3,0-0.7,0-1c1.5-1.1,2.8-2.5,3.8-4.1c-1.4,0.6-2.9,1.1-4.4,1.2
	C60.1,242.7,61.3,241.2,61.9,239.3z"/>
<path id="Instagram" d="M112.1,239.1H84.1c-2.4,0-4.4,1.9-4.4,4.3v28c0,2.4,2,4.3,4.4,4.3h27.9c2.4,0,4.4-1.9,4.4-4.3v-28
	C116.4,241.1,114.5,239.1,112.1,239.1z M106.1,244.9c0-0.6,0.5-1.1,1.1-1.1h3.4c0.6,0,1.1,0.5,1.1,1.1v3.4c0,0.6-0.5,1.1-1.1,1.1
	h-3.4c-0.6,0-1.1-0.5-1.1-1.1V244.9z M98.1,250.5c3.9,0,7.1,3.1,7.1,7c0,3.9-3.2,7-7.1,7c-3.9,0-7-3.1-7-7
	C91.1,253.6,94.2,250.5,98.1,250.5z M113,271.2c0,0.6-0.5,1.1-1.1,1.1H84.3c-0.6,0-1.1-0.5-1.1-1.1V254h4.6
	c-0.6,0.9-0.8,2.5-0.8,3.5c0,6.1,5,11.1,11.2,11.1c6.2,0,11.2-5,11.2-11.1c0-1-0.1-2.6-0.9-3.5h4.6V271.2z"/>
<path d="M147.9,276v-16.9h5.7l0.8-6.6h-6.5v-4.2c0-1.9,0.5-3.2,3.3-3.2l3.5,0v-5.9c-0.6-0.1-2.7-0.3-5.1-0.3c-5,0-8.5,3.1-8.5,8.7
	v4.9h-5.7v6.6h5.7V276L147.9,276L147.9,276z"/>
<path d="M174.9,257.5c0.1-5.3,2-9.6,5.6-13.2c3.6-3.5,7.9-5.3,12.9-5.4c5.4,0.1,9.8,1.9,13.3,5.5c3.4,3.6,5.2,7.9,5.2,13
	c-0.1,5.2-2,9.6-5.6,13.1c-3.6,3.5-7.9,5.3-12.9,5.4c-1.7,0-3.5-0.3-5.2-0.8c0.3-0.5,0.7-1.1,1-1.8c0.4-0.8,0.9-2.4,1.4-4.6
	c0.1-0.6,0.4-1.5,0.7-2.5c0.3,0.6,0.9,1.1,1.7,1.6c2.2,1,4.5,0.9,6.9-0.3c2.5-1.4,4.2-3.7,5.2-6.7c0.9-3.2,0.8-6.1-0.3-8.9
	c-1.1-2.7-3-4.7-5.8-5.9c-3.5-1-6.9-0.9-10.3,0.3c-3.3,1.2-5.6,3.3-6.9,6.3c-0.3,1.1-0.5,2.2-0.6,3.3s0,2.1,0.1,3.2
	c0.1,1,0.5,2,1.1,2.8s1.4,1.4,2.3,1.9c0.2,0.1,0.4,0.1,0.6,0c0.2-0.1,0.4-0.5,0.6-1.2c0.2-0.7,0.3-1.1,0.2-1.4
	c0-0.1-0.1-0.3-0.3-0.5c-1-1.6-1.4-3.4-1-5.2c0.3-1.8,1.1-3.3,2.2-4.6c1.8-1.6,3.9-2.5,6.2-2.6s4.4,0.5,6.1,2
	c0.9,1.1,1.5,2.3,1.8,3.8c0.3,1.5,0.3,2.9,0,4.3c-0.3,1.4-0.7,2.7-1.4,3.9c-1.2,1.9-2.6,2.8-4.3,2.9c-1,0-1.7-0.4-2.3-1.1
	c-0.6-0.7-0.8-1.5-0.5-2.4c0.1-0.5,0.4-1.6,0.9-3.1s0.7-2.7,0.8-3.5c-0.1-1.8-1-2.8-2.5-2.8c-1.2,0.1-2.1,0.7-2.7,1.6
	c-0.6,0.9-0.9,2-0.9,3.2c0.1,1.4,0.4,2.4,0.7,2.9c-0.5,2.2-0.9,3.9-1.2,5.2c-0.1,0.3-0.4,1.4-0.8,3.1s-0.7,3.1-0.7,4v2
	c-3.4-1.6-6.1-3.9-8.1-6.9C175.9,264.5,174.9,261.2,174.9,257.5z"/>
<path d="M255.5,276l-11-0.2c-3.6-0.1-7.1,0.1-10.6-0.7c-5.3-1.1-5.7-6.4-6.1-10.8c-0.5-6.3-0.3-12.6,0.7-18.8
	c0.6-3.5,2.8-5.6,6.4-5.8c11.8-0.8,23.8-0.7,35.6-0.3c1.2,0,2.5,0.2,3.7,0.4c6.1,1.1,6.2,7.1,6.6,12.1c0.4,5.1,0.2,10.3-0.5,15.3
	c-0.6,4.2-1.8,7.7-6.6,8.1C267.6,275.7,261.6,276.1,255.5,276C255.5,276,255.5,276,255.5,276z M249,265.3c4.6-2.6,9.1-5.2,13.7-7.8
	c-4.6-2.6-9.1-5.2-13.7-7.8V265.3z"/>
<g>
	<g>
		<path class="st2" d="M42.1,322.1c11.2,0,20.4,9.1,20.4,20.4c0,11.2-9.1,20.4-20.4,20.4s-20.4-9.1-20.4-20.4
			C21.7,331.3,30.9,322.1,42.1,322.1 M42.1,321c-11.9,0-21.5,9.6-21.5,21.5c0,11.9,9.6,21.5,21.5,21.5s21.5-9.6,21.5-21.5
			C63.6,330.6,54,321,42.1,321L42.1,321z"/>
		<g>
			<path id="XMLID_172_" class="st2" d="M41.9,339.4l-2.9,0.7c-0.1-0.3-0.3-0.6-0.6-0.8c-0.3-0.2-0.7-0.3-1.1-0.3
				c-0.7,0-1.1,0.3-1.1,0.8c0,0.2,0.1,0.3,0.2,0.4c0.1,0.1,0.4,0.3,0.9,0.4l1.8,0.7c0.5,0.2,0.9,0.4,1.3,0.7s0.7,0.7,0.9,1.1
				c0.2,0.4,0.3,0.8,0.3,1.2c0,1.2-0.5,2.1-1.4,2.9c-0.9,0.8-2.1,1.1-3.6,1.1c-1.3,0-2.4-0.3-3.4-0.8s-1.6-1.3-2-2.4l3.3-0.6
				c0.3,0.8,1,1.2,2.1,1.2c0.5,0,0.8-0.1,1-0.3c0.2-0.2,0.3-0.4,0.3-0.6c0-0.1,0-0.3-0.1-0.4c-0.1-0.1-0.2-0.2-0.3-0.2
				c-0.1,0-0.5-0.2-1.3-0.5c-1-0.4-1.8-0.7-2.2-0.9c-0.4-0.2-0.8-0.6-1.1-1c-0.3-0.4-0.4-1-0.4-1.6c0-1,0.4-1.9,1.2-2.6
				c0.8-0.7,1.9-1.1,3.5-1.1c1.2,0,2.2,0.3,3.1,0.8C41.1,337.9,41.7,338.6,41.9,339.4z"/>
			<path id="XMLID_169_" class="st2" d="M42.2,348.1l1.8-11.1h3.7c0.9,0,1.6,0.1,2.2,0.2c0.6,0.1,1.1,0.4,1.6,0.8
				c0.5,0.4,0.9,1,1.2,1.7c0.3,0.7,0.4,1.4,0.4,2.3c0,1.1-0.2,2.1-0.6,3c-0.4,0.9-0.9,1.6-1.6,2.1c-0.7,0.5-1.3,0.8-2,0.9
				c-0.6,0.1-1.5,0.2-2.7,0.2H42.2z M45.9,345.6h0.7c0.8,0,1.4-0.1,1.7-0.3c0.4-0.2,0.7-0.6,1-1.2c0.3-0.6,0.4-1.3,0.4-2.2
				c0-1.6-0.6-2.5-1.9-2.5h-1L45.9,345.6z"/>
		</g>
	</g>
</g>
<g>
	<g>
		<g>
			<path id="XMLID_56_" class="st2" d="M111.8,339.7l-2.9,0.7c-0.1-0.3-0.3-0.6-0.6-0.8c-0.3-0.2-0.7-0.3-1.1-0.3
				c-0.7,0-1.1,0.3-1.1,0.7c0,0.2,0.1,0.3,0.2,0.4c0.1,0.1,0.4,0.3,0.9,0.4l1.8,0.7c0.5,0.2,0.9,0.4,1.3,0.7s0.7,0.7,0.9,1.1
				c0.2,0.4,0.3,0.8,0.3,1.2c0,1.1-0.4,2.1-1.3,2.8c-0.9,0.7-2.1,1.1-3.6,1.1c-1.3,0-2.4-0.3-3.4-0.8c-1-0.5-1.6-1.3-2-2.4l3.3-0.6
				c0.3,0.8,1,1.2,2.1,1.2c0.5,0,0.8-0.1,1-0.3c0.2-0.2,0.3-0.4,0.3-0.6c0-0.1,0-0.3-0.1-0.4c-0.1-0.1-0.2-0.2-0.3-0.2
				c-0.1,0-0.5-0.2-1.3-0.5c-1-0.4-1.8-0.7-2.2-0.9c-0.4-0.2-0.8-0.6-1-1c-0.3-0.4-0.4-1-0.4-1.6c0-1,0.4-1.9,1.1-2.6
				c0.8-0.7,1.9-1.1,3.5-1.1c1.2,0,2.2,0.3,3.1,0.8C111,338.1,111.5,338.8,111.8,339.7z"/>
			<path id="XMLID_53_" class="st2" d="M112.1,348.2l1.8-11h3.7c0.9,0,1.6,0.1,2.2,0.2c0.6,0.1,1.1,0.4,1.6,0.8
				c0.5,0.4,0.9,1,1.2,1.6c0.3,0.7,0.4,1.4,0.4,2.3c0,1.1-0.2,2.1-0.6,2.9c-0.4,0.9-0.9,1.6-1.6,2.1c-0.7,0.5-1.3,0.8-1.9,0.9
				c-0.6,0.1-1.5,0.2-2.7,0.2H112.1z M115.8,345.8h0.7c0.8,0,1.4-0.1,1.7-0.3c0.4-0.2,0.7-0.6,1-1.2c0.3-0.6,0.4-1.3,0.4-2.2
				c0-1.6-0.6-2.4-1.8-2.4h-0.9L115.8,345.8z"/>
		</g>
		<path class="st2" d="M123.6,322.6l11.6,20.2l-11.6,20.2h-23.3l-11.6-20.2l11.6-20.2H123.6 M124.3,321.5H99.7l-12.3,21.3L99.7,364
			h24.6l12.3-21.3L124.3,321.5L124.3,321.5z"/>
	</g>
	<g>
		<path class="st2" d="M73.8,375h-3.7l0.3-2.1h10.2l-0.3,2.1h-3.7l-1.1,6.9h-2.8L73.8,375z"/>
		<path class="st2" d="M83.4,381.8h-2.7l1.4-9h7.1c2.6,0,3.4,1,3.4,2.2c0,1.4-1.2,2-2,2.2c0.8,0.3,1.5,0.8,1.4,2l-0.2,1.5
			c-0.1,0.6,0,0.9,0,1l0,0.1H89c0-0.1-0.1-0.2,0-0.6l0.2-1c0.2-1-0.2-1.6-1.6-1.6h-3.5L83.4,381.8z M88.4,376.7c0.9,0,1.3-0.5,1.3-1
			c0-0.5-0.3-0.8-1-0.8h-4.1l-0.3,1.8H88.4z"/>
		<path class="st2" d="M101.6,380.2h-5.3l-1,1.6h-2.8l5.7-9h3.5l3.4,9h-2.8L101.6,380.2z M99.6,374.8l-2.1,3.4h3.3L99.6,374.8z"/>
		<path class="st2" d="M108.7,381.8h-2.7l1.4-9h2.7L108.7,381.8z"/>
		<path class="st2" d="M115,372.9l4.6,5.8l0.9-5.8h2.7l-1.4,9H119l-4.9-6.1l-1,6.1h-2.7l1.4-9H115z"/>
		<path class="st2" d="M126.3,381.8h-2.7l1.4-9h2.7L126.3,381.8z"/>
		<path class="st2" d="M132.6,372.9l4.6,5.8l0.9-5.8h2.7l-1.4,9h-2.7l-4.9-6.1l-1,6.1h-2.7l1.4-9H132.6z"/>
		<path class="st2" d="M146.9,382c-4.3,0-5.5-2.3-5.5-4.1c0-0.3,0-0.5,0.1-0.9c0.2-1.7,1.4-4.3,6.4-4.3h0.4c4.9,0,5.6,2.2,5.6,3.4
			H151c0-0.2-0.2-1.3-2.9-1.3c-2.6,0-3.5,1.2-3.6,2.3c0,0.2,0,0.3,0,0.5c0,1.2,0.8,2.2,3,2.2c2.5,0,3.5-1,3.5-1.3h-3.5l0.3-1.7h6.1
			l-0.8,5h-1.6c0-0.3,0-1-0.1-1.4c-0.4,0.5-1.6,1.6-4.1,1.6H146.9z"/>
	</g>
</g>
<g>
	<g>
		<path class="st2" d="M210,324.4c10,0,18.2,8.2,18.2,18.2c0,10-8.2,18.2-18.2,18.2s-18.2-8.2-18.2-18.2
			C191.8,332.6,200,324.4,210,324.4 M210,323.4c-10.6,0-19.2,8.6-19.2,19.2c0,10.6,8.6,19.2,19.2,19.2s19.2-8.6,19.2-19.2
			C229.2,332,220.6,323.4,210,323.4L210,323.4z"/>
		<g>
			<path id="XMLID_68_" class="st2" d="M209.8,339.9l-2.6,0.7c-0.1-0.3-0.3-0.5-0.6-0.7s-0.6-0.3-1-0.3c-0.7,0-1,0.2-1,0.7
				c0,0.1,0,0.3,0.1,0.4c0.1,0.1,0.4,0.2,0.8,0.4l1.6,0.6c0.4,0.2,0.8,0.4,1.2,0.7c0.4,0.3,0.6,0.6,0.8,1c0.2,0.3,0.2,0.7,0.2,1.1
				c0,1-0.4,1.9-1.2,2.6c-0.8,0.7-1.9,1-3.2,1c-1.2,0-2.2-0.2-3-0.7c-0.9-0.5-1.5-1.2-1.8-2.2l2.9-0.6c0.3,0.7,0.9,1.1,1.9,1.1
				c0.4,0,0.7-0.1,0.9-0.2c0.2-0.2,0.3-0.3,0.3-0.5c0-0.1,0-0.2-0.1-0.3c-0.1-0.1-0.1-0.2-0.2-0.2c-0.1,0-0.5-0.2-1.2-0.5
				c-0.9-0.4-1.6-0.6-2-0.8c-0.4-0.2-0.7-0.5-0.9-0.9c-0.3-0.4-0.4-0.9-0.4-1.4c0-0.9,0.3-1.7,1-2.4c0.7-0.6,1.7-1,3.1-1
				c1.1,0,2,0.2,2.8,0.7C209.1,338.5,209.6,339.1,209.8,339.9z"/>
			<path id="XMLID_65_" class="st2" d="M210.1,347.6l1.7-10h3.3c0.8,0,1.5,0.1,1.9,0.2c0.5,0.1,1,0.4,1.4,0.8
				c0.5,0.4,0.8,0.9,1.1,1.5c0.2,0.6,0.4,1.3,0.4,2c0,1-0.2,1.9-0.5,2.6c-0.4,0.8-0.8,1.4-1.4,1.9c-0.6,0.5-1.2,0.7-1.8,0.8
				c-0.6,0.1-1.4,0.2-2.4,0.2H210.1z M213.4,345.4h0.7c0.7,0,1.2-0.1,1.6-0.3c0.3-0.2,0.6-0.6,0.9-1.1c0.2-0.5,0.4-1.2,0.4-2
				c0-1.5-0.6-2.2-1.7-2.2h-0.9L213.4,345.4z"/>
		</g>
		<path class="st2" d="M210,326.5c8.9,0,16.1,7.2,16.1,16.1c0,8.9-7.2,16.1-16.1,16.1s-16.1-7.2-16.1-16.1
			C193.9,333.7,201.1,326.5,210,326.5 M210,325.5c-9.5,0-17.1,7.7-17.1,17.1c0,9.5,7.7,17.1,17.1,17.1s17.1-7.7,17.1-17.1
			C227.1,333.1,219.5,325.5,210,325.5L210,325.5z"/>
		<path class="st2" d="M210,322.1c11.3,0,20.5,9.2,20.5,20.5s-9.2,20.5-20.5,20.5s-20.5-9.2-20.5-20.5S198.7,322.1,210,322.1
			 M210,321.1c-11.9,0-21.5,9.6-21.5,21.5c0,11.9,9.6,21.5,21.5,21.5s21.5-9.6,21.5-21.5C231.5,330.7,221.9,321.1,210,321.1
			L210,321.1z"/>
	</g>
	<g>
		<path class="st2" d="M171.9,381.2h-2.7l1.4-9h7.1c2.6,0,3.4,1,3.4,2.2c0,1.4-1.2,2-2,2.2c0.8,0.3,1.5,0.8,1.4,2l-0.2,1.5
			c-0.1,0.6,0,0.9,0,1l0,0.1h-2.8c0-0.1-0.1-0.2,0-0.6l0.2-1c0.2-1-0.2-1.6-1.6-1.6h-3.5L171.9,381.2z M176.9,376.1
			c0.9,0,1.3-0.5,1.3-1c0-0.5-0.3-0.8-1-0.8H173l-0.3,1.8H176.9z"/>
		<path class="st2" d="M187.3,381.4c-4.6,0-5.4-3-5.1-4.8l0.7-4.3h2.8l-0.7,4.1c-0.2,1.2,0.2,2.7,2.6,2.7c2.3,0,2.9-1.5,3.1-2.6
			l0.7-4.2h2.8l-0.7,4.3c-0.3,1.9-1.3,4.8-5.6,4.8H187.3z"/>
		<path class="st2" d="M198.8,372.3l4.6,5.8l0.9-5.8h2.7l-1.4,9h-2.7l-4.9-6.1l-1,6.1h-2.7l1.4-9H198.8z"/>
		<path class="st2" d="M211.9,372.3l4.6,5.8l0.9-5.8h2.7l-1.4,9H216l-4.9-6.1l-1,6.1h-2.7l1.4-9H211.9z"/>
		<path class="st2" d="M223.2,381.2h-2.7l1.4-9h2.7L223.2,381.2z"/>
		<path class="st2" d="M229.5,372.3l4.6,5.8l0.9-5.8h2.7l-1.4,9h-2.7l-4.9-6.1l-1,6.1h-2.7l1.4-9H229.5z"/>
		<path class="st2" d="M243.9,381.4c-4.3,0-5.5-2.3-5.5-4.1c0-0.3,0-0.5,0.1-0.9c0.2-1.7,1.4-4.3,6.4-4.3h0.4c4.9,0,5.6,2.2,5.6,3.4
			h-2.9c0-0.2-0.2-1.3-2.9-1.3c-2.6,0-3.5,1.2-3.6,2.3c0,0.2,0,0.3,0,0.5c0,1.2,0.8,2.2,3,2.2c2.5,0,3.5-1,3.5-1.3h-3.5l0.3-1.7h6.1
			l-0.8,5h-1.6c0-0.3,0-1-0.1-1.4c-0.4,0.5-1.6,1.6-4.1,1.6H243.9z"/>
	</g>
</g>
<g>
	<g>
		<g>
			<path id="XMLID_72_" class="st2" d="M312.8,339.9l-2.9,0.7c-0.1-0.3-0.3-0.6-0.6-0.8s-0.7-0.3-1.1-0.3c-0.7,0-1.1,0.3-1.1,0.8
				c0,0.2,0.1,0.3,0.2,0.4c0.1,0.1,0.4,0.3,0.9,0.4l1.8,0.7c0.5,0.2,0.9,0.4,1.3,0.7c0.4,0.3,0.7,0.7,0.9,1.1
				c0.2,0.4,0.3,0.8,0.3,1.2c0,1.2-0.5,2.1-1.4,2.9c-0.9,0.8-2.1,1.1-3.6,1.1c-1.3,0-2.4-0.3-3.4-0.8c-1-0.5-1.6-1.3-2-2.4l3.3-0.6
				c0.3,0.8,1,1.2,2.1,1.2c0.5,0,0.8-0.1,1-0.3c0.2-0.2,0.3-0.4,0.3-0.6c0-0.1,0-0.3-0.1-0.4c-0.1-0.1-0.2-0.2-0.3-0.2
				c-0.1,0-0.5-0.2-1.3-0.5c-1-0.4-1.8-0.7-2.2-0.9c-0.4-0.2-0.8-0.6-1.1-1c-0.3-0.4-0.4-1-0.4-1.6c0-1,0.4-1.9,1.2-2.6
				c0.8-0.7,1.9-1.1,3.5-1.1c1.2,0,2.2,0.3,3.1,0.8C312,338.3,312.5,339,312.8,339.9z"/>
			<path id="XMLID_69_" class="st2" d="M313.1,348.5l1.8-11.1h3.7c0.9,0,1.6,0.1,2.2,0.2c0.6,0.1,1.1,0.4,1.6,0.8
				c0.5,0.4,0.9,1,1.2,1.7c0.3,0.7,0.4,1.4,0.4,2.3c0,1.1-0.2,2.1-0.6,3c-0.4,0.9-0.9,1.6-1.6,2.1c-0.7,0.5-1.3,0.8-2,0.9
				c-0.6,0.1-1.5,0.2-2.7,0.2H313.1z M316.8,346h0.7c0.8,0,1.4-0.1,1.7-0.3c0.4-0.2,0.7-0.6,1-1.2c0.3-0.6,0.4-1.3,0.4-2.2
				c0-1.6-0.6-2.5-1.9-2.5h-1L316.8,346z"/>
		</g>
		<path class="st2" d="M313,321.4c-11.9,0-21.5,9.6-21.5,21.5s9.6,21.5,21.5,21.5s21.5-9.6,21.5-21.5S324.9,321.4,313,321.4z
			 M319.4,362.3v-8.4h-12.9v8.4c-8.1-2.7-14-10.4-14-19.3c0-9,5.9-16.6,14-19.3v8.4h12.9v-8.4c8.1,2.7,14,10.4,14,19.3
			C333.4,351.9,327.5,359.6,319.4,362.3z"/>
	</g>
	<g>
		<path class="st2" d="M276.7,372.7l-0.3,2h-6.3l-0.2,1.3h6.1l-0.3,2.1h-6.1l-0.6,3.6h-2.7l1.4-9H276.7z"/>
		<path class="st2" d="M283.1,381.9c-4.9,0-5.9-2.4-5.9-4c0-0.3,0-0.6,0.1-1c0.2-1.5,1-4.3,6.5-4.3h0.5c4.8,0,5.9,2.3,5.9,3.9
			c0,0.3,0,0.6-0.1,1c-0.2,1.5-1,4.4-6.5,4.4H283.1z M283.9,374.8c-3,0-3.7,1.3-3.8,2.4c0,0.2,0,0.3,0,0.4c0,1,0.6,2.2,3.3,2.2
			c3,0,3.6-1.3,3.8-2.4c0-0.2,0-0.3,0-0.5C287.2,375.8,286.6,374.8,283.9,374.8z"/>
		<path class="st2" d="M297,381.9c-4.9,0-5.9-2.4-5.9-4c0-0.3,0-0.6,0.1-1c0.2-1.5,1-4.3,6.5-4.3h0.5c4.8,0,5.9,2.3,5.9,3.9
			c0,0.3,0,0.6-0.1,1c-0.2,1.5-1,4.4-6.5,4.4H297z M297.8,374.8c-3,0-3.7,1.3-3.8,2.4c0,0.2,0,0.3,0,0.4c0,1,0.6,2.2,3.3,2.2
			c3,0,3.6-1.3,3.8-2.4c0-0.2,0-0.3,0-0.5C301.2,375.8,300.5,374.8,297.8,374.8z"/>
		<path class="st2" d="M308.5,374.9h-3.7l0.3-2.1h10.2l-0.3,2.1h-3.7l-1.1,6.9h-2.8L308.5,374.9z"/>
		<path class="st2" d="M316.8,372.7h7.4c2.3,0,3,0.9,3,2c0,1.2-1.1,1.8-1.7,1.9c0.5,0.2,1.6,0.7,1.6,2.1c0,1.7-1,3-3.9,3h-7.7
			L316.8,372.7z M322.9,379.8c1,0,1.2-0.6,1.2-1c0-0.4-0.2-0.8-1-0.8h-4.5l-0.3,1.8H322.9z M323.3,376.1c0.8,0,1.1-0.4,1.1-0.8
			c0-0.3-0.2-0.7-0.9-0.7h-4.2l-0.2,1.5H323.3z"/>
		<path class="st2" d="M336.1,380.1h-5.3l-1,1.6H327l5.7-9h3.5l3.4,9h-2.8L336.1,380.1z M334.1,374.7l-2.1,3.4h3.3L334.1,374.7z"/>
		<path class="st2" d="M344.6,372.7l-1.1,6.7h6l-0.3,2.2h-8.7l1.4-9H344.6z"/>
		<path class="st2" d="M354.8,372.7l-1.1,6.7h6l-0.3,2.2h-8.7l1.4-9H354.8z"/>
	</g>
</g>
</svg>
