<?xml version="1.0" encoding="utf-8"?>
<!-- Generator: Adobe Illustrator 21.1.0, SVG Export Plug-In . SVG Version: 6.00 Build 0)  -->
<svg version="1.1" id="Layer_1" xmlns="http://www.w3.org/2000/svg" xmlns:xlink="http://www.w3.org/1999/xlink" x="0px" y="0px"
	 viewBox="0 0 265.7 296" style="enable-background:new 0 0 265.7 296;" xml:space="preserve">
<style type="text/css">
	.st0{display:none;fill:#878787;}
	.st1{fill:#B2B1B1;}
	.st2{fill:#777775;}
	.st3{font-family:'Lato-Regular';}
	.st4{font-size:22.88px;}
	.st5{fill:#555353;}
	.st6{fill:#60AA43;}
	.st7{fill:#FFFFFF;stroke:#A1A09F;stroke-miterlimit:10;}
	.st8{fill:#A1A09F;}
	.st9{fill:none;stroke:#A1A09F;stroke-miterlimit:10;}
	.st10{fill:#5D5C5C;}
	.st11{clip-path:url(#SVGID_2_);fill:#D7D7D7;}
	.st12{clip-path:url(#SVGID_4_);fill:#D7D7D7;}
	.st13{clip-path:url(#SVGID_6_);fill:#D7D7D7;}
	.st14{clip-path:url(#SVGID_8_);fill:#D7D7D7;}
	.st15{clip-path:url(#SVGID_10_);fill:#D7D7D7;}
	.st16{clip-path:url(#SVGID_12_);fill:#D7D7D7;}
	.st17{clip-path:url(#SVGID_14_);fill:#D7D7D7;}
	.st18{clip-path:url(#SVGID_16_);fill:#D7D7D7;}
	.st19{clip-path:url(#SVGID_18_);fill:#5D5C5C;}
	.st20{fill:#D7D8D7;}
	.st21{clip-path:url(#SVGID_20_);fill:#D7D7D7;}
	.st22{clip-path:url(#SVGID_22_);fill:#D7D7D7;}
	.st23{clip-path:url(#SVGID_24_);fill:#D7D7D7;}
	.st24{clip-path:url(#SVGID_26_);fill:#D7D7D7;}
	.st25{clip-path:url(#SVGID_28_);fill:#D7D7D7;}
	.st26{clip-path:url(#SVGID_30_);fill:#D7D7D7;}
	.st27{clip-path:url(#SVGID_32_);fill:#D7D7D7;}
	.st28{clip-path:url(#SVGID_34_);fill:#D7D7D7;}
	.st29{clip-path:url(#SVGID_36_);fill:#5D5C5C;}
	.st30{clip-path:url(#SVGID_38_);fill:#D7D7D7;}
	.st31{clip-path:url(#SVGID_40_);fill:#D7D7D7;}
	.st32{clip-path:url(#SVGID_42_);fill:#D7D7D7;}
	.st33{clip-path:url(#SVGID_44_);fill:#D7D7D7;}
	.st34{clip-path:url(#SVGID_46_);fill:#D7D7D7;}
	.st35{clip-path:url(#SVGID_48_);fill:#D7D7D7;}
	.st36{clip-path:url(#SVGID_50_);fill:#D7D7D7;}
	.st37{clip-path:url(#SVGID_52_);fill:#D7D7D7;}
	.st38{clip-path:url(#SVGID_54_);fill:#5D5C5C;}
	.st39{clip-path:url(#SVGID_56_);fill:#D7D7D7;}
	.st40{clip-path:url(#SVGID_58_);fill:#D7D7D7;}
	.st41{clip-path:url(#SVGID_60_);fill:#D7D7D7;}
	.st42{clip-path:url(#SVGID_62_);fill:#D7D7D7;}
	.st43{clip-path:url(#SVGID_64_);fill:#D7D7D7;}
	.st44{clip-path:url(#SVGID_66_);fill:#D7D7D7;}
	.st45{clip-path:url(#SVGID_68_);fill:#D7D7D7;}
	.st46{clip-path:url(#SVGID_70_);fill:#D7D7D7;}
	.st47{clip-path:url(#SVGID_72_);fill:#5D5C5C;}
	.st48{clip-path:url(#SVGID_74_);fill:#D7D7D7;}
	.st49{clip-path:url(#SVGID_76_);fill:#D7D7D7;}
	.st50{clip-path:url(#SVGID_78_);fill:#D7D7D7;}
	.st51{clip-path:url(#SVGID_80_);fill:#D7D7D7;}
	.st52{clip-path:url(#SVGID_82_);fill:#D7D7D7;}
	.st53{clip-path:url(#SVGID_84_);fill:#D7D7D7;}
	.st54{clip-path:url(#SVGID_86_);fill:#D7D7D7;}
	.st55{clip-path:url(#SVGID_88_);fill:#D7D7D7;}
	.st56{clip-path:url(#SVGID_90_);fill:#5D5C5C;}
	.st57{fill:#FFFFFF;stroke:#FFFFFF;stroke-width:0.75;stroke-miterlimit:10;}
	.st58{fill:none;stroke:#5D5C5C;stroke-miterlimit:10;}
	.st59{fill:none;stroke:#090A0A;stroke-width:0.25;stroke-miterlimit:10;}
	.st60{fill:#27599E;}
	.st61{fill:none;stroke:#0A4F9D;stroke-miterlimit:10;}
	.st62{fill:#0A4F9D;}
	.st63{fill:none;stroke:#555353;stroke-width:1.75;stroke-miterlimit:10;}
	.st64{fill:#FFFFFF;}
	.st65{fill:#70B854;}
	.st66{fill:#1E1E1E;}
	.st67{fill:#45484A;}
	.st68{fill:none;stroke:#45484A;stroke-miterlimit:10;}
</style>
<rect x="-57.5" y="-28.5" class="st0" width="372" height="354.5"/>
<g>
	<rect x="16.9" y="25.2" class="st1" width="4.7" height="5.3"/>
	<rect x="23.6" y="25.2" class="st1" width="14.8" height="5.3"/>
	<rect x="16.9" y="33.2" class="st1" width="4.7" height="5.3"/>
	<rect x="23.6" y="33.2" class="st1" width="14.8" height="5.3"/>
	<rect x="16.9" y="41" class="st1" width="4.7" height="5.3"/>
	<rect x="23.6" y="41" class="st1" width="14.8" height="5.3"/>
</g>
<g>
	<rect x="16.9" y="55.6" class="st2" width="4.7" height="5.3"/>
	<rect x="23.6" y="55.6" class="st2" width="14.8" height="5.3"/>
	<rect x="16.9" y="63.6" class="st2" width="4.7" height="5.3"/>
	<rect x="23.6" y="63.6" class="st2" width="14.8" height="5.3"/>
	<rect x="16.9" y="71.4" class="st2" width="4.7" height="5.3"/>
	<rect x="23.6" y="71.4" class="st2" width="14.8" height="5.3"/>
</g>
<g>
	<rect x="51" y="25.2" class="st1" width="9.7" height="9.7"/>
	<rect x="62.5" y="25.2" class="st1" width="9.7" height="9.7"/>
	<rect x="51" y="36.7" class="st1" width="9.7" height="9.7"/>
	<rect x="62.5" y="36.7" class="st1" width="9.7" height="9.7"/>
</g>
<g>
	<rect x="51" y="55.6" class="st2" width="9.7" height="9.7"/>
	<rect x="62.5" y="55.6" class="st2" width="9.7" height="9.7"/>
	<rect x="51" y="67.1" class="st2" width="9.7" height="9.7"/>
	<rect x="62.5" y="67.1" class="st2" width="9.7" height="9.7"/>
</g>
<g>
	<rect x="85.6" y="25.2" class="st1" width="5.9" height="5.9"/>
	<rect x="92.6" y="25.2" class="st1" width="5.9" height="5.9"/>
	<rect x="99.6" y="25.2" class="st1" width="5.9" height="5.9"/>
	<rect x="85.6" y="32.8" class="st1" width="5.9" height="5.9"/>
	<rect x="92.6" y="32.8" class="st1" width="5.9" height="5.9"/>
	<rect x="99.6" y="32.8" class="st1" width="5.9" height="5.9"/>
	<rect x="85.6" y="40.5" class="st1" width="5.9" height="5.9"/>
	<rect x="92.6" y="40.5" class="st1" width="5.9" height="5.9"/>
	<rect x="99.6" y="40.5" class="st1" width="5.9" height="5.9"/>
</g>
<g>
	<rect x="85.6" y="55.6" class="st2" width="5.9" height="5.9"/>
	<rect x="92.6" y="55.6" class="st2" width="5.9" height="5.9"/>
	<rect x="99.6" y="55.6" class="st2" width="5.9" height="5.9"/>
	<rect x="85.6" y="63.2" class="st2" width="5.9" height="5.9"/>
	<rect x="92.6" y="63.2" class="st2" width="5.9" height="5.9"/>
	<rect x="99.6" y="63.2" class="st2" width="5.9" height="5.9"/>
	<rect x="85.6" y="70.8" class="st2" width="5.9" height="5.9"/>
	<rect x="92.6" y="70.8" class="st2" width="5.9" height="5.9"/>
	<rect x="99.6" y="70.8" class="st2" width="5.9" height="5.9"/>
</g>
<g>
	<rect x="119.7" y="25.2" class="st1" width="4.1" height="4.1"/>
	<rect x="124.9" y="25.2" class="st1" width="4.1" height="4.1"/>
	<rect x="130.1" y="25.2" class="st1" width="4.1" height="4.1"/>
	<rect x="119.7" y="30.9" class="st1" width="4.1" height="4.1"/>
	<rect x="124.9" y="30.9" class="st1" width="4.1" height="4.1"/>
	<rect x="130.1" y="30.9" class="st1" width="4.1" height="4.1"/>
	<rect x="119.7" y="36.6" class="st1" width="4.1" height="4.1"/>
	<rect x="124.9" y="36.6" class="st1" width="4.1" height="4.1"/>
	<rect x="130.1" y="36.6" class="st1" width="4.1" height="4.1"/>
	<rect x="135.3" y="25.2" class="st1" width="4.1" height="4.1"/>
	<rect x="135.3" y="30.9" class="st1" width="4.1" height="4.1"/>
	<rect x="135.3" y="36.6" class="st1" width="4.1" height="4.1"/>
	<rect x="119.7" y="42.4" class="st1" width="4.1" height="4.1"/>
	<rect x="124.9" y="42.4" class="st1" width="4.1" height="4.1"/>
	<rect x="130.1" y="42.4" class="st1" width="4.1" height="4.1"/>
	<rect x="135.3" y="42.4" class="st1" width="4.1" height="4.1"/>
</g>
<g>
	<rect x="119.7" y="55.6" class="st2" width="4.1" height="4.1"/>
	<rect x="124.9" y="55.6" class="st2" width="4.1" height="4.1"/>
	<rect x="130.1" y="55.6" class="st2" width="4.1" height="4.1"/>
	<rect x="119.7" y="61.3" class="st2" width="4.1" height="4.1"/>
	<rect x="124.9" y="61.3" class="st2" width="4.1" height="4.1"/>
	<rect x="130.1" y="61.3" class="st2" width="4.1" height="4.1"/>
	<rect x="119.7" y="67" class="st2" width="4.1" height="4.1"/>
	<rect x="124.9" y="67" class="st2" width="4.1" height="4.1"/>
	<rect x="130.1" y="67" class="st2" width="4.1" height="4.1"/>
	<rect x="135.3" y="55.6" class="st2" width="4.1" height="4.1"/>
	<rect x="135.3" y="61.3" class="st2" width="4.1" height="4.1"/>
	<rect x="135.3" y="67" class="st2" width="4.1" height="4.1"/>
	<rect x="119.7" y="72.7" class="st2" width="4.1" height="4.1"/>
	<rect x="124.9" y="72.7" class="st2" width="4.1" height="4.1"/>
	<rect x="130.1" y="72.7" class="st2" width="4.1" height="4.1"/>
	<rect x="135.3" y="72.7" class="st2" width="4.1" height="4.1"/>
</g>
<g>
	<g>
		<rect x="153.7" y="55.6" class="st2" width="3.2" height="3.2"/>
		<rect x="157.8" y="55.6" class="st2" width="3.2" height="3.2"/>
		<rect x="161.9" y="55.6" class="st2" width="3.2" height="3.2"/>
		<rect x="165.9" y="55.6" class="st2" width="3.2" height="3.2"/>
		<rect x="170" y="55.6" class="st2" width="3.2" height="3.2"/>
	</g>
	<g>
		<rect x="153.7" y="60.2" class="st2" width="3.2" height="3.2"/>
		<rect x="157.8" y="60.2" class="st2" width="3.2" height="3.2"/>
		<rect x="161.9" y="60.2" class="st2" width="3.2" height="3.2"/>
		<rect x="165.9" y="60.2" class="st2" width="3.2" height="3.2"/>
		<rect x="170" y="60.2" class="st2" width="3.2" height="3.2"/>
	</g>
	<g>
		<rect x="153.7" y="64.7" class="st2" width="3.2" height="3.2"/>
		<rect x="157.8" y="64.7" class="st2" width="3.2" height="3.2"/>
		<rect x="161.9" y="64.7" class="st2" width="3.2" height="3.2"/>
		<rect x="165.9" y="64.7" class="st2" width="3.2" height="3.2"/>
		<rect x="170" y="64.7" class="st2" width="3.2" height="3.2"/>
	</g>
	<g>
		<rect x="153.7" y="69.3" class="st2" width="3.2" height="3.2"/>
		<rect x="157.8" y="69.3" class="st2" width="3.2" height="3.2"/>
		<rect x="161.9" y="69.3" class="st2" width="3.2" height="3.2"/>
		<rect x="165.9" y="69.3" class="st2" width="3.2" height="3.2"/>
		<rect x="170" y="69.3" class="st2" width="3.2" height="3.2"/>
	</g>
	<g>
		<rect x="153.7" y="73.9" class="st2" width="3.2" height="3.2"/>
		<rect x="157.8" y="73.9" class="st2" width="3.2" height="3.2"/>
		<rect x="161.9" y="73.9" class="st2" width="3.2" height="3.2"/>
		<rect x="165.9" y="73.9" class="st2" width="3.2" height="3.2"/>
		<rect x="170" y="73.9" class="st2" width="3.2" height="3.2"/>
	</g>
</g>
<g>
	<g>
		<rect x="153.7" y="25.2" class="st1" width="3.2" height="3.2"/>
		<rect x="157.8" y="25.2" class="st1" width="3.2" height="3.2"/>
		<rect x="161.9" y="25.2" class="st1" width="3.2" height="3.2"/>
		<rect x="165.9" y="25.2" class="st1" width="3.2" height="3.2"/>
		<rect x="170" y="25.2" class="st1" width="3.2" height="3.2"/>
	</g>
	<g>
		<rect x="153.7" y="29.8" class="st1" width="3.2" height="3.2"/>
		<rect x="157.8" y="29.8" class="st1" width="3.2" height="3.2"/>
		<rect x="161.9" y="29.8" class="st1" width="3.2" height="3.2"/>
		<rect x="165.9" y="29.8" class="st1" width="3.2" height="3.2"/>
		<rect x="170" y="29.8" class="st1" width="3.2" height="3.2"/>
	</g>
	<g>
		<rect x="153.7" y="34.4" class="st1" width="3.2" height="3.2"/>
		<rect x="157.8" y="34.4" class="st1" width="3.2" height="3.2"/>
		<rect x="161.9" y="34.4" class="st1" width="3.2" height="3.2"/>
		<rect x="165.9" y="34.4" class="st1" width="3.2" height="3.2"/>
		<rect x="170" y="34.4" class="st1" width="3.2" height="3.2"/>
	</g>
	<g>
		<rect x="153.7" y="39" class="st1" width="3.2" height="3.2"/>
		<rect x="157.8" y="39" class="st1" width="3.2" height="3.2"/>
		<rect x="161.9" y="39" class="st1" width="3.2" height="3.2"/>
		<rect x="165.9" y="39" class="st1" width="3.2" height="3.2"/>
		<rect x="170" y="39" class="st1" width="3.2" height="3.2"/>
	</g>
	<g>
		<rect x="153.7" y="43.5" class="st1" width="3.2" height="3.2"/>
		<rect x="157.8" y="43.5" class="st1" width="3.2" height="3.2"/>
		<rect x="161.9" y="43.5" class="st1" width="3.2" height="3.2"/>
		<rect x="165.9" y="43.5" class="st1" width="3.2" height="3.2"/>
		<rect x="170" y="43.5" class="st1" width="3.2" height="3.2"/>
	</g>
</g>
<text transform="matrix(0.6294 0 0 1 211.9258 39.6885)" class="st1 st3 st4">&gt;</text>
<text transform="matrix(0.6294 0 0 1 220.2773 39.6885)" class="st3 st4">     </text>
<text transform="matrix(0.6294 0 0 1 234.1738 39.6885)" class="st2 st3 st4">&gt;</text>
<text transform="matrix(0.6294 0 0 1 210.9248 72.0615)" class="st1 st3 st4">&lt;</text>
<text transform="matrix(0.6294 0 0 1 219.2773 72.0615)" class="st3 st4">     </text>
<text transform="matrix(0.6294 0 0 1 233.1729 72.0615)" class="st2 st3 st4">&lt;</text>
<g>
	<path class="st5" d="M212.4,114.2l6.9-6.9l1.5,1.5l-8.2,8.2l-4.8-4.8l1.3-1.3L212.4,114.2z"/>
</g>
<g>
	<path class="st6" d="M238.8,113.3l6.9-6.9l1.5,1.5l-8.2,8.2l-4.8-4.8l1.3-1.3L238.8,113.3z"/>
</g>
<rect x="156.3" y="102.2" class="st7" width="12.8" height="12.8"/>
<rect x="139.1" y="120.6" class="st7" width="12.8" height="12.8"/>
<rect x="122.4" y="137.3" class="st7" width="12.8" height="12.8"/>
<rect x="103.7" y="154.3" class="st7" width="12.8" height="12.8"/>
<g>
	<path class="st8" d="M144.3,128.3l4.3-4.3l0.9,0.9l-5,5l-2.9-2.9l0.8-0.8L144.3,128.3z"/>
</g>
<g>
	<line class="st9" x1="165.6" y1="105.6" x2="159.7" y2="111.6"/>
	<line class="st9" x1="165.6" y1="111.6" x2="159.7" y2="105.6"/>
</g>
<g>
	<polygon class="st10" points="20.6,111.5 17.1,113.3 17.8,109.5 15,106.7 18.9,106.2 20.6,102.6 22.4,106.2 26.3,106.7 23.4,109.5 
		24.1,113.3 	"/>
	<polygon class="st10" points="46.4,111.5 42.9,113.3 43.6,109.5 40.8,106.7 44.7,106.2 46.4,102.6 48.1,106.2 52,106.7 49.2,109.5 
		49.9,113.3 	"/>
	<polygon class="st10" points="33.5,111.5 30,113.3 30.7,109.5 27.9,106.7 31.8,106.2 33.5,102.6 35.3,106.2 39.1,106.7 36.3,109.5 
		37,113.3 	"/>
	<polygon class="st10" points="59.3,111.5 55.8,113.3 56.5,109.5 53.6,106.7 57.5,106.2 59.3,102.6 61,106.2 64.9,106.7 62.1,109.5 
		62.8,113.3 	"/>
	<polygon class="st10" points="72.2,111.5 68.7,113.3 69.3,109.5 66.5,106.7 70.4,106.2 72.2,102.6 73.9,106.2 77.8,106.7 75,109.5 
		75.6,113.3 	"/>
</g>
<g>
	<g>
		<g>
			<g>
				<g>
					<defs>
						<polygon id="SVGID_1_" points="72.2,126.7 68.7,128.6 69.3,124.7 66.5,121.9 70.4,121.4 72.2,117.8 73.9,121.4 77.8,121.9 
							75,124.7 75.6,128.6 						"/>
					</defs>
					<clipPath id="SVGID_2_">
						<use xlink:href="#SVGID_1_"  style="overflow:visible;"/>
					</clipPath>
					<polygon class="st11" points="72.2,126.7 68.7,128.6 69.3,124.7 66.5,121.9 70.4,121.4 72.2,117.8 73.9,121.4 77.8,121.9 
						75,124.7 75.6,128.6 					"/>
				</g>
			</g>
		</g>
		<g>
			<g>
				<g>
					<defs>
						<polygon id="SVGID_3_" points="72.2,126.7 68.7,128.6 69.3,124.7 66.5,121.9 70.4,121.4 72.2,117.8 73.9,121.4 77.8,121.9 
							75,124.7 75.6,128.6 						"/>
					</defs>
					<clipPath id="SVGID_4_">
						<use xlink:href="#SVGID_3_"  style="overflow:visible;"/>
					</clipPath>
					<polygon class="st12" points="72.2,126.7 68.7,128.6 69.3,124.7 66.5,121.9 70.4,121.4 72.2,117.8 73.9,121.4 77.8,121.9 
						75,124.7 75.6,128.6 					"/>
				</g>
			</g>
		</g>
		<g>
			<g>
				<g>
					<defs>
						<polygon id="SVGID_5_" points="72.2,126.7 68.7,128.6 69.3,124.7 66.5,121.9 70.4,121.4 72.2,117.8 73.9,121.4 77.8,121.9 
							75,124.7 75.6,128.6 						"/>
					</defs>
					<clipPath id="SVGID_6_">
						<use xlink:href="#SVGID_5_"  style="overflow:visible;"/>
					</clipPath>
					<polygon class="st13" points="72.2,126.7 68.7,128.6 69.3,124.7 66.5,121.9 70.4,121.4 72.2,117.8 73.9,121.4 77.8,121.9 
						75,124.7 75.6,128.6 					"/>
				</g>
			</g>
		</g>
		<g>
			<g>
				<g>
					<defs>
						<polygon id="SVGID_7_" points="72.2,126.7 68.7,128.6 69.3,124.7 66.5,121.9 70.4,121.4 72.2,117.8 73.9,121.4 77.8,121.9 
							75,124.7 75.6,128.6 						"/>
					</defs>
					<clipPath id="SVGID_8_">
						<use xlink:href="#SVGID_7_"  style="overflow:visible;"/>
					</clipPath>
					<polygon class="st14" points="72.2,126.7 68.7,128.6 69.3,124.7 66.5,121.9 70.4,121.4 72.2,117.8 73.9,121.4 77.8,121.9 
						75,124.7 75.6,128.6 					"/>
				</g>
			</g>
		</g>
		<g>
			<g>
				<g>
					<defs>
						<polygon id="SVGID_9_" points="72.2,126.7 68.7,128.6 69.3,124.7 66.5,121.9 70.4,121.4 72.2,117.8 73.9,121.4 77.8,121.9 
							75,124.7 75.6,128.6 						"/>
					</defs>
					<clipPath id="SVGID_10_">
						<use xlink:href="#SVGID_9_"  style="overflow:visible;"/>
					</clipPath>
					<polygon class="st15" points="72.2,126.7 68.7,128.6 69.3,124.7 66.5,121.9 70.4,121.4 72.2,117.8 73.9,121.4 77.8,121.9 
						75,124.7 75.6,128.6 					"/>
				</g>
			</g>
		</g>
		<g>
			<g>
				<g>
					<defs>
						<polygon id="SVGID_11_" points="72.2,126.7 68.7,128.6 69.3,124.7 66.5,121.9 70.4,121.4 72.2,117.8 73.9,121.4 77.8,121.9 
							75,124.7 75.6,128.6 						"/>
					</defs>
					<clipPath id="SVGID_12_">
						<use xlink:href="#SVGID_11_"  style="overflow:visible;"/>
					</clipPath>
					<polygon class="st16" points="72.2,126.7 68.7,128.6 69.3,124.7 66.5,121.9 70.4,121.4 72.2,117.8 73.9,121.4 77.8,121.9 
						75,124.7 75.6,128.6 					"/>
				</g>
			</g>
		</g>
		<g>
			<g>
				<g>
					<defs>
						<polygon id="SVGID_13_" points="72.2,126.7 68.7,128.6 69.3,124.7 66.5,121.9 70.4,121.4 72.2,117.8 73.9,121.4 77.8,121.9 
							75,124.7 75.6,128.6 						"/>
					</defs>
					<clipPath id="SVGID_14_">
						<use xlink:href="#SVGID_13_"  style="overflow:visible;"/>
					</clipPath>
					<polygon class="st17" points="72.2,126.7 68.7,128.6 69.3,124.7 66.5,121.9 70.4,121.4 72.2,117.8 73.9,121.4 77.8,121.9 
						75,124.7 75.6,128.6 					"/>
				</g>
			</g>
		</g>
		<g>
			<g>
				<g>
					<defs>
						<polygon id="SVGID_15_" points="72.2,126.7 68.7,128.6 69.3,124.7 66.5,121.9 70.4,121.4 72.2,117.8 73.9,121.4 77.8,121.9 
							75,124.7 75.6,128.6 						"/>
					</defs>
					<clipPath id="SVGID_16_">
						<use xlink:href="#SVGID_15_"  style="overflow:visible;"/>
					</clipPath>
					<polygon class="st18" points="72.2,126.7 68.7,128.6 69.3,124.7 66.5,121.9 70.4,121.4 72.2,117.8 73.9,121.4 77.8,121.9 
						75,124.7 75.6,128.6 					"/>
				</g>
			</g>
		</g>
		<g>
			<g>
				<g>
					<defs>
						<polygon id="SVGID_17_" points="72.2,126.7 68.7,128.6 69.3,124.7 66.5,121.9 70.4,121.4 72.2,117.8 73.9,121.4 77.8,121.9 
							75,124.7 75.6,128.6 						"/>
					</defs>
					<clipPath id="SVGID_18_">
						<use xlink:href="#SVGID_17_"  style="overflow:visible;"/>
					</clipPath>
					<rect x="66.5" y="117.8" class="st19" width="5.6" height="10.7"/>
				</g>
			</g>
		</g>
	</g>
	<polygon class="st10" points="20.6,126.7 17.1,128.6 17.8,124.7 15,121.9 18.9,121.4 20.6,117.8 22.4,121.4 26.3,121.9 23.4,124.7 
		24.1,128.6 	"/>
	<polygon class="st10" points="46.4,126.7 42.9,128.6 43.6,124.7 40.8,121.9 44.7,121.4 46.4,117.8 48.1,121.4 52,121.9 49.2,124.7 
		49.9,128.6 	"/>
	<polygon class="st10" points="33.5,126.7 30,128.6 30.7,124.7 27.9,121.9 31.8,121.4 33.5,117.8 35.3,121.4 39.1,121.9 36.3,124.7 
		37,128.6 	"/>
	<polygon class="st10" points="59.3,126.7 55.8,128.6 56.5,124.7 53.6,121.9 57.5,121.4 59.3,117.8 61,121.4 64.9,121.9 62.1,124.7 
		62.8,128.6 	"/>
</g>
<g>
	<polygon class="st20" points="72.2,141.9 68.7,143.8 69.3,139.9 66.5,137.2 70.4,136.6 72.2,133.1 73.9,136.6 77.8,137.2 75,139.9 
		75.6,143.8 	"/>
	<polygon class="st10" points="20.6,141.9 17.1,143.8 17.8,139.9 15,137.2 18.9,136.6 20.6,133.1 22.4,136.6 26.3,137.2 23.4,139.9 
		24.1,143.8 	"/>
	<polygon class="st10" points="46.4,141.9 42.9,143.8 43.6,139.9 40.8,137.2 44.7,136.6 46.4,133.1 48.1,136.6 52,137.2 49.2,139.9 
		49.9,143.8 	"/>
	<polygon class="st10" points="33.5,141.9 30,143.8 30.7,139.9 27.9,137.2 31.8,136.6 33.5,133.1 35.3,136.6 39.1,137.2 36.3,139.9 
		37,143.8 	"/>
	<polygon class="st10" points="59.3,141.9 55.8,143.8 56.5,139.9 53.6,137.2 57.5,136.6 59.3,133.1 61,136.6 64.9,137.2 62.1,139.9 
		62.8,143.8 	"/>
</g>
<g>
	<polygon class="st20" points="72.2,157.2 68.7,159 69.3,155.1 66.5,152.4 70.4,151.8 72.2,148.3 73.9,151.8 77.8,152.4 75,155.1 
		75.6,159 	"/>
	<polygon class="st10" points="20.6,157.2 17.1,159 17.8,155.1 15,152.4 18.9,151.8 20.6,148.3 22.4,151.8 26.3,152.4 23.4,155.1 
		24.1,159 	"/>
	<polygon class="st10" points="46.4,157.2 42.9,159 43.6,155.1 40.8,152.4 44.7,151.8 46.4,148.3 48.1,151.8 52,152.4 49.2,155.1 
		49.9,159 	"/>
	<polygon class="st10" points="33.5,157.2 30,159 30.7,155.1 27.9,152.4 31.8,151.8 33.5,148.3 35.3,151.8 39.1,152.4 36.3,155.1 
		37,159 	"/>
	<g>
		<g>
			<g>
				<g>
					<defs>
						<polygon id="SVGID_19_" points="59.3,157.2 55.8,159 56.5,155.1 53.6,152.4 57.5,151.8 59.3,148.3 61,151.8 64.9,152.4 
							62.1,155.1 62.8,159 						"/>
					</defs>
					<clipPath id="SVGID_20_">
						<use xlink:href="#SVGID_19_"  style="overflow:visible;"/>
					</clipPath>
					<polygon class="st21" points="59.3,157.2 55.8,159 56.5,155.1 53.6,152.4 57.5,151.8 59.3,148.3 61,151.8 64.9,152.4 
						62.1,155.1 62.8,159 					"/>
				</g>
			</g>
		</g>
		<g>
			<g>
				<g>
					<defs>
						<polygon id="SVGID_21_" points="59.3,157.2 55.8,159 56.5,155.1 53.6,152.4 57.5,151.8 59.3,148.3 61,151.8 64.9,152.4 
							62.1,155.1 62.8,159 						"/>
					</defs>
					<clipPath id="SVGID_22_">
						<use xlink:href="#SVGID_21_"  style="overflow:visible;"/>
					</clipPath>
					<polygon class="st22" points="59.3,157.2 55.8,159 56.5,155.1 53.6,152.4 57.5,151.8 59.3,148.3 61,151.8 64.9,152.4 
						62.1,155.1 62.8,159 					"/>
				</g>
			</g>
		</g>
		<g>
			<g>
				<g>
					<defs>
						<polygon id="SVGID_23_" points="59.3,157.2 55.8,159 56.5,155.1 53.6,152.4 57.5,151.8 59.3,148.3 61,151.8 64.9,152.4 
							62.1,155.1 62.8,159 						"/>
					</defs>
					<clipPath id="SVGID_24_">
						<use xlink:href="#SVGID_23_"  style="overflow:visible;"/>
					</clipPath>
					<polygon class="st23" points="59.3,157.2 55.8,159 56.5,155.1 53.6,152.4 57.5,151.8 59.3,148.3 61,151.8 64.9,152.4 
						62.1,155.1 62.8,159 					"/>
				</g>
			</g>
		</g>
		<g>
			<g>
				<g>
					<defs>
						<polygon id="SVGID_25_" points="59.3,157.2 55.8,159 56.5,155.1 53.6,152.4 57.5,151.8 59.3,148.3 61,151.8 64.9,152.4 
							62.1,155.1 62.8,159 						"/>
					</defs>
					<clipPath id="SVGID_26_">
						<use xlink:href="#SVGID_25_"  style="overflow:visible;"/>
					</clipPath>
					<polygon class="st24" points="59.3,157.2 55.8,159 56.5,155.1 53.6,152.4 57.5,151.8 59.3,148.3 61,151.8 64.9,152.4 
						62.1,155.1 62.8,159 					"/>
				</g>
			</g>
		</g>
		<g>
			<g>
				<g>
					<defs>
						<polygon id="SVGID_27_" points="59.3,157.2 55.8,159 56.5,155.1 53.6,152.4 57.5,151.8 59.3,148.3 61,151.8 64.9,152.4 
							62.1,155.1 62.8,159 						"/>
					</defs>
					<clipPath id="SVGID_28_">
						<use xlink:href="#SVGID_27_"  style="overflow:visible;"/>
					</clipPath>
					<polygon class="st25" points="59.3,157.2 55.8,159 56.5,155.1 53.6,152.4 57.5,151.8 59.3,148.3 61,151.8 64.9,152.4 
						62.1,155.1 62.8,159 					"/>
				</g>
			</g>
		</g>
		<g>
			<g>
				<g>
					<defs>
						<polygon id="SVGID_29_" points="59.3,157.2 55.8,159 56.5,155.1 53.6,152.4 57.5,151.8 59.3,148.3 61,151.8 64.9,152.4 
							62.1,155.1 62.8,159 						"/>
					</defs>
					<clipPath id="SVGID_30_">
						<use xlink:href="#SVGID_29_"  style="overflow:visible;"/>
					</clipPath>
					<polygon class="st26" points="59.3,157.2 55.8,159 56.5,155.1 53.6,152.4 57.5,151.8 59.3,148.3 61,151.8 64.9,152.4 
						62.1,155.1 62.8,159 					"/>
				</g>
			</g>
		</g>
		<g>
			<g>
				<g>
					<defs>
						<polygon id="SVGID_31_" points="59.3,157.2 55.8,159 56.5,155.1 53.6,152.4 57.5,151.8 59.3,148.3 61,151.8 64.9,152.4 
							62.1,155.1 62.8,159 						"/>
					</defs>
					<clipPath id="SVGID_32_">
						<use xlink:href="#SVGID_31_"  style="overflow:visible;"/>
					</clipPath>
					<polygon class="st27" points="59.3,157.2 55.8,159 56.5,155.1 53.6,152.4 57.5,151.8 59.3,148.3 61,151.8 64.9,152.4 
						62.1,155.1 62.8,159 					"/>
				</g>
			</g>
		</g>
		<g>
			<g>
				<g>
					<defs>
						<polygon id="SVGID_33_" points="59.3,157.2 55.8,159 56.5,155.1 53.6,152.4 57.5,151.8 59.3,148.3 61,151.8 64.9,152.4 
							62.1,155.1 62.8,159 						"/>
					</defs>
					<clipPath id="SVGID_34_">
						<use xlink:href="#SVGID_33_"  style="overflow:visible;"/>
					</clipPath>
					<polygon class="st28" points="59.3,157.2 55.8,159 56.5,155.1 53.6,152.4 57.5,151.8 59.3,148.3 61,151.8 64.9,152.4 
						62.1,155.1 62.8,159 					"/>
				</g>
			</g>
		</g>
		<g>
			<g>
				<g>
					<defs>
						<polygon id="SVGID_35_" points="59.3,157.2 55.8,159 56.5,155.1 53.6,152.4 57.5,151.8 59.3,148.3 61,151.8 64.9,152.4 
							62.1,155.1 62.8,159 						"/>
					</defs>
					<clipPath id="SVGID_36_">
						<use xlink:href="#SVGID_35_"  style="overflow:visible;"/>
					</clipPath>
					<rect x="53.6" y="148.3" class="st29" width="5.6" height="10.7"/>
				</g>
			</g>
		</g>
	</g>
</g>
<g>
	<polygon class="st20" points="72.2,172.4 68.7,174.2 69.3,170.4 66.5,167.6 70.4,167 72.2,163.5 73.9,167 77.8,167.6 75,170.4 
		75.6,174.2 	"/>
	<polygon class="st10" points="20.6,172.4 17.1,174.2 17.8,170.4 15,167.6 18.9,167 20.6,163.5 22.4,167 26.3,167.6 23.4,170.4 
		24.1,174.2 	"/>
	<polygon class="st10" points="46.4,172.4 42.9,174.2 43.6,170.4 40.8,167.6 44.7,167 46.4,163.5 48.1,167 52,167.6 49.2,170.4 
		49.9,174.2 	"/>
	<polygon class="st10" points="33.5,172.4 30,174.2 30.7,170.4 27.9,167.6 31.8,167 33.5,163.5 35.3,167 39.1,167.6 36.3,170.4 
		37,174.2 	"/>
	<polygon class="st20" points="59.3,172.4 55.8,174.2 56.5,170.4 53.6,167.6 57.5,167 59.3,163.5 61,167 64.9,167.6 62.1,170.4 
		62.8,174.2 	"/>
</g>
<g>
	<polygon class="st20" points="72.2,187.6 68.7,189.4 69.3,185.6 66.5,182.8 70.4,182.3 72.2,178.7 73.9,182.3 77.8,182.8 75,185.6 
		75.6,189.4 	"/>
	<polygon class="st10" points="20.6,187.6 17.1,189.4 17.8,185.6 15,182.8 18.9,182.3 20.6,178.7 22.4,182.3 26.3,182.8 23.4,185.6 
		24.1,189.4 	"/>
	<polygon class="st10" points="33.5,187.6 30,189.4 30.7,185.6 27.9,182.8 31.8,182.3 33.5,178.7 35.3,182.3 39.1,182.8 36.3,185.6 
		37,189.4 	"/>
	<polygon class="st20" points="59.3,187.6 55.8,189.4 56.5,185.6 53.6,182.8 57.5,182.3 59.3,178.7 61,182.3 64.9,182.8 62.1,185.6 
		62.8,189.4 	"/>
	<g>
		<g>
			<g>
				<g>
					<defs>
						<polygon id="SVGID_37_" points="46.4,187.6 42.9,189.4 43.6,185.6 40.8,182.8 44.7,182.3 46.4,178.7 48.1,182.3 52,182.8 
							49.2,185.6 49.9,189.4 						"/>
					</defs>
					<clipPath id="SVGID_38_">
						<use xlink:href="#SVGID_37_"  style="overflow:visible;"/>
					</clipPath>
					<polygon class="st30" points="46.4,187.6 42.9,189.4 43.6,185.6 40.8,182.8 44.7,182.3 46.4,178.7 48.1,182.3 52,182.8 
						49.2,185.6 49.9,189.4 					"/>
				</g>
			</g>
		</g>
		<g>
			<g>
				<g>
					<defs>
						<polygon id="SVGID_39_" points="46.4,187.6 42.9,189.4 43.6,185.6 40.8,182.8 44.7,182.3 46.4,178.7 48.1,182.3 52,182.8 
							49.2,185.6 49.9,189.4 						"/>
					</defs>
					<clipPath id="SVGID_40_">
						<use xlink:href="#SVGID_39_"  style="overflow:visible;"/>
					</clipPath>
					<polygon class="st31" points="46.4,187.6 42.9,189.4 43.6,185.6 40.8,182.8 44.7,182.3 46.4,178.7 48.1,182.3 52,182.8 
						49.2,185.6 49.9,189.4 					"/>
				</g>
			</g>
		</g>
		<g>
			<g>
				<g>
					<defs>
						<polygon id="SVGID_41_" points="46.4,187.6 42.9,189.4 43.6,185.6 40.8,182.8 44.7,182.3 46.4,178.7 48.1,182.3 52,182.8 
							49.2,185.6 49.9,189.4 						"/>
					</defs>
					<clipPath id="SVGID_42_">
						<use xlink:href="#SVGID_41_"  style="overflow:visible;"/>
					</clipPath>
					<polygon class="st32" points="46.4,187.6 42.9,189.4 43.6,185.6 40.8,182.8 44.7,182.3 46.4,178.7 48.1,182.3 52,182.8 
						49.2,185.6 49.9,189.4 					"/>
				</g>
			</g>
		</g>
		<g>
			<g>
				<g>
					<defs>
						<polygon id="SVGID_43_" points="46.4,187.6 42.9,189.4 43.6,185.6 40.8,182.8 44.7,182.3 46.4,178.7 48.1,182.3 52,182.8 
							49.2,185.6 49.9,189.4 						"/>
					</defs>
					<clipPath id="SVGID_44_">
						<use xlink:href="#SVGID_43_"  style="overflow:visible;"/>
					</clipPath>
					<polygon class="st33" points="46.4,187.6 42.9,189.4 43.6,185.6 40.8,182.8 44.7,182.3 46.4,178.7 48.1,182.3 52,182.8 
						49.2,185.6 49.9,189.4 					"/>
				</g>
			</g>
		</g>
		<g>
			<g>
				<g>
					<defs>
						<polygon id="SVGID_45_" points="46.4,187.6 42.9,189.4 43.6,185.6 40.8,182.8 44.7,182.3 46.4,178.7 48.1,182.3 52,182.8 
							49.2,185.6 49.9,189.4 						"/>
					</defs>
					<clipPath id="SVGID_46_">
						<use xlink:href="#SVGID_45_"  style="overflow:visible;"/>
					</clipPath>
					<polygon class="st34" points="46.4,187.6 42.9,189.4 43.6,185.6 40.8,182.8 44.7,182.3 46.4,178.7 48.1,182.3 52,182.8 
						49.2,185.6 49.9,189.4 					"/>
				</g>
			</g>
		</g>
		<g>
			<g>
				<g>
					<defs>
						<polygon id="SVGID_47_" points="46.4,187.6 42.9,189.4 43.6,185.6 40.8,182.8 44.7,182.3 46.4,178.7 48.1,182.3 52,182.8 
							49.2,185.6 49.9,189.4 						"/>
					</defs>
					<clipPath id="SVGID_48_">
						<use xlink:href="#SVGID_47_"  style="overflow:visible;"/>
					</clipPath>
					<polygon class="st35" points="46.4,187.6 42.9,189.4 43.6,185.6 40.8,182.8 44.7,182.3 46.4,178.7 48.1,182.3 52,182.8 
						49.2,185.6 49.9,189.4 					"/>
				</g>
			</g>
		</g>
		<g>
			<g>
				<g>
					<defs>
						<polygon id="SVGID_49_" points="46.4,187.6 42.9,189.4 43.6,185.6 40.8,182.8 44.7,182.3 46.4,178.7 48.1,182.3 52,182.8 
							49.2,185.6 49.9,189.4 						"/>
					</defs>
					<clipPath id="SVGID_50_">
						<use xlink:href="#SVGID_49_"  style="overflow:visible;"/>
					</clipPath>
					<polygon class="st36" points="46.4,187.6 42.9,189.4 43.6,185.6 40.8,182.8 44.7,182.3 46.4,178.7 48.1,182.3 52,182.8 
						49.2,185.6 49.9,189.4 					"/>
				</g>
			</g>
		</g>
		<g>
			<g>
				<g>
					<defs>
						<polygon id="SVGID_51_" points="46.4,187.6 42.9,189.4 43.6,185.6 40.8,182.8 44.7,182.3 46.4,178.7 48.1,182.3 52,182.8 
							49.2,185.6 49.9,189.4 						"/>
					</defs>
					<clipPath id="SVGID_52_">
						<use xlink:href="#SVGID_51_"  style="overflow:visible;"/>
					</clipPath>
					<polygon class="st37" points="46.4,187.6 42.9,189.4 43.6,185.6 40.8,182.8 44.7,182.3 46.4,178.7 48.1,182.3 52,182.8 
						49.2,185.6 49.9,189.4 					"/>
				</g>
			</g>
		</g>
		<g>
			<g>
				<g>
					<defs>
						<polygon id="SVGID_53_" points="46.4,187.6 42.9,189.4 43.6,185.6 40.8,182.8 44.7,182.3 46.4,178.7 48.1,182.3 52,182.8 
							49.2,185.6 49.9,189.4 						"/>
					</defs>
					<clipPath id="SVGID_54_">
						<use xlink:href="#SVGID_53_"  style="overflow:visible;"/>
					</clipPath>
					<rect x="40.8" y="178.7" class="st38" width="5.6" height="10.7"/>
				</g>
			</g>
		</g>
	</g>
</g>
<g>
	<polygon class="st20" points="72.2,202.9 68.7,204.7 69.3,200.8 66.5,198.1 70.4,197.5 72.2,194 73.9,197.5 77.8,198.1 75,200.8 
		75.6,204.7 	"/>
	<polygon class="st10" points="20.6,202.9 17.1,204.7 17.8,200.8 15,198.1 18.9,197.5 20.6,194 22.4,197.5 26.3,198.1 23.4,200.8 
		24.1,204.7 	"/>
	<polygon class="st10" points="33.5,202.9 30,204.7 30.7,200.8 27.9,198.1 31.8,197.5 33.5,194 35.3,197.5 39.1,198.1 36.3,200.8 
		37,204.7 	"/>
	<polygon class="st20" points="59.3,202.9 55.8,204.7 56.5,200.8 53.6,198.1 57.5,197.5 59.3,194 61,197.5 64.9,198.1 62.1,200.8 
		62.8,204.7 	"/>
	<polygon class="st20" points="46.4,202.9 42.9,204.7 43.6,200.8 40.8,198.1 44.7,197.5 46.4,194 48.1,197.5 52,198.1 49.2,200.8 
		49.9,204.7 	"/>
</g>
<g>
	<polygon class="st20" points="72.2,218.1 68.7,219.9 69.3,216 66.5,213.3 70.4,212.7 72.2,209.2 73.9,212.7 77.8,213.3 75,216 
		75.6,219.9 	"/>
	<polygon class="st10" points="20.6,218.1 17.1,219.9 17.8,216 15,213.3 18.9,212.7 20.6,209.2 22.4,212.7 26.3,213.3 23.4,216 
		24.1,219.9 	"/>
	<polygon class="st20" points="59.3,218.1 55.8,219.9 56.5,216 53.6,213.3 57.5,212.7 59.3,209.2 61,212.7 64.9,213.3 62.1,216 
		62.8,219.9 	"/>
	<polygon class="st20" points="46.4,218.1 42.9,219.9 43.6,216 40.8,213.3 44.7,212.7 46.4,209.2 48.1,212.7 52,213.3 49.2,216 
		49.9,219.9 	"/>
	<g>
		<g>
			<g>
				<g>
					<defs>
						<polygon id="SVGID_55_" points="33.5,218.1 30,219.9 30.7,216 27.9,213.3 31.8,212.7 33.5,209.2 35.3,212.7 39.1,213.3 
							36.3,216 37,219.9 						"/>
					</defs>
					<clipPath id="SVGID_56_">
						<use xlink:href="#SVGID_55_"  style="overflow:visible;"/>
					</clipPath>
					<polygon class="st39" points="33.5,218.1 30,219.9 30.7,216 27.9,213.3 31.8,212.7 33.5,209.2 35.3,212.7 39.1,213.3 36.3,216 
						37,219.9 					"/>
				</g>
			</g>
		</g>
		<g>
			<g>
				<g>
					<defs>
						<polygon id="SVGID_57_" points="33.5,218.1 30,219.9 30.7,216 27.9,213.3 31.8,212.7 33.5,209.2 35.3,212.7 39.1,213.3 
							36.3,216 37,219.9 						"/>
					</defs>
					<clipPath id="SVGID_58_">
						<use xlink:href="#SVGID_57_"  style="overflow:visible;"/>
					</clipPath>
					<polygon class="st40" points="33.5,218.1 30,219.9 30.7,216 27.9,213.3 31.8,212.7 33.5,209.2 35.3,212.7 39.1,213.3 36.3,216 
						37,219.9 					"/>
				</g>
			</g>
		</g>
		<g>
			<g>
				<g>
					<defs>
						<polygon id="SVGID_59_" points="33.5,218.1 30,219.9 30.7,216 27.9,213.3 31.8,212.7 33.5,209.2 35.3,212.7 39.1,213.3 
							36.3,216 37,219.9 						"/>
					</defs>
					<clipPath id="SVGID_60_">
						<use xlink:href="#SVGID_59_"  style="overflow:visible;"/>
					</clipPath>
					<polygon class="st41" points="33.5,218.1 30,219.9 30.7,216 27.9,213.3 31.8,212.7 33.5,209.2 35.3,212.7 39.1,213.3 36.3,216 
						37,219.9 					"/>
				</g>
			</g>
		</g>
		<g>
			<g>
				<g>
					<defs>
						<polygon id="SVGID_61_" points="33.5,218.1 30,219.9 30.7,216 27.9,213.3 31.8,212.7 33.5,209.2 35.3,212.7 39.1,213.3 
							36.3,216 37,219.9 						"/>
					</defs>
					<clipPath id="SVGID_62_">
						<use xlink:href="#SVGID_61_"  style="overflow:visible;"/>
					</clipPath>
					<polygon class="st42" points="33.5,218.1 30,219.9 30.7,216 27.9,213.3 31.8,212.7 33.5,209.2 35.3,212.7 39.1,213.3 36.3,216 
						37,219.9 					"/>
				</g>
			</g>
		</g>
		<g>
			<g>
				<g>
					<defs>
						<polygon id="SVGID_63_" points="33.5,218.1 30,219.9 30.7,216 27.9,213.3 31.8,212.7 33.5,209.2 35.3,212.7 39.1,213.3 
							36.3,216 37,219.9 						"/>
					</defs>
					<clipPath id="SVGID_64_">
						<use xlink:href="#SVGID_63_"  style="overflow:visible;"/>
					</clipPath>
					<polygon class="st43" points="33.5,218.1 30,219.9 30.7,216 27.9,213.3 31.8,212.7 33.5,209.2 35.3,212.7 39.1,213.3 36.3,216 
						37,219.9 					"/>
				</g>
			</g>
		</g>
		<g>
			<g>
				<g>
					<defs>
						<polygon id="SVGID_65_" points="33.5,218.1 30,219.9 30.7,216 27.9,213.3 31.8,212.7 33.5,209.2 35.3,212.7 39.1,213.3 
							36.3,216 37,219.9 						"/>
					</defs>
					<clipPath id="SVGID_66_">
						<use xlink:href="#SVGID_65_"  style="overflow:visible;"/>
					</clipPath>
					<polygon class="st44" points="33.5,218.1 30,219.9 30.7,216 27.9,213.3 31.8,212.7 33.5,209.2 35.3,212.7 39.1,213.3 36.3,216 
						37,219.9 					"/>
				</g>
			</g>
		</g>
		<g>
			<g>
				<g>
					<defs>
						<polygon id="SVGID_67_" points="33.5,218.1 30,219.9 30.7,216 27.9,213.3 31.8,212.7 33.5,209.2 35.3,212.7 39.1,213.3 
							36.3,216 37,219.9 						"/>
					</defs>
					<clipPath id="SVGID_68_">
						<use xlink:href="#SVGID_67_"  style="overflow:visible;"/>
					</clipPath>
					<polygon class="st45" points="33.5,218.1 30,219.9 30.7,216 27.9,213.3 31.8,212.7 33.5,209.2 35.3,212.7 39.1,213.3 36.3,216 
						37,219.9 					"/>
				</g>
			</g>
		</g>
		<g>
			<g>
				<g>
					<defs>
						<polygon id="SVGID_69_" points="33.5,218.1 30,219.9 30.7,216 27.9,213.3 31.8,212.7 33.5,209.2 35.3,212.7 39.1,213.3 
							36.3,216 37,219.9 						"/>
					</defs>
					<clipPath id="SVGID_70_">
						<use xlink:href="#SVGID_69_"  style="overflow:visible;"/>
					</clipPath>
					<polygon class="st46" points="33.5,218.1 30,219.9 30.7,216 27.9,213.3 31.8,212.7 33.5,209.2 35.3,212.7 39.1,213.3 36.3,216 
						37,219.9 					"/>
				</g>
			</g>
		</g>
		<g>
			<g>
				<g>
					<defs>
						<polygon id="SVGID_71_" points="33.5,218.1 30,219.9 30.7,216 27.9,213.3 31.8,212.7 33.5,209.2 35.3,212.7 39.1,213.3 
							36.3,216 37,219.9 						"/>
					</defs>
					<clipPath id="SVGID_72_">
						<use xlink:href="#SVGID_71_"  style="overflow:visible;"/>
					</clipPath>
					<rect x="27.9" y="209.2" class="st47" width="5.6" height="10.7"/>
				</g>
			</g>
		</g>
	</g>
</g>
<g>
	<polygon class="st20" points="72.2,233.3 68.7,235.1 69.3,231.3 66.5,228.5 70.4,227.9 72.2,224.4 73.9,227.9 77.8,228.5 75,231.3 
		75.6,235.1 	"/>
	<polygon class="st10" points="20.6,233.3 17.1,235.1 17.8,231.3 15,228.5 18.9,227.9 20.6,224.4 22.4,227.9 26.3,228.5 23.4,231.3 
		24.1,235.1 	"/>
	<polygon class="st20" points="59.3,233.3 55.8,235.1 56.5,231.3 53.6,228.5 57.5,227.9 59.3,224.4 61,227.9 64.9,228.5 62.1,231.3 
		62.8,235.1 	"/>
	<polygon class="st20" points="46.4,233.3 42.9,235.1 43.6,231.3 40.8,228.5 44.7,227.9 46.4,224.4 48.1,227.9 52,228.5 49.2,231.3 
		49.9,235.1 	"/>
	<polygon class="st20" points="33.5,233.3 30,235.1 30.7,231.3 27.9,228.5 31.8,227.9 33.5,224.4 35.3,227.9 39.1,228.5 36.3,231.3 
		37,235.1 	"/>
</g>
<g>
	<polygon class="st20" points="72.2,248.5 68.7,250.4 69.3,246.5 66.5,243.7 70.4,243.2 72.2,239.6 73.9,243.2 77.8,243.7 75,246.5 
		75.6,250.4 	"/>
	<polygon class="st20" points="59.3,248.5 55.8,250.4 56.5,246.5 53.6,243.7 57.5,243.2 59.3,239.6 61,243.2 64.9,243.7 62.1,246.5 
		62.8,250.4 	"/>
	<polygon class="st20" points="46.4,248.5 42.9,250.4 43.6,246.5 40.8,243.7 44.7,243.2 46.4,239.6 48.1,243.2 52,243.7 49.2,246.5 
		49.9,250.4 	"/>
	<polygon class="st20" points="33.5,248.5 30,250.4 30.7,246.5 27.9,243.7 31.8,243.2 33.5,239.6 35.3,243.2 39.1,243.7 36.3,246.5 
		37,250.4 	"/>
	<g>
		<g>
			<g>
				<g>
					<defs>
						<polygon id="SVGID_73_" points="20.6,248.5 17.1,250.4 17.8,246.5 15,243.7 18.9,243.2 20.6,239.6 22.4,243.2 26.3,243.7 
							23.4,246.5 24.1,250.4 						"/>
					</defs>
					<clipPath id="SVGID_74_">
						<use xlink:href="#SVGID_73_"  style="overflow:visible;"/>
					</clipPath>
					<polygon class="st48" points="20.6,248.5 17.1,250.4 17.8,246.5 15,243.7 18.9,243.2 20.6,239.6 22.4,243.2 26.3,243.7 
						23.4,246.5 24.1,250.4 					"/>
				</g>
			</g>
		</g>
		<g>
			<g>
				<g>
					<defs>
						<polygon id="SVGID_75_" points="20.6,248.5 17.1,250.4 17.8,246.5 15,243.7 18.9,243.2 20.6,239.6 22.4,243.2 26.3,243.7 
							23.4,246.5 24.1,250.4 						"/>
					</defs>
					<clipPath id="SVGID_76_">
						<use xlink:href="#SVGID_75_"  style="overflow:visible;"/>
					</clipPath>
					<polygon class="st49" points="20.6,248.5 17.1,250.4 17.8,246.5 15,243.7 18.9,243.2 20.6,239.6 22.4,243.2 26.3,243.7 
						23.4,246.5 24.1,250.4 					"/>
				</g>
			</g>
		</g>
		<g>
			<g>
				<g>
					<defs>
						<polygon id="SVGID_77_" points="20.6,248.5 17.1,250.4 17.8,246.5 15,243.7 18.9,243.2 20.6,239.6 22.4,243.2 26.3,243.7 
							23.4,246.5 24.1,250.4 						"/>
					</defs>
					<clipPath id="SVGID_78_">
						<use xlink:href="#SVGID_77_"  style="overflow:visible;"/>
					</clipPath>
					<polygon class="st50" points="20.6,248.5 17.1,250.4 17.8,246.5 15,243.7 18.9,243.2 20.6,239.6 22.4,243.2 26.3,243.7 
						23.4,246.5 24.1,250.4 					"/>
				</g>
			</g>
		</g>
		<g>
			<g>
				<g>
					<defs>
						<polygon id="SVGID_79_" points="20.6,248.5 17.1,250.4 17.8,246.5 15,243.7 18.9,243.2 20.6,239.6 22.4,243.2 26.3,243.7 
							23.4,246.5 24.1,250.4 						"/>
					</defs>
					<clipPath id="SVGID_80_">
						<use xlink:href="#SVGID_79_"  style="overflow:visible;"/>
					</clipPath>
					<polygon class="st51" points="20.6,248.5 17.1,250.4 17.8,246.5 15,243.7 18.9,243.2 20.6,239.6 22.4,243.2 26.3,243.7 
						23.4,246.5 24.1,250.4 					"/>
				</g>
			</g>
		</g>
		<g>
			<g>
				<g>
					<defs>
						<polygon id="SVGID_81_" points="20.6,248.5 17.1,250.4 17.8,246.5 15,243.7 18.9,243.2 20.6,239.6 22.4,243.2 26.3,243.7 
							23.4,246.5 24.1,250.4 						"/>
					</defs>
					<clipPath id="SVGID_82_">
						<use xlink:href="#SVGID_81_"  style="overflow:visible;"/>
					</clipPath>
					<polygon class="st52" points="20.6,248.5 17.1,250.4 17.8,246.5 15,243.7 18.9,243.2 20.6,239.6 22.4,243.2 26.3,243.7 
						23.4,246.5 24.1,250.4 					"/>
				</g>
			</g>
		</g>
		<g>
			<g>
				<g>
					<defs>
						<polygon id="SVGID_83_" points="20.6,248.5 17.1,250.4 17.8,246.5 15,243.7 18.9,243.2 20.6,239.6 22.4,243.2 26.3,243.7 
							23.4,246.5 24.1,250.4 						"/>
					</defs>
					<clipPath id="SVGID_84_">
						<use xlink:href="#SVGID_83_"  style="overflow:visible;"/>
					</clipPath>
					<polygon class="st53" points="20.6,248.5 17.1,250.4 17.8,246.5 15,243.7 18.9,243.2 20.6,239.6 22.4,243.2 26.3,243.7 
						23.4,246.5 24.1,250.4 					"/>
				</g>
			</g>
		</g>
		<g>
			<g>
				<g>
					<defs>
						<polygon id="SVGID_85_" points="20.6,248.5 17.1,250.4 17.8,246.5 15,243.7 18.9,243.2 20.6,239.6 22.4,243.2 26.3,243.7 
							23.4,246.5 24.1,250.4 						"/>
					</defs>
					<clipPath id="SVGID_86_">
						<use xlink:href="#SVGID_85_"  style="overflow:visible;"/>
					</clipPath>
					<polygon class="st54" points="20.6,248.5 17.1,250.4 17.8,246.5 15,243.7 18.9,243.2 20.6,239.6 22.4,243.2 26.3,243.7 
						23.4,246.5 24.1,250.4 					"/>
				</g>
			</g>
		</g>
		<g>
			<g>
				<g>
					<defs>
						<polygon id="SVGID_87_" points="20.6,248.5 17.1,250.4 17.8,246.5 15,243.7 18.9,243.2 20.6,239.6 22.4,243.2 26.3,243.7 
							23.4,246.5 24.1,250.4 						"/>
					</defs>
					<clipPath id="SVGID_88_">
						<use xlink:href="#SVGID_87_"  style="overflow:visible;"/>
					</clipPath>
					<polygon class="st55" points="20.6,248.5 17.1,250.4 17.8,246.5 15,243.7 18.9,243.2 20.6,239.6 22.4,243.2 26.3,243.7 
						23.4,246.5 24.1,250.4 					"/>
				</g>
			</g>
		</g>
		<g>
			<g>
				<g>
					<defs>
						<polygon id="SVGID_89_" points="20.6,248.5 17.1,250.4 17.8,246.5 15,243.7 18.9,243.2 20.6,239.6 22.4,243.2 26.3,243.7 
							23.4,246.5 24.1,250.4 						"/>
					</defs>
					<clipPath id="SVGID_90_">
						<use xlink:href="#SVGID_89_"  style="overflow:visible;"/>
					</clipPath>
					<rect x="15" y="239.6" class="st56" width="5.6" height="10.7"/>
				</g>
			</g>
		</g>
	</g>
</g>
<g>
	<polygon class="st20" points="72.2,263.8 68.7,265.6 69.3,261.7 66.5,259 70.4,258.4 72.2,254.9 73.9,258.4 77.8,259 75,261.7 
		75.6,265.6 	"/>
	<polygon class="st20" points="59.3,263.8 55.8,265.6 56.5,261.7 53.6,259 57.5,258.4 59.3,254.9 61,258.4 64.9,259 62.1,261.7 
		62.8,265.6 	"/>
	<polygon class="st20" points="46.4,263.8 42.9,265.6 43.6,261.7 40.8,259 44.7,258.4 46.4,254.9 48.1,258.4 52,259 49.2,261.7 
		49.9,265.6 	"/>
	<polygon class="st20" points="33.5,263.8 30,265.6 30.7,261.7 27.9,259 31.8,258.4 33.5,254.9 35.3,258.4 39.1,259 36.3,261.7 
		37,265.6 	"/>
	<polygon class="st20" points="20.6,263.8 17.1,265.6 17.8,261.7 15,259 18.9,258.4 20.6,254.9 22.4,258.4 26.3,259 23.4,261.7 
		24.1,265.6 	"/>
</g>
<g>
	<path class="st57" d="M125.3,220.1l7.7-7.7l1.5,1.5l-9,9l-4.2-4.2l1.3-1.3L125.3,220.1z"/>
</g>
<path class="st57" d="M129.3,240.4v-1.1l-3,1.7l3,1.7v-1.1c2.4,0.6,4.2,2.8,4.2,5.4c0,3.1-2.5,5.6-5.6,5.6s-5.6-2.5-5.6-5.6H121
	c0,3.8,3.1,6.9,6.9,6.9s6.9-3.1,6.9-6.9C134.8,243.8,132.4,241,129.3,240.4z"/>
<g>
	<rect x="120.8" y="186.3" class="st57" width="14.5" height="0.9"/>
	<rect x="120.8" y="191.1" class="st57" width="14.5" height="0.9"/>
	<circle class="st57" cx="123.8" cy="186.8" r="1.4"/>
	<circle class="st57" cx="131" cy="191.6" r="1.4"/>
	<rect x="120.8" y="195.6" class="st57" width="14.5" height="0.9"/>
	<circle class="st57" cx="126.4" cy="196" r="1.4"/>
</g>
<g>
	<circle class="st58" cx="165.7" cy="193.6" r="8.6"/>
</g>
<g>
	<path class="st10" d="M172.9,226.9H168c-0.2,0-0.4,0.2-0.4,0.4v0.7c0,0.2,0.2,0.4,0.4,0.4h2.9l-4.1,4.1c-0.1,0.1-0.1,0.4,0,0.5
		l0.5,0.5c0.1,0.1,0.2,0.1,0.3,0.1s0.2,0,0.3-0.1l4.1-4.1v2.9c0,0.2,0.2,0.4,0.4,0.4h0.7c0.2,0,0.4-0.2,0.4-0.4v-4.9
		C173.3,227,173.1,226.9,172.9,226.9L172.9,226.9z"/>
	<path class="st10" d="M161,228.3h2.9c0.2,0,0.4-0.2,0.4-0.4v-0.7c0-0.2-0.2-0.4-0.4-0.4h-4.9c-0.2,0-0.4,0.2-0.4,0.4v4.9
		c0,0.2,0.2,0.4,0.4,0.4h0.7c0.2,0,0.4-0.2,0.4-0.4v-2.9l4.1,4.1c0.1,0.1,0.2,0.1,0.3,0.1s0.2,0,0.3-0.1l0.5-0.5
		c0.1-0.1,0.1-0.4,0-0.5L161,228.3z"/>
	<path class="st10" d="M172.9,235.8h-0.7c-0.2,0-0.4,0.2-0.4,0.4v2.9l-4.1-4.1c-0.1-0.1-0.4-0.1-0.5,0l-0.5,0.5
		c-0.1,0.1-0.1,0.4,0,0.5l4.1,4.1H168c-0.2,0-0.4,0.2-0.4,0.4v0.7c0,0.2,0.2,0.4,0.4,0.4h4.9c0.2,0,0.4-0.2,0.4-0.4v-4.9
		C173.3,236,173.1,235.8,172.9,235.8L172.9,235.8z"/>
	<path class="st10" d="M164.6,235c-0.1-0.1-0.4-0.1-0.5,0L160,239v-2.9c0-0.2-0.2-0.4-0.4-0.4h-0.7c-0.2,0-0.4,0.2-0.4,0.4v4.9
		c0,0.2,0.2,0.4,0.4,0.4h4.9c0.2,0,0.4-0.2,0.4-0.4v-0.7c0-0.2-0.2-0.4-0.4-0.4H161l4.1-4.1c0.1-0.1,0.1-0.4,0-0.5L164.6,235z"/>
</g>
<g>
	<path class="st10" d="M164,190.3v6.6l5.2-3.3L164,190.3z"/>
</g>
<g>
	<g>
		<path class="st10" d="M163.9,267.8c0.2,0,0.4,0,0.5,0.1s0.3,0.1,0.4,0.2c0.1,0.1,0.2,0.2,0.3,0.4s0.1,0.3,0.1,0.5
			c0,0.1,0,0.3-0.1,0.4c0,0.1-0.1,0.2-0.1,0.3c-0.1,0.1-0.1,0.1-0.2,0.2c-0.1,0.1-0.2,0.1-0.3,0.1c0.3,0.1,0.5,0.2,0.6,0.4
			c0.1,0.2,0.2,0.4,0.2,0.6c0,0.2,0,0.4-0.1,0.5c-0.1,0.2-0.2,0.3-0.3,0.4s-0.3,0.2-0.4,0.3c-0.2,0.1-0.4,0.1-0.6,0.1
			c-0.2,0-0.4,0-0.6-0.1c-0.2-0.1-0.3-0.1-0.4-0.2c-0.1-0.1-0.2-0.2-0.3-0.4c-0.1-0.1-0.1-0.3-0.2-0.5l0.2-0.1c0,0,0.1,0,0.1,0
			c0,0,0.1,0,0.1,0s0.1,0,0.1,0.1c0,0,0,0,0,0s0,0,0,0c0,0.1,0.1,0.1,0.1,0.2c0,0.1,0.1,0.1,0.2,0.2c0.1,0.1,0.1,0.1,0.3,0.2
			s0.2,0.1,0.4,0.1s0.3,0,0.4-0.1c0.1,0,0.2-0.1,0.3-0.2c0.1-0.1,0.1-0.2,0.2-0.3c0-0.1,0.1-0.2,0.1-0.3c0-0.1,0-0.2-0.1-0.3
			s-0.1-0.2-0.2-0.3s-0.2-0.1-0.3-0.2c-0.1,0-0.3-0.1-0.6-0.1v-0.4c0.2,0,0.3,0,0.5-0.1s0.2-0.1,0.3-0.2c0.1-0.1,0.1-0.1,0.2-0.2
			s0.1-0.2,0.1-0.3s0-0.2-0.1-0.3s-0.1-0.2-0.2-0.2s-0.1-0.1-0.2-0.1c-0.1,0-0.2,0-0.3,0s-0.2,0-0.3,0s-0.2,0.1-0.2,0.1
			c-0.1,0.1-0.1,0.1-0.2,0.2s-0.1,0.2-0.1,0.3c0,0.1,0,0.1-0.1,0.1c0,0-0.1,0-0.1,0c0,0,0,0,0,0s0,0,0,0l-0.3,0
			c0-0.2,0.1-0.4,0.2-0.5s0.2-0.3,0.3-0.4s0.3-0.2,0.4-0.2C163.5,267.8,163.7,267.8,163.9,267.8z"/>
		<path class="st10" d="M167.4,269.5c0.2,0,0.3,0,0.5,0.1s0.3,0.1,0.4,0.3s0.2,0.2,0.3,0.4s0.1,0.3,0.1,0.5s0,0.4-0.1,0.5
			c-0.1,0.2-0.2,0.3-0.3,0.4c-0.1,0.1-0.3,0.2-0.5,0.3c-0.2,0.1-0.4,0.1-0.6,0.1s-0.4,0-0.6-0.1c-0.2-0.1-0.3-0.2-0.4-0.3
			c-0.1-0.1-0.2-0.3-0.3-0.5s-0.1-0.4-0.1-0.6c0-0.2,0-0.4,0.1-0.6c0.1-0.2,0.2-0.4,0.4-0.7l1.1-1.5c0,0,0.1-0.1,0.1-0.1
			c0.1,0,0.1,0,0.2,0h0.5l-1.5,1.9c0.1-0.1,0.2-0.1,0.3-0.2C167.1,269.5,167.3,269.5,167.4,269.5z M166.3,270.8c0,0.1,0,0.3,0.1,0.4
			c0,0.1,0.1,0.2,0.2,0.3c0.1,0.1,0.2,0.1,0.3,0.2s0.2,0.1,0.4,0.1s0.3,0,0.4-0.1c0.1,0,0.2-0.1,0.3-0.2c0.1-0.1,0.1-0.2,0.2-0.3
			c0.1-0.1,0.1-0.2,0.1-0.4s0-0.3-0.1-0.4c0-0.1-0.1-0.2-0.2-0.3c-0.1-0.1-0.2-0.1-0.3-0.2c-0.1,0-0.2-0.1-0.4-0.1
			c-0.1,0-0.3,0-0.4,0.1c-0.1,0-0.2,0.1-0.3,0.2c-0.1,0.1-0.1,0.2-0.2,0.3C166.3,270.5,166.3,270.7,166.3,270.8z"/>
		<path class="st10" d="M172.3,270c0,0.4,0,0.7-0.1,1s-0.2,0.5-0.3,0.7s-0.3,0.3-0.5,0.4s-0.4,0.1-0.6,0.1c-0.2,0-0.4,0-0.6-0.1
			s-0.4-0.2-0.5-0.4s-0.3-0.4-0.3-0.7c-0.1-0.3-0.1-0.6-0.1-1s0-0.7,0.1-1s0.2-0.5,0.3-0.7c0.1-0.2,0.3-0.3,0.5-0.4
			c0.2-0.1,0.4-0.1,0.6-0.1s0.4,0,0.6,0.1s0.4,0.2,0.5,0.4s0.3,0.4,0.3,0.7S172.3,269.6,172.3,270z M171.7,270c0-0.3,0-0.6-0.1-0.8
			c-0.1-0.2-0.1-0.4-0.2-0.5s-0.2-0.2-0.3-0.3s-0.3-0.1-0.4-0.1s-0.3,0-0.4,0.1s-0.2,0.2-0.3,0.3c-0.1,0.1-0.2,0.3-0.2,0.5
			s-0.1,0.5-0.1,0.8s0,0.6,0.1,0.8c0.1,0.2,0.1,0.4,0.2,0.5s0.2,0.2,0.3,0.3s0.3,0.1,0.4,0.1s0.3,0,0.4-0.1s0.2-0.2,0.3-0.3
			c0.1-0.1,0.2-0.3,0.2-0.5C171.7,270.6,171.7,270.3,171.7,270z"/>
		<path class="st10" d="M173.4,268.3c0.1,0,0.3,0,0.4,0.1s0.2,0.1,0.3,0.2c0.1,0.1,0.1,0.2,0.2,0.3c0,0.1,0.1,0.2,0.1,0.4
			s0,0.3-0.1,0.4c0,0.1-0.1,0.2-0.2,0.3s-0.2,0.1-0.3,0.2c-0.1,0-0.2,0.1-0.4,0.1s-0.3,0-0.4-0.1s-0.2-0.1-0.3-0.2
			c-0.1-0.1-0.1-0.2-0.2-0.3c0-0.1-0.1-0.2-0.1-0.4s0-0.3,0.1-0.4c0-0.1,0.1-0.2,0.2-0.3c0.1-0.1,0.2-0.1,0.3-0.2
			C173.2,268.3,173.3,268.3,173.4,268.3z M173.4,269.9c0.2,0,0.3-0.1,0.4-0.2c0.1-0.1,0.1-0.3,0.1-0.5s0-0.4-0.1-0.5
			c-0.1-0.1-0.2-0.2-0.4-0.2c-0.1,0-0.2,0-0.2,0c-0.1,0-0.1,0.1-0.2,0.1s-0.1,0.1-0.1,0.2s0,0.2,0,0.3c0,0.1,0,0.2,0,0.3
			s0.1,0.1,0.1,0.2c0,0.1,0.1,0.1,0.2,0.1C173.3,269.9,173.3,269.9,173.4,269.9z"/>
	</g>
	<polygon class="st10" points="163.9,275.2 166.6,276.3 163.9,277.9 	"/>
	<path class="st10" d="M154.9,273c0-1,2.2-2,5.9-2.7v-1c-3.9,0.6-6.9,1.9-6.9,3.6c0,2.4,5.6,3.7,10.4,4l0.1-0.9
		C158.3,275.6,154.9,274.1,154.9,273z"/>
	<path class="st10" d="M175.6,270.2v1c1.5,0.5,2.3,1.2,2.3,1.8c0,1.4-2.9,2.5-8.4,2.8v1.2c6.4-0.4,9.5-2,9.5-4
		C179,271.8,177.6,270.9,175.6,270.2z"/>
</g>
<circle class="st58" cx="164.1" cy="152.5" r="6.9"/>
<line class="st58" x1="168.4" y1="157.4" x2="173.8" y2="163.3"/>
<g>
	<line class="st58" x1="164.1" y1="155.6" x2="164.1" y2="149.4"/>
	<line class="st58" x1="167.2" y1="152.5" x2="161" y2="152.5"/>
</g>
<line class="st59" x1="83.8" y1="277" x2="100.1" y2="277"/>
<line class="st59" x1="91.9" y1="285.2" x2="91.9" y2="268.8"/>
<line class="st59" x1="117.8" y1="276.7" x2="134.1" y2="276.7"/>
<path d="M223,91h-17.1c-0.1,0-0.1,0-0.2-0.1s-0.1-0.1-0.1-0.2v-5.9c0-0.1,0.1-0.2,0.3-0.2H223c0.1,0,0.1,0,0.2,0.1s0.1,0.1,0.1,0.2
	v5.9C223.3,90.9,223.1,91,223,91L223,91z M206.1,90.6h16.6v-5.5h-16.6V90.6z"/>
<path d="M220.1,87.2c-0.1,0-0.3-0.1-0.3-0.3V85c0-0.2,0.1-0.3,0.3-0.3c0.1,0,0.3,0.1,0.3,0.3v1.9C220.3,87.1,220.2,87.2,220.1,87.2
	L220.1,87.2z"/>
<path d="M217.2,88.4c-0.1,0-0.3-0.1-0.3-0.3V85c0-0.2,0.1-0.3,0.3-0.3c0.1,0,0.3,0.1,0.3,0.3v3.2C217.5,88.3,217.4,88.4,217.2,88.4
	L217.2,88.4z"/>
<path d="M214.4,87.2c-0.1,0-0.3-0.1-0.3-0.3V85c0-0.2,0.1-0.3,0.3-0.3c0.1,0,0.3,0.1,0.3,0.3v1.9C214.7,87.1,214.6,87.2,214.4,87.2
	L214.4,87.2z"/>
<path d="M211.6,88.4c-0.1,0-0.3-0.1-0.3-0.3V85c0-0.2,0.1-0.3,0.3-0.3c0.1,0,0.3,0.1,0.3,0.3v3.2C211.9,88.3,211.7,88.4,211.6,88.4
	L211.6,88.4z"/>
<path d="M208.8,87.2c-0.1,0-0.3-0.1-0.3-0.3V85c0-0.2,0.1-0.3,0.3-0.3c0.1,0,0.3,0.1,0.3,0.3v1.9C209.1,87.1,208.9,87.2,208.8,87.2
	L208.8,87.2z"/>
<path class="st60" d="M249.3,91h-17.1c-0.1,0-0.1,0-0.2-0.1s-0.1-0.1-0.1-0.2v-5.9c0-0.1,0.1-0.2,0.3-0.2h17.1c0.1,0,0.1,0,0.2,0.1
	s0.1,0.1,0.1,0.2v5.9C249.6,90.9,249.4,91,249.3,91L249.3,91z M232.4,90.6H249v-5.5h-16.6V90.6z"/>
<path class="st60" d="M246.4,87.2c-0.1,0-0.3-0.1-0.3-0.3V85c0-0.2,0.1-0.3,0.3-0.3c0.1,0,0.3,0.1,0.3,0.3v1.9
	C246.6,87.1,246.5,87.2,246.4,87.2L246.4,87.2z"/>
<path class="st60" d="M243.5,88.4c-0.1,0-0.3-0.1-0.3-0.3V85c0-0.2,0.1-0.3,0.3-0.3c0.1,0,0.3,0.1,0.3,0.3v3.2
	C243.8,88.3,243.7,88.4,243.5,88.4L243.5,88.4z"/>
<path class="st60" d="M240.7,87.2c-0.1,0-0.3-0.1-0.3-0.3V85c0-0.2,0.1-0.3,0.3-0.3c0.1,0,0.3,0.1,0.3,0.3v1.9
	C241,87.1,240.9,87.2,240.7,87.2L240.7,87.2z"/>
<path class="st60" d="M237.9,88.4c-0.1,0-0.3-0.1-0.3-0.3V85c0-0.2,0.1-0.3,0.3-0.3c0.1,0,0.3,0.1,0.3,0.3v3.2
	C238.2,88.3,238,88.4,237.9,88.4L237.9,88.4z"/>
<path class="st60" d="M235.1,87.2c-0.1,0-0.3-0.1-0.3-0.3V85c0-0.2,0.1-0.3,0.3-0.3c0.1,0,0.3,0.1,0.3,0.3v1.9
	C235.4,87.1,235.2,87.2,235.1,87.2L235.1,87.2z"/>
<g>
	<circle class="st61" cx="249.7" cy="193.6" r="8.6"/>
</g>
<g>
	<path class="st62" d="M257,226.9H252c-0.2,0-0.4,0.2-0.4,0.4v0.7c0,0.2,0.2,0.4,0.4,0.4h2.9l-4.1,4.1c-0.1,0.1-0.1,0.4,0,0.5
		l0.5,0.5c0.1,0.1,0.2,0.1,0.3,0.1s0.2,0,0.3-0.1l4.1-4.1v2.9c0,0.2,0.2,0.4,0.4,0.4h0.7c0.2,0,0.4-0.2,0.4-0.4v-4.9
		C257.3,227,257.2,226.9,257,226.9L257,226.9z"/>
	<path class="st62" d="M245,228.3h2.9c0.2,0,0.4-0.2,0.4-0.4v-0.7c0-0.2-0.2-0.4-0.4-0.4h-4.9c-0.2,0-0.4,0.2-0.4,0.4v4.9
		c0,0.2,0.2,0.4,0.4,0.4h0.7c0.2,0,0.4-0.2,0.4-0.4v-2.9l4.1,4.1c0.1,0.1,0.2,0.1,0.3,0.1s0.2,0,0.3-0.1l0.5-0.5
		c0.1-0.1,0.1-0.4,0-0.5L245,228.3z"/>
	<path class="st62" d="M257,235.8h-0.7c-0.2,0-0.4,0.2-0.4,0.4v2.9l-4.1-4.1c-0.1-0.1-0.4-0.1-0.5,0l-0.5,0.5
		c-0.1,0.1-0.1,0.4,0,0.5l4.1,4.1H252c-0.2,0-0.4,0.2-0.4,0.4v0.7c0,0.2,0.2,0.4,0.4,0.4h4.9c0.2,0,0.4-0.2,0.4-0.4v-4.9
		C257.3,236,257.2,235.8,257,235.8L257,235.8z"/>
	<path class="st62" d="M248.6,235c-0.1-0.1-0.4-0.1-0.5,0L244,239v-2.9c0-0.2-0.2-0.4-0.4-0.4h-0.7c-0.2,0-0.4,0.2-0.4,0.4v4.9
		c0,0.2,0.2,0.4,0.4,0.4h4.9c0.2,0,0.4-0.2,0.4-0.4v-0.7c0-0.2-0.2-0.4-0.4-0.4H245l4.1-4.1c0.1-0.1,0.1-0.4,0-0.5L248.6,235z"/>
</g>
<g>
	<path class="st62" d="M248,190.3v6.6l5.2-3.3L248,190.3z"/>
</g>
<g>
	<g>
		<path class="st62" d="M247.9,267.8c0.2,0,0.4,0,0.5,0.1s0.3,0.1,0.4,0.2c0.1,0.1,0.2,0.2,0.3,0.4s0.1,0.3,0.1,0.5
			c0,0.1,0,0.3-0.1,0.4c0,0.1-0.1,0.2-0.1,0.3c-0.1,0.1-0.1,0.1-0.2,0.2c-0.1,0.1-0.2,0.1-0.3,0.1c0.3,0.1,0.5,0.2,0.6,0.4
			c0.1,0.2,0.2,0.4,0.2,0.6c0,0.2,0,0.4-0.1,0.5c-0.1,0.2-0.2,0.3-0.3,0.4s-0.3,0.2-0.4,0.3c-0.2,0.1-0.4,0.1-0.6,0.1
			c-0.2,0-0.4,0-0.6-0.1c-0.2-0.1-0.3-0.1-0.4-0.2c-0.1-0.1-0.2-0.2-0.3-0.4c-0.1-0.1-0.1-0.3-0.2-0.5l0.2-0.1c0,0,0.1,0,0.1,0
			c0,0,0.1,0,0.1,0s0.1,0,0.1,0.1c0,0,0,0,0,0s0,0,0,0c0,0.1,0.1,0.1,0.1,0.2c0,0.1,0.1,0.1,0.2,0.2c0.1,0.1,0.1,0.1,0.3,0.2
			s0.2,0.1,0.4,0.1s0.3,0,0.4-0.1c0.1,0,0.2-0.1,0.3-0.2c0.1-0.1,0.1-0.2,0.2-0.3c0-0.1,0.1-0.2,0.1-0.3c0-0.1,0-0.2-0.1-0.3
			s-0.1-0.2-0.2-0.3s-0.2-0.1-0.3-0.2c-0.1,0-0.3-0.1-0.6-0.1v-0.4c0.2,0,0.3,0,0.5-0.1s0.2-0.1,0.3-0.2c0.1-0.1,0.1-0.1,0.2-0.2
			s0.1-0.2,0.1-0.3s0-0.2-0.1-0.3s-0.1-0.2-0.2-0.2s-0.1-0.1-0.2-0.1c-0.1,0-0.2,0-0.3,0s-0.2,0-0.3,0s-0.2,0.1-0.2,0.1
			c-0.1,0.1-0.1,0.1-0.2,0.2s-0.1,0.2-0.1,0.3c0,0.1,0,0.1-0.1,0.1c0,0-0.1,0-0.1,0c0,0,0,0,0,0s0,0,0,0l-0.3,0
			c0-0.2,0.1-0.4,0.2-0.5s0.2-0.3,0.3-0.4s0.3-0.2,0.4-0.2C247.5,267.8,247.7,267.8,247.9,267.8z"/>
		<path class="st62" d="M251.4,269.5c0.2,0,0.3,0,0.5,0.1s0.3,0.1,0.4,0.3s0.2,0.2,0.3,0.4s0.1,0.3,0.1,0.5s0,0.4-0.1,0.5
			c-0.1,0.2-0.2,0.3-0.3,0.4c-0.1,0.1-0.3,0.2-0.5,0.3c-0.2,0.1-0.4,0.1-0.6,0.1s-0.4,0-0.6-0.1c-0.2-0.1-0.3-0.2-0.4-0.3
			c-0.1-0.1-0.2-0.3-0.3-0.5s-0.1-0.4-0.1-0.6c0-0.2,0-0.4,0.1-0.6c0.1-0.2,0.2-0.4,0.4-0.7l1.1-1.5c0,0,0.1-0.1,0.1-0.1
			c0.1,0,0.1,0,0.2,0h0.5l-1.5,1.9c0.1-0.1,0.2-0.1,0.3-0.2C251.2,269.5,251.3,269.5,251.4,269.5z M250.3,270.8c0,0.1,0,0.3,0.1,0.4
			c0,0.1,0.1,0.2,0.2,0.3c0.1,0.1,0.2,0.1,0.3,0.2s0.2,0.1,0.4,0.1s0.3,0,0.4-0.1c0.1,0,0.2-0.1,0.3-0.2c0.1-0.1,0.1-0.2,0.2-0.3
			c0.1-0.1,0.1-0.2,0.1-0.4s0-0.3-0.1-0.4c0-0.1-0.1-0.2-0.2-0.3c-0.1-0.1-0.2-0.1-0.3-0.2c-0.1,0-0.2-0.1-0.4-0.1
			c-0.1,0-0.3,0-0.4,0.1c-0.1,0-0.2,0.1-0.3,0.2c-0.1,0.1-0.1,0.2-0.2,0.3C250.4,270.5,250.3,270.7,250.3,270.8z"/>
		<path class="st62" d="M256.3,270c0,0.4,0,0.7-0.1,1s-0.2,0.5-0.3,0.7s-0.3,0.3-0.5,0.4s-0.4,0.1-0.6,0.1c-0.2,0-0.4,0-0.6-0.1
			s-0.4-0.2-0.5-0.4s-0.3-0.4-0.3-0.7c-0.1-0.3-0.1-0.6-0.1-1s0-0.7,0.1-1s0.2-0.5,0.3-0.7c0.1-0.2,0.3-0.3,0.5-0.4
			c0.2-0.1,0.4-0.1,0.6-0.1s0.4,0,0.6,0.1s0.4,0.2,0.5,0.4s0.3,0.4,0.3,0.7C256.2,269.3,256.3,269.6,256.3,270z M255.7,270
			c0-0.3,0-0.6-0.1-0.8c-0.1-0.2-0.1-0.4-0.2-0.5s-0.2-0.2-0.3-0.3s-0.3-0.1-0.4-0.1s-0.3,0-0.4,0.1s-0.2,0.2-0.3,0.3
			c-0.1,0.1-0.2,0.3-0.2,0.5s-0.1,0.5-0.1,0.8s0,0.6,0.1,0.8c0.1,0.2,0.1,0.4,0.2,0.5s0.2,0.2,0.3,0.3s0.3,0.1,0.4,0.1
			s0.3,0,0.4-0.1s0.2-0.2,0.3-0.3c0.1-0.1,0.2-0.3,0.2-0.5C255.7,270.6,255.7,270.3,255.7,270z"/>
		<path class="st62" d="M257.4,268.3c0.1,0,0.3,0,0.4,0.1s0.2,0.1,0.3,0.2c0.1,0.1,0.1,0.2,0.2,0.3c0,0.1,0.1,0.2,0.1,0.4
			s0,0.3-0.1,0.4c0,0.1-0.1,0.2-0.2,0.3s-0.2,0.1-0.3,0.2c-0.1,0-0.2,0.1-0.4,0.1s-0.3,0-0.4-0.1s-0.2-0.1-0.3-0.2
			c-0.1-0.1-0.1-0.2-0.2-0.3c0-0.1-0.1-0.2-0.1-0.4s0-0.3,0.1-0.4c0-0.1,0.1-0.2,0.2-0.3c0.1-0.1,0.2-0.1,0.3-0.2
			S257.3,268.3,257.4,268.3z M257.4,269.9c0.2,0,0.3-0.1,0.4-0.2c0.1-0.1,0.1-0.3,0.1-0.5s0-0.4-0.1-0.5c-0.1-0.1-0.2-0.2-0.4-0.2
			c-0.1,0-0.2,0-0.2,0c-0.1,0-0.1,0.1-0.2,0.1s-0.1,0.1-0.1,0.2c0,0.1,0,0.2,0,0.3c0,0.1,0,0.2,0,0.3s0,0.1,0.1,0.2
			c0,0.1,0.1,0.1,0.2,0.1C257.3,269.9,257.3,269.9,257.4,269.9z"/>
	</g>
	<polygon class="st62" points="247.9,275.2 250.6,276.3 247.9,277.9 	"/>
	<path class="st62" d="M238.9,273c0-1,2.2-2,5.9-2.7v-1c-3.9,0.6-6.9,1.9-6.9,3.6c0,2.4,5.6,3.7,10.4,4l0.1-0.9
		C242.3,275.6,238.9,274.1,238.9,273z"/>
	<path class="st62" d="M259.6,270.2v1c1.5,0.5,2.3,1.2,2.3,1.8c0,1.4-2.9,2.5-8.4,2.8v1.2c6.4-0.4,9.5-2,9.5-4
		C263,271.8,261.7,270.9,259.6,270.2z"/>
</g>
<circle class="st61" cx="248.1" cy="152.5" r="6.9"/>
<line class="st61" x1="252.4" y1="157.4" x2="257.8" y2="163.3"/>
<g>
	<line class="st61" x1="248.1" y1="155.6" x2="248.1" y2="149.4"/>
	<line class="st61" x1="251.2" y1="152.5" x2="245" y2="152.5"/>
</g>
<g>
	<line class="st63" x1="217.9" y1="127.6" x2="208.9" y2="136.6"/>
	<line class="st63" x1="217.9" y1="136.6" x2="208.9" y2="127.6"/>
</g>
<g>
	<path class="st64" d="M188.4,114.2l6.9-6.9l1.5,1.5l-8.2,8.2l-4.8-4.8l1.3-1.3L188.4,114.2z"/>
</g>
<polygon class="st65" points="20.6,96.1 17.1,97.9 17.8,94 15,91.3 18.9,90.7 20.6,87.2 22.4,90.7 26.3,91.3 23.4,94 24.1,97.9 "/>
<g id="XMLID_27_">
	<path id="XMLID_31_" class="st64" d="M17.7,283.9c-0.6,0-1.1-0.3-1.1-0.8l0.6-7.1h1.1v0.9c0,0.2,0.2,0.3,0.4,0.3s0.4-0.1,0.4-0.3
		V276h3.2v0.9c0,0.2,0.1,0.3,0.3,0.3s0.3-0.1,0.3-0.3V276H24l0.3,3.3l0.7,0.2l-0.4-3.9c0-0.2-0.2-0.3-0.3-0.3h-1.4
		c0-1.1-1-2.3-2.3-2.3s-2.3,1.1-2.3,2.3h-1.4c-0.2,0-0.3,0.1-0.3,0.3l-0.7,7.5v0.1c0,0.9,0.8,1.6,1.7,1.6h4l-0.7-0.8L17.7,283.9
		C17.7,283.9,17.7,283.9,17.7,283.9z M20.6,273.6c0.9,0,1.6,0.7,1.6,1.6h-3.3C19,274.3,19.7,273.6,20.6,273.6z"/>
	<polygon id="XMLID_32_" class="st64" points="25.3,281.5 23.6,281.5 23.6,279.7 22.8,279.7 22.8,281.5 21.1,281.5 21.1,282.2 
		22.8,282.2 22.8,283.9 23.6,283.9 23.6,282.2 25.3,282.2 	"/>
</g>
<g>
	<polygon class="st66" points="68.5,280.1 62.4,275.7 62.4,284.6 	"/>
	<polygon class="st66" points="74.5,280.1 68.5,275.7 68.5,284.6 	"/>
</g>
<g>
	<polygon class="st64" points="47.5,280.1 41.4,275.7 41.4,284.6 	"/>
	<polygon class="st64" points="53.5,280.1 47.5,275.7 47.5,284.6 	"/>
</g>
<path class="st67" d="M211.6,270.7c0,0.1,0,0.2-0.1,0.2s-0.1,0.1-0.1,0.2c-0.1,0.1-0.1,0.1-0.2,0.1s-0.1,0-0.2,0.1
	c0,0-0.2,0-0.2-0.1c-0.1,0-0.1-0.1-0.2-0.1s-0.1-0.1-0.1-0.2s-0.1-0.1-0.1-0.2c0-0.1,0-0.2,0.1-0.2c0-0.1,0.1-0.1,0.1-0.2
	c0-0.1,0.1-0.1,0.2-0.1s0.1-0.1,0.2-0.1s0.2,0,0.2,0.1c0.1,0,0.1,0.1,0.2,0.1s0.1,0.1,0.1,0.2S211.6,270.6,211.6,270.7z
	 M211.4,271.8v4h-1v-4H211.4z"/>
<circle class="st68" cx="210.9" cy="273.2" r="6.8"/>
</svg>
