<?xml version="1.0" encoding="utf-8"?>
<!-- Generator: Adobe Illustrator 21.1.0, SVG Export Plug-In . SVG Version: 6.00 Build 0)  -->
<svg version="1.1" id="Layer_1" xmlns="http://www.w3.org/2000/svg" xmlns:xlink="http://www.w3.org/1999/xlink" x="0px" y="0px"
	 viewBox="0 0 20 20" style="enable-background:new 0 0 20 20;" xml:space="preserve">
<path id="close_1_" d="M18.1,19.7L10,11.6l-8.1,8.1c-0.4,0.4-1.1,0.4-1.6,0c-0.4-0.4-0.4-1.1,0-1.6L8.4,10L0.3,1.9
	c-0.4-0.4-0.4-1.1,0-1.6s1.1-0.4,1.6,0l0,0L10,8.4l8.1-8.1c0.4-0.4,1.1-0.4,1.6,0c0.4,0.4,0.4,1.1,0,1.6L11.6,10l8.1,8.1
	c0.4,0.4,0.4,1.1,0,1.6C19.2,20.1,18.6,20.1,18.1,19.7L18.1,19.7z"/>
</svg>
